<svg width="14" height="14" viewBox="0 0 14 14" fill="none" xmlns="http://www.w3.org/2000/svg">
<path d="M2.13714 13.4472L0.534286 11.8443L11.7543 0.62432L13.3571 2.24499L2.13714 13.4472ZM10.6857 13.7143C10.098 13.7143 9.56075 13.5718 9.07395 13.2869C8.5931 12.996 8.20722 12.6101 7.91633 12.1293C7.62544 11.6425 7.48 11.1023 7.48 10.5086C7.48 9.92683 7.62841 9.39254 7.92524 8.90575C8.22206 8.41895 8.61387 8.03011 9.10067 7.73922C9.58746 7.44834 10.1158 7.30289 10.6857 7.30289C11.2734 7.30289 11.8107 7.44834 12.2975 7.73922C12.7843 8.02418 13.1701 8.41005 13.4551 8.89684C13.746 9.3777 13.8914 9.91496 13.8914 10.5086C13.8914 11.1023 13.746 11.6425 13.4551 12.1293C13.1701 12.6101 12.7843 12.996 12.2975 13.2869C11.8107 13.5718 11.2734 13.7143 10.6857 13.7143ZM10.6857 11.6662C10.8935 11.6662 11.0835 11.6128 11.2556 11.5059C11.4337 11.3991 11.5762 11.2596 11.683 11.0874C11.7899 10.9093 11.8433 10.7164 11.8433 10.5086C11.8433 10.3008 11.7899 10.1109 11.683 9.9387C11.5762 9.76061 11.4337 9.61813 11.2556 9.51127C11.0835 9.40442 10.8935 9.35099 10.6857 9.35099C10.4779 9.35099 10.285 9.40442 10.1069 9.51127C9.93475 9.61813 9.79524 9.76061 9.68838 9.9387C9.58152 10.1109 9.5281 10.3008 9.5281 10.5086C9.5281 10.7164 9.58152 10.9093 9.68838 11.0874C9.79524 11.2596 9.93475 11.3991 10.1069 11.5059C10.285 11.6128 10.4779 11.6662 10.6857 11.6662ZM3.20571 6.76861C2.618 6.76861 2.08075 6.62613 1.59395 6.34118C1.10716 6.05029 0.718318 5.66442 0.427429 5.18356C0.142476 4.69676 0 4.15654 0 3.56289C0 2.98111 0.148413 2.44683 0.445238 1.96003C0.742063 1.47324 1.13387 1.0844 1.62067 0.79351C2.10746 0.502622 2.63581 0.357178 3.20571 0.357178C3.79343 0.357178 4.32771 0.502622 4.80857 0.79351C5.29536 1.07846 5.68421 1.46434 5.97509 1.95113C6.26598 2.43199 6.41143 2.96924 6.41143 3.56289C6.41143 4.15654 6.26598 4.69676 5.97509 5.18356C5.68421 5.66442 5.29536 6.05029 4.80857 6.34118C4.32771 6.62613 3.79343 6.76861 3.20571 6.76861ZM3.20571 4.72051C3.41349 4.72051 3.60346 4.66708 3.77562 4.56023C3.95371 4.45337 4.09619 4.31386 4.20305 4.1417C4.3099 3.96361 4.36333 3.77067 4.36333 3.56289C4.36333 3.35511 4.3099 3.16515 4.20305 2.99299C4.09619 2.81489 3.95371 2.67242 3.77562 2.56556C3.60346 2.4587 3.41349 2.40527 3.20571 2.40527C2.99794 2.40527 2.805 2.4587 2.6269 2.56556C2.45475 2.67242 2.31524 2.81489 2.20838 2.99299C2.10152 3.16515 2.0481 3.35511 2.0481 3.56289C2.0481 3.77067 2.10152 3.96361 2.20838 4.1417C2.31524 4.31386 2.45475 4.45337 2.6269 4.56023C2.805 4.66708 2.99794 4.72051 3.20571 4.72051Z" fill="white"/>
</svg>
