<svg width="9" height="12" viewBox="0 0 9 12" fill="none" xmlns="http://www.w3.org/2000/svg">
<path d="M1.27971 1.90706C0.889185 1.51653 0.889185 0.883369 1.27971 0.492844C1.67023 0.10232 2.3034 0.10232 2.69392 0.492844L1.27971 1.90706ZM6.78682 5.99995L7.49392 5.29284L8.20103 5.99995L7.49392 6.70706L6.78682 5.99995ZM2.69392 11.5071C2.3034 11.8976 1.67023 11.8976 1.27971 11.5071C0.889186 11.1165 0.889186 10.4834 1.27971 10.0928L2.69392 11.5071ZM2.69392 0.492844L7.49392 5.29284L6.07971 6.70706L1.27971 1.90706L2.69392 0.492844ZM7.49392 6.70706L2.69392 11.5071L1.27971 10.0928L6.07971 5.29284L7.49392 6.70706Z" fill="white"/>
</svg>
