<svg width="24" height="24" viewBox="0 0 24 24" fill="none" xmlns="http://www.w3.org/2000/svg">
<path d="M14.3072 7.90706C14.6977 7.51653 14.6977 6.88337 14.3072 6.49284C13.9167 6.10232 13.2835 6.10232 12.893 6.49284L14.3072 7.90706ZM8.8001 12L8.09299 11.2928L7.38588 12L8.09299 12.7071L8.8001 12ZM12.893 17.5071C13.2835 17.8976 13.9167 17.8976 14.3072 17.5071C14.6977 17.1165 14.6977 16.4834 14.3072 16.0928L12.893 17.5071ZM12.893 6.49284L8.09299 11.2928L9.5072 12.7071L14.3072 7.90706L12.893 6.49284ZM8.09299 12.7071L12.893 17.5071L14.3072 16.0928L9.5072 11.2928L8.09299 12.7071Z" fill="#C2CFE0"/>
</svg>
