<svg width="24" height="24" viewBox="0 0 24 24" fill="none" xmlns="http://www.w3.org/2000/svg">
<path d="M10.0463 16.4465C9.85109 16.6418 9.85109 16.9583 10.0463 17.1536C10.2416 17.3489 10.5582 17.3489 10.7535 17.1536L10.0463 16.4465ZM15.1999 12L15.5535 12.3536L15.907 12L15.5535 11.6465L15.1999 12ZM10.7535 6.8465C10.5582 6.65123 10.2416 6.65123 10.0463 6.8465C9.85109 7.04176 9.85109 7.35834 10.0463 7.5536L10.7535 6.8465ZM10.7535 17.1536L15.5535 12.3536L14.8463 11.6465L10.0463 16.4465L10.7535 17.1536ZM15.5535 11.6465L10.7535 6.8465L10.0463 7.5536L14.8463 12.3536L15.5535 11.6465Z" fill="#C2CFE0"/>
</svg>
