<svg width="1540" height="237" viewBox="0 0 1540 237" fill="none" xmlns="http://www.w3.org/2000/svg">
<g opacity="0.2">
<path d="M109.312 121.85L110.973 154.909C110.973 154.909 114.535 156.215 120.41 156.333C125.218 156.452 129.847 154.909 129.847 154.909L131.331 126.657H121.835" stroke="#F4A519" stroke-miterlimit="10" stroke-linecap="round" stroke-linejoin="round"/>
<path d="M110.439 122.087C106.938 122.087 106.641 116.389 112.457 116.389C118.63 116.389 116.078 119.119 121.538 116.152C121.538 116.152 124.387 115.499 125.634 117.813C125.634 117.813 126.761 112.531 131.688 115.083C136.673 117.576 131.925 122.74 131.688 122.858H119.52C119.52 122.858 120.173 125.707 116.909 128.022C116.909 128.022 119.698 137.519 113.882 137.578L113.17 122.146H110.439V122.087Z" stroke="#F4A519" stroke-miterlimit="10" stroke-linecap="round" stroke-linejoin="round"/>
<path d="M113.882 141.436L114.179 148.795" stroke="#F4A519" stroke-miterlimit="10" stroke-linecap="round" stroke-linejoin="round"/>
<path d="M63.0762 81.0762H64.7974C66.8154 81.0762 68.4179 82.6787 68.4179 84.6967V99.8315C68.4179 101.85 66.8154 103.452 64.7974 103.452H63.0762" stroke="#F4A519" stroke-miterlimit="10" stroke-linecap="round" stroke-linejoin="round"/>
<path d="M43.2527 69.502H63.0171V108.971C63.0171 108.971 58.4469 111.405 52.6304 111.464C47.5854 111.583 43.1934 108.971 43.1934 108.971V76.9804H62.9577" stroke="#F4A519" stroke-miterlimit="10" stroke-linecap="round" stroke-linejoin="round"/>
<path d="M48.8906 81.4316V96.4478" stroke="#F4A519" stroke-miterlimit="10" stroke-linecap="round" stroke-linejoin="round"/>
<path d="M48.8906 99.832V103.156" stroke="#F4A519" stroke-miterlimit="10" stroke-linecap="round" stroke-linejoin="round"/>
<path d="M129.254 41.1309C129.254 41.1309 132.222 58.4024 126.168 67.1272C121.241 74.2495 127.948 77.8107 127.83 83.5679H111.211C111.092 77.87 117.799 74.3089 112.873 67.1272C106.878 58.3431 109.786 41.1309 109.786 41.1309H129.254Z" stroke="#F4A519" stroke-miterlimit="10" stroke-linecap="round" stroke-linejoin="round"/>
<path d="M113.882 45.7598C113.882 45.7598 113.526 59.1141 115.9 63.5062" stroke="#F4A519" stroke-miterlimit="10" stroke-linecap="round" stroke-linejoin="round"/>
<path d="M127.236 80.3027H116.078" stroke="#F4A519" stroke-miterlimit="10" stroke-linecap="round" stroke-linejoin="round"/>
<path d="M257.254 113.131C257.254 113.131 260.222 130.402 254.168 139.127C249.241 146.25 255.948 149.811 255.83 155.568H239.211C239.092 149.87 245.799 146.309 240.873 139.127C234.878 130.343 237.786 113.131 237.786 113.131H257.254Z" stroke="#F4A519" stroke-miterlimit="10" stroke-linecap="round" stroke-linejoin="round"/>
<path d="M241.882 117.76C241.882 117.76 241.526 131.114 243.9 135.506" stroke="#F4A519" stroke-miterlimit="10" stroke-linecap="round" stroke-linejoin="round"/>
<path d="M255.236 152.303H244.078" stroke="#F4A519" stroke-miterlimit="10" stroke-linecap="round" stroke-linejoin="round"/>
<path d="M21.1729 193.666C21.1729 193.666 24.1405 210.938 18.0866 219.662C13.1603 226.785 19.8672 230.346 19.7485 236.103H3.12977C3.01107 230.405 9.7179 226.844 4.79164 219.662C-1.20296 210.878 1.70531 193.666 1.70531 193.666H21.1729Z" stroke="#F4A519" stroke-miterlimit="10" stroke-linecap="round" stroke-linejoin="round"/>
<path d="M5.80021 198.355C5.80021 198.355 5.4441 211.71 7.8182 216.102" stroke="#F4A519" stroke-miterlimit="10" stroke-linecap="round" stroke-linejoin="round"/>
<path d="M19.1544 232.838H7.99609" stroke="#F4A519" stroke-miterlimit="10" stroke-linecap="round" stroke-linejoin="round"/>
<path d="M50.6119 150.102H75.4806C75.4806 150.102 84.977 177.7 69.9608 185.001H56.191C45.1515 179.6 47.3475 163.278 49.3062 155.028H64.7378" stroke="#F4A519" stroke-miterlimit="10" stroke-linecap="round" stroke-linejoin="round"/>
<path d="M53.1044 170.459C52.3921 167.136 52.6296 163.456 53.1637 160.191" stroke="#F4A519" stroke-miterlimit="10" stroke-linecap="round" stroke-linejoin="round"/>
<path d="M57.4372 179.599C55.7754 178.234 54.7664 176.572 54.1729 174.732" stroke="#F4A519" stroke-miterlimit="10" stroke-linecap="round" stroke-linejoin="round"/>
<path d="M76.8463 154.969H86.1053C86.1053 154.969 90.4974 177.285 76.4902 178.176" stroke="#F4A519" stroke-miterlimit="10" stroke-linecap="round" stroke-linejoin="round"/>
<path d="M50.6116 150.102C50.6116 150.102 48.2375 142.861 52.867 141.555C57.4965 140.249 59.8112 142.623 60.4641 145.828C60.4641 145.828 62.2447 142.564 65.331 143.632C67.8831 144.522 67.6457 147.253 67.6457 147.253C67.6457 147.253 69.3076 143.988 73.4623 145.116C75.8364 145.828 75.9551 148.44 75.4803 150.102" stroke="#F4A519" stroke-miterlimit="10" stroke-linecap="round" stroke-linejoin="round"/>
<path d="M240.836 54.8418H242.557C244.575 54.8418 246.178 56.4443 246.178 58.4623V73.5972C246.178 75.6152 244.575 77.2177 242.557 77.2177H240.836" stroke="#F4A519" stroke-miterlimit="10" stroke-linecap="round" stroke-linejoin="round"/>
<path d="M221.013 43.2676H240.836V82.737C240.836 82.737 236.266 85.1704 230.45 85.2298C225.405 85.3485 221.013 82.737 221.013 82.737V50.746H240.836" stroke="#F4A519" stroke-miterlimit="10" stroke-linecap="round" stroke-linejoin="round"/>
<path d="M226.651 55.1973V70.2134" stroke="#F4A519" stroke-miterlimit="10" stroke-linecap="round" stroke-linejoin="round"/>
<path d="M226.651 73.5371V76.8609" stroke="#F4A519" stroke-miterlimit="10" stroke-linecap="round" stroke-linejoin="round"/>
<path d="M368.836 126.842H370.557C372.575 126.842 374.178 128.444 374.178 130.462V145.597C374.178 147.615 372.575 149.218 370.557 149.218H368.836" stroke="#F4A519" stroke-miterlimit="10" stroke-linecap="round" stroke-linejoin="round"/>
<path d="M349.013 115.268H368.836V154.737C368.836 154.737 364.266 157.17 358.45 157.23C353.405 157.348 349.013 154.737 349.013 154.737V122.746H368.836" stroke="#F4A519" stroke-miterlimit="10" stroke-linecap="round" stroke-linejoin="round"/>
<path d="M354.651 127.197V142.213" stroke="#F4A519" stroke-miterlimit="10" stroke-linecap="round" stroke-linejoin="round"/>
<path d="M354.651 145.537V148.861" stroke="#F4A519" stroke-miterlimit="10" stroke-linecap="round" stroke-linejoin="round"/>
<path d="M182.79 91.4609C182.79 91.4609 193.592 110.276 179.585 120.9C174.005 125.173 186.291 130.752 184.451 133.661C183.977 134.432 166.883 134.432 166.349 133.661C164.39 130.871 176.854 125.173 171.216 120.9C157.209 110.276 168.011 91.4609 168.011 91.4609H182.79Z" stroke="#F4A519" stroke-miterlimit="10" stroke-linecap="round" stroke-linejoin="round"/>
<path d="M168.663 101.965C168.663 101.965 167.18 109.74 173.708 116.091" stroke="#F4A519" stroke-miterlimit="10" stroke-linecap="round" stroke-linejoin="round"/>
<path d="M171.869 131.049H183.68" stroke="#F4A519" stroke-miterlimit="10" stroke-linecap="round" stroke-linejoin="round"/>
<path d="M310.79 163.461C310.79 163.461 321.592 182.276 307.585 192.9C302.005 197.173 314.291 202.752 312.451 205.661C311.977 206.432 294.883 206.432 294.349 205.661C292.39 202.871 304.854 197.173 299.216 192.9C285.209 182.276 296.011 163.461 296.011 163.461H310.79Z" stroke="#F4A519" stroke-miterlimit="10" stroke-linecap="round" stroke-linejoin="round"/>
<path d="M296.663 173.965C296.663 173.965 295.18 181.74 301.708 188.091" stroke="#F4A519" stroke-miterlimit="10" stroke-linecap="round" stroke-linejoin="round"/>
<path d="M299.869 203.049H311.68" stroke="#F4A519" stroke-miterlimit="10" stroke-linecap="round" stroke-linejoin="round"/>
<path d="M158.871 9.91211H183.739C183.739 9.91211 193.236 37.511 178.22 44.8114H164.45C153.41 39.4103 155.606 23.0884 157.565 14.8384H172.997" stroke="#F4A519" stroke-miterlimit="10" stroke-linecap="round" stroke-linejoin="round"/>
<path d="M161.305 30.2699C160.592 26.9462 160.83 23.2663 161.364 20.002" stroke="#F4A519" stroke-miterlimit="10" stroke-linecap="round" stroke-linejoin="round"/>
<path d="M165.637 39.3513C163.976 37.9862 162.967 36.3243 162.373 34.4844" stroke="#F4A519" stroke-miterlimit="10" stroke-linecap="round" stroke-linejoin="round"/>
<path d="M185.046 14.7207H194.305C194.305 14.7207 198.697 37.0372 184.689 37.9275" stroke="#F4A519" stroke-miterlimit="10" stroke-linecap="round" stroke-linejoin="round"/>
<path d="M158.87 9.91207C158.87 9.91207 156.496 2.67107 161.126 1.36532C165.755 0.0595635 168.07 2.43366 168.723 5.63869C168.723 5.63869 170.503 2.37431 173.59 3.44265C176.142 4.33294 175.904 7.06315 175.904 7.06315C175.904 7.06315 177.566 3.79877 181.721 4.92647C184.154 5.6387 184.214 8.2502 183.739 9.91207" stroke="#F4A519" stroke-miterlimit="10" stroke-linecap="round" stroke-linejoin="round"/>
<path d="M286.871 81.9121H311.739C311.739 81.9121 321.236 109.511 306.22 116.811H292.45C281.41 111.41 283.606 95.0884 285.565 86.8384H300.997" stroke="#F4A519" stroke-miterlimit="10" stroke-linecap="round" stroke-linejoin="round"/>
<path d="M289.305 102.27C288.592 98.9462 288.83 95.2663 289.364 92.002" stroke="#F4A519" stroke-miterlimit="10" stroke-linecap="round" stroke-linejoin="round"/>
<path d="M293.637 111.351C291.976 109.986 290.967 108.324 290.373 106.484" stroke="#F4A519" stroke-miterlimit="10" stroke-linecap="round" stroke-linejoin="round"/>
<path d="M313.046 86.7207H322.305C322.305 86.7207 326.697 109.037 312.689 109.928" stroke="#F4A519" stroke-miterlimit="10" stroke-linecap="round" stroke-linejoin="round"/>
<path d="M286.87 81.9121C286.87 81.9121 284.496 74.6711 289.126 73.3653C293.755 72.0596 296.07 74.4337 296.723 77.6387C296.723 77.6387 298.503 74.3743 301.59 75.4427C304.142 76.3329 303.905 79.0632 303.905 79.0632C303.905 79.0632 305.566 75.7988 309.721 76.9265C312.155 77.6387 312.214 80.2502 311.739 81.9121" stroke="#F4A519" stroke-miterlimit="10" stroke-linecap="round" stroke-linejoin="round"/>
</g>
<g opacity="0.2">
<path d="M394.173 55C394.173 55 397.141 72.2716 391.087 80.9964C386.16 88.1187 392.867 91.6798 392.748 97.437H376.13C376.011 91.7392 382.718 88.178 377.792 80.9964C371.797 72.2122 374.705 55 374.705 55H394.173Z" stroke="#F4A519" stroke-miterlimit="10" stroke-linecap="round" stroke-linejoin="round"/>
<path d="M378.8 59.6895C378.8 59.6895 378.444 73.0438 380.818 77.4358" stroke="#F4A519" stroke-miterlimit="10" stroke-linecap="round" stroke-linejoin="round"/>
<path d="M392.154 94.1719H380.996" stroke="#F4A519" stroke-miterlimit="10" stroke-linecap="round" stroke-linejoin="round"/>
<path d="M787.173 44.334C787.173 44.334 790.141 61.6056 784.087 70.3304C779.16 77.4527 785.867 81.0138 785.748 86.771H769.13C769.011 81.0732 775.718 77.512 770.792 70.3304C764.797 61.5462 767.705 44.334 767.705 44.334H787.173Z" stroke="#F4A519" stroke-miterlimit="10" stroke-linecap="round" stroke-linejoin="round"/>
<path d="M771.8 49.0234C771.8 49.0234 771.444 62.3777 773.818 66.7698" stroke="#F4A519" stroke-miterlimit="10" stroke-linecap="round" stroke-linejoin="round"/>
<path d="M785.154 83.5059H773.996" stroke="#F4A519" stroke-miterlimit="10" stroke-linecap="round" stroke-linejoin="round"/>
<path d="M505.312 121.85L506.973 154.909C506.973 154.909 510.535 156.215 516.41 156.333C521.218 156.452 525.847 154.909 525.847 154.909L527.331 126.657H517.835" stroke="#F4A519" stroke-miterlimit="10" stroke-linecap="round" stroke-linejoin="round"/>
<path d="M506.439 122.087C502.938 122.087 502.641 116.389 508.457 116.389C514.63 116.389 512.078 119.119 517.538 116.152C517.538 116.152 520.387 115.499 521.634 117.813C521.634 117.813 522.761 112.531 527.688 115.083C532.673 117.576 527.925 122.74 527.688 122.858H515.52C515.52 122.858 516.173 125.707 512.909 128.022C512.909 128.022 515.698 137.519 509.882 137.578L509.17 122.146H506.439V122.087Z" stroke="#F4A519" stroke-miterlimit="10" stroke-linecap="round" stroke-linejoin="round"/>
<path d="M509.882 141.436L510.179 148.795" stroke="#F4A519" stroke-miterlimit="10" stroke-linecap="round" stroke-linejoin="round"/>
<path d="M459.076 81.0762H460.797C462.815 81.0762 464.418 82.6787 464.418 84.6967V99.8315C464.418 101.85 462.815 103.452 460.797 103.452H459.076" stroke="#F4A519" stroke-miterlimit="10" stroke-linecap="round" stroke-linejoin="round"/>
<path d="M439.253 69.502H459.017V108.971C459.017 108.971 454.447 111.405 448.63 111.464C443.585 111.583 439.193 108.971 439.193 108.971V76.9804H458.958" stroke="#F4A519" stroke-miterlimit="10" stroke-linecap="round" stroke-linejoin="round"/>
<path d="M444.891 81.4316V96.4478" stroke="#F4A519" stroke-miterlimit="10" stroke-linecap="round" stroke-linejoin="round"/>
<path d="M444.891 99.832V103.156" stroke="#F4A519" stroke-miterlimit="10" stroke-linecap="round" stroke-linejoin="round"/>
<path d="M525.254 41.1309C525.254 41.1309 528.222 58.4024 522.168 67.1272C517.241 74.2495 523.948 77.8107 523.83 83.5679H507.211C507.092 77.87 513.799 74.3089 508.873 67.1272C502.878 58.3431 505.786 41.1309 505.786 41.1309H525.254Z" stroke="#F4A519" stroke-miterlimit="10" stroke-linecap="round" stroke-linejoin="round"/>
<path d="M509.882 45.7598C509.882 45.7598 509.526 59.1141 511.9 63.5062" stroke="#F4A519" stroke-miterlimit="10" stroke-linecap="round" stroke-linejoin="round"/>
<path d="M523.236 80.3027H512.078" stroke="#F4A519" stroke-miterlimit="10" stroke-linecap="round" stroke-linejoin="round"/>
<path d="M653.254 113.131C653.254 113.131 656.222 130.402 650.168 139.127C645.241 146.25 651.948 149.811 651.83 155.568H635.211C635.092 149.87 641.799 146.309 636.873 139.127C630.878 130.343 633.786 113.131 633.786 113.131H653.254Z" stroke="#F4A519" stroke-miterlimit="10" stroke-linecap="round" stroke-linejoin="round"/>
<path d="M637.882 117.76C637.882 117.76 637.526 131.114 639.9 135.506" stroke="#F4A519" stroke-miterlimit="10" stroke-linecap="round" stroke-linejoin="round"/>
<path d="M651.236 152.303H640.078" stroke="#F4A519" stroke-miterlimit="10" stroke-linecap="round" stroke-linejoin="round"/>
<path d="M417.173 193.666C417.173 193.666 420.141 210.938 414.087 219.662C409.16 226.785 415.867 230.346 415.748 236.103H399.13C399.011 230.405 405.718 226.844 400.792 219.662C394.797 210.878 397.705 193.666 397.705 193.666H417.173Z" stroke="#F4A519" stroke-miterlimit="10" stroke-linecap="round" stroke-linejoin="round"/>
<path d="M401.8 198.355C401.8 198.355 401.444 211.71 403.818 216.102" stroke="#F4A519" stroke-miterlimit="10" stroke-linecap="round" stroke-linejoin="round"/>
<path d="M415.154 232.838H403.996" stroke="#F4A519" stroke-miterlimit="10" stroke-linecap="round" stroke-linejoin="round"/>
<path d="M446.612 150.102H471.481C471.481 150.102 480.977 177.7 465.961 185.001H452.191C441.151 179.6 443.348 163.278 445.306 155.028H460.738" stroke="#F4A519" stroke-miterlimit="10" stroke-linecap="round" stroke-linejoin="round"/>
<path d="M449.104 170.459C448.392 167.136 448.63 163.456 449.164 160.191" stroke="#F4A519" stroke-miterlimit="10" stroke-linecap="round" stroke-linejoin="round"/>
<path d="M453.437 179.599C451.775 178.234 450.766 176.572 450.173 174.732" stroke="#F4A519" stroke-miterlimit="10" stroke-linecap="round" stroke-linejoin="round"/>
<path d="M472.846 154.969H482.105C482.105 154.969 486.497 177.285 472.49 178.176" stroke="#F4A519" stroke-miterlimit="10" stroke-linecap="round" stroke-linejoin="round"/>
<path d="M446.612 150.102C446.612 150.102 444.237 142.861 448.867 141.555C453.496 140.249 455.811 142.623 456.464 145.828C456.464 145.828 458.245 142.564 461.331 143.632C463.883 144.522 463.646 147.253 463.646 147.253C463.646 147.253 465.308 143.988 469.462 145.116C471.836 145.828 471.955 148.44 471.48 150.102" stroke="#F4A519" stroke-miterlimit="10" stroke-linecap="round" stroke-linejoin="round"/>
<path d="M636.836 54.8418H638.557C640.575 54.8418 642.178 56.4443 642.178 58.4623V73.5972C642.178 75.6152 640.575 77.2177 638.557 77.2177H636.836" stroke="#F4A519" stroke-miterlimit="10" stroke-linecap="round" stroke-linejoin="round"/>
<path d="M617.013 43.2676H636.836V82.737C636.836 82.737 632.266 85.1704 626.45 85.2298C621.405 85.3485 617.013 82.737 617.013 82.737V50.746H636.836" stroke="#F4A519" stroke-miterlimit="10" stroke-linecap="round" stroke-linejoin="round"/>
<path d="M622.651 55.1973V70.2134" stroke="#F4A519" stroke-miterlimit="10" stroke-linecap="round" stroke-linejoin="round"/>
<path d="M622.651 73.5371V76.8609" stroke="#F4A519" stroke-miterlimit="10" stroke-linecap="round" stroke-linejoin="round"/>
<path d="M764.836 126.842H766.557C768.575 126.842 770.178 128.444 770.178 130.462V145.597C770.178 147.615 768.575 149.218 766.557 149.218H764.836" stroke="#F4A519" stroke-miterlimit="10" stroke-linecap="round" stroke-linejoin="round"/>
<path d="M745.013 115.268H764.836V154.737C764.836 154.737 760.266 157.17 754.45 157.23C749.405 157.348 745.013 154.737 745.013 154.737V122.746H764.836" stroke="#F4A519" stroke-miterlimit="10" stroke-linecap="round" stroke-linejoin="round"/>
<path d="M750.651 127.197V142.213" stroke="#F4A519" stroke-miterlimit="10" stroke-linecap="round" stroke-linejoin="round"/>
<path d="M750.651 145.537V148.861" stroke="#F4A519" stroke-miterlimit="10" stroke-linecap="round" stroke-linejoin="round"/>
<path d="M578.79 91.4609C578.79 91.4609 589.592 110.276 575.585 120.9C570.005 125.173 582.291 130.752 580.451 133.661C579.977 134.432 562.883 134.432 562.349 133.661C560.39 130.871 572.854 125.173 567.216 120.9C553.209 110.276 564.011 91.4609 564.011 91.4609H578.79Z" stroke="#F4A519" stroke-miterlimit="10" stroke-linecap="round" stroke-linejoin="round"/>
<path d="M564.663 101.965C564.663 101.965 563.18 109.74 569.708 116.091" stroke="#F4A519" stroke-miterlimit="10" stroke-linecap="round" stroke-linejoin="round"/>
<path d="M567.869 131.049H579.68" stroke="#F4A519" stroke-miterlimit="10" stroke-linecap="round" stroke-linejoin="round"/>
<path d="M706.79 163.461C706.79 163.461 717.592 182.276 703.585 192.9C698.005 197.173 710.291 202.752 708.451 205.661C707.977 206.432 690.883 206.432 690.349 205.661C688.39 202.871 700.854 197.173 695.216 192.9C681.209 182.276 692.011 163.461 692.011 163.461H706.79Z" stroke="#F4A519" stroke-miterlimit="10" stroke-linecap="round" stroke-linejoin="round"/>
<path d="M692.663 173.965C692.663 173.965 691.18 181.74 697.708 188.091" stroke="#F4A519" stroke-miterlimit="10" stroke-linecap="round" stroke-linejoin="round"/>
<path d="M695.869 203.049H707.68" stroke="#F4A519" stroke-miterlimit="10" stroke-linecap="round" stroke-linejoin="round"/>
<path d="M554.871 9.91211H579.739C579.739 9.91211 589.236 37.511 574.22 44.8114H560.45C549.41 39.4103 551.606 23.0884 553.565 14.8384H568.997" stroke="#F4A519" stroke-miterlimit="10" stroke-linecap="round" stroke-linejoin="round"/>
<path d="M557.305 30.2699C556.592 26.9462 556.83 23.2663 557.364 20.002" stroke="#F4A519" stroke-miterlimit="10" stroke-linecap="round" stroke-linejoin="round"/>
<path d="M561.637 39.3513C559.976 37.9862 558.967 36.3243 558.373 34.4844" stroke="#F4A519" stroke-miterlimit="10" stroke-linecap="round" stroke-linejoin="round"/>
<path d="M581.046 14.7207H590.305C590.305 14.7207 594.697 37.0372 580.689 37.9275" stroke="#F4A519" stroke-miterlimit="10" stroke-linecap="round" stroke-linejoin="round"/>
<path d="M554.87 9.91207C554.87 9.91207 552.496 2.67107 557.126 1.36532C561.755 0.0595635 564.07 2.43366 564.723 5.63869C564.723 5.63869 566.503 2.37431 569.59 3.44265C572.142 4.33294 571.904 7.06315 571.904 7.06315C571.904 7.06315 573.566 3.79877 577.721 4.92647C580.154 5.6387 580.214 8.2502 579.739 9.91207" stroke="#F4A519" stroke-miterlimit="10" stroke-linecap="round" stroke-linejoin="round"/>
<path d="M682.871 81.9121H707.739C707.739 81.9121 717.236 109.511 702.22 116.811H688.45C677.41 111.41 679.606 95.0884 681.565 86.8384H696.997" stroke="#F4A519" stroke-miterlimit="10" stroke-linecap="round" stroke-linejoin="round"/>
<path d="M685.305 102.27C684.592 98.9462 684.83 95.2663 685.364 92.002" stroke="#F4A519" stroke-miterlimit="10" stroke-linecap="round" stroke-linejoin="round"/>
<path d="M689.637 111.351C687.976 109.986 686.967 108.324 686.373 106.484" stroke="#F4A519" stroke-miterlimit="10" stroke-linecap="round" stroke-linejoin="round"/>
<path d="M709.046 86.7207H718.305C718.305 86.7207 722.697 109.037 708.689 109.928" stroke="#F4A519" stroke-miterlimit="10" stroke-linecap="round" stroke-linejoin="round"/>
<path d="M682.87 81.9121C682.87 81.9121 680.496 74.6711 685.126 73.3653C689.755 72.0596 692.07 74.4337 692.723 77.6387C692.723 77.6387 694.503 74.3743 697.59 75.4427C700.142 76.3329 699.905 79.0632 699.905 79.0632C699.905 79.0632 701.566 75.7988 705.721 76.9265C708.155 77.6387 708.214 80.2502 707.739 81.9121" stroke="#F4A519" stroke-miterlimit="10" stroke-linecap="round" stroke-linejoin="round"/>
</g>
<g opacity="0.2">
<path d="M901.312 121.85L902.973 154.909C902.973 154.909 906.535 156.215 912.41 156.333C917.218 156.452 921.847 154.909 921.847 154.909L923.331 126.657H913.835" stroke="#F4A519" stroke-miterlimit="10" stroke-linecap="round" stroke-linejoin="round"/>
<path d="M902.439 122.087C898.938 122.087 898.641 116.389 904.457 116.389C910.63 116.389 908.078 119.119 913.538 116.152C913.538 116.152 916.387 115.499 917.634 117.813C917.634 117.813 918.761 112.531 923.688 115.083C928.673 117.576 923.925 122.74 923.688 122.858H911.52C911.52 122.858 912.173 125.707 908.909 128.022C908.909 128.022 911.698 137.519 905.882 137.578L905.17 122.146H902.439V122.087Z" stroke="#F4A519" stroke-miterlimit="10" stroke-linecap="round" stroke-linejoin="round"/>
<path d="M905.882 141.436L906.179 148.795" stroke="#F4A519" stroke-miterlimit="10" stroke-linecap="round" stroke-linejoin="round"/>
<path d="M855.076 81.0762H856.797C858.815 81.0762 860.418 82.6787 860.418 84.6967V99.8315C860.418 101.85 858.815 103.452 856.797 103.452H855.076" stroke="#F4A519" stroke-miterlimit="10" stroke-linecap="round" stroke-linejoin="round"/>
<path d="M835.253 69.502H855.017V108.971C855.017 108.971 850.447 111.405 844.63 111.464C839.585 111.583 835.193 108.971 835.193 108.971V76.9804H854.958" stroke="#F4A519" stroke-miterlimit="10" stroke-linecap="round" stroke-linejoin="round"/>
<path d="M840.891 81.4316V96.4478" stroke="#F4A519" stroke-miterlimit="10" stroke-linecap="round" stroke-linejoin="round"/>
<path d="M840.891 99.832V103.156" stroke="#F4A519" stroke-miterlimit="10" stroke-linecap="round" stroke-linejoin="round"/>
<path d="M921.254 41.1309C921.254 41.1309 924.222 58.4024 918.168 67.1272C913.241 74.2495 919.948 77.8107 919.83 83.5679H903.211C903.092 77.87 909.799 74.3089 904.873 67.1272C898.878 58.3431 901.786 41.1309 901.786 41.1309H921.254Z" stroke="#F4A519" stroke-miterlimit="10" stroke-linecap="round" stroke-linejoin="round"/>
<path d="M905.882 45.7598C905.882 45.7598 905.526 59.1141 907.9 63.5062" stroke="#F4A519" stroke-miterlimit="10" stroke-linecap="round" stroke-linejoin="round"/>
<path d="M919.236 80.3027H908.078" stroke="#F4A519" stroke-miterlimit="10" stroke-linecap="round" stroke-linejoin="round"/>
<path d="M1049.25 113.131C1049.25 113.131 1052.22 130.402 1046.17 139.127C1041.24 146.25 1047.95 149.811 1047.83 155.568H1031.21C1031.09 149.87 1037.8 146.309 1032.87 139.127C1026.88 130.343 1029.79 113.131 1029.79 113.131H1049.25Z" stroke="#F4A519" stroke-miterlimit="10" stroke-linecap="round" stroke-linejoin="round"/>
<path d="M1033.88 117.76C1033.88 117.76 1033.53 131.114 1035.9 135.506" stroke="#F4A519" stroke-miterlimit="10" stroke-linecap="round" stroke-linejoin="round"/>
<path d="M1047.24 152.303H1036.08" stroke="#F4A519" stroke-miterlimit="10" stroke-linecap="round" stroke-linejoin="round"/>
<path d="M813.173 193.666C813.173 193.666 816.141 210.938 810.087 219.662C805.16 226.785 811.867 230.346 811.748 236.103H795.13C795.011 230.405 801.718 226.844 796.792 219.662C790.797 210.878 793.705 193.666 793.705 193.666H813.173Z" stroke="#F4A519" stroke-miterlimit="10" stroke-linecap="round" stroke-linejoin="round"/>
<path d="M797.8 198.355C797.8 198.355 797.444 211.71 799.818 216.102" stroke="#F4A519" stroke-miterlimit="10" stroke-linecap="round" stroke-linejoin="round"/>
<path d="M811.154 232.838H799.996" stroke="#F4A519" stroke-miterlimit="10" stroke-linecap="round" stroke-linejoin="round"/>
<path d="M842.612 150.102H867.481C867.481 150.102 876.977 177.7 861.961 185.001H848.191C837.151 179.6 839.348 163.278 841.306 155.028H856.738" stroke="#F4A519" stroke-miterlimit="10" stroke-linecap="round" stroke-linejoin="round"/>
<path d="M845.104 170.459C844.392 167.136 844.63 163.456 845.164 160.191" stroke="#F4A519" stroke-miterlimit="10" stroke-linecap="round" stroke-linejoin="round"/>
<path d="M849.437 179.599C847.775 178.234 846.766 176.572 846.173 174.732" stroke="#F4A519" stroke-miterlimit="10" stroke-linecap="round" stroke-linejoin="round"/>
<path d="M868.846 154.969H878.105C878.105 154.969 882.497 177.285 868.49 178.176" stroke="#F4A519" stroke-miterlimit="10" stroke-linecap="round" stroke-linejoin="round"/>
<path d="M842.612 150.102C842.612 150.102 840.237 142.861 844.867 141.555C849.496 140.249 851.811 142.623 852.464 145.828C852.464 145.828 854.245 142.564 857.331 143.632C859.883 144.522 859.646 147.253 859.646 147.253C859.646 147.253 861.308 143.988 865.462 145.116C867.836 145.828 867.955 148.44 867.48 150.102" stroke="#F4A519" stroke-miterlimit="10" stroke-linecap="round" stroke-linejoin="round"/>
<path d="M1032.84 54.8418H1034.56C1036.58 54.8418 1038.18 56.4443 1038.18 58.4623V73.5972C1038.18 75.6152 1036.58 77.2177 1034.56 77.2177H1032.84" stroke="#F4A519" stroke-miterlimit="10" stroke-linecap="round" stroke-linejoin="round"/>
<path d="M1013.01 43.2676H1032.84V82.737C1032.84 82.737 1028.27 85.1704 1022.45 85.2298C1017.4 85.3485 1013.01 82.737 1013.01 82.737V50.746H1032.84" stroke="#F4A519" stroke-miterlimit="10" stroke-linecap="round" stroke-linejoin="round"/>
<path d="M1018.65 55.1973V70.2134" stroke="#F4A519" stroke-miterlimit="10" stroke-linecap="round" stroke-linejoin="round"/>
<path d="M1018.65 73.5371V76.8609" stroke="#F4A519" stroke-miterlimit="10" stroke-linecap="round" stroke-linejoin="round"/>
<path d="M1160.84 126.842H1162.56C1164.58 126.842 1166.18 128.444 1166.18 130.462V145.597C1166.18 147.615 1164.58 149.218 1162.56 149.218H1160.84" stroke="#F4A519" stroke-miterlimit="10" stroke-linecap="round" stroke-linejoin="round"/>
<path d="M1141.01 115.268H1160.84V154.737C1160.84 154.737 1156.27 157.17 1150.45 157.23C1145.4 157.348 1141.01 154.737 1141.01 154.737V122.746H1160.84" stroke="#F4A519" stroke-miterlimit="10" stroke-linecap="round" stroke-linejoin="round"/>
<path d="M1146.65 127.197V142.213" stroke="#F4A519" stroke-miterlimit="10" stroke-linecap="round" stroke-linejoin="round"/>
<path d="M1146.65 145.537V148.861" stroke="#F4A519" stroke-miterlimit="10" stroke-linecap="round" stroke-linejoin="round"/>
<path d="M974.79 91.4609C974.79 91.4609 985.592 110.276 971.585 120.9C966.005 125.173 978.291 130.752 976.451 133.661C975.977 134.432 958.883 134.432 958.349 133.661C956.39 130.871 968.854 125.173 963.216 120.9C949.209 110.276 960.011 91.4609 960.011 91.4609H974.79Z" stroke="#F4A519" stroke-miterlimit="10" stroke-linecap="round" stroke-linejoin="round"/>
<path d="M960.663 101.965C960.663 101.965 959.18 109.74 965.708 116.091" stroke="#F4A519" stroke-miterlimit="10" stroke-linecap="round" stroke-linejoin="round"/>
<path d="M963.869 131.049H975.68" stroke="#F4A519" stroke-miterlimit="10" stroke-linecap="round" stroke-linejoin="round"/>
<path d="M1102.79 163.461C1102.79 163.461 1113.59 182.276 1099.58 192.9C1094.01 197.173 1106.29 202.752 1104.45 205.661C1103.98 206.432 1086.88 206.432 1086.35 205.661C1084.39 202.871 1096.85 197.173 1091.22 192.9C1077.21 182.276 1088.01 163.461 1088.01 163.461H1102.79Z" stroke="#F4A519" stroke-miterlimit="10" stroke-linecap="round" stroke-linejoin="round"/>
<path d="M1088.66 173.965C1088.66 173.965 1087.18 181.74 1093.71 188.091" stroke="#F4A519" stroke-miterlimit="10" stroke-linecap="round" stroke-linejoin="round"/>
<path d="M1091.87 203.049H1103.68" stroke="#F4A519" stroke-miterlimit="10" stroke-linecap="round" stroke-linejoin="round"/>
<path d="M950.871 9.91211H975.739C975.739 9.91211 985.236 37.511 970.22 44.8114H956.45C945.41 39.4103 947.606 23.0884 949.565 14.8384H964.997" stroke="#F4A519" stroke-miterlimit="10" stroke-linecap="round" stroke-linejoin="round"/>
<path d="M953.305 30.2699C952.592 26.9462 952.83 23.2663 953.364 20.002" stroke="#F4A519" stroke-miterlimit="10" stroke-linecap="round" stroke-linejoin="round"/>
<path d="M957.637 39.3513C955.976 37.9862 954.967 36.3243 954.373 34.4844" stroke="#F4A519" stroke-miterlimit="10" stroke-linecap="round" stroke-linejoin="round"/>
<path d="M977.046 14.7207H986.305C986.305 14.7207 990.697 37.0372 976.689 37.9275" stroke="#F4A519" stroke-miterlimit="10" stroke-linecap="round" stroke-linejoin="round"/>
<path d="M950.87 9.91207C950.87 9.91207 948.496 2.67107 953.126 1.36532C957.755 0.0595635 960.07 2.43366 960.723 5.63869C960.723 5.63869 962.503 2.37431 965.59 3.44265C968.142 4.33294 967.905 7.06315 967.905 7.06315C967.905 7.06315 969.566 3.79877 973.721 4.92647C976.155 5.6387 976.214 8.2502 975.739 9.91207" stroke="#F4A519" stroke-miterlimit="10" stroke-linecap="round" stroke-linejoin="round"/>
<path d="M1078.87 81.9121H1103.74C1103.74 81.9121 1113.24 109.511 1098.22 116.811H1084.45C1073.41 111.41 1075.61 95.0884 1077.56 86.8384H1093" stroke="#F4A519" stroke-miterlimit="10" stroke-linecap="round" stroke-linejoin="round"/>
<path d="M1081.3 102.27C1080.59 98.9462 1080.83 95.2663 1081.36 92.002" stroke="#F4A519" stroke-miterlimit="10" stroke-linecap="round" stroke-linejoin="round"/>
<path d="M1085.64 111.351C1083.98 109.986 1082.97 108.324 1082.37 106.484" stroke="#F4A519" stroke-miterlimit="10" stroke-linecap="round" stroke-linejoin="round"/>
<path d="M1105.05 86.7207H1114.3C1114.3 86.7207 1118.7 109.037 1104.69 109.928" stroke="#F4A519" stroke-miterlimit="10" stroke-linecap="round" stroke-linejoin="round"/>
<path d="M1078.87 81.9121C1078.87 81.9121 1076.5 74.6711 1081.13 73.3653C1085.76 72.0596 1088.07 74.4337 1088.72 77.6387C1088.72 77.6387 1090.5 74.3743 1093.59 75.4427C1096.14 76.3329 1095.9 79.0632 1095.9 79.0632C1095.9 79.0632 1097.57 75.7988 1101.72 76.9265C1104.15 77.6387 1104.21 80.2502 1103.74 81.9121" stroke="#F4A519" stroke-miterlimit="10" stroke-linecap="round" stroke-linejoin="round"/>
</g>
<g opacity="0.2">
<path d="M1274.31 121.85L1275.97 154.909C1275.97 154.909 1279.53 156.215 1285.41 156.333C1290.22 156.452 1294.85 154.909 1294.85 154.909L1296.33 126.657H1286.83" stroke="#F4A519" stroke-miterlimit="10" stroke-linecap="round" stroke-linejoin="round"/>
<path d="M1275.44 122.087C1271.94 122.087 1271.64 116.389 1277.46 116.389C1283.63 116.389 1281.08 119.119 1286.54 116.152C1286.54 116.152 1289.39 115.499 1290.63 117.813C1290.63 117.813 1291.76 112.531 1296.69 115.083C1301.67 117.576 1296.92 122.74 1296.69 122.858H1284.52C1284.52 122.858 1285.17 125.707 1281.91 128.022C1281.91 128.022 1284.7 137.519 1278.88 137.578L1278.17 122.146H1275.44V122.087Z" stroke="#F4A519" stroke-miterlimit="10" stroke-linecap="round" stroke-linejoin="round"/>
<path d="M1278.88 141.436L1279.18 148.795" stroke="#F4A519" stroke-miterlimit="10" stroke-linecap="round" stroke-linejoin="round"/>
<path d="M1228.08 81.0762H1229.8C1231.82 81.0762 1233.42 82.6787 1233.42 84.6967V99.8315C1233.42 101.85 1231.82 103.452 1229.8 103.452H1228.08" stroke="#F4A519" stroke-miterlimit="10" stroke-linecap="round" stroke-linejoin="round"/>
<path d="M1208.25 69.502H1228.02V108.971C1228.02 108.971 1223.45 111.405 1217.63 111.464C1212.59 111.583 1208.19 108.971 1208.19 108.971V76.9804H1227.96" stroke="#F4A519" stroke-miterlimit="10" stroke-linecap="round" stroke-linejoin="round"/>
<path d="M1213.89 81.4316V96.4478" stroke="#F4A519" stroke-miterlimit="10" stroke-linecap="round" stroke-linejoin="round"/>
<path d="M1213.89 99.832V103.156" stroke="#F4A519" stroke-miterlimit="10" stroke-linecap="round" stroke-linejoin="round"/>
<path d="M1294.25 41.1309C1294.25 41.1309 1297.22 58.4024 1291.17 67.1272C1286.24 74.2495 1292.95 77.8107 1292.83 83.5679H1276.21C1276.09 77.87 1282.8 74.3089 1277.87 67.1272C1271.88 58.3431 1274.79 41.1309 1274.79 41.1309H1294.25Z" stroke="#F4A519" stroke-miterlimit="10" stroke-linecap="round" stroke-linejoin="round"/>
<path d="M1278.88 45.7598C1278.88 45.7598 1278.53 59.1141 1280.9 63.5062" stroke="#F4A519" stroke-miterlimit="10" stroke-linecap="round" stroke-linejoin="round"/>
<path d="M1292.24 80.3027H1281.08" stroke="#F4A519" stroke-miterlimit="10" stroke-linecap="round" stroke-linejoin="round"/>
<path d="M1422.25 113.131C1422.25 113.131 1425.22 130.402 1419.17 139.127C1414.24 146.25 1420.95 149.811 1420.83 155.568H1404.21C1404.09 149.87 1410.8 146.309 1405.87 139.127C1399.88 130.343 1402.79 113.131 1402.79 113.131H1422.25Z" stroke="#F4A519" stroke-miterlimit="10" stroke-linecap="round" stroke-linejoin="round"/>
<path d="M1406.88 117.76C1406.88 117.76 1406.53 131.114 1408.9 135.506" stroke="#F4A519" stroke-miterlimit="10" stroke-linecap="round" stroke-linejoin="round"/>
<path d="M1420.24 152.303H1409.08" stroke="#F4A519" stroke-miterlimit="10" stroke-linecap="round" stroke-linejoin="round"/>
<path d="M1186.17 193.666C1186.17 193.666 1189.14 210.938 1183.09 219.662C1178.16 226.785 1184.87 230.346 1184.75 236.103H1168.13C1168.01 230.405 1174.72 226.844 1169.79 219.662C1163.8 210.878 1166.71 193.666 1166.71 193.666H1186.17Z" stroke="#F4A519" stroke-miterlimit="10" stroke-linecap="round" stroke-linejoin="round"/>
<path d="M1170.8 198.355C1170.8 198.355 1170.44 211.71 1172.82 216.102" stroke="#F4A519" stroke-miterlimit="10" stroke-linecap="round" stroke-linejoin="round"/>
<path d="M1184.15 232.838H1173" stroke="#F4A519" stroke-miterlimit="10" stroke-linecap="round" stroke-linejoin="round"/>
<path d="M1215.61 150.102H1240.48C1240.48 150.102 1249.98 177.7 1234.96 185.001H1221.19C1210.15 179.6 1212.35 163.278 1214.31 155.028H1229.74" stroke="#F4A519" stroke-miterlimit="10" stroke-linecap="round" stroke-linejoin="round"/>
<path d="M1218.1 170.459C1217.39 167.136 1217.63 163.456 1218.16 160.191" stroke="#F4A519" stroke-miterlimit="10" stroke-linecap="round" stroke-linejoin="round"/>
<path d="M1222.44 179.599C1220.78 178.234 1219.77 176.572 1219.17 174.732" stroke="#F4A519" stroke-miterlimit="10" stroke-linecap="round" stroke-linejoin="round"/>
<path d="M1241.85 154.969H1251.11C1251.11 154.969 1255.5 177.285 1241.49 178.176" stroke="#F4A519" stroke-miterlimit="10" stroke-linecap="round" stroke-linejoin="round"/>
<path d="M1215.61 150.102C1215.61 150.102 1213.24 142.861 1217.87 141.555C1222.5 140.249 1224.81 142.623 1225.46 145.828C1225.46 145.828 1227.24 142.564 1230.33 143.632C1232.88 144.522 1232.65 147.253 1232.65 147.253C1232.65 147.253 1234.31 143.988 1238.46 145.116C1240.84 145.828 1240.96 148.44 1240.48 150.102" stroke="#F4A519" stroke-miterlimit="10" stroke-linecap="round" stroke-linejoin="round"/>
<path d="M1405.84 54.8418H1407.56C1409.58 54.8418 1411.18 56.4443 1411.18 58.4623V73.5972C1411.18 75.6152 1409.58 77.2177 1407.56 77.2177H1405.84" stroke="#F4A519" stroke-miterlimit="10" stroke-linecap="round" stroke-linejoin="round"/>
<path d="M1386.01 43.2676H1405.84V82.737C1405.84 82.737 1401.27 85.1704 1395.45 85.2298C1390.4 85.3485 1386.01 82.737 1386.01 82.737V50.746H1405.84" stroke="#F4A519" stroke-miterlimit="10" stroke-linecap="round" stroke-linejoin="round"/>
<path d="M1391.65 55.1973V70.2134" stroke="#F4A519" stroke-miterlimit="10" stroke-linecap="round" stroke-linejoin="round"/>
<path d="M1391.65 73.5371V76.8609" stroke="#F4A519" stroke-miterlimit="10" stroke-linecap="round" stroke-linejoin="round"/>
<path d="M1533.84 126.842H1535.56C1537.58 126.842 1539.18 128.444 1539.18 130.462V145.597C1539.18 147.615 1537.58 149.218 1535.56 149.218H1533.84" stroke="#F4A519" stroke-miterlimit="10" stroke-linecap="round" stroke-linejoin="round"/>
<path d="M1514.01 115.268H1533.84V154.737C1533.84 154.737 1529.27 157.17 1523.45 157.23C1518.4 157.348 1514.01 154.737 1514.01 154.737V122.746H1533.84" stroke="#F4A519" stroke-miterlimit="10" stroke-linecap="round" stroke-linejoin="round"/>
<path d="M1519.65 127.197V142.213" stroke="#F4A519" stroke-miterlimit="10" stroke-linecap="round" stroke-linejoin="round"/>
<path d="M1519.65 145.537V148.861" stroke="#F4A519" stroke-miterlimit="10" stroke-linecap="round" stroke-linejoin="round"/>
<path d="M1347.79 91.4609C1347.79 91.4609 1358.59 110.276 1344.58 120.9C1339.01 125.173 1351.29 130.752 1349.45 133.661C1348.98 134.432 1331.88 134.432 1331.35 133.661C1329.39 130.871 1341.85 125.173 1336.22 120.9C1322.21 110.276 1333.01 91.4609 1333.01 91.4609H1347.79Z" stroke="#F4A519" stroke-miterlimit="10" stroke-linecap="round" stroke-linejoin="round"/>
<path d="M1333.66 101.965C1333.66 101.965 1332.18 109.74 1338.71 116.091" stroke="#F4A519" stroke-miterlimit="10" stroke-linecap="round" stroke-linejoin="round"/>
<path d="M1336.87 131.049H1348.68" stroke="#F4A519" stroke-miterlimit="10" stroke-linecap="round" stroke-linejoin="round"/>
<path d="M1475.79 163.461C1475.79 163.461 1486.59 182.276 1472.58 192.9C1467.01 197.173 1479.29 202.752 1477.45 205.661C1476.98 206.432 1459.88 206.432 1459.35 205.661C1457.39 202.871 1469.85 197.173 1464.22 192.9C1450.21 182.276 1461.01 163.461 1461.01 163.461H1475.79Z" stroke="#F4A519" stroke-miterlimit="10" stroke-linecap="round" stroke-linejoin="round"/>
<path d="M1461.66 173.965C1461.66 173.965 1460.18 181.74 1466.71 188.091" stroke="#F4A519" stroke-miterlimit="10" stroke-linecap="round" stroke-linejoin="round"/>
<path d="M1464.87 203.049H1476.68" stroke="#F4A519" stroke-miterlimit="10" stroke-linecap="round" stroke-linejoin="round"/>
<path d="M1323.87 9.91211H1348.74C1348.74 9.91211 1358.24 37.511 1343.22 44.8114H1329.45C1318.41 39.4103 1320.61 23.0884 1322.56 14.8384H1338" stroke="#F4A519" stroke-miterlimit="10" stroke-linecap="round" stroke-linejoin="round"/>
<path d="M1326.3 30.2699C1325.59 26.9462 1325.83 23.2663 1326.36 20.002" stroke="#F4A519" stroke-miterlimit="10" stroke-linecap="round" stroke-linejoin="round"/>
<path d="M1330.64 39.3513C1328.98 37.9862 1327.97 36.3243 1327.37 34.4844" stroke="#F4A519" stroke-miterlimit="10" stroke-linecap="round" stroke-linejoin="round"/>
<path d="M1350.05 14.7207H1359.3C1359.3 14.7207 1363.7 37.0372 1349.69 37.9275" stroke="#F4A519" stroke-miterlimit="10" stroke-linecap="round" stroke-linejoin="round"/>
<path d="M1323.87 9.91207C1323.87 9.91207 1321.5 2.67107 1326.13 1.36532C1330.76 0.0595635 1333.07 2.43366 1333.72 5.63869C1333.72 5.63869 1335.5 2.37431 1338.59 3.44265C1341.14 4.33294 1340.9 7.06315 1340.9 7.06315C1340.9 7.06315 1342.57 3.79877 1346.72 4.92647C1349.15 5.6387 1349.21 8.2502 1348.74 9.91207" stroke="#F4A519" stroke-miterlimit="10" stroke-linecap="round" stroke-linejoin="round"/>
<path d="M1451.87 81.9121H1476.74C1476.74 81.9121 1486.24 109.511 1471.22 116.811H1457.45C1446.41 111.41 1448.61 95.0884 1450.56 86.8384H1466" stroke="#F4A519" stroke-miterlimit="10" stroke-linecap="round" stroke-linejoin="round"/>
<path d="M1454.3 102.27C1453.59 98.9462 1453.83 95.2663 1454.36 92.002" stroke="#F4A519" stroke-miterlimit="10" stroke-linecap="round" stroke-linejoin="round"/>
<path d="M1458.64 111.351C1456.98 109.986 1455.97 108.324 1455.37 106.484" stroke="#F4A519" stroke-miterlimit="10" stroke-linecap="round" stroke-linejoin="round"/>
<path d="M1478.05 86.7207H1487.3C1487.3 86.7207 1491.7 109.037 1477.69 109.928" stroke="#F4A519" stroke-miterlimit="10" stroke-linecap="round" stroke-linejoin="round"/>
<path d="M1451.87 81.9121C1451.87 81.9121 1449.5 74.6711 1454.13 73.3653C1458.76 72.0596 1461.07 74.4337 1461.72 77.6387C1461.72 77.6387 1463.5 74.3743 1466.59 75.4427C1469.14 76.3329 1468.9 79.0632 1468.9 79.0632C1468.9 79.0632 1470.57 75.7988 1474.72 76.9265C1477.15 77.6387 1477.21 80.2502 1476.74 81.9121" stroke="#F4A519" stroke-miterlimit="10" stroke-linecap="round" stroke-linejoin="round"/>
</g>
</svg>
