<?xml version="1.0" encoding="utf-8"?>
<!-- Generator: Adobe Illustrator 21.1.0, SVG Export Plug-In . SVG Version: 6.00 Build 0)  -->
<svg version="1.1" id="Слой_1" xmlns="http://www.w3.org/2000/svg" xmlns:xlink="http://www.w3.org/1999/xlink" x="0px" y="0px"
	 viewBox="0 0 16 16" style="enable-background:new 0 0 16 16;" xml:space="preserve">
<style type="text/css">
	.st0{fill:#90A0B7;}
</style>
<path class="st0" d="M13.3,14.3H2.7c-1.3,0-2.3-1-2.3-2.3V4.7c0,0,0,0,0,0V4c0-1.3,1-2.3,2.3-2.3h10.7c1.3,0,2.3,1,2.3,2.3v0.6
	c0,0,0,0,0,0V12C15.7,13.3,14.6,14.3,13.3,14.3z M2.3,6.5V12c0,0.2,0.1,0.3,0.3,0.3h10.7c0.2,0,0.3-0.1,0.3-0.3V6.5L9.2,9.3
	c-0.7,0.5-1.7,0.5-2.4,0L2.3,6.5z M2.3,4.1l5.5,3.5c0.1,0.1,0.2,0.1,0.3,0l5.5-3.5V4c0-0.2-0.1-0.3-0.3-0.3H2.7
	C2.5,3.7,2.3,3.8,2.3,4V4.1z"/>
</svg>
