<svg width="20" height="20" viewBox="0 0 20 20" fill="none" xmlns="http://www.w3.org/2000/svg">
<path d="M10.6908 2.71422C9.62234 2.71143 8.56832 2.96106 7.61461 3.44279C6.47177 4.01396 5.51052 4.89204 4.83853 5.97866C4.16654 7.06529 3.81034 8.31754 3.80985 9.59517C3.80706 10.6636 4.0567 11.7176 4.53842 12.6714L3.00033 17.2856L7.61461 15.7475C8.56832 16.2293 9.62234 16.4789 10.6908 16.4761C11.9684 16.4756 13.2207 16.1194 14.3073 15.4474C15.3939 14.7755 16.272 13.8142 16.8432 12.6714C17.3249 11.7176 17.5745 10.6636 17.5718 9.59517V9.19041C17.4787 7.50308 16.7665 5.90937 15.5715 4.71444C14.3766 3.5195 12.7829 2.8073 11.0956 2.71422H10.6908Z" stroke="#90A0B7" stroke-width="2" stroke-linecap="round" stroke-linejoin="round"/>
</svg>
