<svg width="32" height="32" viewBox="0 0 32 32" fill="none" xmlns="http://www.w3.org/2000/svg">
<path d="M26.6665 9.33337H14.6665" stroke="#C2CFE0" stroke-width="2" stroke-linecap="round" stroke-linejoin="round"/>
<path d="M18.6665 22.6667H6.6665" stroke="#C2CFE0" stroke-width="2" stroke-linecap="round" stroke-linejoin="round"/>
<path d="M22.6665 26.6667C24.8756 26.6667 26.6665 24.8759 26.6665 22.6667C26.6665 20.4576 24.8756 18.6667 22.6665 18.6667C20.4574 18.6667 18.6665 20.4576 18.6665 22.6667C18.6665 24.8759 20.4574 26.6667 22.6665 26.6667Z" stroke="#C2CFE0" stroke-width="2" stroke-linecap="round" stroke-linejoin="round"/>
<path d="M9.33325 13.3334C11.5424 13.3334 13.3333 11.5425 13.3333 9.33337C13.3333 7.12423 11.5424 5.33337 9.33325 5.33337C7.12411 5.33337 5.33325 7.12423 5.33325 9.33337C5.33325 11.5425 7.12411 13.3334 9.33325 13.3334Z" stroke="#C2CFE0" stroke-width="2" stroke-linecap="round" stroke-linejoin="round"/>
</svg>
