<svg width="32" height="39" viewBox="0 0 32 39" fill="none" xmlns="http://www.w3.org/2000/svg">
<path d="M27.2123 22.579C28.5686 20.5052 29.3549 18.0399 29.3549 15.3947C29.3549 8.0261 23.2529 2.05264 15.7258 2.05264C8.19873 2.05264 2.0968 8.0261 2.0968 15.3947C2.0968 18.0399 2.88309 20.5052 4.23933 22.579L14.9075 37.8347C15.3057 38.4018 16.146 38.4018 16.5442 37.8347L27.2123 22.579Z" fill="white"/>
<g clip-path="url(#clip0_1760_25877)">
<path d="M15.8092 11.2756C15.6875 11.1737 15.5558 11.0843 15.4161 11.0089C15.3535 10.9688 15.2808 10.947 15.2064 10.9462C15.1289 10.9581 15.0563 10.9914 14.9968 11.0424C14.2885 11.56 13.7051 12.2289 13.2892 13.0004C13.153 13.2524 13.0335 13.5296 13.0628 13.8141C13.0934 13.9978 13.1558 14.1748 13.2473 14.3371C13.3408 14.5618 13.4809 14.7642 13.6582 14.9312C14.0345 15.2449 14.5901 15.1926 15.0555 15.0462" fill="#F4A519"/>
<path d="M20.9958 15.9049C21.0262 15.9975 21.0479 16.0928 21.0607 16.1894C21.067 16.2215 21.067 16.2546 21.0607 16.2867C21.0549 16.3102 21.0465 16.333 21.0356 16.3547L20.9863 16.4436C20.9664 16.4791 20.9371 16.5199 20.8972 16.5126C20.8802 16.5068 20.866 16.495 20.8573 16.4793C20.8485 16.4637 20.846 16.4453 20.85 16.4279C20.8591 16.3917 20.8721 16.3566 20.8888 16.3233C20.9137 16.2239 20.9064 16.1191 20.8679 16.0242C20.8422 15.9001 20.786 15.7843 20.7043 15.6874" fill="#F4A519"/>
<path d="M20.6027 15.6863C20.6255 15.7436 20.6448 15.8023 20.6604 15.862C20.677 15.9176 20.6844 15.9756 20.6824 16.0336C20.6794 16.0922 20.6543 16.1475 20.6121 16.1884C20.5922 16.2061 20.565 16.2239 20.5629 16.2501C20.5627 16.2578 20.5641 16.2655 20.567 16.2727C20.5699 16.2799 20.5742 16.2864 20.5797 16.2919C20.5907 16.3026 20.6046 16.3098 20.6197 16.3126C20.6348 16.3154 20.6504 16.3137 20.6646 16.3076C20.6792 16.3003 20.6924 16.2904 20.7033 16.2783C20.7791 16.1989 20.8282 16.098 20.844 15.9895C20.8597 15.881 20.8414 15.7703 20.7914 15.6727" fill="#F4A519"/>
<path d="M20.4549 16.4206C20.4958 16.4111 20.5011 16.3411 20.4948 16.2919L20.4256 15.6978C20.6109 15.7657 20.7848 15.8612 20.9413 15.9813C21.0912 16.1287 21.2359 16.4634 21.3281 16.3651C21.3616 16.3275 21.217 15.8746 20.9455 15.5692C20.7816 15.3877 20.6013 15.2217 20.4067 15.0734C20.2969 15.0026 20.1812 14.9413 20.0608 14.8904L19.3753 14.5431C19.0283 14.3674 18.6688 14.1802 18.4319 13.8287C18.2505 13.5662 18.1489 13.2315 18.0493 12.9031L17.7757 11.9931L17.5765 12.0235C17.5545 11.7725 17.5472 11.5842 17.544 11.5319C17.544 11.5319 16.6394 10.8217 16.6845 12.1741C16.6845 12.1741 16.6845 12.1908 16.6908 12.2201C16.7012 12.4168 16.7233 12.6128 16.7568 12.8069C16.7771 12.928 16.8059 13.0475 16.8428 13.1646C16.8513 13.2105 16.8665 13.2549 16.8878 13.2964C17.5556 15.0462 19.9465 15.3746 19.9465 15.3746C19.9277 15.4552 20.0356 15.6643 20.174 15.8139C20.3124 15.9635 20.174 16.2741 20.4161 16.408C20.4213 16.4127 20.4275 16.4163 20.4342 16.4185C20.4409 16.4206 20.4479 16.4213 20.4549 16.4206Z" fill="#F4A519"/>
<path d="M17.0524 9.4254C17.2371 9.61343 17.4597 9.76032 17.7054 9.8564C17.9511 9.95248 18.2144 9.99559 18.4779 9.98288C18.5491 9.98547 18.6188 9.96204 18.674 9.91699C18.7121 9.86793 18.7344 9.80848 18.7379 9.7465L18.7977 9.3752C18.8028 9.36191 18.8046 9.34756 18.8029 9.33341C18.8012 9.31926 18.796 9.30574 18.7878 9.29406C18.7797 9.28238 18.7687 9.27289 18.756 9.26643C18.7433 9.25997 18.7291 9.25673 18.7148 9.25701C18.3587 9.17888 17.9945 9.14376 17.6299 9.15242" fill="#F4A519"/>
<path d="M18.2473 25.995C18.2152 26.3124 18.1595 26.6271 18.0806 26.9363C18.0413 27.1092 17.9865 27.2783 17.9171 27.4415C18.0681 27.47 18.2216 27.483 18.3752 27.4802C18.3948 27.4815 18.4143 27.4763 18.4307 27.4655C18.4428 27.4532 18.4509 27.4375 18.4538 27.4206C18.5937 26.9306 18.6905 26.4295 18.7431 25.9228L18.2473 25.995Z" fill="#F4A519"/>
<path d="M10.5534 22.4953C10.1447 22.623 9.72607 22.7167 9.30185 22.7756C9.30185 22.6313 9.30185 22.4869 9.30185 22.3426C9.30042 22.3319 9.30117 22.321 9.30405 22.3105C9.30694 22.3001 9.31189 22.2904 9.31862 22.2819C9.33155 22.2725 9.34675 22.2668 9.36265 22.2652L10.6331 22.056" fill="#F4A519"/>
<path d="M17.9213 11.6605L18.4454 12.4973C18.5953 12.7347 18.7662 12.9878 19.0335 13.0725C18.883 13.2672 18.6934 13.4283 18.4767 13.5454C18.2601 13.6625 18.0213 13.733 17.7756 13.7524" fill="#F4A519"/>
<path d="M18.391 16.0764C18.6908 17.7241 18.9909 19.3718 19.2914 21.0195C19.4012 21.5574 19.4768 22.1016 19.5178 22.649C19.5838 23.8623 19.3082 25.0693 19.0377 26.2606C18.6562 26.3443 18.0723 26.2795 18.0723 26.2795C18.0723 26.2795 18.4266 23.2933 17.7578 21.9545C17.4434 21.3176 16.9266 20.7737 16.5304 20.1765C15.978 19.3397 15.6604 18.3984 15.37 17.4571C15.304 17.2479 15.2484 16.9906 15.4119 16.8232" fill="#F4A519"/>
<path d="M18.3102 7.10973C18.4957 7.3303 18.6161 7.59786 18.6583 7.88267C18.662 7.96914 18.6827 8.05406 18.7191 8.13264C18.7644 8.20119 18.8246 8.25873 18.8952 8.30104C18.9875 8.36404 19.083 8.42234 19.1813 8.4757C19.2285 8.50185 19.196 8.61377 19.196 8.61377C19.196 8.61377 19.1111 8.65247 19.0042 8.70476C18.9344 8.72634 18.8744 8.77145 18.8344 8.83237C18.815 8.89791 18.815 8.96763 18.8344 9.03318C18.8574 9.20326 18.8398 9.37637 18.783 9.53837C18.7757 9.56534 18.7608 9.58965 18.74 9.60844C18.7112 9.6242 18.6783 9.63077 18.6457 9.62727C18.4649 9.62172 18.2879 9.57408 18.1289 9.48816" fill="#F4A519"/>
<path d="M17.8647 10.0069C17.8027 10.3584 17.8055 10.7181 17.8731 11.0686C18.0513 11.944 16.6603 10.9828 16.6603 10.9828L16.5062 10.9158L16.6718 9.13777L17.1393 9.14405L17.8941 9.1566H18.0786H18.1488C18.0733 9.26328 17.9349 9.58647 17.8647 10.0069Z" fill="#F4A519"/>
<path d="M17.761 6.47275C18.2054 6.83674 18.4633 7.37225 18.5912 7.92554C18.7191 8.47884 18.7295 9.05096 18.7295 9.61785C18.4381 9.75801 18.1006 9.75591 17.7778 9.75068C17.5063 9.75068 17.2243 9.74023 16.9801 9.62204C16.5492 9.41285 16.3438 8.91813 16.2463 8.44955C16.1588 8.07738 16.1588 7.69004 16.2463 7.31786C16.2929 7.13138 16.3798 6.95733 16.501 6.80791C16.6221 6.65849 16.7745 6.53732 16.9476 6.45288C17.2945 6.29599 17.7484 6.35875 17.9958 6.64847" fill="#F4A519"/>
<path d="M18.8972 13.0464C18.8972 13.0621 18.9056 13.0767 18.9087 13.0914C18.9046 13.0767 18.9014 13.0621 18.8972 13.0464Z" fill="#F4A519"/>
<path d="M18.9287 13.1698C18.935 13.1939 18.9392 13.2169 18.9444 13.2388C18.9409 13.2172 18.9357 13.1942 18.9287 13.1698Z" fill="#F4A519"/>
<path d="M18.8249 12.787C18.8082 12.7326 18.7903 12.6761 18.7736 12.6197C18.7903 12.6761 18.8082 12.7316 18.8239 12.787H18.8249Z" fill="#F4A519"/>
<path d="M15.8417 11.876C15.825 11.9806 15.8103 12.0789 15.7998 12.1783C16.0178 12.2233 16.2369 12.2578 16.457 12.2829C16.3899 12.1786 16.3333 12.0679 16.2883 11.9524C16.1394 11.9314 15.9906 11.9063 15.8417 11.876Z" fill="#F4A519"/>
<path d="M18.9088 13.0914C18.9162 13.1186 18.9224 13.1447 18.9287 13.1698C18.9224 13.1447 18.9162 13.1186 18.9088 13.0914Z" fill="#F4A519"/>
<path d="M16.1646 11.556C16.1646 11.5664 16.1646 11.5769 16.1719 11.5873C16.2767 11.6051 16.3815 11.6208 16.4864 11.6354L16.1646 11.556Z" fill="#F4A519"/>
<path d="M17.3238 7.10449C17.8615 7.18294 18.372 7.15888 18.7033 7.05011C18.6956 7.0395 18.6903 7.02747 18.6874 7.01472C18.6846 7.00198 18.6844 6.9888 18.6869 6.97599C18.6893 6.96317 18.6944 6.95099 18.7017 6.94017C18.709 6.92936 18.7185 6.92015 18.7295 6.91309L18.762 6.89426C18.7615 6.88939 18.7615 6.88449 18.762 6.87962C18.7507 6.8761 18.7403 6.87033 18.7313 6.86266C18.7224 6.855 18.7151 6.8456 18.7099 6.83503C18.7047 6.82447 18.7017 6.81296 18.7011 6.8012C18.7005 6.78945 18.7023 6.7777 18.7064 6.76666C18.6855 6.75911 18.668 6.74425 18.6571 6.72482C18.6367 6.72943 18.6154 6.72616 18.5973 6.71569C18.5792 6.70521 18.5657 6.6883 18.5596 6.66834L18.4978 6.68508C18.4003 6.71018 18.3657 6.57316 18.4433 6.52819H18.4548C18.4499 6.51393 18.4496 6.4985 18.4539 6.48406C18.4582 6.46961 18.467 6.45688 18.4789 6.44765L18.5125 6.41837C18.5021 6.41155 18.4933 6.40245 18.487 6.39175C18.4806 6.38106 18.4768 6.36905 18.4758 6.35666H18.4622C18.4035 6.37339 18.3573 6.30645 18.3804 6.25206C18.3638 6.24899 18.3487 6.24054 18.3374 6.22801C18.2997 6.24154 18.2595 6.24687 18.2196 6.24362C18.1796 6.24037 18.1408 6.22863 18.1058 6.20918C18.0272 6.20918 17.9412 6.20918 17.8469 6.20918C17.415 6.12969 17.3951 6.01778 16.8238 6.35352C16.6037 6.48426 16.3311 6.49367 16.09 6.59094C15.9363 6.64222 15.7989 6.73315 15.6917 6.85452C15.5701 7.01454 15.5555 7.22896 15.546 7.42978C15.5288 7.62478 15.5359 7.82117 15.567 8.01445C15.6718 8.54578 16.1089 8.94009 16.5387 9.26956L16.5754 9.24864L16.7378 8.6556L16.8427 7.97993C16.8427 7.97993 17.176 8.14728 17.262 7.66616C17.3479 7.18503 17.3238 7.10449 17.3238 7.10449Z" fill="#F4A519"/>
<path d="M16.9171 8.49976C16.9165 8.33546 16.9294 8.17139 16.9559 8.00922C16.9361 7.97926 16.9103 7.95375 16.88 7.93435C16.8498 7.91495 16.8158 7.90207 16.7802 7.89656C16.7447 7.89104 16.7084 7.89301 16.6737 7.90232C16.6389 7.91164 16.6065 7.9281 16.5786 7.95065C16.5235 8.00139 16.4808 8.0641 16.4539 8.13393C16.427 8.20376 16.4166 8.27883 16.4234 8.35333C16.4297 8.55624 16.5482 8.78844 16.7515 8.79994C16.8107 8.8022 16.8694 8.7873 16.9203 8.75706C16.9132 8.67147 16.9121 8.5855 16.9171 8.49976Z" fill="#F4A519"/>
<path d="M16.6331 6.52296C16.6781 6.42273 16.7556 6.34056 16.8532 6.28972C16.9735 6.20533 17.1061 6.13973 17.2463 6.09518C17.5167 6.02196 17.8018 6.09518 18.0775 6.14747C18.3532 6.19977 18.6572 6.22487 18.8941 6.07426C18.9283 6.04869 18.9652 6.02694 19.0041 6.00941C19.0238 6.00086 19.0454 5.99761 19.0667 6C19.0881 6.00238 19.1084 6.01032 19.1257 6.02301C19.1802 6.07112 19.1551 6.16002 19.1173 6.22173C19.0403 6.33922 18.9402 6.43991 18.8231 6.51775C18.706 6.59558 18.5743 6.64895 18.436 6.67462C18.1571 6.72574 17.87 6.71178 17.5974 6.63383" fill="#F4A519"/>
<path d="M17.174 7.11914C17.4897 7.23344 17.8292 7.26681 18.1612 7.21619C18.4932 7.16557 18.8072 7.03258 19.0744 6.82941C19.1996 6.74673 19.296 6.6272 19.3501 6.4874C19.3579 6.4683 19.3579 6.44688 19.3501 6.42778C19.3418 6.41523 19.329 6.40626 19.3144 6.40268C19.2469 6.39183 19.1778 6.40321 19.1173 6.4351C18.7763 6.56419 18.3986 6.5582 18.0618 6.41837" fill="#F4A519"/>
<path d="M16.3071 6.68403C16.3145 6.60212 16.3418 6.52325 16.3867 6.45432C16.4317 6.3854 16.4929 6.32852 16.565 6.28867C16.9392 6.03974 17.4329 6.05124 17.8679 6.16525C17.9895 6.19461 18.1073 6.23777 18.2191 6.2939C18.2625 6.31387 18.299 6.34627 18.3239 6.38699C18.3379 6.42343 18.3399 6.46339 18.3295 6.50102C18.3191 6.53865 18.297 6.57199 18.2662 6.59617C18.2041 6.64227 18.1325 6.67406 18.0566 6.68926C17.7704 6.76457 17.4811 6.82523 17.1887 6.87334" fill="#F4A519"/>
<path d="M16.0723 11.0403C16.1103 10.7997 16.1703 10.563 16.2515 10.3333L18.1236 10.8656C18.1489 10.8691 18.173 10.8786 18.1938 10.8934C18.2146 10.9081 18.2315 10.9277 18.2431 10.9504C18.2515 10.9847 18.2515 11.0206 18.2431 11.055C18.2305 11.147 18.2169 11.2401 18.2043 11.3321C18.2024 11.3728 18.1885 11.4121 18.1645 11.4451C18.15 11.4569 18.1332 11.4657 18.1152 11.4707C18.0971 11.4758 18.0782 11.477 18.0597 11.4744C17.4727 11.4618 16.8668 11.4451 16.3333 11.1606" fill="#F4A519"/>
<path d="M18.3721 16.6371C17.9371 18.0323 17.4287 19.414 16.6803 20.6712C16.3564 21.2172 15.9696 21.7569 15.413 22.0633C14.8564 22.3698 14.2159 22.4106 13.5933 22.4608C12.4437 22.5549 11.2991 22.6944 10.1593 22.8791C10.0724 22.5956 10.0425 22.2978 10.0713 22.0027L13.0325 21.2705C13.1816 21.2447 13.3241 21.1896 13.4518 21.1084C13.5924 20.9875 13.6966 20.83 13.7526 20.6534C14.043 19.9139 14.0975 19.1075 14.284 18.3367C14.587 17.0816 14.9444 15.9101 15.87 15.0044" fill="#F4A519"/>
<path d="M18.0544 11.1826C18.6142 13.0287 18.7925 14.969 18.5785 16.886C17.1832 17.0409 15.7709 16.8983 14.4349 16.4676C15.2681 14.9311 15.8753 13.2829 16.2379 11.5737" fill="#F4A519"/>
<path d="M16.2463 17.7457C16.298 17.8737 16.3366 18.0065 16.3616 18.1421C16.3692 18.188 16.3861 18.2318 16.4113 18.2708C16.4366 18.3099 16.4696 18.3433 16.5084 18.3691C16.5191 18.3744 16.5303 18.3786 16.5419 18.3817C16.5227 18.2283 16.5255 18.073 16.5503 17.9204C16.5618 17.8711 16.565 17.8202 16.5597 17.7698C16.541 17.6918 16.4953 17.623 16.4308 17.5753C16.3784 17.5319 16.3234 17.4917 16.2662 17.455C16.239 17.5494 16.2322 17.6485 16.2463 17.7457Z" fill="#F4A519"/>
<path d="M16.3689 18.3419C16.1593 18.3953 16.0356 18.3848 15.7924 18.2154C15.6731 18.1435 15.5614 18.0597 15.459 17.9654C15.4472 17.929 15.4374 17.892 15.4297 17.8545C15.4098 17.7499 15.3888 17.6453 15.3689 17.5407L15.3909 17.5031C15.4739 17.3532 15.5741 17.2135 15.6897 17.0868C15.6978 17.079 15.708 17.0736 15.719 17.0711C15.7987 17.0648 15.8836 17.1611 15.8836 17.1611C15.987 17.2534 16.1006 17.3338 16.2221 17.4006C16.1849 17.5035 16.1816 17.6157 16.2127 17.7206C16.2122 17.7307 16.2122 17.7409 16.2127 17.751C16.2139 17.7926 16.2174 17.8342 16.2232 17.8754C16.2232 17.8754 16.2232 17.8754 16.2232 17.8838C16.2322 17.943 16.2458 18.0014 16.2641 18.0585C16.2636 18.0605 16.2636 18.0627 16.2641 18.0647C16.2802 18.1177 16.3016 18.1688 16.328 18.2175V18.2331C16.3345 18.2396 16.3405 18.2466 16.3458 18.2541C16.3647 18.2792 16.373 18.3108 16.3689 18.3419Z" fill="#F4A519"/>
<path d="M15.7284 17.0628C15.8218 17.1002 15.911 17.1472 15.9947 17.2029C16.0827 17.2719 16.3416 17.5083 16.3416 17.5083L16.2462 17.7457C16.2462 17.7457 16.2075 17.7081 16.2106 17.7855C16.2311 17.9099 16.2584 18.0332 16.2924 18.1547L15.9978 18.1474L15.7421 18.0428L15.5083 17.8033L15.7179 17.0711L15.7284 17.0628Z" fill="#F4A519"/>
<path d="M17.001 12.3519L16.8428 12.856C16.5534 13.2085 15.6509 14.0066 15.2893 14.5295C15.2245 14.6138 15.1749 14.7086 15.1425 14.8098C15.1235 14.9364 15.1235 15.065 15.1425 15.1916C15.1981 15.7679 15.457 16.6894 15.6855 17.0899C15.5714 17.2175 15.4725 17.3579 15.391 17.5083C14.8333 16.9153 14.2767 15.9248 14.2222 15.1539C14.1608 14.3309 14.4003 13.5134 14.8962 12.8529C15.1179 12.5742 15.3634 12.3152 15.63 12.0789C15.9098 11.8206 16.2851 11.5497 16.6363 11.694C16.8773 11.7955 17.0073 12.0841 17.001 12.3519Z" fill="#F4A519"/>
<path d="M15.7673 17.2113L15.6195 17.4205L15.4864 17.6024C15.4549 17.5721 15.4224 17.5407 15.391 17.5073C15.4737 17.3559 15.574 17.2148 15.6897 17.0868C15.695 17.0973 15.7013 17.1067 15.7065 17.1161C15.7241 17.1494 15.7444 17.1813 15.7673 17.2113Z" fill="#F4A519"/>
<path d="M16.1572 13.8444L15.1477 13.2378C14.892 13.0841 14.6236 12.9178 14.4832 12.651C14.7515 12.4492 14.9486 12.1657 15.1477 11.8927C15.3469 11.6198 15.567 11.3457 15.8511 11.1752C16.1351 11.0048 16.523 10.9661 16.8008 11.1512C16.9105 11.2374 16.9995 11.3471 17.0612 11.4722C17.1228 11.5973 17.1556 11.7345 17.1572 11.8739C17.1614 12.1529 17.1163 12.4305 17.024 12.6939C16.8846 13.1562 16.7096 13.6206 16.3888 13.9773" fill="#F4A519"/>
<path d="M16.066 11.079H16.1342C16.1177 11.0843 16.1019 11.0913 16.087 11.0999L16.066 11.079Z" fill="#F4A519"/>
<path d="M17.2516 12.4335C17.2524 12.8448 17.1477 13.2495 16.9476 13.6091C16.7579 13.9229 16.4728 14.1624 16.1876 14.3915C15.8459 14.6662 15.4965 14.9319 15.1394 15.1885C15.1204 15.0619 15.1204 14.9332 15.1394 14.8067C15.1717 14.7055 15.2214 14.6107 15.2862 14.5264C15.7139 14.3569 16.131 14.1425 16.4193 13.7942C16.6043 13.5479 16.7461 13.2721 16.8386 12.9784C16.9602 12.6364 17.0577 12.2756 17.0053 11.9178C16.9528 11.5601 16.7191 11.2077 16.3669 11.1167C16.2876 11.0973 16.2064 11.0868 16.1248 11.0853C16.4392 10.9629 16.8176 11.1324 17.0115 11.4106C17.2264 11.7003 17.2621 12.0768 17.2516 12.4335Z" fill="#F4A519"/>
<path d="M17.5471 27.5795C17.6435 27.4593 17.7206 27.3249 17.7756 27.181C17.7828 27.1507 17.8007 27.124 17.8259 27.1057C17.8536 27.0949 17.8839 27.0923 17.9129 27.0984L18.6341 27.1831C18.6656 27.1849 18.6964 27.1935 18.7243 27.2082C18.7573 27.2356 18.7817 27.272 18.7945 27.3128C18.8984 27.4946 19.0684 27.6294 19.2693 27.6894C19.4748 27.7513 19.6852 27.7957 19.8983 27.8222C19.9496 27.8257 19.9984 27.8455 20.0377 27.8787C20.0463 27.887 20.0527 27.8973 20.0564 27.9086C20.06 27.92 20.0609 27.9321 20.0588 27.9438C20.0567 27.9556 20.0518 27.9667 20.0445 27.9761C20.0372 27.9855 20.0276 27.993 20.0167 27.9979C20.0052 27.9995 19.9936 27.9995 19.9821 27.9979C19.1696 28.0127 18.358 27.9384 17.5618 27.7762C17.5521 27.7384 17.5518 27.6988 17.561 27.6609C17.5701 27.623 17.5884 27.5879 17.6142 27.5586" fill="#F4A519"/>
<path d="M8.85216 22.079C8.99499 22.1369 9.146 22.1722 9.29975 22.1836C9.33098 22.1814 9.36194 22.1907 9.38675 22.2098C9.40557 22.2331 9.4169 22.2615 9.41925 22.2913L9.54503 23.0036C9.5522 23.0346 9.5522 23.0668 9.54503 23.0977C9.52873 23.1364 9.50185 23.1698 9.46746 23.194C9.32283 23.3457 9.24247 23.5473 9.24315 23.7567C9.24243 23.9691 9.25997 24.1811 9.29556 24.3905C9.30622 24.4407 9.3011 24.4929 9.28088 24.5401C9.27554 24.5507 9.26764 24.5598 9.25791 24.5667C9.24817 24.5735 9.23689 24.5779 9.22506 24.5793C9.21324 24.5808 9.20124 24.5793 9.19013 24.575C9.17902 24.5707 9.16915 24.5637 9.16138 24.5547C9.15536 24.545 9.15077 24.5344 9.14776 24.5233C8.90008 23.751 8.73872 22.9537 8.66663 22.1459C8.7004 22.1263 8.73837 22.1151 8.77739 22.1131C8.81641 22.1111 8.85534 22.1184 8.89094 22.1344" fill="#F4A519"/>
<path d="M10.1771 23.0486C10.1484 22.8429 10.1081 22.639 10.0566 22.4378C10.005 22.235 10.0156 22.0215 10.087 21.8249C10.0953 21.805 10.1079 21.782 10.1299 21.7788C10.1519 21.7757 10.1876 21.8165 10.2211 21.8238C10.2819 21.8374 10.305 21.7412 10.3616 21.7192C10.3808 21.7137 10.4013 21.7144 10.4201 21.7212C10.4389 21.7279 10.4551 21.7404 10.4664 21.7569C10.4882 21.7925 10.5018 21.8325 10.5062 21.874C10.5559 22.1529 10.6016 22.435 10.6436 22.7202C10.656 22.7762 10.6542 22.8345 10.6383 22.8896C10.6294 22.9169 10.6105 22.9398 10.5855 22.9539C10.5605 22.968 10.5311 22.9723 10.5031 22.966C10.4907 22.9586 10.4766 22.9547 10.4622 22.9545C10.436 22.9545 10.4255 22.9869 10.413 23.0109C10.4009 23.0316 10.3845 23.0494 10.3648 23.063C10.345 23.0766 10.3225 23.0856 10.2989 23.0895C10.2753 23.0934 10.251 23.0921 10.228 23.0855C10.2049 23.079 10.1836 23.0674 10.1656 23.0517" fill="#F4A519"/>
<path d="M19.1708 26.4907C18.9631 26.4787 18.7548 26.4787 18.5471 26.4907C18.3378 26.502 18.1298 26.451 17.9496 26.3443C17.9318 26.3317 17.9119 26.314 17.9129 26.292C17.914 26.27 17.9611 26.2439 17.9748 26.2115C17.9989 26.155 17.9098 26.1142 17.8961 26.0535C17.8937 26.033 17.8982 26.0122 17.9088 25.9944C17.9194 25.9767 17.9356 25.9629 17.9548 25.9552C17.9936 25.9408 18.0352 25.935 18.0764 25.9385C18.3626 25.9437 18.6498 25.9531 18.936 25.9667C18.9934 25.9644 19.0505 25.977 19.1016 26.0033C19.1266 26.0175 19.1455 26.0404 19.1546 26.0676C19.1637 26.0949 19.1624 26.1245 19.1509 26.1508C19.1417 26.1619 19.1349 26.1747 19.1309 26.1885C19.1309 26.2146 19.1561 26.2313 19.1771 26.247C19.1952 26.2628 19.2096 26.2823 19.2192 26.3043C19.2289 26.3262 19.2336 26.35 19.233 26.374C19.2324 26.398 19.2265 26.4215 19.2157 26.443C19.205 26.4644 19.1896 26.4832 19.1708 26.498" fill="#F4A519"/>
</g>
<defs>
<clipPath id="clip0_1760_25877">
<rect width="22" height="22" fill="white" transform="translate(4 6)"/>
</clipPath>
</defs>
</svg>
