<svg width="21" height="19" viewBox="0 0 21 19" fill="none" xmlns="http://www.w3.org/2000/svg">
<path d="M18.4927 2.49933C18.0165 2.0241 17.4506 1.64702 16.8275 1.38973C16.2045 1.13244 15.5365 1 14.8618 1C14.1872 1 13.5191 1.13244 12.8961 1.38973C12.273 1.64702 11.7071 2.0241 11.2309 2.49933L10.5 3.23566L9.76908 2.49933C9.29286 2.0241 8.72699 1.64702 8.10392 1.38973C7.48085 1.13244 6.81284 1 6.1382 1C5.46355 1 4.79554 1.13244 4.17247 1.38973C3.5494 1.64702 2.98353 2.0241 2.50731 2.49933C0.494903 4.50064 0.3715 7.8802 2.906 10.4479L10.5 18L18.094 10.4479C20.6285 7.8802 20.5051 4.50064 18.4927 2.49933Z" stroke="#90A0B7" stroke-width="2" stroke-linecap="round" stroke-linejoin="round"/>
</svg>
