<svg width="17" height="18" viewBox="0 0 17 18" fill="none" xmlns="http://www.w3.org/2000/svg">
    <g clip-path="url(#clip0_674_6156)">
        <path
            d="M9.12514 4.57588C9.03116 4.49707 8.92939 4.42801 8.82139 4.36978C8.77303 4.33876 8.71688 4.32196 8.65939 4.32129C8.59949 4.33047 8.54336 4.35623 8.4974 4.39564C7.95009 4.79557 7.49927 5.3125 7.17793 5.90862C7.07263 6.1034 6.98029 6.31758 7.00297 6.53742C7.02656 6.67937 7.07481 6.81612 7.14553 6.94152C7.2178 7.11514 7.32599 7.27158 7.46304 7.40059C7.75383 7.64305 8.18312 7.60264 8.54276 7.48949"
            fill="#F4A519" />
        <path
            d="M13.1331 8.15346C13.1566 8.22503 13.1735 8.29863 13.1834 8.37329C13.1882 8.39812 13.1882 8.42364 13.1834 8.44846C13.1789 8.46664 13.1724 8.48427 13.1639 8.50099L13.1258 8.56969C13.1105 8.59717 13.0878 8.62869 13.057 8.62303C13.0439 8.61858 13.0329 8.60941 13.0261 8.59731C13.0194 8.58521 13.0174 8.57105 13.0205 8.55757C13.0275 8.52962 13.0376 8.50251 13.0505 8.47675C13.0698 8.39993 13.0641 8.319 13.0343 8.2456C13.0145 8.14972 12.9711 8.06028 12.908 7.98535"
            fill="#F4A519" />
        <path
            d="M12.8294 7.98414C12.847 8.02844 12.8619 8.07379 12.8739 8.11992C12.8868 8.16288 12.8925 8.20766 12.8909 8.25247C12.8886 8.29775 12.8693 8.34048 12.8367 8.37208C12.8213 8.38582 12.8002 8.39956 12.7986 8.41977C12.7985 8.42575 12.7995 8.4317 12.8018 8.43725C12.804 8.44281 12.8073 8.44786 12.8116 8.4521C12.8201 8.46038 12.8308 8.46595 12.8425 8.46811C12.8542 8.47027 12.8663 8.46891 12.8772 8.46422C12.8885 8.45861 12.8986 8.45093 12.9071 8.44159C12.9656 8.38022 13.0036 8.30224 13.0158 8.21842C13.028 8.13459 13.0138 8.04906 12.9752 7.97363"
            fill="#F4A519" />
        <path
            d="M12.7151 8.55149C12.7467 8.54421 12.7507 8.49006 12.7459 8.45208L12.6924 7.99301C12.8356 8.04545 12.97 8.1193 13.0909 8.21204C13.2067 8.32599 13.3185 8.58462 13.3898 8.50865C13.4157 8.47956 13.3039 8.1296 13.0941 7.8936C12.9675 7.75334 12.8282 7.62509 12.6778 7.5105C12.593 7.45576 12.5035 7.40844 12.4105 7.36907L11.8808 7.10074C11.6127 6.96496 11.3349 6.82029 11.1518 6.54873C11.0117 6.34587 10.9331 6.08724 10.8562 5.83346L10.6447 5.13031L10.4909 5.15375C10.4738 4.95978 10.4682 4.8143 10.4657 4.77389C10.4657 4.77389 9.76672 4.22511 9.80155 5.27013C9.80155 5.27013 9.80155 5.28306 9.80641 5.30569C9.81449 5.4577 9.83153 5.6091 9.85744 5.7591C9.87314 5.85266 9.89534 5.94502 9.92386 6.03551C9.93046 6.07096 9.94219 6.10527 9.95869 6.13735C10.4747 7.48949 12.3222 7.74327 12.3222 7.74327C12.3077 7.8055 12.3911 7.96715 12.498 8.08272C12.6049 8.1983 12.498 8.43834 12.6851 8.54179C12.6891 8.54545 12.6939 8.5482 12.699 8.54988C12.7042 8.55155 12.7097 8.5521 12.7151 8.55149Z"
            fill="#F4A519" />
        <path
            d="M10.0859 3.14651C10.2287 3.2918 10.4007 3.4053 10.5905 3.47955C10.7804 3.5538 10.9838 3.5871 11.1875 3.57729C11.2425 3.57929 11.2964 3.56118 11.339 3.52637C11.3684 3.48846 11.3857 3.44252 11.3884 3.39463L11.4346 3.10771C11.4386 3.09744 11.44 3.08635 11.4386 3.07542C11.4373 3.06449 11.4333 3.05404 11.427 3.04502C11.4207 3.03599 11.4122 3.02866 11.4024 3.02366C11.3925 3.01867 11.3816 3.01617 11.3706 3.01638C11.0954 2.95601 10.8139 2.92887 10.5322 2.93556"
            fill="#F4A519" />
        <path
            d="M11.0093 15.9503C10.9845 16.1956 10.9415 16.4388 10.8805 16.6777C10.8501 16.8113 10.8078 16.9419 10.7542 17.0681C10.8708 17.0901 10.9894 17.1001 11.1081 17.098C11.1233 17.099 11.1384 17.095 11.151 17.0866C11.1604 17.0771 11.1666 17.065 11.1689 17.0519C11.2769 16.6733 11.3517 16.2861 11.3924 15.8945L11.0093 15.9503Z"
            fill="#F4A519" />
        <path
            d="M5.06386 13.2457C4.74802 13.3444 4.42454 13.4168 4.09674 13.4623C4.09674 13.3508 4.09674 13.2392 4.09674 13.1277C4.09563 13.1194 4.09621 13.111 4.09844 13.1029C4.10066 13.0949 4.10449 13.0874 4.1097 13.0808C4.11969 13.0736 4.13143 13.0691 4.14371 13.0679L5.12542 12.9062"
            fill="#F4A519" />
        <path
            d="M10.7574 4.87402L11.1624 5.5206C11.2782 5.70406 11.4102 5.89965 11.6168 5.96511C11.5005 6.11555 11.3539 6.24002 11.1865 6.3305C11.0191 6.42098 10.8346 6.47547 10.6448 6.49045"
            fill="#F4A519" />
        <path
            d="M11.1201 8.28613C11.3518 9.55934 11.5837 10.8326 11.8159 12.1058C11.9007 12.5214 11.9591 12.942 11.9908 13.365C12.0419 14.3025 11.8289 15.2352 11.6199 16.1557C11.325 16.2204 10.8739 16.1703 10.8739 16.1703C10.8739 16.1703 11.1477 13.8628 10.6309 12.8283C10.3879 12.3361 9.98856 11.9158 9.68239 11.4543C9.25552 10.8078 9.0101 10.0804 8.78573 9.35298C8.7347 9.19133 8.69177 8.99251 8.81813 8.8632"
            fill="#F4A519" />
        <path
            d="M11.0579 1.35742C11.2011 1.52786 11.2942 1.73462 11.3268 1.95469C11.3297 2.02152 11.3456 2.08713 11.3737 2.14786C11.4088 2.20082 11.4553 2.24529 11.5098 2.27798C11.5812 2.32667 11.655 2.37171 11.731 2.41295C11.7674 2.43316 11.7423 2.51964 11.7423 2.51964C11.7423 2.51964 11.6767 2.54954 11.5941 2.58995C11.5402 2.60662 11.4938 2.64148 11.4628 2.68855C11.4479 2.7392 11.4479 2.79308 11.4628 2.84373C11.4807 2.97515 11.4671 3.10892 11.4232 3.2341C11.4175 3.25494 11.406 3.27373 11.3899 3.28825C11.3677 3.30043 11.3423 3.3055 11.317 3.3028C11.1774 3.29851 11.0406 3.2617 10.9177 3.1953"
            fill="#F4A519" />
        <path
            d="M10.7136 3.59546C10.6656 3.86701 10.6678 4.14502 10.72 4.41579C10.8577 5.09227 9.78289 4.34952 9.78289 4.34952L9.66382 4.29779L9.7918 2.92383L10.1531 2.92868L10.7362 2.93838H10.8788H10.9331C10.8747 3.02081 10.7678 3.27055 10.7136 3.59546Z"
            fill="#F4A519" />
        <path
            d="M10.6335 0.865203C10.9769 1.14646 11.1762 1.56027 11.275 1.98781C11.3738 2.41536 11.3819 2.85745 11.3819 3.29551C11.1568 3.40381 10.8959 3.40219 10.6465 3.39815C10.4367 3.39815 10.2188 3.39007 10.0301 3.29874C9.69717 3.1371 9.53841 2.75481 9.46308 2.39273C9.39544 2.10514 9.39544 1.80583 9.46308 1.51824C9.4991 1.37414 9.56626 1.23965 9.65987 1.12419C9.75348 1.00873 9.87126 0.915092 10.005 0.849847C10.2731 0.728614 10.6238 0.777107 10.8149 1.00098"
            fill="#F4A519" />
        <path
            d="M11.5115 5.94434C11.5115 5.95646 11.518 5.96777 11.5204 5.97909C11.5171 5.96777 11.5147 5.95646 11.5115 5.94434Z"
            fill="#F4A519" />
        <path
            d="M11.5356 6.04004C11.5405 6.05863 11.5437 6.07641 11.5478 6.09338C11.5451 6.07668 11.541 6.0589 11.5356 6.04004Z"
            fill="#F4A519" />
        <path
            d="M11.4555 5.74455C11.4425 5.70252 11.4287 5.65888 11.4158 5.61523C11.4287 5.65888 11.4425 5.70171 11.4547 5.74455H11.4555Z"
            fill="#F4A519" />
        <path
            d="M9.15032 5.04004C9.13736 5.12086 9.12602 5.19683 9.11792 5.27361C9.2864 5.30837 9.45568 5.33504 9.62578 5.35443C9.57387 5.27386 9.53018 5.1883 9.49537 5.09904C9.38036 5.08287 9.26534 5.06348 9.15032 5.04004Z"
            fill="#F4A519" />
        <path
            d="M11.5203 5.97949C11.5259 6.00051 11.5308 6.02071 11.5357 6.04011C11.5308 6.02071 11.5259 6.00051 11.5203 5.97949Z"
            fill="#F4A519" />
        <path
            d="M9.3999 4.79297C9.3999 4.80105 9.3999 4.80913 9.40557 4.81722C9.48657 4.83095 9.56757 4.84308 9.64857 4.85439L9.3999 4.79297Z"
            fill="#F4A519" />
        <path
            d="M10.2956 1.35325C10.7111 1.41387 11.1056 1.39528 11.3616 1.31123C11.3557 1.30303 11.3515 1.29373 11.3493 1.28389C11.3472 1.27404 11.347 1.26386 11.3489 1.25395C11.3508 1.24405 11.3547 1.23463 11.3603 1.22628C11.366 1.21792 11.3733 1.2108 11.3818 1.20535L11.4069 1.1908C11.4066 1.18704 11.4066 1.18325 11.4069 1.17949C11.3982 1.17677 11.3902 1.17231 11.3832 1.16639C11.3763 1.16046 11.3707 1.1532 11.3667 1.14503C11.3627 1.13687 11.3604 1.12798 11.3599 1.11889C11.3594 1.10981 11.3608 1.10073 11.364 1.0922C11.3478 1.08636 11.3343 1.07488 11.3259 1.05987C11.3102 1.06343 11.2936 1.06091 11.2797 1.05281C11.2657 1.04472 11.2553 1.03165 11.2506 1.01623L11.2028 1.02916C11.1275 1.04856 11.1007 0.942681 11.1607 0.907928H11.1696C11.1658 0.896913 11.1655 0.884987 11.1689 0.873826C11.1722 0.862665 11.179 0.852827 11.1882 0.845695L11.2141 0.823065C11.2061 0.817799 11.1993 0.810764 11.1944 0.8025C11.1895 0.794235 11.1866 0.784959 11.1858 0.775381H11.1753C11.1299 0.788312 11.0943 0.736586 11.1121 0.694559C11.0993 0.692186 11.0876 0.685651 11.0789 0.67597C11.0497 0.68643 11.0187 0.690544 10.9878 0.688035C10.9569 0.685525 10.9269 0.676451 10.8999 0.661422C10.8391 0.661422 10.7727 0.661422 10.6998 0.661422C10.3661 0.599998 10.3507 0.513519 9.90924 0.772956C9.73915 0.873983 9.52855 0.881257 9.34225 0.956421C9.22345 0.996045 9.11727 1.06631 9.03446 1.16009C8.9405 1.28375 8.92916 1.44943 8.92187 1.60461C8.90858 1.7553 8.91402 1.90705 8.93807 2.0564C9.01907 2.46697 9.35683 2.77167 9.68893 3.02626L9.71728 3.0101L9.84283 2.55184L9.92382 2.02973C9.92382 2.02973 10.1814 2.15904 10.2478 1.78727C10.3142 1.41549 10.2956 1.35325 10.2956 1.35325Z"
            fill="#F4A519" />
        <path
            d="M9.98147 2.43137C9.98095 2.3044 9.99097 2.17762 10.0114 2.05231C9.99615 2.02916 9.97617 2.00945 9.95279 1.99446C9.92941 1.97946 9.90315 1.96952 9.87569 1.96525C9.84822 1.96099 9.82017 1.96251 9.79333 1.96971C9.7665 1.9769 9.74146 1.98963 9.71984 2.00705C9.67727 2.04626 9.64431 2.09472 9.62352 2.14868C9.60274 2.20264 9.59468 2.26065 9.59997 2.31822C9.60483 2.47501 9.69635 2.65443 9.85349 2.66332C9.89925 2.66506 9.94454 2.65356 9.9839 2.63019C9.97842 2.56405 9.97761 2.49761 9.98147 2.43137Z"
            fill="#F4A519" />
        <path
            d="M9.76196 0.903719C9.79674 0.826268 9.85667 0.762773 9.93206 0.723487C10.0251 0.658279 10.1275 0.607589 10.2358 0.573159C10.4448 0.516584 10.6651 0.573159 10.8781 0.613569C11.0912 0.65398 11.326 0.673377 11.5091 0.556994C11.5355 0.537236 11.5641 0.520432 11.5942 0.506885C11.6094 0.500276 11.6261 0.497768 11.6425 0.499612C11.659 0.501456 11.6747 0.507587 11.6881 0.517392C11.7302 0.55457 11.7108 0.623268 11.6816 0.670953C11.6221 0.761734 11.5448 0.839544 11.4543 0.89969C11.3638 0.959835 11.262 1.00107 11.1551 1.02091C10.9396 1.06041 10.7178 1.04962 10.5072 0.989389"
            fill="#F4A519" />
        <path
            d="M10.1797 1.36433C10.4237 1.45266 10.686 1.47844 10.9426 1.43933C11.1991 1.40021 11.4418 1.29745 11.6482 1.14046C11.745 1.07657 11.8194 0.984197 11.8612 0.87617C11.8673 0.861412 11.8673 0.844859 11.8612 0.830101C11.8548 0.820403 11.845 0.813475 11.8337 0.810704C11.7815 0.802323 11.7281 0.811118 11.6814 0.835759C11.4178 0.935511 11.126 0.930885 10.8657 0.822828"
            fill="#F4A519" />
        <path
            d="M9.51001 1.0283C9.51567 0.965007 9.53679 0.904062 9.57153 0.850802C9.60627 0.797542 9.65356 0.75359 9.70927 0.722795C9.99843 0.53044 10.3799 0.539331 10.7161 0.627426C10.81 0.65011 10.9011 0.683465 10.9874 0.726837C11.021 0.74227 11.0492 0.767307 11.0684 0.798768C11.0792 0.82693 11.0808 0.857805 11.0727 0.886885C11.0647 0.915965 11.0476 0.941727 11.0239 0.960411C10.9759 0.996033 10.9205 1.0206 10.8619 1.03234C10.6408 1.09053 10.4172 1.13741 10.1912 1.17459"
            fill="#F4A519" />
        <path
            d="M9.32861 4.39401C9.35802 4.20806 9.40438 4.02519 9.46712 3.84766L10.9138 4.25904C10.9333 4.26171 10.9519 4.26906 10.968 4.28046C10.9841 4.29186 10.9971 4.30697 11.0061 4.3245C11.0126 4.35105 11.0126 4.37877 11.0061 4.40532C10.9964 4.47645 10.9858 4.54838 10.9761 4.6195C10.9746 4.65097 10.9639 4.68131 10.9453 4.70679C10.9342 4.71596 10.9212 4.7227 10.9072 4.7266C10.8933 4.73049 10.8787 4.73145 10.8643 4.72942C10.4108 4.71972 9.94258 4.70679 9.5303 4.48695"
            fill="#F4A519" />
        <path
            d="M11.1056 8.71963C10.7694 9.79779 10.3766 10.8654 9.79825 11.8369C9.54796 12.2588 9.24908 12.6758 8.81898 12.9127C8.38887 13.1495 7.89397 13.181 7.41284 13.2198C6.52455 13.2925 5.64005 13.4003 4.75932 13.5431C4.6922 13.324 4.66908 13.0938 4.69128 12.8658L6.9795 12.3C7.09475 12.2801 7.20488 12.2375 7.30349 12.1748C7.41218 12.0814 7.49267 11.9596 7.53596 11.8232C7.76032 11.2518 7.80244 10.6286 7.94662 10.033C8.18071 9.06312 8.45691 8.15792 9.17213 7.45801"
            fill="#F4A519" />
        <path
            d="M10.8601 4.50391C11.2926 5.93049 11.4304 7.42983 11.2651 8.9111C10.1869 9.03084 9.09553 8.92065 8.06323 8.58782C8.70705 7.4005 9.17626 6.12689 9.45641 4.80618"
            fill="#F4A519" />
        <path
            d="M9.46305 9.57625C9.50299 9.67511 9.53284 9.77773 9.55215 9.88256C9.558 9.91799 9.57108 9.95184 9.59058 9.98201C9.61009 10.0122 9.63561 10.038 9.66555 10.0579C9.67385 10.062 9.68253 10.0653 9.69147 10.0676C9.67661 9.94913 9.6788 9.82911 9.69795 9.71122C9.70684 9.6731 9.70931 9.63376 9.70524 9.59484C9.69077 9.5346 9.6555 9.48137 9.60561 9.44451C9.56513 9.41101 9.52266 9.37997 9.47844 9.35156C9.4574 9.42452 9.45215 9.50111 9.46305 9.57625Z"
            fill="#F4A519" />
        <path
            d="M9.55764 10.0369C9.39564 10.0781 9.30006 10.07 9.11215 9.9391C9.01998 9.88354 8.93369 9.81883 8.85457 9.74594C8.8454 9.71783 8.83783 9.68923 8.83189 9.66027C8.8165 9.57945 8.8003 9.49862 8.78491 9.4178L8.80192 9.38871C8.86604 9.27287 8.94352 9.16492 9.03277 9.06704C9.03908 9.061 9.04692 9.05681 9.05545 9.05491C9.11701 9.05007 9.18262 9.12442 9.18262 9.12442C9.26254 9.19578 9.35031 9.25787 9.44424 9.3095C9.41546 9.38906 9.41291 9.47571 9.43695 9.55682C9.43655 9.56462 9.43655 9.57245 9.43695 9.58025C9.43787 9.61244 9.44058 9.64455 9.44505 9.67643C9.44505 9.67643 9.44505 9.67643 9.44505 9.6829C9.45199 9.72865 9.46256 9.77378 9.47664 9.81787C9.47629 9.81947 9.47629 9.82112 9.47664 9.82272C9.4891 9.86361 9.50565 9.90314 9.52605 9.94072V9.95284C9.53107 9.95785 9.53567 9.96326 9.53982 9.96901C9.55442 9.98844 9.56082 10.0128 9.55764 10.0369Z"
            fill="#F4A519" />
        <path
            d="M9.06292 9.04785C9.13505 9.07679 9.204 9.11308 9.26866 9.15615C9.3367 9.20949 9.53676 9.39215 9.53676 9.39215L9.46305 9.57562C9.46305 9.57562 9.43308 9.54652 9.43551 9.60633C9.45137 9.7025 9.47246 9.79774 9.49869 9.89163L9.27109 9.88597L9.07345 9.80515L8.89282 9.62007L9.05482 9.05432L9.06292 9.04785Z"
            fill="#F4A519" />
        <path
            d="M10.0462 5.40763L9.92387 5.79719C9.70031 6.06956 9.00291 6.68623 8.72347 7.09034C8.6734 7.15545 8.63503 7.22874 8.61007 7.30694C8.59533 7.40472 8.59533 7.50415 8.61007 7.60194C8.653 8.04726 8.85306 8.7593 9.02964 9.06885C8.94142 9.1674 8.86503 9.2759 8.80203 9.39213C8.37112 8.93387 7.94102 8.16849 7.8989 7.57284C7.85146 6.93682 8.03648 6.30518 8.41972 5.79477C8.59102 5.57942 8.78073 5.37931 8.98671 5.19669C9.20298 4.99706 9.49295 4.78773 9.7643 4.89926C9.9506 4.97766 10.051 5.20073 10.0462 5.40763Z"
            fill="#F4A519" />
        <path
            d="M9.09279 9.16258L8.97858 9.32423L8.87571 9.46486C8.85141 9.44142 8.8263 9.41717 8.802 9.39131C8.86591 9.27434 8.94339 9.16529 9.03285 9.06641C9.0369 9.07449 9.04176 9.08176 9.04581 9.08904C9.0594 9.11481 9.07511 9.13941 9.09279 9.16258Z"
            fill="#F4A519" />
        <path
            d="M9.39413 6.56145L8.61412 6.09268C8.41648 5.97387 8.20912 5.84537 8.10059 5.63927C8.30794 5.48329 8.46022 5.26426 8.61412 5.05332C8.76801 4.84237 8.93811 4.63062 9.15762 4.49888C9.37712 4.36714 9.67682 4.33724 9.89147 4.48029C9.97627 4.54694 10.045 4.6317 10.0927 4.72835C10.1403 4.82499 10.1657 4.93106 10.1669 5.03877C10.1701 5.25437 10.1353 5.46886 10.064 5.67241C9.95627 6.02964 9.821 6.38849 9.57314 6.66409"
            fill="#F4A519" />
        <path d="M9.32373 4.42383H9.37638C9.36368 4.42789 9.35146 4.43331 9.33993 4.43999L9.32373 4.42383Z"
            fill="#F4A519" />
        <path
            d="M10.2399 5.47142C10.2405 5.78926 10.1596 6.10198 10.005 6.37985C9.85835 6.62232 9.63804 6.8074 9.41772 6.9844C9.15367 7.19669 8.88367 7.40198 8.60773 7.60026C8.59299 7.50248 8.59299 7.40304 8.60773 7.30526C8.6327 7.22706 8.67106 7.15377 8.72113 7.08866C9.05161 6.95773 9.37398 6.79204 9.59673 6.52291C9.73971 6.33258 9.84926 6.11942 9.92072 5.8925C10.0147 5.62821 10.09 5.34938 10.0495 5.07297C10.009 4.79656 9.82838 4.52419 9.55623 4.45388C9.49495 4.43891 9.4322 4.43078 9.36912 4.42963C9.61212 4.33507 9.90452 4.466 10.0544 4.68099C10.2204 4.90486 10.248 5.19582 10.2399 5.47142Z"
            fill="#F4A519" />
        <path
            d="M10.4683 17.1751C10.5428 17.0822 10.6023 16.9783 10.6448 16.8671C10.6504 16.8437 10.6642 16.8231 10.6837 16.8089C10.7051 16.8005 10.7285 16.7986 10.7509 16.8033L11.3082 16.8688C11.3326 16.8701 11.3563 16.8767 11.3779 16.8882C11.4034 16.9093 11.4222 16.9374 11.4321 16.969C11.5124 17.1094 11.6438 17.2136 11.7991 17.2599C11.9579 17.3078 12.1204 17.3421 12.2851 17.3626C12.3247 17.3653 12.3625 17.3806 12.3928 17.4062C12.3994 17.4126 12.4044 17.4206 12.4072 17.4294C12.4101 17.4381 12.4107 17.4475 12.4091 17.4566C12.4075 17.4656 12.4037 17.4742 12.3981 17.4815C12.3924 17.4888 12.385 17.4946 12.3766 17.4984C12.3677 17.4996 12.3587 17.4996 12.3499 17.4984C11.722 17.5098 11.0948 17.4523 10.4796 17.327C10.4721 17.2978 10.4719 17.2672 10.479 17.2379C10.486 17.2087 10.5001 17.1815 10.5201 17.1589"
            fill="#F4A519" />
        <path
            d="M3.74932 12.9238C3.85969 12.9686 3.97639 12.9958 4.09519 13.0046C4.11932 13.0029 4.14324 13.0101 4.16242 13.0249C4.17696 13.0429 4.18572 13.0648 4.18753 13.0879L4.28473 13.6383C4.29026 13.6622 4.29026 13.6871 4.28473 13.711C4.27213 13.7409 4.25136 13.7667 4.22479 13.7854C4.11302 13.9026 4.05093 14.0584 4.05145 14.2202C4.0509 14.3843 4.06445 14.5482 4.09195 14.71C4.10019 14.7488 4.09623 14.7891 4.08061 14.8256C4.07648 14.8338 4.07038 14.8408 4.06286 14.8461C4.05533 14.8514 4.04661 14.8548 4.03748 14.8559C4.02834 14.857 4.01907 14.8559 4.01048 14.8525C4.0019 14.8492 3.99427 14.8438 3.98827 14.8369C3.98361 14.8293 3.98007 14.8212 3.97774 14.8126C3.78635 14.2158 3.66167 13.5997 3.60596 12.9756C3.63205 12.9604 3.6614 12.9517 3.69155 12.9501C3.7217 12.9486 3.75178 12.9543 3.77929 12.9667"
            fill="#F4A519" />
        <path
            d="M4.77326 13.6736C4.75104 13.5147 4.71995 13.3571 4.68011 13.2016C4.64031 13.045 4.64849 12.88 4.7036 12.728C4.71008 12.7127 4.7198 12.6949 4.73681 12.6924C4.75382 12.69 4.78136 12.7215 4.80728 12.7272C4.85426 12.7377 4.87208 12.6634 4.91582 12.6464C4.93067 12.6421 4.94648 12.6427 4.96102 12.6479C4.97555 12.6531 4.98807 12.6628 4.99682 12.6755C5.01363 12.703 5.02414 12.7339 5.0276 12.766C5.06594 12.9815 5.10131 13.1995 5.13371 13.4198C5.14335 13.4631 5.14196 13.5082 5.12966 13.5508C5.12274 13.5718 5.10819 13.5896 5.08887 13.6005C5.06954 13.6114 5.04682 13.6147 5.02517 13.6098C5.01559 13.6041 5.0047 13.6011 4.99358 13.6009C4.97333 13.6009 4.96523 13.6259 4.95551 13.6445C4.94622 13.6605 4.9335 13.6742 4.91826 13.6847C4.90302 13.6952 4.88565 13.7023 4.86738 13.7053C4.84911 13.7083 4.8304 13.7072 4.81259 13.7022C4.79477 13.6971 4.7783 13.6882 4.76435 13.676"
            fill="#F4A519" />
        <path
            d="M11.7227 16.3337C11.5622 16.3244 11.4013 16.3244 11.2408 16.3337C11.0791 16.3425 10.9184 16.3031 10.7791 16.2206C10.7653 16.2109 10.7499 16.1971 10.7508 16.1802C10.7516 16.1632 10.788 16.143 10.7985 16.1179C10.8172 16.0743 10.7483 16.0428 10.7378 15.9959C10.7359 15.98 10.7394 15.964 10.7476 15.9502C10.7558 15.9365 10.7683 15.9259 10.7832 15.9199C10.8131 15.9088 10.8452 15.9043 10.8771 15.907C11.0982 15.911 11.3202 15.9183 11.5413 15.9288C11.5857 15.927 11.6298 15.9368 11.6693 15.9571C11.6886 15.968 11.7032 15.9857 11.7102 16.0068C11.7173 16.0278 11.7162 16.0507 11.7073 16.0711C11.7003 16.0796 11.695 16.0895 11.692 16.1002C11.692 16.1204 11.7114 16.1333 11.7276 16.1454C11.7416 16.1576 11.7527 16.1727 11.7602 16.1897C11.7676 16.2066 11.7713 16.225 11.7708 16.2435C11.7703 16.2621 11.7658 16.2803 11.7575 16.2968C11.7492 16.3134 11.7373 16.3279 11.7227 16.3394"
            fill="#F4A519" />
    </g>
    <defs>
        <clipPath id="clip0_674_6156">
            <rect width="17" height="17" fill="white" transform="translate(0 0.5)" />
        </clipPath>
    </defs>
</svg>