<svg width="22" height="22" viewBox="0 0 22 22" fill="none" xmlns="http://www.w3.org/2000/svg">
<path d="M17.4167 10.084H4.58333C3.57081 10.084 2.75 10.9048 2.75 11.9173V18.334C2.75 19.3465 3.57081 20.1673 4.58333 20.1673H17.4167C18.4292 20.1673 19.25 19.3465 19.25 18.334V11.9173C19.25 10.9048 18.4292 10.084 17.4167 10.084Z" stroke="#C2CFE0" stroke-width="2" stroke-linecap="round" stroke-linejoin="round"/>
<path d="M6.4165 10.084V6.41732C6.4165 5.20174 6.89939 4.03595 7.75893 3.17641C8.61847 2.31687 9.78426 1.83398 10.9998 1.83398C12.2154 1.83398 13.3812 2.31687 14.2407 3.17641C15.1003 4.03595 15.5832 5.20174 15.5832 6.41732V10.084" stroke="#C2CFE0" stroke-width="2" stroke-linecap="round" stroke-linejoin="round"/>
</svg>
