<svg width="39" height="39" viewBox="0 0 39 39" fill="none" xmlns="http://www.w3.org/2000/svg">
<path d="M35.7505 9.75317V29.2532C35.7505 31.0481 34.2954 32.5032 32.5005 32.5032H6.50049C4.70556 32.5032 3.25049 31.0481 3.25049 29.2532V9.75317" stroke="#44C62F" stroke-width="3" stroke-linecap="round" stroke-linejoin="round"/>
<path d="M35.7505 9.75317C35.7505 7.95825 34.2954 6.50317 32.5005 6.50317H6.50049C4.70556 6.50317 3.25049 7.95825 3.25049 9.75317" stroke="#44C62F" stroke-width="3" stroke-linecap="round" stroke-linejoin="round"/>
<path d="M35.7505 11.3782L21.1742 20.6407C20.6726 20.955 20.0925 21.1217 19.5005 21.1217C18.9085 21.1217 18.3284 20.955 17.8267 20.6407L3.25049 11.3782" stroke="#44C62F" stroke-width="3" stroke-linecap="round" stroke-linejoin="round"/>
<path d="M-nan -nanL7 17H32L-nan -nanL32 17L20.3655 22.5846C19.8184 22.8472 19.1816 22.8472 18.6345 22.5846L7 17L-nan -nanZ" fill="#F0F3F8"/>
</svg>
