<svg width="39" height="43" viewBox="0 0 39 43" fill="none" xmlns="http://www.w3.org/2000/svg">
<path d="M32.5005 10.5032H6.50049C4.70556 10.5032 3.25049 11.9582 3.25049 13.7532V33.2532C3.25049 35.0481 4.70556 36.5032 6.50049 36.5032H32.5005C34.2954 36.5032 35.7505 35.0481 35.7505 33.2532V13.7532C35.7505 11.9582 34.2954 10.5032 32.5005 10.5032Z" stroke="#44C62F" stroke-width="3" stroke-linecap="round" stroke-linejoin="round"/>
<path d="M35 12L21.0965 2.49368C20.618 2.17109 20.0647 2 19.5 2C18.9353 2 18.382 2.17109 17.9035 2.49368L4 12" stroke="#44C62F" stroke-width="3" stroke-linecap="round" stroke-linejoin="round"/>
<path d="M7 7C7 4.79086 8.79086 3 11 3H28C30.2091 3 32 4.79086 32 7V18.4831C32 20.0214 31.1178 21.4235 29.7309 22.0892L21.2309 26.1692C20.1367 26.6944 18.8633 26.6944 17.7691 26.1692L9.26908 22.0892C7.88222 21.4235 7 20.0214 7 18.4831V7Z" fill="#44C62F"/>
<g clip-path="url(#clip0_404_7358)">
<path d="M21.2718 9.87175C21.4759 9.20974 21.6119 8.76496 21.7946 8.2233C20.7528 8.02397 20.536 8 19.6371 8C18.4043 8 17.3505 8.19112 16.4754 8.57335C15.6004 8.95558 14.872 9.47453 14.2903 10.1302C13.7103 10.7852 13.3228 11.4953 13.1278 12.2604C13.0917 12.4009 13.0634 12.5431 13.043 12.6864C12.9954 12.9903 12.9873 13.2985 13.0189 13.6043C13.0624 14.0371 13.1857 14.4117 13.3887 14.7283C13.5919 15.0455 13.8819 15.2947 14.2614 15.4806C14.6409 15.6665 14.9997 15.7413 15.5145 15.8254C16.0294 15.9095 16.6285 15.916 17.187 15.916C17.4819 15.916 17.8524 15.886 18.224 15.8632C18.1014 16.2736 17.5263 18.1349 17.2609 19.0003L18.4191 18.9897L20.0351 18.9721L21.8343 18.9514C22.4026 18.9452 22.8008 18.9404 23.0232 18.9087C23.3073 18.865 23.5848 18.7897 23.8498 18.6844C24.1279 18.5738 24.3654 18.4424 24.5605 18.2884C24.796 18.1036 24.9977 17.8839 25.1574 17.6379C25.3226 17.3889 25.4434 17.1164 25.5152 16.8311C25.5665 16.6379 25.5868 16.4387 25.5756 16.24C25.5667 16.0643 25.519 15.8922 25.4355 15.7346C25.3619 15.5921 25.2563 15.4661 25.1261 15.3652C25.016 15.2774 24.8919 15.2063 24.7583 15.1545C24.6375 15.1113 24.4731 15.0724 24.2627 15.0396C24.4541 14.995 24.6422 14.939 24.8259 14.8718C24.9871 14.8066 25.1411 14.7267 25.2856 14.6332C25.4548 14.5236 25.6098 14.3959 25.7473 14.2525C25.899 14.0938 26.029 13.9179 26.1341 13.7289C26.1681 13.6699 26.197 13.611 26.226 13.5499C26.2901 13.4085 26.341 13.2622 26.3782 13.1125C26.4483 12.8383 26.463 12.5799 26.4218 12.3397C26.3856 12.129 26.3058 11.9477 26.1824 11.7959C26.0714 11.669 25.9197 11.5601 25.7257 11.4741C25.5317 11.388 25.2954 11.3263 25.0175 11.2935C24.8074 11.2685 18.8427 11.3555 18.4778 11.3614C18.4028 11.6058 18.3487 11.7988 18.3027 11.9415C18.2566 12.0842 18.2254 12.1908 18.2035 12.2656L17.9867 12.9514L19.1222 12.939C19.0643 13.1452 18.7063 14.2853 18.7063 14.2853H17.4228C16.9829 14.2853 16.6735 14.2671 16.3546 14.1085C16.0357 13.9499 15.8369 13.7175 15.7478 13.414C15.6923 13.219 15.6754 13.006 15.697 12.7748C15.7088 12.6412 15.7315 12.5086 15.7648 12.3783C15.8633 11.9936 16.029 11.6268 16.2551 11.2928C16.4867 10.9504 16.7835 10.6508 17.1307 10.409C17.4845 10.1609 17.8833 9.97508 18.3079 9.86059C18.739 9.7429 19.1858 9.68336 19.6348 9.68376C19.8064 9.68376 19.9998 9.69284 20.215 9.71101C20.4301 9.72918 20.6549 9.75863 20.8894 9.79935L21.2718 9.87175ZM23.0378 16.5707C23.0035 16.71 22.9421 16.8421 22.8565 16.9604C22.7782 17.0705 22.677 17.1646 22.5588 17.2369C22.4476 17.3049 22.2953 17.3593 22.1035 17.4024C21.9489 17.4364 21.7144 17.4517 21.4002 17.4517H20.2171L20.7144 15.8323L22.0291 15.8246C22.307 15.8246 22.4891 15.8382 22.6124 15.8676C22.7357 15.897 22.8346 15.9402 22.9101 16.0059C22.9831 16.0685 23.0328 16.1513 23.052 16.2423C23.074 16.3372 23.0695 16.446 23.0378 16.5707ZM23.3689 14.0348C23.2679 14.1108 23.1522 14.1678 23.0281 14.2026C22.9056 14.2366 22.7817 14.2354 22.6585 14.2497C22.5352 14.264 22.3389 14.2564 22.0513 14.2564L21.1957 14.2656C21.2319 14.1479 21.5329 13.1514 21.6102 12.9112L22.612 12.9002C22.9409 12.9002 23.5607 12.8283 23.729 13.1012C23.7966 13.2107 23.7815 13.3532 23.7465 13.4938C23.7223 13.5913 23.6764 13.6699 23.6151 13.7675C23.5913 13.8074 23.5638 13.8453 23.5328 13.8808C23.4851 13.9382 23.43 13.9899 23.3689 14.0348Z" fill="white"/>
</g>
<path d="M31.75 21.3789L21.1737 26.6414C20.6721 26.9557 20.092 27.1224 19.5 27.1224C18.908 27.1224 18.3279 26.9557 17.8263 26.6414L7.25 21.3789" stroke="#44C62F" stroke-width="3" stroke-linecap="round" stroke-linejoin="round"/>
<defs>
<clipPath id="clip0_404_7358">
<rect width="13.4444" height="11" fill="white" transform="translate(13 8)"/>
</clipPath>
</defs>
</svg>
