<svg width="52" height="61" viewBox="0 0 52 61" fill="none" xmlns="http://www.w3.org/2000/svg">
<g filter="url(#filter0_d_19_3380)">
<path d="M36.5317 31.152L36.5406 31.1393L36.5491 31.1263C38.0079 28.8958 38.8547 26.2413 38.8547 23.3947C38.8547 15.4539 32.2849 9.05264 24.2257 9.05264C16.1665 9.05264 9.59668 15.4539 9.59668 23.3947C9.59668 26.2413 10.4435 28.8958 11.9023 31.1263L11.9108 31.1393L11.9197 31.152L22.5879 46.4078L22.589 46.4095C23.3855 47.5436 25.066 47.5436 25.8624 46.4095L25.8636 46.4078L36.5317 31.152Z" fill="white" stroke="#F4A519" stroke-width="2"/>
<g clip-path="url(#clip0_19_3380)">
<path d="M24.3094 19.2756C24.1878 19.1736 24.0561 19.0843 23.9163 19.0089C23.8537 18.9688 23.7811 18.947 23.7067 18.9462C23.6292 18.958 23.5565 18.9914 23.497 19.0424C22.7887 19.5599 22.2053 20.2289 21.7895 21.0004C21.6532 21.2524 21.5337 21.5296 21.5631 21.8141C21.5936 21.9978 21.656 22.1748 21.7476 22.3371C21.8411 22.5617 21.9811 22.7642 22.1585 22.9311C22.5348 23.2449 23.0903 23.1926 23.5557 23.0462" fill="#F4A519"/>
<path d="M29.496 23.9049C29.5264 23.9975 29.5482 24.0928 29.561 24.1894C29.5673 24.2215 29.5673 24.2545 29.561 24.2867C29.5552 24.3102 29.5467 24.333 29.5358 24.3546L29.4866 24.4436C29.4666 24.4791 29.4373 24.5199 29.3975 24.5126C29.3805 24.5068 29.3662 24.495 29.3575 24.4793C29.3488 24.4636 29.3462 24.4453 29.3503 24.4279C29.3594 24.3917 29.3724 24.3566 29.3891 24.3233C29.414 24.2239 29.4066 24.1191 29.3681 24.0241C29.3425 23.9001 29.2863 23.7843 29.2046 23.6873" fill="#F4A519"/>
<path d="M29.1028 23.6863C29.1257 23.7437 29.1449 23.8023 29.1605 23.862C29.1771 23.9176 29.1846 23.9756 29.1825 24.0336C29.1795 24.0922 29.1544 24.1475 29.1123 24.1884C29.0924 24.2062 29.0651 24.2239 29.063 24.2501C29.0628 24.2578 29.0642 24.2655 29.0671 24.2727C29.07 24.2799 29.0743 24.2864 29.0798 24.2919C29.0908 24.3026 29.1047 24.3098 29.1198 24.3126C29.135 24.3154 29.1506 24.3137 29.1647 24.3076C29.1793 24.3003 29.1925 24.2904 29.2035 24.2783C29.2792 24.1989 29.3283 24.098 29.3441 23.9895C29.3599 23.881 29.3415 23.7703 29.2915 23.6727" fill="#F4A519"/>
<path d="M28.9549 24.4206C28.9958 24.4112 29.0011 24.3411 28.9948 24.2919L28.9256 23.6978C29.1109 23.7657 29.2848 23.8613 29.4413 23.9813C29.5912 24.1288 29.7359 24.4634 29.8281 24.3651C29.8616 24.3275 29.717 23.8746 29.4455 23.5692C29.2816 23.3877 29.1013 23.2217 28.9067 23.0734C28.7969 23.0026 28.6812 22.9413 28.5608 22.8904L27.8753 22.5431C27.5283 22.3674 27.1688 22.1802 26.9319 21.8288C26.7505 21.5662 26.6489 21.2315 26.5493 20.9031L26.2757 19.9932L26.0765 20.0235C26.0545 19.7725 26.0472 19.5842 26.044 19.5319C26.044 19.5319 25.1394 18.8217 25.1845 20.1741C25.1845 20.1741 25.1845 20.1908 25.1908 20.2201C25.2012 20.4168 25.2233 20.6128 25.2568 20.8069C25.2771 20.928 25.3059 21.0475 25.3428 21.1646C25.3513 21.2105 25.3665 21.2549 25.3878 21.2964C26.0556 23.0462 28.4465 23.3746 28.4465 23.3746C28.4277 23.4552 28.5356 23.6644 28.674 23.8139C28.8124 23.9635 28.674 24.2741 28.9161 24.408C28.9213 24.4127 28.9275 24.4163 28.9342 24.4185C28.9409 24.4206 28.9479 24.4214 28.9549 24.4206Z" fill="#F4A519"/>
<path d="M25.5525 17.4254C25.7372 17.6134 25.9598 17.7603 26.2055 17.8564C26.4512 17.9525 26.7145 17.9956 26.9781 17.9829C27.0493 17.9855 27.119 17.962 27.1741 17.917C27.2122 17.8679 27.2345 17.8085 27.238 17.7465L27.2978 17.3752C27.3029 17.3619 27.3047 17.3475 27.303 17.3334C27.3013 17.3192 27.2961 17.3057 27.288 17.2941C27.2798 17.2824 27.2688 17.2729 27.2561 17.2664C27.2434 17.26 27.2292 17.2567 27.215 17.257C26.8588 17.1789 26.4946 17.1438 26.1301 17.1524" fill="#F4A519"/>
<path d="M26.7474 33.995C26.7154 34.3124 26.6597 34.6271 26.5808 34.9363C26.5414 35.1092 26.4867 35.2783 26.4172 35.4415C26.5682 35.47 26.7217 35.483 26.8753 35.4802C26.8949 35.4815 26.9144 35.4763 26.9309 35.4655C26.943 35.4532 26.951 35.4375 26.9539 35.4206C27.0938 34.9306 27.1906 34.4295 27.2432 33.9228L26.7474 33.995Z" fill="#F4A519"/>
<path d="M19.0535 30.4953C18.6448 30.623 18.2262 30.7167 17.802 30.7756C17.802 30.6313 17.802 30.4869 17.802 30.3426C17.8005 30.3319 17.8013 30.321 17.8042 30.3105C17.8071 30.3001 17.812 30.2904 17.8187 30.2819C17.8317 30.2725 17.8469 30.2668 17.8628 30.2652L19.1332 30.056" fill="#F4A519"/>
<path d="M26.4216 19.6606L26.9457 20.4973C27.0956 20.7347 27.2664 20.9878 27.5337 21.0726C27.3833 21.2672 27.1936 21.4283 26.977 21.5454C26.7603 21.6625 26.5215 21.733 26.2759 21.7524" fill="#F4A519"/>
<path d="M26.8911 24.0764C27.1909 25.7241 27.491 27.3718 27.7915 29.0195C27.9013 29.5574 27.9769 30.1016 28.0179 30.649C28.084 31.8623 27.8083 33.0693 27.5378 34.2606C27.1563 34.3443 26.5724 34.2795 26.5724 34.2795C26.5724 34.2795 26.9267 31.2933 26.258 29.9545C25.9435 29.3176 25.4267 28.7737 25.0305 28.1765C24.4781 27.3397 24.1605 26.3984 23.8701 25.4571C23.8041 25.2479 23.7485 24.9906 23.9121 24.8232" fill="#F4A519"/>
<path d="M26.8102 15.1097C26.9957 15.3303 27.1161 15.5978 27.1583 15.8826C27.162 15.9691 27.1827 16.054 27.2191 16.1326C27.2644 16.2012 27.3246 16.2587 27.3952 16.301C27.4875 16.364 27.583 16.4223 27.6813 16.4757C27.7285 16.5018 27.696 16.6138 27.696 16.6138C27.696 16.6138 27.6111 16.6525 27.5042 16.7047C27.4344 16.7263 27.3744 16.7714 27.3344 16.8324C27.315 16.8979 27.315 16.9676 27.3344 17.0332C27.3574 17.2032 27.3398 17.3764 27.283 17.5384C27.2757 17.5653 27.2608 17.5896 27.24 17.6084C27.2112 17.6242 27.1783 17.6308 27.1457 17.6273C26.9649 17.6217 26.7879 17.5741 26.6289 17.4881" fill="#F4A519"/>
<path d="M26.3648 18.007C26.3028 18.3584 26.3056 18.7182 26.3732 19.0686C26.5514 19.944 25.1604 18.9828 25.1604 18.9828L25.0063 18.9159L25.172 17.1378L25.6395 17.1441L26.3942 17.1566H26.5787H26.6489C26.5734 17.2633 26.4351 17.5865 26.3648 18.007Z" fill="#F4A519"/>
<path d="M26.261 14.4728C26.7054 14.8367 26.9633 15.3723 27.0912 15.9256C27.2191 16.4788 27.2295 17.051 27.2295 17.6179C26.9381 17.758 26.6006 17.7559 26.2778 17.7507C26.0063 17.7507 25.7243 17.7402 25.4801 17.622C25.0492 17.4129 24.8438 16.9181 24.7463 16.4496C24.6588 16.0774 24.6588 15.69 24.7463 15.3179C24.7929 15.1314 24.8798 14.9573 25.001 14.8079C25.1221 14.6585 25.2745 14.5373 25.4476 14.4529C25.7945 14.296 26.2484 14.3588 26.4958 14.6485" fill="#F4A519"/>
<path d="M27.3975 21.0464C27.3975 21.0621 27.4058 21.0767 27.409 21.0914C27.4048 21.0767 27.4017 21.0621 27.3975 21.0464Z" fill="#F4A519"/>
<path d="M27.4287 21.1698C27.435 21.1939 27.4392 21.2169 27.4444 21.2389C27.4409 21.2172 27.4357 21.1942 27.4287 21.1698Z" fill="#F4A519"/>
<path d="M27.325 20.787C27.3083 20.7326 27.2905 20.6761 27.2737 20.6197C27.2905 20.6761 27.3083 20.7316 27.324 20.787H27.325Z" fill="#F4A519"/>
<path d="M24.3417 19.876C24.325 19.9806 24.3103 20.0789 24.2998 20.1783C24.5178 20.2233 24.7369 20.2578 24.957 20.2829C24.8899 20.1786 24.8333 20.0679 24.7883 19.9524C24.6394 19.9314 24.4906 19.9063 24.3417 19.876Z" fill="#F4A519"/>
<path d="M27.4089 21.0914C27.4163 21.1186 27.4226 21.1447 27.4289 21.1698C27.4226 21.1447 27.4163 21.1186 27.4089 21.0914Z" fill="#F4A519"/>
<path d="M24.6646 19.556C24.6646 19.5664 24.6646 19.5769 24.6719 19.5873C24.7767 19.6051 24.8815 19.6208 24.9864 19.6355L24.6646 19.556Z" fill="#F4A519"/>
<path d="M25.824 15.1045C26.3618 15.1829 26.8723 15.1589 27.2035 15.0501C27.1959 15.0395 27.1905 15.0275 27.1877 15.0147C27.1849 15.002 27.1847 14.9888 27.1871 14.976C27.1896 14.9632 27.1946 14.951 27.2019 14.9402C27.2093 14.9294 27.2187 14.9201 27.2297 14.9131L27.2622 14.8943C27.2617 14.8894 27.2617 14.8845 27.2622 14.8796C27.2509 14.8761 27.2405 14.8703 27.2316 14.8627C27.2226 14.855 27.2153 14.8456 27.2101 14.835C27.2049 14.8245 27.2019 14.813 27.2013 14.8012C27.2007 14.7894 27.2025 14.7777 27.2066 14.7667C27.1857 14.7591 27.1682 14.7442 27.1574 14.7248C27.137 14.7294 27.1156 14.7262 27.0975 14.7157C27.0794 14.7052 27.066 14.6883 27.0599 14.6683L26.998 14.6851C26.9006 14.7102 26.866 14.5732 26.9435 14.5282H26.9551C26.9502 14.5139 26.9498 14.4985 26.9542 14.4841C26.9585 14.4696 26.9672 14.4569 26.9792 14.4477L27.0127 14.4184C27.0023 14.4116 26.9936 14.4024 26.9872 14.3918C26.9809 14.3811 26.977 14.3691 26.976 14.3567H26.9624C26.9037 14.3734 26.8576 14.3065 26.8806 14.2521C26.8641 14.249 26.8489 14.2405 26.8377 14.228C26.7999 14.2415 26.7598 14.2469 26.7198 14.2436C26.6798 14.2404 26.641 14.2286 26.606 14.2092C26.5274 14.2092 26.4414 14.2092 26.3471 14.2092C25.9152 14.1297 25.8953 14.0178 25.324 14.3535C25.1039 14.4843 24.8314 14.4937 24.5903 14.5909C24.4365 14.6422 24.2991 14.7332 24.192 14.8545C24.0704 15.0145 24.0557 15.229 24.0463 15.4298C24.0291 15.6248 24.0361 15.8212 24.0672 16.0144C24.1721 16.5458 24.6092 16.9401 25.0389 17.2696L25.0756 17.2486L25.2381 16.6556L25.3429 15.9799C25.3429 15.9799 25.6762 16.1473 25.7622 15.6662C25.8482 15.185 25.824 15.1045 25.824 15.1045Z" fill="#F4A519"/>
<path d="M25.4174 16.4998C25.4167 16.3355 25.4297 16.1714 25.4562 16.0092C25.4364 15.9792 25.4105 15.9537 25.3803 15.9343C25.35 15.9149 25.316 15.9021 25.2805 15.8966C25.2449 15.891 25.2086 15.893 25.1739 15.9023C25.1392 15.9116 25.1068 15.9281 25.0788 15.9506C25.0237 16.0014 24.9811 16.0641 24.9542 16.1339C24.9273 16.2038 24.9168 16.2788 24.9237 16.3533C24.93 16.5562 25.0484 16.7884 25.2518 16.7999C25.311 16.8022 25.3696 16.7873 25.4205 16.7571C25.4134 16.6715 25.4124 16.5855 25.4174 16.4998Z" fill="#F4A519"/>
<path d="M25.1333 14.523C25.1783 14.4227 25.2559 14.3406 25.3534 14.2897C25.4738 14.2053 25.6063 14.1397 25.7465 14.0952C26.0169 14.022 26.3021 14.0952 26.5777 14.1475C26.8534 14.1998 27.1574 14.2249 27.3943 14.0743C27.4285 14.0487 27.4654 14.0269 27.5044 14.0094C27.5241 14.0009 27.5456 13.9976 27.567 14C27.5883 14.0024 27.6087 14.0103 27.626 14.023C27.6805 14.0711 27.6553 14.16 27.6176 14.2217C27.5405 14.3392 27.4405 14.4399 27.3234 14.5177C27.2063 14.5956 27.0746 14.6489 26.9362 14.6746C26.6573 14.7257 26.3703 14.7118 26.0977 14.6338" fill="#F4A519"/>
<path d="M25.6741 15.1191C25.9898 15.2334 26.3293 15.2668 26.6613 15.2162C26.9934 15.1656 27.3073 15.0326 27.5745 14.8294C27.6997 14.7467 27.7961 14.6272 27.8502 14.4874C27.858 14.4683 27.858 14.4469 27.8502 14.4278C27.8419 14.4152 27.8292 14.4063 27.8145 14.4027C27.7471 14.3918 27.6779 14.4032 27.6175 14.4351C27.2764 14.5642 26.8987 14.5582 26.5619 14.4184" fill="#F4A519"/>
<path d="M24.8071 14.684C24.8145 14.6021 24.8418 14.5233 24.8867 14.4543C24.9317 14.3854 24.9929 14.3285 25.065 14.2887C25.4392 14.0397 25.9329 14.0513 26.3679 14.1653C26.4895 14.1946 26.6073 14.2378 26.7191 14.2939C26.7625 14.3139 26.799 14.3463 26.8239 14.387C26.8379 14.4234 26.8399 14.4634 26.8295 14.501C26.8191 14.5387 26.797 14.572 26.7662 14.5962C26.7041 14.6423 26.6325 14.6741 26.5566 14.6893C26.2704 14.7646 25.9811 14.8252 25.6887 14.8733" fill="#F4A519"/>
<path d="M24.5725 19.0403C24.6106 18.7997 24.6706 18.563 24.7518 18.3333L26.6239 18.8657C26.6492 18.8691 26.6732 18.8786 26.694 18.8934C26.7148 18.9081 26.7318 18.9277 26.7434 18.9504C26.7518 18.9847 26.7518 19.0206 26.7434 19.055C26.7308 19.147 26.7172 19.2401 26.7046 19.3321C26.7026 19.3729 26.6888 19.4121 26.6648 19.4451C26.6503 19.457 26.6335 19.4657 26.6154 19.4707C26.5974 19.4758 26.5785 19.477 26.5599 19.4744C25.9729 19.4618 25.3671 19.4451 24.8335 19.1606" fill="#F4A519"/>
<path d="M26.8722 24.6371C26.4372 26.0323 25.9288 27.414 25.1804 28.6712C24.8565 29.2172 24.4697 29.7569 23.9131 30.0633C23.3565 30.3698 22.716 30.4106 22.0934 30.4608C20.9438 30.5549 19.7992 30.6944 18.6594 30.8791C18.5726 30.5956 18.5426 30.2977 18.5714 30.0027L21.5326 29.2705C21.6817 29.2447 21.8243 29.1896 21.9519 29.1084C22.0925 28.9875 22.1967 28.83 22.2527 28.6534C22.5431 27.9139 22.5976 27.1075 22.7842 26.3367C23.0871 25.0816 23.4445 23.9101 24.3701 23.0044" fill="#F4A519"/>
<path d="M26.5546 19.1826C27.1143 21.0287 27.2926 22.969 27.0787 24.886C25.6834 25.0409 24.271 24.8983 22.9351 24.4676C23.7682 22.9311 24.3754 21.2829 24.738 19.5737" fill="#F4A519"/>
<path d="M24.7464 25.7458C24.7981 25.8737 24.8367 26.0065 24.8617 26.1422C24.8693 26.188 24.8862 26.2318 24.9115 26.2709C24.9367 26.3099 24.9697 26.3434 25.0085 26.3691C25.0192 26.3744 25.0305 26.3786 25.042 26.3817C25.0228 26.2283 25.0256 26.073 25.0504 25.9204C25.0619 25.8711 25.0651 25.8202 25.0598 25.7698C25.0411 25.6919 24.9955 25.623 24.9309 25.5753C24.8785 25.5319 24.8236 25.4918 24.7663 25.455C24.7391 25.5494 24.7323 25.6485 24.7464 25.7458Z" fill="#F4A519"/>
<path d="M24.8691 26.3419C24.6595 26.3953 24.5358 26.3848 24.2926 26.2154C24.1733 26.1435 24.0617 26.0597 23.9593 25.9654C23.9474 25.929 23.9376 25.892 23.9299 25.8545C23.91 25.7499 23.8891 25.6453 23.8691 25.5407L23.8912 25.5031C23.9741 25.3532 24.0744 25.2135 24.1899 25.0868C24.1981 25.079 24.2082 25.0736 24.2192 25.0711C24.2989 25.0648 24.3838 25.1611 24.3838 25.1611C24.4872 25.2534 24.6008 25.3338 24.7224 25.4006C24.6851 25.5035 24.6818 25.6157 24.713 25.7206C24.7124 25.7307 24.7124 25.7409 24.713 25.751C24.7141 25.7926 24.7176 25.8342 24.7234 25.8754C24.7234 25.8754 24.7234 25.8754 24.7234 25.8838C24.7324 25.943 24.7461 26.0014 24.7643 26.0585C24.7639 26.0605 24.7639 26.0627 24.7643 26.0648C24.7804 26.1177 24.8019 26.1688 24.8283 26.2175V26.2331C24.8348 26.2396 24.8407 26.2466 24.8461 26.2541C24.865 26.2792 24.8733 26.3108 24.8691 26.3419Z" fill="#F4A519"/>
<path d="M24.2287 25.0627C24.322 25.1002 24.4112 25.1472 24.4949 25.2029C24.583 25.2719 24.8419 25.5083 24.8419 25.5083L24.7465 25.7457C24.7465 25.7457 24.7077 25.7081 24.7109 25.7855C24.7314 25.9099 24.7587 26.0332 24.7926 26.1547L24.4981 26.1474L24.2423 26.0428L24.0085 25.8033L24.2182 25.0711L24.2287 25.0627Z" fill="#F4A519"/>
<path d="M25.5012 20.3519L25.3429 20.856C25.0536 21.2085 24.1511 22.0066 23.7894 22.5295C23.7246 22.6138 23.675 22.7086 23.6427 22.8098C23.6236 22.9364 23.6236 23.0651 23.6427 23.1916C23.6982 23.7679 23.9571 24.6894 24.1856 25.09C24.0715 25.2175 23.9726 25.3579 23.8911 25.5083C23.3334 24.9153 22.7768 23.9248 22.7223 23.1539C22.6609 22.3309 22.9004 21.5134 23.3963 20.8529C23.618 20.5742 23.8635 20.3153 24.1301 20.0789C24.41 19.8206 24.7852 19.5497 25.1364 19.694C25.3775 19.7955 25.5075 20.0842 25.5012 20.3519Z" fill="#F4A519"/>
<path d="M24.2674 25.2113L24.1196 25.4205L23.9865 25.6025C23.9551 25.5721 23.9226 25.5408 23.8911 25.5073C23.9738 25.3559 24.0741 25.2148 24.1899 25.0868C24.1951 25.0973 24.2014 25.1067 24.2066 25.1161C24.2242 25.1495 24.2446 25.1813 24.2674 25.2113Z" fill="#F4A519"/>
<path d="M24.6574 21.8444L23.648 21.2378C23.3922 21.084 23.1239 20.9177 22.9834 20.651C23.2517 20.4492 23.4488 20.1657 23.648 19.8927C23.8471 19.6197 24.0673 19.3457 24.3513 19.1752C24.6354 19.0047 25.0232 18.966 25.301 19.1512C25.4107 19.2374 25.4997 19.3471 25.5614 19.4722C25.6231 19.5972 25.6559 19.7345 25.6574 19.8739C25.6616 20.1529 25.6166 20.4305 25.5243 20.6939C25.3849 21.1562 25.2098 21.6206 24.8891 21.9773" fill="#F4A519"/>
<path d="M24.5662 19.079H24.6343C24.6179 19.0843 24.602 19.0913 24.5871 19.0999L24.5662 19.079Z" fill="#F4A519"/>
<path d="M25.7517 20.4335C25.7525 20.8448 25.6479 21.2495 25.4477 21.6091C25.258 21.9229 24.9729 22.1624 24.6878 22.3915C24.346 22.6662 23.9966 22.9319 23.6396 23.1885C23.6205 23.0619 23.6205 22.9332 23.6396 22.8067C23.6719 22.7055 23.7215 22.6107 23.7863 22.5264C24.214 22.3569 24.6312 22.1425 24.9194 21.7942C25.1045 21.5479 25.2462 21.2721 25.3387 20.9784C25.4603 20.6364 25.5578 20.2756 25.5054 19.9178C25.453 19.5601 25.2192 19.2077 24.867 19.1167C24.7877 19.0973 24.7065 19.0868 24.6249 19.0853C24.9393 18.9629 25.3177 19.1324 25.5117 19.4106C25.7266 19.7003 25.7622 20.0768 25.7517 20.4335Z" fill="#F4A519"/>
<path d="M26.0474 35.5795C26.1438 35.4593 26.2209 35.3249 26.2759 35.181C26.283 35.1507 26.3009 35.124 26.3262 35.1057C26.3538 35.0948 26.3841 35.0923 26.4132 35.0984L27.1344 35.1831C27.1659 35.1849 27.1966 35.1934 27.2245 35.2082C27.2575 35.2356 27.2819 35.2719 27.2947 35.3128C27.3986 35.4946 27.5687 35.6294 27.7696 35.6893C27.9751 35.7513 28.1855 35.7957 28.3985 35.8222C28.4498 35.8257 28.4987 35.8455 28.5379 35.8787C28.5465 35.887 28.5529 35.8973 28.5566 35.9086C28.5603 35.92 28.5611 35.9321 28.5591 35.9438C28.557 35.9556 28.5521 35.9666 28.5447 35.9761C28.5374 35.9855 28.5279 35.993 28.517 35.9979C28.5055 35.9994 28.4939 35.9994 28.4824 35.9979C27.6699 36.0127 26.8582 35.9383 26.062 35.7762C26.0524 35.7384 26.0521 35.6988 26.0612 35.6609C26.0704 35.623 26.0886 35.5879 26.1144 35.5586" fill="#F4A519"/>
<path d="M17.3523 30.079C17.4951 30.1369 17.6461 30.1722 17.7999 30.1836C17.8311 30.1814 17.8621 30.1907 17.8869 30.2098C17.9057 30.2331 17.917 30.2615 17.9194 30.2913L18.0452 31.0036C18.0523 31.0346 18.0523 31.0668 18.0452 31.0977C18.0289 31.1364 18.002 31.1698 17.9676 31.194C17.823 31.3457 17.7426 31.5473 17.7433 31.7567C17.7426 31.9691 17.7601 32.1811 17.7957 32.3905C17.8063 32.4407 17.8012 32.4929 17.781 32.5401C17.7757 32.5507 17.7678 32.5598 17.758 32.5667C17.7483 32.5735 17.737 32.5779 17.7252 32.5793C17.7134 32.5808 17.7014 32.5793 17.6903 32.575C17.6791 32.5707 17.6693 32.5637 17.6615 32.5547C17.6555 32.545 17.6509 32.5344 17.6479 32.5233C17.4002 31.751 17.2388 30.9537 17.1667 30.1459C17.2005 30.1263 17.2385 30.1151 17.2775 30.1131C17.3165 30.1111 17.3555 30.1184 17.3911 30.1344" fill="#F4A519"/>
<path d="M18.6773 31.0486C18.6486 30.8429 18.6084 30.639 18.5568 30.4378C18.5053 30.235 18.5159 30.0215 18.5872 29.8248C18.5956 29.805 18.6082 29.782 18.6302 29.7788C18.6522 29.7757 18.6878 29.8165 18.7214 29.8238C18.7822 29.8374 18.8052 29.7412 18.8618 29.7192C18.8811 29.7137 18.9015 29.7144 18.9203 29.7212C18.9391 29.7279 18.9553 29.7404 18.9667 29.7569C18.9884 29.7925 19.002 29.8325 19.0065 29.874C19.0561 30.1529 19.1019 30.435 19.1438 30.7202C19.1563 30.7762 19.1545 30.8344 19.1386 30.8896C19.1296 30.9168 19.1108 30.9398 19.0858 30.9539C19.0608 30.968 19.0314 30.9723 19.0033 30.9659C18.991 30.9586 18.9769 30.9547 18.9625 30.9544C18.9363 30.9544 18.9258 30.9869 18.9132 31.0109C18.9012 31.0316 18.8847 31.0494 18.865 31.063C18.8453 31.0766 18.8228 31.0856 18.7991 31.0895C18.7755 31.0934 18.7513 31.0921 18.7282 31.0855C18.7052 31.079 18.6839 31.0674 18.6658 31.0517" fill="#F4A519"/>
<path d="M27.671 34.4907C27.4633 34.4787 27.2551 34.4787 27.0473 34.4907C26.838 34.502 26.6301 34.451 26.4498 34.3443C26.432 34.3317 26.4121 34.314 26.4132 34.292C26.4142 34.27 26.4614 34.2439 26.475 34.2115C26.4991 34.155 26.41 34.1142 26.3964 34.0535C26.394 34.033 26.3984 34.0122 26.409 33.9944C26.4197 33.9767 26.4358 33.9629 26.4551 33.9552C26.4939 33.9407 26.5354 33.935 26.5767 33.9385C26.8628 33.9437 27.1501 33.9531 27.4362 33.9667C27.4937 33.9644 27.5508 33.977 27.6018 34.0033C27.6269 34.0175 27.6458 34.0404 27.6549 34.0676C27.664 34.0948 27.6626 34.1245 27.6511 34.1508C27.6419 34.1618 27.6352 34.1747 27.6312 34.1884C27.6312 34.2146 27.6563 34.2313 27.6773 34.247C27.6954 34.2628 27.7098 34.2823 27.7195 34.3043C27.7291 34.3262 27.7338 34.35 27.7332 34.374C27.7326 34.398 27.7267 34.4215 27.716 34.4429C27.7052 34.4644 27.6899 34.4832 27.671 34.498" fill="#F4A519"/>
</g>
</g>
<defs>
<filter id="filter0_d_19_3380" x="0.5" y="0" width="51.4517" height="60.26" filterUnits="userSpaceOnUse" color-interpolation-filters="sRGB">
<feFlood flood-opacity="0" result="BackgroundImageFix"/>
<feColorMatrix in="SourceAlpha" type="matrix" values="0 0 0 0 0 0 0 0 0 0 0 0 0 0 0 0 0 0 127 0" result="hardAlpha"/>
<feOffset dx="2" dy="2"/>
<feGaussianBlur stdDeviation="5"/>
<feComposite in2="hardAlpha" operator="out"/>
<feColorMatrix type="matrix" values="0 0 0 0 0.105882 0 0 0 0 0.211765 0 0 0 0 0.360784 0 0 0 0.4 0"/>
<feBlend mode="normal" in2="BackgroundImageFix" result="effect1_dropShadow_19_3380"/>
<feBlend mode="normal" in="SourceGraphic" in2="effect1_dropShadow_19_3380" result="shape"/>
</filter>
<clipPath id="clip0_19_3380">
<rect width="22" height="22" fill="white" transform="translate(12.5 14)"/>
</clipPath>
</defs>
</svg>
