<svg width="60" height="66" viewBox="0 0 60 66" fill="none" xmlns="http://www.w3.org/2000/svg">
<g filter="url(#filter0_d_2_1455)">
<path fill-rule="evenodd" clip-rule="evenodd" d="M32.5829 47.4725C41.4199 45.4007 48 37.4688 48 28C48 16.9543 39.0457 8 28 8C16.9543 8 8 16.9543 8 28C8 37.6616 14.8508 45.7231 23.9597 47.5917L27.3708 53.5C27.7557 54.1667 28.718 54.1667 29.1029 53.5L32.5829 47.4725Z" fill="#F4A519"/>
<path d="M34 27H35C35.7956 27 36.5587 27.3161 37.1213 27.8787C37.6839 28.4413 38 29.2044 38 30C38 30.7956 37.6839 31.5587 37.1213 32.1213C36.5587 32.6839 35.7956 33 35 33H34" stroke="white" stroke-width="2" stroke-linecap="round" stroke-linejoin="round"/>
<path d="M26 28V34" stroke="white" stroke-width="2" stroke-linecap="round" stroke-linejoin="round"/>
<path d="M30 28V34" stroke="white" stroke-width="2" stroke-linecap="round" stroke-linejoin="round"/>
<path d="M31 23.5C30 23.5 29.56 24 28 24C26.44 24 26 23.5 25 23.5C24 23.5 23.28 24 22.5 24C21.837 24 21.2011 23.7366 20.7322 23.2678C20.2634 22.7989 20 22.163 20 21.5C20 20.837 20.2634 20.2011 20.7322 19.7322C21.2011 19.2634 21.837 19 22.5 19C23.28 19 24.07 19.5 25 19.5C25.93 19.5 26.44 18 28 18C29.56 18 30 19.5 31 19.5C32 19.5 32.72 19 33.5 19C34.163 19 34.7989 19.2634 35.2678 19.7322C35.7366 20.2011 36 20.837 36 21.5C36 22.163 35.7366 22.7989 35.2678 23.2678C34.7989 23.7366 34.163 24 33.5 24C32.72 24 32 23.5 31 23.5Z" stroke="white" stroke-width="2" stroke-linecap="round" stroke-linejoin="round"/>
<path d="M22 24V36C22 36.5304 22.2107 37.0391 22.5858 37.4142C22.9609 37.7893 23.4696 38 24 38H32C32.5304 38 33.0391 37.7893 33.4142 37.4142C33.7893 37.0391 34 36.5304 34 36V24" stroke="white" stroke-width="2" stroke-linecap="round" stroke-linejoin="round"/>
</g>
<defs>
<filter id="filter0_d_2_1455" x="0" y="0" width="60" height="66" filterUnits="userSpaceOnUse" color-interpolation-filters="sRGB">
<feFlood flood-opacity="0" result="BackgroundImageFix"/>
<feColorMatrix in="SourceAlpha" type="matrix" values="0 0 0 0 0 0 0 0 0 0 0 0 0 0 0 0 0 0 127 0" result="hardAlpha"/>
<feOffset dx="2" dy="2"/>
<feGaussianBlur stdDeviation="5"/>
<feComposite in2="hardAlpha" operator="out"/>
<feColorMatrix type="matrix" values="0 0 0 0 0.105882 0 0 0 0 0.211765 0 0 0 0 0.360784 0 0 0 0.4 0"/>
<feBlend mode="normal" in2="BackgroundImageFix" result="effect1_dropShadow_2_1455"/>
<feBlend mode="normal" in="SourceGraphic" in2="effect1_dropShadow_2_1455" result="shape"/>
</filter>
</defs>
</svg>
