<svg width="40" height="40" viewBox="0 0 40 40" fill="none" xmlns="http://www.w3.org/2000/svg">
<rect width="40" height="40" rx="20" fill="white"/>
<path d="M31.6666 35V31.6667C31.6666 29.8986 30.9642 28.2029 29.714 26.9526C28.4637 25.7024 26.768 25 24.9999 25H14.9999C13.2318 25 11.5361 25.7024 10.2859 26.9526C9.03563 28.2029 8.33325 29.8986 8.33325 31.6667V35" stroke="#44C62F" stroke-width="3" stroke-linecap="round" stroke-linejoin="round"/>
<path d="M19.9999 18.3333C23.6818 18.3333 26.6666 15.3486 26.6666 11.6667C26.6666 7.98477 23.6818 5 19.9999 5C16.318 5 13.3333 7.98477 13.3333 11.6667C13.3333 15.3486 16.318 18.3333 19.9999 18.3333Z" stroke="#44C62F" stroke-width="3" stroke-linecap="round" stroke-linejoin="round"/>
</svg>
