<svg width="22" height="22" viewBox="0 0 22 22" fill="none" xmlns="http://www.w3.org/2000/svg">
    <path
        d="M13.7502 1.83398H8.25016C7.7439 1.83398 7.3335 2.24439 7.3335 2.75065V4.58398C7.3335 5.09025 7.7439 5.50065 8.25016 5.50065H13.7502C14.2564 5.50065 14.6668 5.09025 14.6668 4.58398V2.75065C14.6668 2.24439 14.2564 1.83398 13.7502 1.83398Z"
        stroke="#C2CFE0" stroke-width="2" stroke-linecap="round" stroke-linejoin="round" />
    <path
        d="M7.33317 3.66602H5.49984C5.01361 3.66602 4.54729 3.85917 4.20347 4.20299C3.85966 4.5468 3.6665 5.01312 3.6665 5.49935V18.3327C3.6665 18.8189 3.85966 19.2852 4.20347 19.629C4.54729 19.9729 5.01361 20.166 5.49984 20.166H16.4998C16.9861 20.166 17.4524 19.9729 17.7962 19.629C18.14 19.2852 18.3332 18.8189 18.3332 18.3327V17.8743"
        stroke="#C2CFE0" stroke-width="2" stroke-linecap="round" stroke-linejoin="round" />
    <path
        d="M14.6665 3.66602H16.4998C16.8213 3.66635 17.1371 3.75121 17.4154 3.91211C17.6938 4.073 17.9249 4.30426 18.0857 4.58268"
        stroke="#C2CFE0" stroke-width="2" stroke-linecap="round" stroke-linejoin="round" />
    <path
        d="M16.8848 8.80994C17.0636 8.63118 17.2758 8.48938 17.5094 8.39263C17.7429 8.29589 17.9933 8.24609 18.2461 8.24609C18.4989 8.24609 18.7492 8.29589 18.9828 8.39263C19.2164 8.48938 19.4286 8.63118 19.6073 8.80994C19.7861 8.9887 19.9279 9.20092 20.0246 9.43449C20.1214 9.66805 20.1712 9.91838 20.1712 10.1712C20.1712 10.424 20.1214 10.6743 20.0246 10.9079C19.9279 11.1415 19.7861 11.3537 19.6073 11.5324L15.5373 15.5841L11.9165 16.5008L12.824 12.8799L16.8848 8.80994Z"
        stroke="#C2CFE0" stroke-width="2" stroke-linecap="round" stroke-linejoin="round" />
    <path d="M7.33325 16.5H8.24992" stroke="#C2CFE0" stroke-width="2" stroke-linecap="round" stroke-linejoin="round" />
</svg>