<svg xmlns="http://www.w3.org/2000/svg" xmlns:xlink="http://www.w3.org/1999/xlink">
    <symbol viewBox="0 0 21 19" id="heart">
        <path
            d="M18.4927 2.49933C18.0165 2.0241 17.4506 1.64702 16.8275 1.38973C16.2045 1.13244 15.5365 1 14.8618 1C14.1872 1 13.5191 1.13244 12.8961 1.38973C12.273 1.64702 11.7071 2.0241 11.2309 2.49933L10.5 3.23566L9.76908 2.49933C9.29286 2.0241 8.72699 1.64702 8.10392 1.38973C7.48085 1.13244 6.81284 1 6.1382 1C5.46355 1 4.79554 1.13244 4.17247 1.38973C3.5494 1.64702 2.98353 2.0241 2.50731 2.49933C0.494903 4.50064 0.3715 7.8802 2.906 10.4479L10.5 18L18.094 10.4479C20.6285 7.8802 20.5051 4.50064 18.4927 2.49933Z"
            stroke-width="2" stroke-linecap="round" stroke-linejoin="round" />
    </symbol>
    <symbol viewBox="0 0 32 32" id="filters">
        <path d="M26.6665 9.33337H14.6665" stroke-width="2" stroke-linecap="round" stroke-linejoin="round" />
        <path d="M18.6665 22.6667H6.6665" stroke-width="2" stroke-linecap="round" stroke-linejoin="round" />
        <path
            d="M22.6665 26.6667C24.8756 26.6667 26.6665 24.8759 26.6665 22.6667C26.6665 20.4576 24.8756 18.6667 22.6665 18.6667C20.4574 18.6667 18.6665 20.4576 18.6665 22.6667C18.6665 24.8759 20.4574 26.6667 22.6665 26.6667Z"
            stroke-width="2" stroke-linecap="round" stroke-linejoin="round" />
        <path
            d="M9.33325 13.3334C11.5424 13.3334 13.3333 11.5425 13.3333 9.33337C13.3333 7.12423 11.5424 5.33337 9.33325 5.33337C7.12411 5.33337 5.33325 7.12423 5.33325 9.33337C5.33325 11.5425 7.12411 13.3334 9.33325 13.3334Z"
            stroke-width="2" stroke-linecap="round" stroke-linejoin="round" />
    </symbol>
    <symbol viewBox="0 0 22 22" id="tiles">
        <path d="M9.23529 1H1V9.23529H9.23529V1Z" stroke-linecap="round" stroke-linejoin="round" />
        <path d="M20.9999 1H12.7646V9.23529H20.9999V1Z" stroke-linecap="round" stroke-linejoin="round" />
        <path d="M20.9999 12.7646H12.7646V20.9999H20.9999V12.7646Z" stroke-linecap="round" stroke-linejoin="round" />
        <path d="M9.23529 12.7646H1V20.9999H9.23529V12.7646Z" stroke-linecap="round" stroke-linejoin="round" />
    </symbol>
    <symbol viewBox="0 0 20 20" id="map">
        <path d="M1 4L7 1L13 4L19 1V16L13 19L7 16L1 19V4Z" stroke-linecap="round" stroke-linejoin="round" />
        <path d="M7 1V16" stroke-linecap="round" stroke-linejoin="round" />
        <path d="M13 4V19" stroke-linecap="round" stroke-linejoin="round" />
    </symbol>
    <symbol viewBox="0 0 14 14" id="%">
        <path
            d="M2.13714 13.4472L0.534286 11.8443L11.7543 0.62432L13.3571 2.24499L2.13714 13.4472ZM10.6857 13.7143C10.098 13.7143 9.56075 13.5718 9.07395 13.2869C8.5931 12.996 8.20722 12.6101 7.91633 12.1293C7.62544 11.6425 7.48 11.1023 7.48 10.5086C7.48 9.92683 7.62841 9.39254 7.92524 8.90575C8.22206 8.41895 8.61387 8.03011 9.10067 7.73922C9.58746 7.44834 10.1158 7.30289 10.6857 7.30289C11.2734 7.30289 11.8107 7.44834 12.2975 7.73922C12.7843 8.02418 13.1701 8.41005 13.4551 8.89684C13.746 9.3777 13.8914 9.91496 13.8914 10.5086C13.8914 11.1023 13.746 11.6425 13.4551 12.1293C13.1701 12.6101 12.7843 12.996 12.2975 13.2869C11.8107 13.5718 11.2734 13.7143 10.6857 13.7143ZM10.6857 11.6662C10.8935 11.6662 11.0835 11.6128 11.2556 11.5059C11.4337 11.3991 11.5762 11.2596 11.683 11.0874C11.7899 10.9093 11.8433 10.7164 11.8433 10.5086C11.8433 10.3008 11.7899 10.1109 11.683 9.9387C11.5762 9.76061 11.4337 9.61813 11.2556 9.51127C11.0835 9.40442 10.8935 9.35099 10.6857 9.35099C10.4779 9.35099 10.285 9.40442 10.1069 9.51127C9.93475 9.61813 9.79524 9.76061 9.68838 9.9387C9.58152 10.1109 9.5281 10.3008 9.5281 10.5086C9.5281 10.7164 9.58152 10.9093 9.68838 11.0874C9.79524 11.2596 9.93475 11.3991 10.1069 11.5059C10.285 11.6128 10.4779 11.6662 10.6857 11.6662ZM3.20571 6.76861C2.618 6.76861 2.08075 6.62613 1.59395 6.34118C1.10716 6.05029 0.718318 5.66442 0.427429 5.18356C0.142476 4.69676 0 4.15654 0 3.56289C0 2.98111 0.148413 2.44683 0.445238 1.96003C0.742063 1.47324 1.13387 1.0844 1.62067 0.79351C2.10746 0.502622 2.63581 0.357178 3.20571 0.357178C3.79343 0.357178 4.32771 0.502622 4.80857 0.79351C5.29536 1.07846 5.68421 1.46434 5.97509 1.95113C6.26598 2.43199 6.41143 2.96924 6.41143 3.56289C6.41143 4.15654 6.26598 4.69676 5.97509 5.18356C5.68421 5.66442 5.29536 6.05029 4.80857 6.34118C4.32771 6.62613 3.79343 6.76861 3.20571 6.76861ZM3.20571 4.72051C3.41349 4.72051 3.60346 4.66708 3.77562 4.56023C3.95371 4.45337 4.09619 4.31386 4.20305 4.1417C4.3099 3.96361 4.36333 3.77067 4.36333 3.56289C4.36333 3.35511 4.3099 3.16515 4.20305 2.99299C4.09619 2.81489 3.95371 2.67242 3.77562 2.56556C3.60346 2.4587 3.41349 2.40527 3.20571 2.40527C2.99794 2.40527 2.805 2.4587 2.6269 2.56556C2.45475 2.67242 2.31524 2.81489 2.20838 2.99299C2.10152 3.16515 2.0481 3.35511 2.0481 3.56289C2.0481 3.77067 2.10152 3.96361 2.20838 4.1417C2.31524 4.31386 2.45475 4.45337 2.6269 4.56023C2.805 4.66708 2.99794 4.72051 3.20571 4.72051Z" />
    </symbol>
    <symbol viewBox="0 0 24 24" id="dots">
        <path
            d="M12 13C12.5523 13 13 12.5523 13 12C13 11.4477 12.5523 11 12 11C11.4477 11 11 11.4477 11 12C11 12.5523 11.4477 13 12 13Z"
            stroke-width="2" stroke-linecap="round" stroke-linejoin="round" />
        <path
            d="M19 13C19.5523 13 20 12.5523 20 12C20 11.4477 19.5523 11 19 11C18.4477 11 18 11.4477 18 12C18 12.5523 18.4477 13 19 13Z"
            stroke-width="2" stroke-linecap="round" stroke-linejoin="round" />
        <path
            d="M5 13C5.55228 13 6 12.5523 6 12C6 11.4477 5.55228 11 5 11C4.44772 11 4 11.4477 4 12C4 12.5523 4.44772 13 5 13Z"
            stroke-width="2" stroke-linecap="round" stroke-linejoin="round" />
    </symbol>
    <symbol viewBox="0 0 576 156" id="logoLong">
        <path class="gb"
            d="M109.526 26.5511C112.255 17.1527 114.074 10.8506 116.457 3.16932C102.659 0.337939 99.7853 0 87.8795 0C71.5624 0 57.6162 2.7096 46.0408 8.1288C34.8607 13.2124 24.9654 20.7611 17.0903 30.2136C9.69114 38.9442 4.41901 49.2856 1.69185 60.418C1.21256 62.4122 0.839127 64.4305 0.573116 66.4644C-0.0605194 70.7675 -0.167426 75.1322 0.254779 79.4613C0.664571 85.0772 2.33765 90.5266 5.14808 95.3993C7.92577 99.9752 11.9284 103.675 16.6992 106.076C21.6925 108.679 26.4767 109.73 33.2982 110.963C40.1197 112.196 48.0509 112.241 55.4363 112.241C59.3473 112.241 64.2497 111.821 69.1703 111.492C67.5423 117.311 59.9385 143.715 56.4368 155.982L71.7716 155.836L93.173 155.589L116.994 155.306C124.525 155.214 129.791 155.151 132.738 154.703C136.488 154.075 140.152 153.006 143.652 151.515C150.867 148.587 156.934 143.377 160.933 136.674C163.121 133.143 164.722 129.277 165.672 125.229C166.355 122.49 166.625 119.664 166.472 116.845C166.365 114.354 165.746 111.913 164.653 109.675C163.679 107.653 162.283 105.865 160.56 104.432C159.104 103.187 157.462 102.179 155.694 101.446C153.572 100.704 151.386 100.163 149.164 99.829C151.699 99.1977 154.19 98.4014 156.622 97.4452C164.074 94.216 170.181 88.4934 173.903 81.2515C174.349 80.4112 174.731 79.5801 175.122 78.7124C175.969 76.7072 176.641 74.6322 177.132 72.5108C178.043 68.9314 178.24 65.2068 177.714 61.5506C177.314 58.7522 176.223 56.099 174.54 53.8328C172.885 51.8805 170.819 50.3209 168.492 49.266C165.534 47.935 162.389 47.0694 159.169 46.6995C156.386 46.3433 77.4107 47.6129 72.5811 47.6677C71.5806 51.1293 70.8711 53.8693 70.2618 55.8878C69.6524 57.9063 69.234 59.4225 68.952 60.4546L66.0324 70.2091L81.067 70.0356C80.303 72.9583 75.6098 89.1246 75.6098 89.1246H58.5651C52.7441 89.1246 48.6421 88.8688 44.4218 86.6129C42.4667 85.6376 40.7394 84.2576 39.3536 82.5637C37.9678 80.8698 36.9549 78.9005 36.3815 76.7852C35.6316 73.8247 35.4068 70.7546 35.7176 67.7157C35.8776 65.8197 36.1817 63.9389 36.6271 62.0895C37.9349 56.636 40.129 51.4363 43.1212 46.6995C46.1801 41.8456 50.1017 37.598 54.6905 34.1684C59.3753 30.6487 64.6574 28.012 70.2799 26.3866C75.9895 24.7197 81.9062 23.877 87.8522 23.8841C90.126 23.8841 92.6849 24.0119 95.5287 24.2677C98.3755 24.5234 101.359 24.9436 104.46 25.519L109.526 26.5511ZM132.911 121.548C132.462 123.528 131.648 125.406 130.509 127.083C129.477 128.643 128.14 129.975 126.58 131.002C124.716 132.112 122.681 132.905 120.559 133.349C117.487 133.907 114.366 134.143 111.245 134.052H95.565L102.15 111.081L119.559 110.981C122.147 110.887 124.738 111.089 127.281 111.584C128.741 111.883 130.099 112.56 131.219 113.548C132.187 114.43 132.847 115.602 133.102 116.89C133.386 118.438 133.321 120.03 132.911 121.548ZM137.34 85.5899C135.991 86.6692 134.447 87.4756 132.792 87.9646C131.184 88.3305 129.546 88.5536 127.899 88.6314C126.235 88.7958 123.67 88.7318 119.859 88.7318L108.535 88.8597C109.008 87.1883 112.992 73.0588 113.992 69.6794L127.262 69.5241C131.61 69.5241 139.823 68.5012 142.051 72.3738C142.961 73.9265 142.734 75.945 142.288 77.9452C141.906 79.3178 141.317 80.6238 140.542 81.8178C140.23 82.3852 139.867 82.9232 139.459 83.4253C138.841 84.2288 138.13 84.9554 137.34 85.5899Z"
            fill="#F4A519" />
        <g class="letters display-none">
            <path class="display-none"
                d="M246.239 73.068C250.222 73.1228 254.018 73.1502 257.626 73.1502C263.811 73.1502 268.662 73.1228 272.179 73.068C271.093 77.0745 269.714 82.7495 268.04 90.0928C266.367 97.4361 265.154 102.98 264.402 106.725C260.946 107.346 258.09 107.784 255.843 108.067C253.597 108.351 250.905 108.597 247.776 108.816C244.647 109.036 241.882 109.145 239.463 109.145C235.61 109.152 231.764 108.828 227.966 108.177C224.579 107.634 221.294 106.575 218.225 105.035C215.576 103.706 213.327 101.692 211.713 99.1989C210.055 96.5322 208.988 93.5388 208.584 90.4216C208.084 86.954 208.152 83.4277 208.784 79.982C209.854 73.9598 212.35 68.2839 216.06 63.4321C219.973 58.2797 225.052 54.1374 230.877 51.3485C236.94 48.371 244.332 46.8853 253.051 46.8914C260.042 46.9584 267.009 47.7387 273.843 49.2204C273.085 53.4827 272.439 58.2352 271.906 63.4778C269.932 62.7745 268.322 62.2448 267.094 61.8794C265.654 61.4664 264.194 61.128 262.72 60.8656C261.046 60.5642 259.436 60.3359 257.908 60.1897C256.38 60.0436 254.998 59.9705 253.77 59.9705C250.608 59.963 247.463 60.4278 244.438 61.3497C241.488 62.235 238.734 63.6798 236.325 65.6059C233.96 67.493 231.986 69.8262 230.513 72.4743C229.04 75.0924 228.022 77.9432 227.502 80.9045C226.954 83.5732 227.067 86.3362 227.83 88.9511C228.198 90.1133 228.797 91.1889 229.589 92.1133C230.381 93.0377 231.351 93.7919 232.441 94.3307C234.978 95.6088 237.79 96.2364 240.627 96.1574C243.565 96.1116 246.489 95.7286 249.34 95.0157L251.514 85.4895C249.631 85.4073 248.513 85.3616 248.167 85.3616H243.51L244.765 79.9637C244.902 79.3792 245.093 78.5389 245.338 77.4338C245.584 76.3286 245.902 74.8947 246.239 73.068Z"
                fill="#F4A519" />
            <path
                d="M319.92 94.7053C319.229 96.4589 317.755 100.7 315.5 107.428C311.995 108.104 309.075 108.552 306.741 108.771C304.403 108.99 302.048 109.1 299.692 109.1C296.527 109.122 293.366 108.878 290.242 108.369C287.732 108.007 285.322 107.137 283.157 105.812C281.329 104.653 279.789 103.092 278.654 101.245C277.492 99.2521 276.772 97.0307 276.544 94.7327C276.237 92.1471 276.32 89.53 276.79 86.9692C277.5 83.0924 278.909 79.3782 280.946 76.009C282.769 72.7453 285.224 69.8817 288.168 67.5879C290.817 65.5935 293.825 64.1326 297.027 63.2861C300.167 62.4471 303.401 62.0203 306.65 62.0165C309.786 61.9915 312.911 62.3815 315.945 63.1765C318.602 63.8227 321.013 65.2318 322.885 67.2317C324.592 69.0503 325.749 71.3181 326.223 73.7713C326.682 76.371 326.663 79.0331 326.169 81.6261C325.816 83.5251 325.299 85.3894 324.622 87.1975H293.98C293.871 87.6633 293.78 88.1109 293.716 88.458C293.158 91.606 293.874 93.9228 295.863 95.4085C298.158 96.9898 300.905 97.7726 303.685 97.6371C305.931 97.6043 308.171 97.3782 310.379 96.9612C312.938 96.535 316.118 95.783 319.92 94.7053ZM295.526 80.5301H309.952C310.07 80.0277 310.161 79.6167 310.215 79.2514C310.494 77.9612 310.453 76.6221 310.097 75.3514C309.802 74.3381 309.118 73.4839 308.196 72.9767C307.19 72.4592 306.07 72.2018 304.94 72.2278C304.054 72.2327 303.173 72.3744 302.33 72.6479C301.463 72.927 300.646 73.3432 299.91 73.8809C299.173 74.3941 298.512 75.009 297.946 75.7076C297.431 76.3347 296.989 77.0179 296.627 77.7444C296.204 78.6495 295.836 79.5798 295.526 80.5301Z"
                fill="#F4A519" />
            <path
                d="M362.077 95.0522C361.125 97.4878 360.252 99.8869 359.457 102.249L357.557 107.602C354.525 108.247 352.202 108.658 350.589 108.835C349.012 109.005 347.428 109.094 345.842 109.1C343.663 109.127 341.488 108.912 339.357 108.46C337.693 108.135 336.162 107.325 334.955 106.131C333.909 105.08 333.23 103.719 333.017 102.249C332.809 100.703 332.849 99.1338 333.135 97.6005C333.181 97.3082 333.29 96.7876 333.445 96.0386C333.599 95.2897 334 93.6365 334.627 91.0609L338.265 75.8719H331.462C331.962 73.8534 332.553 71.1955 333.281 67.8892L334.127 63.8065H341.403C341.815 62.467 342.549 59.526 343.604 54.9836L351.353 53.4492C352.772 53.1812 355.804 52.5084 360.449 51.4307C359.564 55.2546 358.69 59.3798 357.829 63.8065H367.834C366.531 69.8955 365.709 73.9173 365.369 75.8719H355.21L352.754 86.8321C352.409 88.4761 352.199 89.5721 352.117 89.9923C351.882 91.1488 351.826 92.3351 351.954 93.5086C351.994 93.9205 352.129 94.3173 352.349 94.6677C352.568 95.018 352.866 95.3123 353.218 95.5271C353.967 95.9492 354.815 96.1606 355.674 96.1391C356.413 96.1394 357.152 96.0875 357.884 95.9838C359.297 95.7497 360.697 95.4387 362.077 95.0522Z"
                fill="#F4A519" />
            <path
                d="M366.097 107.958C367.843 101.516 369.141 96.4526 369.99 92.7688C371.16 87.7392 372.655 80.8343 374.474 72.054C376.293 63.2737 377.506 57.0873 378.112 53.4948C378.343 52.2039 378.646 50.3772 379.022 48.0147C382.878 48.0999 385.943 48.1425 388.217 48.1425C391.394 48.1425 395.105 48.0786 399.35 47.9507C403.594 47.8229 407.232 47.7559 410.264 47.7498C412.842 47.6991 415.421 47.8028 417.986 48.0603C419.752 48.2568 421.476 48.7283 423.098 49.4578C424.478 50.0346 425.689 50.9541 426.618 52.13C427.547 53.3058 428.164 54.6994 428.409 56.18C428.797 58.1644 428.797 60.2055 428.409 62.1898C428.118 63.8404 427.623 65.448 426.936 66.9758C426.281 68.433 425.437 69.7966 424.426 71.031C423.52 72.1514 422.471 73.1464 421.306 73.9903C420.326 74.7064 419.274 75.3185 418.168 75.817C416.892 76.3505 415.579 76.79 414.239 77.1322C415.45 77.325 416.641 77.6308 417.795 78.0456C418.783 78.4427 419.703 78.9911 420.524 79.6713C421.52 80.4641 422.341 81.4563 422.934 82.5849C423.591 83.802 424.005 85.136 424.153 86.5123C424.312 88.035 424.254 89.5729 423.98 91.0791C423.595 93.2779 422.851 95.3979 421.779 97.3538C420.76 99.2463 419.428 100.951 417.841 102.395C416.395 103.679 414.752 104.718 412.975 105.473C411.13 106.297 409.19 106.886 407.199 107.227C404.417 107.543 401.622 107.717 398.822 107.748C394.802 107.863 390.558 107.924 386.089 107.93H374.601L366.097 107.958ZM386.68 95.9015H395.084C396.749 95.951 398.414 95.8194 400.05 95.5088C401.171 95.2781 402.24 94.8448 403.206 94.2301C404.008 93.6636 404.681 92.9319 405.18 92.0837C405.743 91.1545 406.123 90.125 406.299 89.0514C406.488 88.2157 406.488 87.3481 406.299 86.5123C406.116 85.8047 405.726 85.1684 405.18 84.6856C404.558 84.1523 403.814 83.782 403.015 83.6079C401.591 83.3434 400.143 83.2332 398.695 83.2791H389.436L386.68 95.9015ZM392.01 71.3964H398.222C399.685 71.4231 401.148 71.3712 402.606 71.2411C403.491 71.1385 404.365 70.9551 405.216 70.6931C406.075 70.4335 406.871 69.9982 407.554 69.4144C408.227 68.8409 408.78 68.1394 409.182 67.3503C409.55 66.6314 409.81 65.862 409.955 65.0669C410.153 64.0975 410.065 63.091 409.7 62.1716C409.495 61.7243 409.199 61.325 408.831 60.9994C408.462 60.6739 408.031 60.4291 407.563 60.2809C405.912 59.788 404.19 59.578 402.47 59.6599H394.602L392.01 71.3964Z"
                fill="#F4A519" />
            <path
                d="M474.496 94.7052C473.816 96.4589 472.343 100.7 470.075 107.428C466.583 108.104 463.663 108.552 461.316 108.771C458.97 108.99 456.62 109.1 454.267 109.1C451.106 109.122 447.948 108.878 444.826 108.369C442.316 108.009 439.905 107.138 437.741 105.812C435.898 104.658 434.342 103.096 433.194 101.245C432.041 99.2436 431.334 97.0159 431.12 94.7143C430.821 92.1285 430.904 89.5125 431.365 86.9509C432.08 83.0752 433.488 79.3618 435.522 75.9907C437.349 72.7355 439.804 69.8789 442.744 67.5879C445.396 65.5931 448.407 64.1324 451.612 63.286C454.748 62.4471 457.98 62.0204 461.225 62.0165C464.364 61.992 467.492 62.382 470.53 63.1764C473.198 63.8205 475.621 65.2294 477.506 67.2317C479.207 69.0531 480.361 71.32 480.835 73.7713C481.312 76.3676 481.312 79.0297 480.835 81.6261C480.479 83.524 479.961 85.388 479.289 87.1975H448.647C448.528 87.6633 448.446 88.1108 448.374 88.4579C447.828 91.609 448.537 93.938 450.52 95.4085C452.817 96.9917 455.568 97.7746 458.351 97.6371C460.598 97.6034 462.837 97.3773 465.045 96.9612C467.544 96.535 470.694 95.783 474.496 94.7052ZM450.111 80.53H464.527C464.645 80.0277 464.736 79.6167 464.8 79.2514C465.076 77.9605 465.032 76.6213 464.673 75.3514C464.528 74.8488 464.286 74.38 463.96 73.9723C463.633 73.5646 463.229 73.2262 462.772 72.9766C461.765 72.4591 460.646 72.2017 459.515 72.2277C458.632 72.2327 457.755 72.3744 456.914 72.6478C456.045 72.9287 455.226 73.3448 454.486 73.8809C453.752 74.3986 453.092 75.013 452.521 75.7076C452.01 76.3369 451.568 77.0198 451.202 77.7443C450.787 78.6516 450.422 79.5816 450.111 80.53Z"
                fill="#F4A519" />
            <path
                d="M527.467 94.7052C526.776 96.4589 525.302 100.7 523.047 107.428C519.548 108.104 516.628 108.552 514.288 108.771C511.95 108.99 509.595 109.1 507.239 109.1C504.077 109.122 500.919 108.878 497.798 108.369C495.285 108.007 492.872 107.137 490.704 105.812C488.862 104.656 487.306 103.094 486.156 101.245C484.994 99.2521 484.274 97.0306 484.046 94.7326C483.744 92.1469 483.826 89.5304 484.291 86.9692C485.002 83.0924 486.41 79.3782 488.448 76.009C490.281 72.7447 492.746 69.8815 495.697 67.5879C498.347 65.595 501.355 64.1343 504.556 63.286C507.695 62.447 510.93 62.0203 514.179 62.0165C517.318 61.992 520.446 62.382 523.483 63.1764C526.144 63.824 528.559 65.2364 530.432 67.2408C532.139 69.0594 533.297 71.3272 533.77 73.7804C534.243 76.3772 534.243 79.0384 533.77 81.6352C533.409 83.5322 532.892 85.3957 532.224 87.2066H501.573C501.464 87.6724 501.373 88.12 501.309 88.467C500.751 91.6151 501.467 93.9319 503.455 95.4176C505.75 96.9989 508.498 97.7817 511.277 97.6462C513.524 97.6134 515.764 97.3873 517.972 96.9703C520.5 96.538 523.665 95.783 527.467 94.7052ZM503.073 80.53H517.526C517.644 80.0277 517.735 79.6167 517.79 79.2514C518.068 77.9612 518.028 76.6221 517.671 75.3514C517.52 74.8432 517.268 74.3711 516.93 73.963C516.592 73.555 516.176 73.2195 515.707 72.9766C514.7 72.4591 513.581 72.2017 512.451 72.2277C511.564 72.2326 510.684 72.3743 509.84 72.6478C508.974 72.9269 508.157 73.3432 507.421 73.8809C506.684 74.394 506.022 75.009 505.456 75.7076C504.942 76.3346 504.5 77.0179 504.138 77.7443C503.727 78.6503 503.371 79.5806 503.073 80.53Z"
                fill="#F4A519" />
            <path
                d="M534.807 107.958L539.582 88.4669L541.983 77.2784C542.365 75.2629 542.741 73.1988 543.111 71.0859C543.481 68.973 543.918 66.3273 544.421 63.1489C547.932 63.2037 550.724 63.2311 552.798 63.2311C555.223 63.2311 558.009 63.2037 561.156 63.1489L560.11 68.1084C561.156 67.0879 562.259 66.1274 563.412 65.2313C564.289 64.5773 565.223 64.0055 566.204 63.5234C567.21 63.0171 568.273 62.6338 569.369 62.3817C570.436 62.1285 571.529 62.0028 572.626 62.0072C573.779 62.0202 574.926 62.1673 576.046 62.4456C575.488 65.6301 575.081 68.2575 574.827 70.3278L573.917 77.0866C572.502 76.6354 571.027 76.3984 569.542 76.3833C567.957 76.3558 566.379 76.6157 564.885 77.1505C563.52 77.6838 562.264 78.4673 561.184 79.4613C559.963 80.5715 558.941 81.8846 558.164 83.343C557.031 85.6887 556.185 88.1636 555.645 90.7138C554.82 94.081 554.029 97.9292 553.271 102.258C552.998 103.775 552.725 105.662 552.452 107.921C549.633 107.854 546.795 107.824 543.939 107.83C541.083 107.836 538.039 107.879 534.807 107.958Z"
                fill="#F4A519" />
        </g>
    </symbol>
    <symbol viewBox="0 0 25 24" id="whatsapp">
        <path
            d="M3.26967 17.2175L3.33885 17.0053L3.2271 16.8121C2.34464 15.2866 1.83942 13.5156 1.83942 11.625C1.83942 5.89505 6.48446 1.25 12.2144 1.25C17.9444 1.25 22.5894 5.89505 22.5894 11.625C22.5894 17.355 17.9444 22 12.2144 22C10.423 22 8.73898 21.5464 7.26951 20.7481L7.07955 20.6449L6.87424 20.7127L2.49673 22.1563C2.10757 22.2847 1.73773 21.9161 1.86475 21.5265L3.26967 17.2175Z" />
        <path
            d="M10.3827 7.73039L9.35944 6.70711C8.96892 6.31658 8.33575 6.31658 7.94523 6.70711L6.92248 7.72986C6.82671 7.82562 6.74831 7.93839 6.71878 8.07056C6.53178 8.90778 6.68306 11.1392 9.58984 13.875C12.5022 16.6161 14.5276 17.3744 15.523 17.2942C15.6924 17.2806 15.8404 17.1869 15.9606 17.0668L17.1327 15.8946C17.5233 15.5041 17.5233 14.8709 17.1327 14.4804L16.1094 13.4571C15.7189 13.0666 15.0858 13.0666 14.6952 13.4571L14.6309 13.5214C14.4083 13.744 14.0925 13.8514 13.7936 13.7526C13.2216 13.5636 12.35 13.1495 11.4648 12.375C10.5188 11.5472 10.1321 10.5874 10.0108 9.97322C9.95946 9.71303 10.0702 9.45714 10.2577 9.26961L10.3827 9.14461C10.7733 8.75408 10.7733 8.12092 10.3827 7.73039Z"
            stroke-linecap="round" stroke-linejoin="round" />
    </symbol>
    <symbol viewBox="0 0 25 24" id="vk">
        <path
            d="M5.08942 5.4375H0.776917C4.37692 18.0375 11.1519 19.4375 14.0894 18.5625V14.625C14.4644 14.625 15.4769 14.8125 16.5269 15.5625C17.5769 16.3125 18.8394 17.875 19.3394 18.5625H23.6519C23.5894 18 23.2394 16.6125 22.3394 15.5625C21.4394 14.5125 19.9644 13 19.3394 12.375C19.4644 12.1875 20.0519 11.2875 21.4019 9.1875C22.7519 7.0875 23.0894 5.8125 23.0894 5.4375H18.9644C18.9019 5.4375 18.5144 6 17.4644 8.25C16.4144 10.5 14.7769 11.5625 14.0894 11.8125V5.4375H8.65192C8.71442 5.625 8.95192 6.15 9.40192 6.75C9.85192 7.35 9.83942 8.625 9.77692 9.1875V13.125C9.52692 13.125 8.68942 12.6375 7.33942 10.6875C5.98942 8.7375 5.27692 6.375 5.08942 5.4375Z"
            stroke-linecap="round" stroke-linejoin="round" />
    </symbol>
    <symbol viewBox="0 0 25 24" id="telegram">
        <path
            d="M20.6063 3.0917C21.713 2.66608 22.8526 3.63204 22.6141 4.79346L19.6559 19.199C19.4376 20.262 18.1977 20.7486 17.3147 20.1179L14.4376 18.0628C13.5562 17.4332 12.3696 17.4429 11.4985 18.0867L10.5874 18.7601C9.76382 19.3689 8.58585 18.9915 8.26929 18.0175L6.9831 14.06C6.75117 13.3464 6.21098 12.7747 5.51163 12.5027L4.46531 12.0958C3.18766 11.5989 3.19102 9.7899 4.47051 9.29779L20.6063 3.0917Z" />
        <path
            d="M9.39034 11.5762L18.7769 5.8125L10.4329 13.6239C10.1282 13.9092 9.92041 14.2825 9.83857 14.6917L9.40192 16.875L8.51686 13.8405C8.26446 12.9752 8.62216 12.0479 9.39034 11.5762Z"
            stroke-linecap="round" stroke-linejoin="round" />
    </symbol>
    <symbol viewBox="0 0 20 20" id="feedback">
        <path
            d="M10.6908 2.71422C9.62234 2.71143 8.56832 2.96106 7.61461 3.44279C6.47177 4.01396 5.51052 4.89204 4.83853 5.97866C4.16654 7.06529 3.81034 8.31754 3.80985 9.59517C3.80706 10.6636 4.0567 11.7176 4.53842 12.6714L3.00033 17.2856L7.61461 15.7475C8.56832 16.2293 9.62234 16.4789 10.6908 16.4761C11.9684 16.4756 13.2207 16.1194 14.3073 15.4474C15.3939 14.7755 16.272 13.8142 16.8432 12.6714C17.3249 11.7176 17.5745 10.6636 17.5718 9.59517V9.19041C17.4787 7.50308 16.7665 5.90937 15.5715 4.71444C14.3766 3.5195 12.7829 2.8073 11.0956 2.71422H10.6908Z"
            stroke-width="2" stroke-linecap="round" stroke-linejoin="round" />
    </symbol>
    <symbol viewBox="0 0 21 20" id="search">
        <path
            d="M9.8964 15.8333C13.5783 15.8333 16.5631 12.8486 16.5631 9.16667C16.5631 5.48477 13.5783 2.5 9.8964 2.5C6.2145 2.5 3.22974 5.48477 3.22974 9.16667C3.22974 12.8486 6.2145 15.8333 9.8964 15.8333Z"
            stroke-width="2" stroke-linecap="round" stroke-linejoin="round" />
        <path d="M18.2297 17.5L14.6047 13.875" stroke-width="2" stroke-linecap="round" stroke-linejoin="round" />
    </symbol>
    <symbol viewBox="0 0 22 22" id="box">
        <path d="M15.125 8.61663L6.875 3.85913" stroke-width="2" stroke-linecap="round" stroke-linejoin="round" />
        <path
            d="M19.25 14.6664V7.33308C19.2497 7.01158 19.1648 6.69582 19.0039 6.41748C18.843 6.13914 18.6118 5.908 18.3333 5.74725L11.9167 2.08058C11.638 1.91967 11.3218 1.83496 11 1.83496C10.6782 1.83496 10.362 1.91967 10.0833 2.08058L3.66667 5.74725C3.38824 5.908 3.15698 6.13914 2.99609 6.41748C2.8352 6.69582 2.75033 7.01158 2.75 7.33308V14.6664C2.75033 14.9879 2.8352 15.3037 2.99609 15.582C3.15698 15.8604 3.38824 16.0915 3.66667 16.2522L10.0833 19.9189C10.362 20.0798 10.6782 20.1645 11 20.1645C11.3218 20.1645 11.638 20.0798 11.9167 19.9189L18.3333 16.2522C18.6118 16.0915 18.843 15.8604 19.0039 15.582C19.1648 15.3037 19.2497 14.9879 19.25 14.6664Z"
            stroke-width="2" stroke-linecap="round" stroke-linejoin="round" />
        <path d="M3.01562 6.4165L10.9998 10.9998L18.984 6.4165" stroke-width="2" stroke-linecap="round"
            stroke-linejoin="round" />
        <path d="M11 20.1667V11" stroke-width="2" stroke-linecap="round" stroke-linejoin="round" />
    </symbol>
    <symbol viewBox="0 0 22 22" id="cart">
        <path
            d="M7.33366 20.1667C7.83992 20.1667 8.25033 19.7563 8.25033 19.25C8.25033 18.7438 7.83992 18.3334 7.33366 18.3334C6.8274 18.3334 6.41699 18.7438 6.41699 19.25C6.41699 19.7563 6.8274 20.1667 7.33366 20.1667Z"
            stroke-width="2" stroke-linecap="round" stroke-linejoin="round" />
        <path
            d="M17.4167 20.1667C17.9229 20.1667 18.3333 19.7563 18.3333 19.25C18.3333 18.7438 17.9229 18.3334 17.4167 18.3334C16.9104 18.3334 16.5 18.7438 16.5 19.25C16.5 19.7563 16.9104 20.1667 17.4167 20.1667Z"
            stroke-width="2" stroke-linecap="round" stroke-linejoin="round" />
        <path
            d="M1.87891 1.87915H3.71224L6.15057 13.2642C6.24002 13.6811 6.47202 14.0538 6.80664 14.3182C7.14126 14.5825 7.55757 14.722 7.98391 14.7125H16.9489C17.3661 14.7118 17.7707 14.5688 18.0957 14.3072C18.4207 14.0455 18.6467 13.6808 18.7364 13.2733L20.2489 6.46248H4.69307"
            stroke-width="2" stroke-linecap="round" stroke-linejoin="round" />
    </symbol>
    <symbol viewBox="0 0 24 24" id="personal">
        <path
            d="M19 21V19C19 17.9391 18.5786 16.9217 17.8284 16.1716C17.0783 15.4214 16.0609 15 15 15H9C7.93913 15 6.92172 15.4214 6.17157 16.1716C5.42143 16.9217 5 17.9391 5 19V21"
            stroke-width="2" stroke-linecap="round" stroke-linejoin="round" />
        <path
            d="M12 11C14.2091 11 16 9.20914 16 7C16 4.79086 14.2091 3 12 3C9.79086 3 8 4.79086 8 7C8 9.20914 9.79086 11 12 11Z"
            stroke-width="2" stroke-linecap="round" stroke-linejoin="round" />
    </symbol>
    <symbol viewBox="0 0 24 24" id="eyeOpen">
        <path d="M2 12C2 12 5 5 12 5C19 5 22 12 22 12C22 12 19 19 12 19C5 19 2 12 2 12Z" stroke-width="2"
            stroke-linecap="round" stroke-linejoin="round" />
        <path
            d="M12 15C13.6569 15 15 13.6569 15 12C15 10.3431 13.6569 9 12 9C10.3431 9 9 10.3431 9 12C9 13.6569 10.3431 15 12 15Z"
            stroke-width="2" stroke-linecap="round" stroke-linejoin="round" />
    </symbol>
    <symbol viewBox="0 0 24 24" id="eyeClose">
        <path
            d="M9.88013 9.87988C9.58538 10.1545 9.34897 10.4857 9.185 10.8537C9.02104 11.2217 8.93287 11.619 8.92576 12.0218C8.91865 12.4246 8.99275 12.8247 9.14364 13.1983C9.29452 13.5718 9.5191 13.9112 9.80397 14.196C10.0888 14.4809 10.4282 14.7055 10.8017 14.8564C11.1753 15.0073 11.5754 15.0814 11.9782 15.0742C12.381 15.0671 12.7783 14.979 13.1463 14.815C13.5143 14.651 13.8455 14.4146 14.1201 14.1199"
            stroke-width="2" stroke-linecap="round" stroke-linejoin="round" />
        <path
            d="M10.73 5.08C11.1513 5.02751 11.5754 5.00079 12 5C19 5 22 12 22 12C21.5529 12.9571 20.9922 13.8569 20.33 14.68"
            stroke-width="2" stroke-linecap="round" stroke-linejoin="round" />
        <path
            d="M6.61 6.61035C4.62125 7.96498 3.02987 9.82561 2 12.0004C2 12.0004 5 19.0004 12 19.0004C13.9159 19.0055 15.7908 18.4455 17.39 17.3904"
            stroke-width="2" stroke-linecap="round" stroke-linejoin="round" />
        <path d="M2 2L22 22" stroke-width="2" stroke-linecap="round" stroke-linejoin="round" />
    </symbol>
    <symbol viewBox="0 0 24 24" id="back">
        <path
            d="M14.3072 7.90706C14.6977 7.51653 14.6977 6.88337 14.3072 6.49284C13.9167 6.10232 13.2835 6.10232 12.893 6.49284L14.3072 7.90706ZM8.8001 12L8.09299 11.2928L7.38588 12L8.09299 12.7071L8.8001 12ZM12.893 17.5071C13.2835 17.8976 13.9167 17.8976 14.3072 17.5071C14.6977 17.1165 14.6977 16.4834 14.3072 16.0928L12.893 17.5071ZM12.893 6.49284L8.09299 11.2928L9.5072 12.7071L14.3072 7.90706L12.893 6.49284ZM8.09299 12.7071L12.893 17.5071L14.3072 16.0928L9.5072 11.2928L8.09299 12.7071Z" />
    </symbol>
    <symbol viewBox="0 0 22 18" id="btnCatalog">
        <path d="M3.6 3.75H18" stroke-width="2" stroke-linecap="round" stroke-linejoin="round" />
        <path d="M5.4 9H19.8" stroke-width="2" stroke-linecap="round" stroke-linejoin="round" />
        <path d="M3.6 14.25H18" stroke-width="2" stroke-linecap="round" stroke-linejoin="round" />
    </symbol>
    <symbol viewBox="0 0 12 12" id="logout">
        <path
            d="M7.5 1.5L9.5 1.5C9.76522 1.5 10.0196 1.60536 10.2071 1.79289C10.3946 1.98043 10.5 2.23478 10.5 2.5L10.5 9.5C10.5 9.76522 10.3946 10.0196 10.2071 10.2071C10.0196 10.3946 9.76522 10.5 9.5 10.5L7.5 10.5"
            stroke-linecap="round" stroke-linejoin="round" />
        <path d="M4 3.5L1.5 6L4 8.5" stroke-linecap="round" stroke-linejoin="round" />
        <path d="M1.5 6L7.5 6" stroke-linecap="round" stroke-linejoin="round" />
    </symbol>
    <symbol viewBox="0 0 24 24" id="home">
        <path
            d="M4 9.3L12 3L20 9.3V19.2C20 19.6774 19.8127 20.1352 19.4793 20.4728C19.1459 20.8104 18.6937 21 18.2222 21H5.77778C5.30628 21 4.8541 20.8104 4.5207 20.4728C4.1873 20.1352 4 19.6774 4 19.2V9.3Z"
            stroke-width="2" stroke-linecap="round" stroke-linejoin="round" />
        <path d="M9 21.0001V11.5264H15V21.0001" stroke-width="2" stroke-linecap="round" stroke-linejoin="round" />
    </symbol>
    <symbol viewBox="0 0 24 24" id="heartMini">
        <path
            d="M19.572 5.41114C19.1209 4.96386 18.5848 4.60896 17.9945 4.36681C17.4042 4.12465 16.7714 4 16.1322 4C15.4931 4 14.8602 4.12465 14.27 4.36681C13.6797 4.60896 13.1436 4.96386 12.6925 5.41114L12 6.10415L11.3075 5.41114C10.8564 4.96386 10.3203 4.60896 9.73003 4.36681C9.13976 4.12465 8.5069 4 7.86776 4C7.22863 4 6.59577 4.12465 6.0055 4.36681C5.41522 4.60896 4.87914 4.96386 4.42798 5.41114C2.52149 7.29472 2.40458 10.4755 4.80568 12.8922L12 20L19.1943 12.8922C21.5954 10.4755 21.4785 7.29472 19.572 5.41114Z"
            stroke-width="2" stroke-linecap="round" stroke-linejoin="round" />
    </symbol>
    <symbol viewBox="0 0 18 18" id="file">
        <path
            d="M15.75 11.25V14.25C15.75 14.6478 15.592 15.0294 15.3107 15.3107C15.0294 15.592 14.6478 15.75 14.25 15.75H3.75C3.35218 15.75 2.97064 15.592 2.68934 15.3107C2.40804 15.0294 2.25 14.6478 2.25 14.25V11.25"
            stroke-width="2" stroke-linecap="round" stroke-linejoin="round" />
        <path d="M12.75 6L9 2.25L5.25 6" stroke-width="2" stroke-linecap="round" stroke-linejoin="round" />
        <path d="M9 2.25V11.25" stroke-width="2" stroke-linecap="round" stroke-linejoin="round" />
    </symbol>
    <symbol viewBox="0 0 16 16" id="phone">
        <path
            d="M14.6667 11.2797V13.2797C14.6675 13.4654 14.6294 13.6492 14.555 13.8193C14.4807 13.9894 14.3716 14.1421 14.2348 14.2676C14.0979 14.3932 13.9364 14.4887 13.7605 14.5482C13.5847 14.6077 13.3983 14.6298 13.2134 14.6131C11.1619 14.3902 9.19137 13.6892 7.46004 12.5664C5.84926 11.5428 4.48359 10.1772 3.46004 8.56641C2.33336 6.82721 1.6322 4.84707 1.41337 2.78641C1.39671 2.60205 1.41862 2.41625 1.4777 2.24082C1.53679 2.0654 1.63175 1.9042 1.75655 1.76749C1.88134 1.63077 2.03324 1.52155 2.20256 1.44675C2.37189 1.37196 2.55493 1.33325 2.74004 1.33307H4.74004C5.06357 1.32989 5.37723 1.44446 5.62254 1.65543C5.86786 1.8664 6.02809 2.15937 6.07337 2.47974C6.15779 3.11978 6.31434 3.74822 6.54004 4.35307C6.62973 4.59169 6.64915 4.85102 6.59597 5.10033C6.5428 5.34964 6.41928 5.57848 6.24004 5.75974L5.39337 6.60641C6.34241 8.27544 7.72434 9.65737 9.39337 10.6064L10.24 9.75974C10.4213 9.5805 10.6501 9.45697 10.8995 9.4038C11.1488 9.35063 11.4081 9.37004 11.6467 9.45974C12.2516 9.68544 12.88 9.84199 13.52 9.92641C13.8439 9.97209 14.1396 10.1352 14.3511 10.3847C14.5625 10.6343 14.6748 10.9528 14.6667 11.2797Z" />
    </symbol>
    <symbol viewBox="0 0 24 24" id="createdOrder">
        <path
            d="M20 6H4C2.89543 6 2 6.89543 2 8V16C2 17.1046 2.89543 18 4 18H20C21.1046 18 22 17.1046 22 16V8C22 6.89543 21.1046 6 20 6Z"
            stroke-width="2" stroke-linecap="round" stroke-linejoin="round" />
        <path
            d="M12 14C13.1046 14 14 13.1046 14 12C14 10.8954 13.1046 10 12 10C10.8954 10 10 10.8954 10 12C10 13.1046 10.8954 14 12 14Z"
            stroke-width="2" stroke-linecap="round" stroke-linejoin="round" />
        <path d="M6 12H6.01M18 12H18.01" stroke-width="2" stroke-linecap="round" stroke-linejoin="round" />
    </symbol>
    <symbol viewBox="0 0 24 24" id="complete">
        <path d="M20 6L9 17L4 12" stroke-width="2" stroke-linecap="round" stroke-linejoin="round" />
    </symbol>
    <symbol viewBox="0 0 24 24" id="clock">
        <path
            d="M12 22C17.5228 22 22 17.5228 22 12C22 6.47715 17.5228 2 12 2C6.47715 2 2 6.47715 2 12C2 17.5228 6.47715 22 12 22Z"
            stroke-width="2" stroke-linecap="round" stroke-linejoin="round" />
        <path d="M12 6V12L16 14" stroke-width="2" stroke-linecap="round" stroke-linejoin="round" />
    </symbol>
    <symbol viewBox="0 0 24 24" id="boxOpen">
        <path
            d="M20.91 8.83998L8.55996 2.22998C8.28126 2.08201 7.97052 2.00464 7.65496 2.00464C7.33941 2.00464 7.02867 2.08201 6.74996 2.22998L3.09996 4.12998C2.77086 4.31033 2.49553 4.5748 2.30209 4.89639C2.10866 5.21798 2.00406 5.58515 1.99897 5.9604C1.99389 6.33564 2.0885 6.70551 2.27315 7.03222C2.4578 7.35893 2.72587 7.63078 3.04996 7.81998L15.27 14.75C15.5668 14.9146 15.9006 15.0009 16.24 15.0009C16.5794 15.0009 16.9132 14.9146 17.21 14.75L21 12.51C21.3174 12.316 21.5782 12.0419 21.7562 11.7153C21.9341 11.3886 22.023 11.0209 22.0139 10.649C22.0048 10.2771 21.898 9.91419 21.7042 9.59665C21.5104 9.27911 21.2365 9.01815 20.91 8.83998V8.83998Z"
            stroke-width="2" stroke-linecap="round" stroke-linejoin="round" />
        <path
            d="M3.08994 8.83998L15.4399 2.22998C15.7186 2.08201 16.0294 2.00464 16.3449 2.00464C16.6605 2.00464 16.9712 2.08201 17.2499 2.22998L20.8999 4.12998C21.2317 4.30577 21.5108 4.56652 21.7088 4.88556C21.9067 5.2046 22.0164 5.57048 22.0265 5.9458C22.0367 6.32112 21.947 6.6924 21.7666 7.0217C21.5863 7.35099 21.3217 7.62647 20.9999 7.81998L8.72994 14.75C8.43314 14.9146 8.09933 15.0009 7.75994 15.0009C7.42055 15.0009 7.08674 14.9146 6.78994 14.75L2.99994 12.51C2.68252 12.316 2.42172 12.0419 2.24374 11.7153C2.06576 11.3886 1.97687 11.0209 1.98599 10.649C1.99511 10.2771 2.10192 9.91419 2.2957 9.59665C2.48947 9.27911 2.76339 9.01815 3.08994 8.83998V8.83998Z"
            stroke-width="2" stroke-linecap="round" stroke-linejoin="round" />
        <path d="M12 22V13" stroke-width="2" stroke-linecap="round" stroke-linejoin="round" />
        <path
            d="M20 13.5V16.87C20.0004 17.2474 19.8971 17.6178 19.7013 17.9405C19.5056 18.2632 19.2249 18.5259 18.89 18.7L12.89 21.78C12.6151 21.9229 12.3098 21.9975 12 21.9975C11.6902 21.9975 11.3849 21.9229 11.11 21.78L5.11 18.7C4.77508 18.5259 4.49443 18.2632 4.29868 17.9405C4.10293 17.6178 3.99961 17.2474 4 16.87V13.5"
            stroke-width="2" stroke-linecap="round" stroke-linejoin="round" />
    </symbol>
    <symbol viewBox="0 0 24 24" id="close">
        <path d="M22 2L2 22" stroke-width="2" stroke-linecap="round" stroke-linejoin="round" />
        <path d="M2 2L22 22" stroke-width="2" stroke-linecap="round" stroke-linejoin="round" />
    </symbol>
    <symbol viewBox="0 0 24 24" id="arrow-small">
        <path
            d="M10.0463 16.4465C9.85109 16.6418 9.85109 16.9583 10.0463 17.1536C10.2416 17.3489 10.5582 17.3489 10.7535 17.1536L10.0463 16.4465ZM15.1999 12L15.5535 12.3536L15.907 12L15.5535 11.6465L15.1999 12ZM10.7535 6.8465C10.5582 6.65123 10.2416 6.65123 10.0463 6.8465C9.85109 7.04176 9.85109 7.35834 10.0463 7.5536L10.7535 6.8465ZM10.7535 17.1536L15.5535 12.3536L14.8463 11.6465L10.0463 16.4465L10.7535 17.1536ZM15.5535 11.6465L10.7535 6.8465L10.0463 7.5536L14.8463 12.3536L15.5535 11.6465Z" />
    </symbol>
    <symbol viewBox="0 0 40 40" id="checkmark">
        <path d="M36.6666 8.33301L13.7499 34.9997L3.33325 22.8785" stroke-width="4" stroke-linecap="round"
            stroke-linejoin="round" />
    </symbol>
    <symbol viewBox="0 0 17 18" id="human">
        <g>
            <path
                d="M9.12514 4.57588C9.03116 4.49707 8.92939 4.42801 8.82139 4.36978C8.77303 4.33876 8.71688 4.32196 8.65939 4.32129C8.59949 4.33047 8.54336 4.35623 8.4974 4.39564C7.95009 4.79557 7.49927 5.3125 7.17793 5.90862C7.07263 6.1034 6.98029 6.31758 7.00297 6.53742C7.02656 6.67937 7.07481 6.81612 7.14553 6.94152C7.2178 7.11514 7.32599 7.27158 7.46304 7.40059C7.75383 7.64305 8.18312 7.60264 8.54276 7.48949" />
            <path
                d="M13.1331 8.15346C13.1566 8.22503 13.1735 8.29863 13.1834 8.37329C13.1882 8.39812 13.1882 8.42364 13.1834 8.44846C13.1789 8.46664 13.1724 8.48427 13.1639 8.50099L13.1258 8.56969C13.1105 8.59717 13.0878 8.62869 13.057 8.62303C13.0439 8.61858 13.0329 8.60941 13.0261 8.59731C13.0194 8.58521 13.0174 8.57105 13.0205 8.55757C13.0275 8.52962 13.0376 8.50251 13.0505 8.47675C13.0698 8.39993 13.0641 8.319 13.0343 8.2456C13.0145 8.14972 12.9711 8.06028 12.908 7.98535" />
            <path
                d="M12.8294 7.98414C12.847 8.02844 12.8619 8.07379 12.8739 8.11992C12.8868 8.16288 12.8925 8.20766 12.8909 8.25247C12.8886 8.29775 12.8693 8.34048 12.8367 8.37208C12.8213 8.38582 12.8002 8.39956 12.7986 8.41977C12.7985 8.42575 12.7995 8.4317 12.8018 8.43725C12.804 8.44281 12.8073 8.44786 12.8116 8.4521C12.8201 8.46038 12.8308 8.46595 12.8425 8.46811C12.8542 8.47027 12.8663 8.46891 12.8772 8.46422C12.8885 8.45861 12.8986 8.45093 12.9071 8.44159C12.9656 8.38022 13.0036 8.30224 13.0158 8.21842C13.028 8.13459 13.0138 8.04906 12.9752 7.97363" />
            <path
                d="M12.7151 8.55149C12.7467 8.54421 12.7507 8.49006 12.7459 8.45208L12.6924 7.99301C12.8356 8.04545 12.97 8.1193 13.0909 8.21204C13.2067 8.32599 13.3185 8.58462 13.3898 8.50865C13.4157 8.47956 13.3039 8.1296 13.0941 7.8936C12.9675 7.75334 12.8282 7.62509 12.6778 7.5105C12.593 7.45576 12.5035 7.40844 12.4105 7.36907L11.8808 7.10074C11.6127 6.96496 11.3349 6.82029 11.1518 6.54873C11.0117 6.34587 10.9331 6.08724 10.8562 5.83346L10.6447 5.13031L10.4909 5.15375C10.4738 4.95978 10.4682 4.8143 10.4657 4.77389C10.4657 4.77389 9.76672 4.22511 9.80155 5.27013C9.80155 5.27013 9.80155 5.28306 9.80641 5.30569C9.81449 5.4577 9.83153 5.6091 9.85744 5.7591C9.87314 5.85266 9.89534 5.94502 9.92386 6.03551C9.93046 6.07096 9.94219 6.10527 9.95869 6.13735C10.4747 7.48949 12.3222 7.74327 12.3222 7.74327C12.3077 7.8055 12.3911 7.96715 12.498 8.08272C12.6049 8.1983 12.498 8.43834 12.6851 8.54179C12.6891 8.54545 12.6939 8.5482 12.699 8.54988C12.7042 8.55155 12.7097 8.5521 12.7151 8.55149Z" />
            <path
                d="M10.0859 3.14651C10.2287 3.2918 10.4007 3.4053 10.5905 3.47955C10.7804 3.5538 10.9838 3.5871 11.1875 3.57729C11.2425 3.57929 11.2964 3.56118 11.339 3.52637C11.3684 3.48846 11.3857 3.44252 11.3884 3.39463L11.4346 3.10771C11.4386 3.09744 11.44 3.08635 11.4386 3.07542C11.4373 3.06449 11.4333 3.05404 11.427 3.04502C11.4207 3.03599 11.4122 3.02866 11.4024 3.02366C11.3925 3.01867 11.3816 3.01617 11.3706 3.01638C11.0954 2.95601 10.8139 2.92887 10.5322 2.93556" />
            <path
                d="M11.0093 15.9503C10.9845 16.1956 10.9415 16.4388 10.8805 16.6777C10.8501 16.8113 10.8078 16.9419 10.7542 17.0681C10.8708 17.0901 10.9894 17.1001 11.1081 17.098C11.1233 17.099 11.1384 17.095 11.151 17.0866C11.1604 17.0771 11.1666 17.065 11.1689 17.0519C11.2769 16.6733 11.3517 16.2861 11.3924 15.8945L11.0093 15.9503Z" />
            <path
                d="M5.06386 13.2457C4.74802 13.3444 4.42454 13.4168 4.09674 13.4623C4.09674 13.3508 4.09674 13.2392 4.09674 13.1277C4.09563 13.1194 4.09621 13.111 4.09844 13.1029C4.10066 13.0949 4.10449 13.0874 4.1097 13.0808C4.11969 13.0736 4.13143 13.0691 4.14371 13.0679L5.12542 12.9062" />
            <path
                d="M10.7574 4.87402L11.1624 5.5206C11.2782 5.70406 11.4102 5.89965 11.6168 5.96511C11.5005 6.11555 11.3539 6.24002 11.1865 6.3305C11.0191 6.42098 10.8346 6.47547 10.6448 6.49045" />
            <path
                d="M11.1201 8.28613C11.3518 9.55934 11.5837 10.8326 11.8159 12.1058C11.9007 12.5214 11.9591 12.942 11.9908 13.365C12.0419 14.3025 11.8289 15.2352 11.6199 16.1557C11.325 16.2204 10.8739 16.1703 10.8739 16.1703C10.8739 16.1703 11.1477 13.8628 10.6309 12.8283C10.3879 12.3361 9.98856 11.9158 9.68239 11.4543C9.25552 10.8078 9.0101 10.0804 8.78573 9.35298C8.7347 9.19133 8.69177 8.99251 8.81813 8.8632" />
            <path
                d="M11.0579 1.35742C11.2011 1.52786 11.2942 1.73462 11.3268 1.95469C11.3297 2.02152 11.3456 2.08713 11.3737 2.14786C11.4088 2.20082 11.4553 2.24529 11.5098 2.27798C11.5812 2.32667 11.655 2.37171 11.731 2.41295C11.7674 2.43316 11.7423 2.51964 11.7423 2.51964C11.7423 2.51964 11.6767 2.54954 11.5941 2.58995C11.5402 2.60662 11.4938 2.64148 11.4628 2.68855C11.4479 2.7392 11.4479 2.79308 11.4628 2.84373C11.4807 2.97515 11.4671 3.10892 11.4232 3.2341C11.4175 3.25494 11.406 3.27373 11.3899 3.28825C11.3677 3.30043 11.3423 3.3055 11.317 3.3028C11.1774 3.29851 11.0406 3.2617 10.9177 3.1953" />
            <path
                d="M10.7136 3.59546C10.6656 3.86701 10.6678 4.14502 10.72 4.41579C10.8577 5.09227 9.78289 4.34952 9.78289 4.34952L9.66382 4.29779L9.7918 2.92383L10.1531 2.92868L10.7362 2.93838H10.8788H10.9331C10.8747 3.02081 10.7678 3.27055 10.7136 3.59546Z" />
            <path
                d="M10.6335 0.865203C10.9769 1.14646 11.1762 1.56027 11.275 1.98781C11.3738 2.41536 11.3819 2.85745 11.3819 3.29551C11.1568 3.40381 10.8959 3.40219 10.6465 3.39815C10.4367 3.39815 10.2188 3.39007 10.0301 3.29874C9.69717 3.1371 9.53841 2.75481 9.46308 2.39273C9.39544 2.10514 9.39544 1.80583 9.46308 1.51824C9.4991 1.37414 9.56626 1.23965 9.65987 1.12419C9.75348 1.00873 9.87126 0.915092 10.005 0.849847C10.2731 0.728614 10.6238 0.777107 10.8149 1.00098" />
            <path
                d="M11.5115 5.94434C11.5115 5.95646 11.518 5.96777 11.5204 5.97909C11.5171 5.96777 11.5147 5.95646 11.5115 5.94434Z" />
            <path
                d="M11.5356 6.04004C11.5405 6.05863 11.5437 6.07641 11.5478 6.09338C11.5451 6.07668 11.541 6.0589 11.5356 6.04004Z" />
            <path
                d="M11.4555 5.74455C11.4425 5.70252 11.4287 5.65888 11.4158 5.61523C11.4287 5.65888 11.4425 5.70171 11.4547 5.74455H11.4555Z" />
            <path
                d="M9.15032 5.04004C9.13736 5.12086 9.12602 5.19683 9.11792 5.27361C9.2864 5.30837 9.45568 5.33504 9.62578 5.35443C9.57387 5.27386 9.53018 5.1883 9.49537 5.09904C9.38036 5.08287 9.26534 5.06348 9.15032 5.04004Z" />
            <path
                d="M11.5203 5.97949C11.5259 6.00051 11.5308 6.02071 11.5357 6.04011C11.5308 6.02071 11.5259 6.00051 11.5203 5.97949Z" />
            <path
                d="M9.3999 4.79297C9.3999 4.80105 9.3999 4.80913 9.40557 4.81722C9.48657 4.83095 9.56757 4.84308 9.64857 4.85439L9.3999 4.79297Z" />
            <path
                d="M10.2956 1.35325C10.7111 1.41387 11.1056 1.39528 11.3616 1.31123C11.3557 1.30303 11.3515 1.29373 11.3493 1.28389C11.3472 1.27404 11.347 1.26386 11.3489 1.25395C11.3508 1.24405 11.3547 1.23463 11.3603 1.22628C11.366 1.21792 11.3733 1.2108 11.3818 1.20535L11.4069 1.1908C11.4066 1.18704 11.4066 1.18325 11.4069 1.17949C11.3982 1.17677 11.3902 1.17231 11.3832 1.16639C11.3763 1.16046 11.3707 1.1532 11.3667 1.14503C11.3627 1.13687 11.3604 1.12798 11.3599 1.11889C11.3594 1.10981 11.3608 1.10073 11.364 1.0922C11.3478 1.08636 11.3343 1.07488 11.3259 1.05987C11.3102 1.06343 11.2936 1.06091 11.2797 1.05281C11.2657 1.04472 11.2553 1.03165 11.2506 1.01623L11.2028 1.02916C11.1275 1.04856 11.1007 0.942681 11.1607 0.907928H11.1696C11.1658 0.896913 11.1655 0.884987 11.1689 0.873826C11.1722 0.862665 11.179 0.852827 11.1882 0.845695L11.2141 0.823065C11.2061 0.817799 11.1993 0.810764 11.1944 0.8025C11.1895 0.794235 11.1866 0.784959 11.1858 0.775381H11.1753C11.1299 0.788312 11.0943 0.736586 11.1121 0.694559C11.0993 0.692186 11.0876 0.685651 11.0789 0.67597C11.0497 0.68643 11.0187 0.690544 10.9878 0.688035C10.9569 0.685525 10.9269 0.676451 10.8999 0.661422C10.8391 0.661422 10.7727 0.661422 10.6998 0.661422C10.3661 0.599998 10.3507 0.513519 9.90924 0.772956C9.73915 0.873983 9.52855 0.881257 9.34225 0.956421C9.22345 0.996045 9.11727 1.06631 9.03446 1.16009C8.9405 1.28375 8.92916 1.44943 8.92187 1.60461C8.90858 1.7553 8.91402 1.90705 8.93807 2.0564C9.01907 2.46697 9.35683 2.77167 9.68893 3.02626L9.71728 3.0101L9.84283 2.55184L9.92382 2.02973C9.92382 2.02973 10.1814 2.15904 10.2478 1.78727C10.3142 1.41549 10.2956 1.35325 10.2956 1.35325Z" />
            <path
                d="M9.98147 2.43137C9.98095 2.3044 9.99097 2.17762 10.0114 2.05231C9.99615 2.02916 9.97617 2.00945 9.95279 1.99446C9.92941 1.97946 9.90315 1.96952 9.87569 1.96525C9.84822 1.96099 9.82017 1.96251 9.79333 1.96971C9.7665 1.9769 9.74146 1.98963 9.71984 2.00705C9.67727 2.04626 9.64431 2.09472 9.62352 2.14868C9.60274 2.20264 9.59468 2.26065 9.59997 2.31822C9.60483 2.47501 9.69635 2.65443 9.85349 2.66332C9.89925 2.66506 9.94454 2.65356 9.9839 2.63019C9.97842 2.56405 9.97761 2.49761 9.98147 2.43137Z" />
            <path
                d="M9.76196 0.903719C9.79674 0.826268 9.85667 0.762773 9.93206 0.723487C10.0251 0.658279 10.1275 0.607589 10.2358 0.573159C10.4448 0.516584 10.6651 0.573159 10.8781 0.613569C11.0912 0.65398 11.326 0.673377 11.5091 0.556994C11.5355 0.537236 11.5641 0.520432 11.5942 0.506885C11.6094 0.500276 11.6261 0.497768 11.6425 0.499612C11.659 0.501456 11.6747 0.507587 11.6881 0.517392C11.7302 0.55457 11.7108 0.623268 11.6816 0.670953C11.6221 0.761734 11.5448 0.839544 11.4543 0.89969C11.3638 0.959835 11.262 1.00107 11.1551 1.02091C10.9396 1.06041 10.7178 1.04962 10.5072 0.989389" />
            <path
                d="M10.1797 1.36433C10.4237 1.45266 10.686 1.47844 10.9426 1.43933C11.1991 1.40021 11.4418 1.29745 11.6482 1.14046C11.745 1.07657 11.8194 0.984197 11.8612 0.87617C11.8673 0.861412 11.8673 0.844859 11.8612 0.830101C11.8548 0.820403 11.845 0.813475 11.8337 0.810704C11.7815 0.802323 11.7281 0.811118 11.6814 0.835759C11.4178 0.935511 11.126 0.930885 10.8657 0.822828" />
            <path
                d="M9.51001 1.0283C9.51567 0.965007 9.53679 0.904062 9.57153 0.850802C9.60627 0.797542 9.65356 0.75359 9.70927 0.722795C9.99843 0.53044 10.3799 0.539331 10.7161 0.627426C10.81 0.65011 10.9011 0.683465 10.9874 0.726837C11.021 0.74227 11.0492 0.767307 11.0684 0.798768C11.0792 0.82693 11.0808 0.857805 11.0727 0.886885C11.0647 0.915965 11.0476 0.941727 11.0239 0.960411C10.9759 0.996033 10.9205 1.0206 10.8619 1.03234C10.6408 1.09053 10.4172 1.13741 10.1912 1.17459" />
            <path
                d="M9.32861 4.39401C9.35802 4.20806 9.40438 4.02519 9.46712 3.84766L10.9138 4.25904C10.9333 4.26171 10.9519 4.26906 10.968 4.28046C10.9841 4.29186 10.9971 4.30697 11.0061 4.3245C11.0126 4.35105 11.0126 4.37877 11.0061 4.40532C10.9964 4.47645 10.9858 4.54838 10.9761 4.6195C10.9746 4.65097 10.9639 4.68131 10.9453 4.70679C10.9342 4.71596 10.9212 4.7227 10.9072 4.7266C10.8933 4.73049 10.8787 4.73145 10.8643 4.72942C10.4108 4.71972 9.94258 4.70679 9.5303 4.48695" />
            <path
                d="M11.1056 8.71963C10.7694 9.79779 10.3766 10.8654 9.79825 11.8369C9.54796 12.2588 9.24908 12.6758 8.81898 12.9127C8.38887 13.1495 7.89397 13.181 7.41284 13.2198C6.52455 13.2925 5.64005 13.4003 4.75932 13.5431C4.6922 13.324 4.66908 13.0938 4.69128 12.8658L6.9795 12.3C7.09475 12.2801 7.20488 12.2375 7.30349 12.1748C7.41218 12.0814 7.49267 11.9596 7.53596 11.8232C7.76032 11.2518 7.80244 10.6286 7.94662 10.033C8.18071 9.06312 8.45691 8.15792 9.17213 7.45801" />
            <path
                d="M10.8601 4.50391C11.2926 5.93049 11.4304 7.42983 11.2651 8.9111C10.1869 9.03084 9.09553 8.92065 8.06323 8.58782C8.70705 7.4005 9.17626 6.12689 9.45641 4.80618" />
            <path
                d="M9.46305 9.57625C9.50299 9.67511 9.53284 9.77773 9.55215 9.88256C9.558 9.91799 9.57108 9.95184 9.59058 9.98201C9.61009 10.0122 9.63561 10.038 9.66555 10.0579C9.67385 10.062 9.68253 10.0653 9.69147 10.0676C9.67661 9.94913 9.6788 9.82911 9.69795 9.71122C9.70684 9.6731 9.70931 9.63376 9.70524 9.59484C9.69077 9.5346 9.6555 9.48137 9.60561 9.44451C9.56513 9.41101 9.52266 9.37997 9.47844 9.35156C9.4574 9.42452 9.45215 9.50111 9.46305 9.57625Z" />
            <path
                d="M9.55764 10.0369C9.39564 10.0781 9.30006 10.07 9.11215 9.9391C9.01998 9.88354 8.93369 9.81883 8.85457 9.74594C8.8454 9.71783 8.83783 9.68923 8.83189 9.66027C8.8165 9.57945 8.8003 9.49862 8.78491 9.4178L8.80192 9.38871C8.86604 9.27287 8.94352 9.16492 9.03277 9.06704C9.03908 9.061 9.04692 9.05681 9.05545 9.05491C9.11701 9.05007 9.18262 9.12442 9.18262 9.12442C9.26254 9.19578 9.35031 9.25787 9.44424 9.3095C9.41546 9.38906 9.41291 9.47571 9.43695 9.55682C9.43655 9.56462 9.43655 9.57245 9.43695 9.58025C9.43787 9.61244 9.44058 9.64455 9.44505 9.67643C9.44505 9.67643 9.44505 9.67643 9.44505 9.6829C9.45199 9.72865 9.46256 9.77378 9.47664 9.81787C9.47629 9.81947 9.47629 9.82112 9.47664 9.82272C9.4891 9.86361 9.50565 9.90314 9.52605 9.94072V9.95284C9.53107 9.95785 9.53567 9.96326 9.53982 9.96901C9.55442 9.98844 9.56082 10.0128 9.55764 10.0369Z" />
            <path
                d="M9.06292 9.04785C9.13505 9.07679 9.204 9.11308 9.26866 9.15615C9.3367 9.20949 9.53676 9.39215 9.53676 9.39215L9.46305 9.57562C9.46305 9.57562 9.43308 9.54652 9.43551 9.60633C9.45137 9.7025 9.47246 9.79774 9.49869 9.89163L9.27109 9.88597L9.07345 9.80515L8.89282 9.62007L9.05482 9.05432L9.06292 9.04785Z" />
            <path
                d="M10.0462 5.40763L9.92387 5.79719C9.70031 6.06956 9.00291 6.68623 8.72347 7.09034C8.6734 7.15545 8.63503 7.22874 8.61007 7.30694C8.59533 7.40472 8.59533 7.50415 8.61007 7.60194C8.653 8.04726 8.85306 8.7593 9.02964 9.06885C8.94142 9.1674 8.86503 9.2759 8.80203 9.39213C8.37112 8.93387 7.94102 8.16849 7.8989 7.57284C7.85146 6.93682 8.03648 6.30518 8.41972 5.79477C8.59102 5.57942 8.78073 5.37931 8.98671 5.19669C9.20298 4.99706 9.49295 4.78773 9.7643 4.89926C9.9506 4.97766 10.051 5.20073 10.0462 5.40763Z" />
            <path
                d="M9.09279 9.16258L8.97858 9.32423L8.87571 9.46486C8.85141 9.44142 8.8263 9.41717 8.802 9.39131C8.86591 9.27434 8.94339 9.16529 9.03285 9.06641C9.0369 9.07449 9.04176 9.08176 9.04581 9.08904C9.0594 9.11481 9.07511 9.13941 9.09279 9.16258Z" />
            <path
                d="M9.39413 6.56145L8.61412 6.09268C8.41648 5.97387 8.20912 5.84537 8.10059 5.63927C8.30794 5.48329 8.46022 5.26426 8.61412 5.05332C8.76801 4.84237 8.93811 4.63062 9.15762 4.49888C9.37712 4.36714 9.67682 4.33724 9.89147 4.48029C9.97627 4.54694 10.045 4.6317 10.0927 4.72835C10.1403 4.82499 10.1657 4.93106 10.1669 5.03877C10.1701 5.25437 10.1353 5.46886 10.064 5.67241C9.95627 6.02964 9.821 6.38849 9.57314 6.66409" />
            <path d="M9.32373 4.42383H9.37638C9.36368 4.42789 9.35146 4.43331 9.33993 4.43999L9.32373 4.42383Z" />
            <path
                d="M10.2399 5.47142C10.2405 5.78926 10.1596 6.10198 10.005 6.37985C9.85835 6.62232 9.63804 6.8074 9.41772 6.9844C9.15367 7.19669 8.88367 7.40198 8.60773 7.60026C8.59299 7.50248 8.59299 7.40304 8.60773 7.30526C8.6327 7.22706 8.67106 7.15377 8.72113 7.08866C9.05161 6.95773 9.37398 6.79204 9.59673 6.52291C9.73971 6.33258 9.84926 6.11942 9.92072 5.8925C10.0147 5.62821 10.09 5.34938 10.0495 5.07297C10.009 4.79656 9.82838 4.52419 9.55623 4.45388C9.49495 4.43891 9.4322 4.43078 9.36912 4.42963C9.61212 4.33507 9.90452 4.466 10.0544 4.68099C10.2204 4.90486 10.248 5.19582 10.2399 5.47142Z" />
            <path
                d="M10.4683 17.1751C10.5428 17.0822 10.6023 16.9783 10.6448 16.8671C10.6504 16.8437 10.6642 16.8231 10.6837 16.8089C10.7051 16.8005 10.7285 16.7986 10.7509 16.8033L11.3082 16.8688C11.3326 16.8701 11.3563 16.8767 11.3779 16.8882C11.4034 16.9093 11.4222 16.9374 11.4321 16.969C11.5124 17.1094 11.6438 17.2136 11.7991 17.2599C11.9579 17.3078 12.1204 17.3421 12.2851 17.3626C12.3247 17.3653 12.3625 17.3806 12.3928 17.4062C12.3994 17.4126 12.4044 17.4206 12.4072 17.4294C12.4101 17.4381 12.4107 17.4475 12.4091 17.4566C12.4075 17.4656 12.4037 17.4742 12.3981 17.4815C12.3924 17.4888 12.385 17.4946 12.3766 17.4984C12.3677 17.4996 12.3587 17.4996 12.3499 17.4984C11.722 17.5098 11.0948 17.4523 10.4796 17.327C10.4721 17.2978 10.4719 17.2672 10.479 17.2379C10.486 17.2087 10.5001 17.1815 10.5201 17.1589" />
            <path
                d="M3.74932 12.9238C3.85969 12.9686 3.97639 12.9958 4.09519 13.0046C4.11932 13.0029 4.14324 13.0101 4.16242 13.0249C4.17696 13.0429 4.18572 13.0648 4.18753 13.0879L4.28473 13.6383C4.29026 13.6622 4.29026 13.6871 4.28473 13.711C4.27213 13.7409 4.25136 13.7667 4.22479 13.7854C4.11302 13.9026 4.05093 14.0584 4.05145 14.2202C4.0509 14.3843 4.06445 14.5482 4.09195 14.71C4.10019 14.7488 4.09623 14.7891 4.08061 14.8256C4.07648 14.8338 4.07038 14.8408 4.06286 14.8461C4.05533 14.8514 4.04661 14.8548 4.03748 14.8559C4.02834 14.857 4.01907 14.8559 4.01048 14.8525C4.0019 14.8492 3.99427 14.8438 3.98827 14.8369C3.98361 14.8293 3.98007 14.8212 3.97774 14.8126C3.78635 14.2158 3.66167 13.5997 3.60596 12.9756C3.63205 12.9604 3.6614 12.9517 3.69155 12.9501C3.7217 12.9486 3.75178 12.9543 3.77929 12.9667" />
            <path
                d="M4.77326 13.6736C4.75104 13.5147 4.71995 13.3571 4.68011 13.2016C4.64031 13.045 4.64849 12.88 4.7036 12.728C4.71008 12.7127 4.7198 12.6949 4.73681 12.6924C4.75382 12.69 4.78136 12.7215 4.80728 12.7272C4.85426 12.7377 4.87208 12.6634 4.91582 12.6464C4.93067 12.6421 4.94648 12.6427 4.96102 12.6479C4.97555 12.6531 4.98807 12.6628 4.99682 12.6755C5.01363 12.703 5.02414 12.7339 5.0276 12.766C5.06594 12.9815 5.10131 13.1995 5.13371 13.4198C5.14335 13.4631 5.14196 13.5082 5.12966 13.5508C5.12274 13.5718 5.10819 13.5896 5.08887 13.6005C5.06954 13.6114 5.04682 13.6147 5.02517 13.6098C5.01559 13.6041 5.0047 13.6011 4.99358 13.6009C4.97333 13.6009 4.96523 13.6259 4.95551 13.6445C4.94622 13.6605 4.9335 13.6742 4.91826 13.6847C4.90302 13.6952 4.88565 13.7023 4.86738 13.7053C4.84911 13.7083 4.8304 13.7072 4.81259 13.7022C4.79477 13.6971 4.7783 13.6882 4.76435 13.676" />
            <path
                d="M11.7227 16.3337C11.5622 16.3244 11.4013 16.3244 11.2408 16.3337C11.0791 16.3425 10.9184 16.3031 10.7791 16.2206C10.7653 16.2109 10.7499 16.1971 10.7508 16.1802C10.7516 16.1632 10.788 16.143 10.7985 16.1179C10.8172 16.0743 10.7483 16.0428 10.7378 15.9959C10.7359 15.98 10.7394 15.964 10.7476 15.9502C10.7558 15.9365 10.7683 15.9259 10.7832 15.9199C10.8131 15.9088 10.8452 15.9043 10.8771 15.907C11.0982 15.911 11.3202 15.9183 11.5413 15.9288C11.5857 15.927 11.6298 15.9368 11.6693 15.9571C11.6886 15.968 11.7032 15.9857 11.7102 16.0068C11.7173 16.0278 11.7162 16.0507 11.7073 16.0711C11.7003 16.0796 11.695 16.0895 11.692 16.1002C11.692 16.1204 11.7114 16.1333 11.7276 16.1454C11.7416 16.1576 11.7527 16.1727 11.7602 16.1897C11.7676 16.2066 11.7713 16.225 11.7708 16.2435C11.7703 16.2621 11.7658 16.2803 11.7575 16.2968C11.7492 16.3134 11.7373 16.3279 11.7227 16.3394" />
        </g>
    </symbol>
    <symbol viewBox="0 0 22 22" id="alert">
        <path
            d="M10.9999 20.1663C16.0625 20.1663 20.1666 16.0623 20.1666 10.9997C20.1666 5.93706 16.0625 1.83301 10.9999 1.83301C5.93731 1.83301 1.83325 5.93706 1.83325 10.9997C1.83325 16.0623 5.93731 20.1663 10.9999 20.1663Z"
            stroke-width="2" stroke-linecap="round" stroke-linejoin="round" />
        <path d="M11 7.33301V10.9997" stroke-width="2" stroke-linecap="round" stroke-linejoin="round" />
        <path d="M11 14.667H11.0092" stroke-width="2" stroke-linecap="round" stroke-linejoin="round" />
    </symbol>
    <symbol viewBox="0 0 21 20" id="plus">
        <path d="M10.5 4.16699V15.8337" stroke-linecap="round" stroke-linejoin="round" />
        <path d="M4.66666 10H16.3333" stroke-linecap="round" stroke-linejoin="round" />
    </symbol>
    <symbol viewBox="0 0 21 20" id="minus">
        <path d="M4.66666 10H16.3333" stroke-linecap="round" stroke-linejoin="round" />
    </symbol>
    <symbol viewBox="0 0 22 22" id="personal-data">
        <path
            d="M13.7502 1.83398H8.25016C7.7439 1.83398 7.3335 2.24439 7.3335 2.75065V4.58398C7.3335 5.09025 7.7439 5.50065 8.25016 5.50065H13.7502C14.2564 5.50065 14.6668 5.09025 14.6668 4.58398V2.75065C14.6668 2.24439 14.2564 1.83398 13.7502 1.83398Z"
            stroke-width="2" stroke-linecap="round" stroke-linejoin="round" />
        <path
            d="M7.33317 3.66602H5.49984C5.01361 3.66602 4.54729 3.85917 4.20347 4.20299C3.85966 4.5468 3.6665 5.01312 3.6665 5.49935V18.3327C3.6665 18.8189 3.85966 19.2852 4.20347 19.629C4.54729 19.9729 5.01361 20.166 5.49984 20.166H16.4998C16.9861 20.166 17.4524 19.9729 17.7962 19.629C18.14 19.2852 18.3332 18.8189 18.3332 18.3327V17.8743"
            stroke-width="2" stroke-linecap="round" stroke-linejoin="round" />
        <path
            d="M14.6665 3.66602H16.4998C16.8213 3.66635 17.1371 3.75121 17.4154 3.91211C17.6938 4.073 17.9249 4.30426 18.0857 4.58268"
            stroke-width="2" stroke-linecap="round" stroke-linejoin="round" />
        <path
            d="M16.8848 8.80994C17.0636 8.63118 17.2758 8.48938 17.5094 8.39263C17.7429 8.29589 17.9933 8.24609 18.2461 8.24609C18.4989 8.24609 18.7492 8.29589 18.9828 8.39263C19.2164 8.48938 19.4286 8.63118 19.6073 8.80994C19.7861 8.9887 19.9279 9.20092 20.0246 9.43449C20.1214 9.66805 20.1712 9.91838 20.1712 10.1712C20.1712 10.424 20.1214 10.6743 20.0246 10.9079C19.9279 11.1415 19.7861 11.3537 19.6073 11.5324L15.5373 15.5841L11.9165 16.5008L12.824 12.8799L16.8848 8.80994Z"
            stroke-width="2" stroke-linecap="round" stroke-linejoin="round" />
        <path d="M7.33325 16.5H8.24992" stroke-width="2" stroke-linecap="round" stroke-linejoin="round" />
    </symbol>
    <symbol viewBox="0 0 22 22" id="personal-lock">
        <path
            d="M17.4167 10.084H4.58333C3.57081 10.084 2.75 10.9048 2.75 11.9173V18.334C2.75 19.3465 3.57081 20.1673 4.58333 20.1673H17.4167C18.4292 20.1673 19.25 19.3465 19.25 18.334V11.9173C19.25 10.9048 18.4292 10.084 17.4167 10.084Z"
            stroke-width="2" stroke-linecap="round" stroke-linejoin="round" />
        <path
            d="M6.4165 10.084V6.41732C6.4165 5.20174 6.89939 4.03595 7.75893 3.17641C8.61847 2.31687 9.78426 1.83398 10.9998 1.83398C12.2154 1.83398 13.3812 2.31687 14.2407 3.17641C15.1003 4.03595 15.5832 5.20174 15.5832 6.41732V10.084"
            stroke-width="2" stroke-linecap="round" stroke-linejoin="round" />
    </symbol>
    <symbol viewBox="0 0 16 16" id="edit">
        <path
            d="M2 11.4997V13.9997H4.5L11.8733 6.62638L9.37333 4.12638L2 11.4997ZM13.8067 4.69305C14.0667 4.43305 14.0667 4.01305 13.8067 3.75305L12.2467 2.19305C11.9867 1.93305 11.5667 1.93305 11.3067 2.19305L10.0867 3.41305L12.5867 5.91305L13.8067 4.69305Z" />
    </symbol>
    <symbol id="email" viewBox="0 0 16 16">
        <path class="st0" d="M13.3,14.3H2.7c-1.3,0-2.3-1-2.3-2.3V4.7c0,0,0,0,0,0V4c0-1.3,1-2.3,2.3-2.3h10.7c1.3,0,2.3,1,2.3,2.3v0.6
	c0,0,0,0,0,0V12C15.7,13.3,14.6,14.3,13.3,14.3z M2.3,6.5V12c0,0.2,0.1,0.3,0.3,0.3h10.7c0.2,0,0.3-0.1,0.3-0.3V6.5L9.2,9.3
	c-0.7,0.5-1.7,0.5-2.4,0L2.3,6.5z M2.3,4.1l5.5,3.5c0.1,0.1,0.2,0.1,0.3,0l5.5-3.5V4c0-0.2-0.1-0.3-0.3-0.3H2.7
	C2.5,3.7,2.3,3.8,2.3,4V4.1z" />
    </symbol>
    <symbol id="money" viewBox="0 0 24 24">
        <path
            d="M20 6H4C2.89543 6 2 6.89543 2 8V16C2 17.1046 2.89543 18 4 18H20C21.1046 18 22 17.1046 22 16V8C22 6.89543 21.1046 6 20 6Z"
            stroke-width="2" stroke-linecap="round" stroke-linejoin="round" />
        <path
            d="M12 14C13.1046 14 14 13.1046 14 12C14 10.8954 13.1046 10 12 10C10.8954 10 10 10.8954 10 12C10 13.1046 10.8954 14 12 14Z"
            stroke-width="2" stroke-linecap="round" stroke-linejoin="round" />
        <path d="M6 12H6.01M18 12H18.01" stroke-width="2" stroke-linecap="round" stroke-linejoin="round" />
    </symbol>
    <symbol viewBox="0 0 48 48" id="arrow-up">
        <path d="M24 38V10" stroke-width="3" stroke-linecap="round" stroke-linejoin="round" />
        <path d="M10 24L24 10L38 24" stroke-width="3" stroke-linecap="round" stroke-linejoin="round" />
    </symbol>
    <symbol viewBox="0 0 24 24" id="up-down">
        <path d="M7 15L12 20L17 15" stroke-width="1.5" stroke-linecap="round" stroke-linejoin="round" />
        <path d="M7 9L12 4L17 9" stroke-width="1.5" stroke-linecap="round" stroke-linejoin="round" />
    </symbol>
    <symbol viewBox="0 0 22 22" id="headerCart">
        <path
            d="M7.33366 20.1667C7.83992 20.1667 8.25033 19.7563 8.25033 19.25C8.25033 18.7437 7.83992 18.3333 7.33366 18.3333C6.8274 18.3333 6.41699 18.7437 6.41699 19.25C6.41699 19.7563 6.8274 20.1667 7.33366 20.1667Z"
            stroke-width="2" stroke-linecap="round" stroke-linejoin="round" />
        <path
            d="M17.4167 20.1667C17.9229 20.1667 18.3333 19.7563 18.3333 19.25C18.3333 18.7437 17.9229 18.3333 17.4167 18.3333C16.9104 18.3333 16.5 18.7437 16.5 19.25C16.5 19.7563 16.9104 20.1667 17.4167 20.1667Z"
            stroke-width="2" stroke-linecap="round" stroke-linejoin="round" />
        <path
            d="M1.87891 1.87917H3.71224L6.15057 13.2642C6.24002 13.6811 6.47202 14.0539 6.80664 14.3182C7.14126 14.5826 7.55757 14.722 7.98391 14.7125H16.9489C17.3661 14.7118 17.7707 14.5688 18.0957 14.3072C18.4207 14.0455 18.6467 13.6808 18.7364 13.2733L20.2489 6.4625H4.69307"
            stroke-width="2" stroke-linecap="round" stroke-linejoin="round" />
    </symbol>
    <symbol viewBox="0 0 24 25" id="headerSearch">
        <path
            d="M11 19.5C15.4183 19.5 19 15.9183 19 11.5C19 7.08172 15.4183 3.5 11 3.5C6.58172 3.5 3 7.08172 3 11.5C3 15.9183 6.58172 19.5 11 19.5Z"
            stroke-width="2" stroke-linecap="round" stroke-linejoin="round" />
        <path d="M21 21.5L16.65 17.15" stroke-width="2" stroke-linecap="round" stroke-linejoin="round" />
    </symbol>
</svg>