<svg width="25" height="24" viewBox="0 0 25 24" fill="none" xmlns="http://www.w3.org/2000/svg">
<g clip-path="url(#clip0_32_6502)">
<path d="M20.6063 3.0917C21.713 2.66608 22.8526 3.63204 22.6141 4.79346L19.6559 19.199C19.4376 20.262 18.1977 20.7486 17.3147 20.1179L14.4376 18.0628C13.5562 17.4332 12.3696 17.4429 11.4985 18.0867L10.5874 18.7601C9.76382 19.3689 8.58585 18.9915 8.26929 18.0175L6.9831 14.06C6.75117 13.3464 6.21098 12.7747 5.51163 12.5027L4.46531 12.0958C3.18766 11.5989 3.19102 9.7899 4.47051 9.29779L20.6063 3.0917Z" stroke="#90A0B7"/>
<path d="M9.39034 11.5762L18.7769 5.8125L10.4329 13.6239C10.1282 13.9092 9.92041 14.2825 9.83857 14.6917L9.40192 16.875L8.51686 13.8405C8.26446 12.9752 8.62216 12.0479 9.39034 11.5762Z" stroke="#90A0B7" stroke-linecap="round" stroke-linejoin="round"/>
</g>
<defs>
<clipPath id="clip0_32_6502">
<rect width="24" height="24" fill="white" transform="translate(0.214417)"/>
</clipPath>
</defs>
</svg>
