<svg width="25" height="24" viewBox="0 0 25 24" fill="none" xmlns="http://www.w3.org/2000/svg">
<g clip-path="url(#clip0_32_6501)">
<path d="M5.08942 5.4375H0.776917C4.37692 18.0375 11.1519 19.4375 14.0894 18.5625V14.625C14.4644 14.625 15.4769 14.8125 16.5269 15.5625C17.5769 16.3125 18.8394 17.875 19.3394 18.5625H23.6519C23.5894 18 23.2394 16.6125 22.3394 15.5625C21.4394 14.5125 19.9644 13 19.3394 12.375C19.4644 12.1875 20.0519 11.2875 21.4019 9.1875C22.7519 7.0875 23.0894 5.8125 23.0894 5.4375H18.9644C18.9019 5.4375 18.5144 6 17.4644 8.25C16.4144 10.5 14.7769 11.5625 14.0894 11.8125V5.4375H8.65192C8.71442 5.625 8.95192 6.15 9.40192 6.75C9.85192 7.35 9.83942 8.625 9.77692 9.1875V13.125C9.52692 13.125 8.68942 12.6375 7.33942 10.6875C5.98942 8.7375 5.27692 6.375 5.08942 5.4375Z" stroke="#90A0B7" stroke-linecap="round" stroke-linejoin="round"/>
</g>
<defs>
<clipPath id="clip0_32_6501">
<rect width="24" height="24" fill="white" transform="translate(0.214417)"/>
</clipPath>
</defs>
</svg>
