<svg width="25" height="24" viewBox="0 0 25 24" fill="none" xmlns="http://www.w3.org/2000/svg">
<path d="M3.26967 17.2175L3.33885 17.0053L3.2271 16.8121C2.34464 15.2866 1.83942 13.5156 1.83942 11.625C1.83942 5.89505 6.48446 1.25 12.2144 1.25C17.9444 1.25 22.5894 5.89505 22.5894 11.625C22.5894 17.355 17.9444 22 12.2144 22C10.423 22 8.73898 21.5464 7.26951 20.7481L7.07955 20.6449L6.87424 20.7127L2.49673 22.1563C2.10757 22.2847 1.73773 21.9161 1.86475 21.5265L3.26967 17.2175Z" stroke="#90A0B7"/>
<path d="M10.3827 7.73039L9.35944 6.70711C8.96892 6.31658 8.33575 6.31658 7.94523 6.70711L6.92248 7.72986C6.82671 7.82562 6.74831 7.93839 6.71878 8.07056C6.53178 8.90778 6.68306 11.1392 9.58984 13.875C12.5022 16.6161 14.5276 17.3744 15.523 17.2942C15.6924 17.2806 15.8404 17.1869 15.9606 17.0668L17.1327 15.8946C17.5233 15.5041 17.5233 14.8709 17.1327 14.4804L16.1094 13.4571C15.7189 13.0666 15.0858 13.0666 14.6952 13.4571L14.6309 13.5214C14.4083 13.744 14.0925 13.8514 13.7936 13.7526C13.2216 13.5636 12.35 13.1495 11.4648 12.375C10.5188 11.5472 10.1321 10.5874 10.0108 9.97322C9.95946 9.71303 10.0702 9.45714 10.2577 9.26961L10.3827 9.14461C10.7733 8.75408 10.7733 8.12092 10.3827 7.73039Z" stroke="#90A0B7" stroke-linecap="round" stroke-linejoin="round"/>
</svg>
