<svg width="60" height="66" viewBox="0 0 60 66" fill="none" xmlns="http://www.w3.org/2000/svg">
<g filter="url(#filter0_d_128_5971)">
<path fill-rule="evenodd" clip-rule="evenodd" d="M32.5829 47.4725C41.4199 45.4007 48 37.4688 48 28C48 16.9543 39.0457 8 28 8C16.9543 8 8 16.9543 8 28C8 37.6616 14.8508 45.7231 23.9597 47.5917L27.3708 53.5C27.7557 54.1667 28.718 54.1667 29.1029 53.5L32.5829 47.4725Z" fill="#F4A519"/>
<path d="M30.1589 21.1982C30.4834 20.067 30.6999 19.307 30.9905 18.3815C29.3332 18.041 28.9883 18 27.5583 18C25.5972 18 23.9207 18.3265 22.5287 18.9796C21.1367 19.6327 19.978 20.5194 19.0526 21.6397C18.1299 22.7589 17.5135 23.9721 17.2033 25.2795C17.1458 25.5196 17.1008 25.7626 17.0685 26.0075C16.9926 26.5267 16.9797 27.0533 17.03 27.5757C17.0993 28.3152 17.2954 28.9554 17.6184 29.4963C17.9416 30.0383 18.4029 30.4641 19.0066 30.7817C19.6103 31.0993 20.1811 31.2272 21.0001 31.3708C21.8192 31.5145 22.7722 31.5257 23.6606 31.5257C24.1298 31.5257 24.7192 31.4743 25.3104 31.4353C25.1154 32.1367 24.2005 35.3169 23.7782 36.7956L25.6207 36.7774L28.1915 36.7474L31.0537 36.712C31.9577 36.7014 32.5912 36.6932 32.945 36.6391C33.3969 36.5644 33.8383 36.4357 34.2599 36.2559C34.7023 36.0668 35.0801 35.8424 35.3904 35.5792C35.7652 35.2635 36.086 34.888 36.3401 34.4677C36.6028 34.0423 36.795 33.5767 36.9093 33.0891C36.9908 32.7591 37.0232 32.4188 37.0054 32.0792C36.9911 31.7789 36.9152 31.4849 36.7825 31.2157C36.6653 30.9721 36.4974 30.7568 36.2902 30.5845C36.1151 30.4345 35.9177 30.313 35.7052 30.2245C35.513 30.1508 35.2514 30.0843 34.9168 30.0282C35.2213 29.952 35.5205 29.8562 35.8128 29.7414C36.0692 29.63 36.3141 29.4934 36.544 29.3338C36.8132 29.1466 37.0597 28.9282 37.2784 28.6832C37.5198 28.4121 37.7265 28.1115 37.8938 27.7886C37.9478 27.6879 37.9938 27.5872 38.04 27.4828C38.142 27.2412 38.223 26.9911 38.2821 26.7355C38.3936 26.267 38.417 25.8254 38.3515 25.415C38.2939 25.0549 38.167 24.7452 37.9707 24.4858C37.794 24.2689 37.5528 24.083 37.2441 23.9359C36.9354 23.7889 36.5596 23.6835 36.1175 23.6274C35.7832 23.5847 26.2946 23.7334 25.7141 23.7435C25.5948 24.1609 25.5087 24.4909 25.4355 24.7346C25.3622 24.9784 25.3126 25.1605 25.2778 25.2884L24.9329 26.4602L26.7393 26.4389C26.647 26.7913 26.0776 28.7394 26.0776 28.7394H24.0359C23.3361 28.7394 22.8438 28.7082 22.3365 28.4372C21.8292 28.1662 21.513 27.7692 21.3712 27.2505C21.283 26.9174 21.2561 26.5534 21.2904 26.1584C21.3092 25.9301 21.3452 25.7036 21.3982 25.4809C21.555 24.8236 21.8185 24.1969 22.1783 23.6262C22.5467 23.0411 23.0189 22.5292 23.5712 22.1161C24.1339 21.6922 24.7685 21.3747 25.4438 21.1791C26.1296 20.978 26.8404 20.8763 27.5547 20.8769C27.8277 20.8769 28.1353 20.8925 28.4776 20.9235C28.8199 20.9546 29.1775 21.0049 29.5505 21.0744L30.1589 21.1982ZM32.9681 32.6442C32.9136 32.8822 32.8159 33.108 32.6798 33.3102C32.5553 33.4983 32.3942 33.659 32.2062 33.7826C32.0293 33.8988 31.7869 33.9916 31.4819 34.0654C31.2359 34.1235 30.8629 34.1496 30.3631 34.1496H28.481L29.2721 31.3826L31.3635 31.3694C31.8056 31.3694 32.0953 31.3927 32.2914 31.4429C32.4876 31.4931 32.645 31.5669 32.765 31.6791C32.8811 31.7861 32.9602 31.9277 32.9907 32.0831C33.0258 32.2453 33.0186 32.4313 32.9681 32.6442ZM33.4949 28.3113C33.3343 28.4411 33.1502 28.5385 32.9528 28.598C32.7578 28.656 32.5608 28.6541 32.3647 28.6785C32.1686 28.7029 31.8563 28.69 31.3989 28.69L30.0377 28.7057C30.0954 28.5045 30.5743 26.8019 30.6971 26.3915L32.2909 26.3727C32.8141 26.3727 33.8 26.2498 34.0677 26.7161C34.1752 26.9032 34.1513 27.1467 34.0956 27.3869C34.0571 27.5535 33.9841 27.6879 33.8866 27.8545C33.8487 27.9228 33.8049 27.9876 33.7557 28.0481C33.6797 28.1462 33.5922 28.2346 33.4949 28.3113Z" fill="white"/>
</g>
<defs>
<filter id="filter0_d_128_5971" x="0" y="0" width="60" height="66" filterUnits="userSpaceOnUse" color-interpolation-filters="sRGB">
<feFlood flood-opacity="0" result="BackgroundImageFix"/>
<feColorMatrix in="SourceAlpha" type="matrix" values="0 0 0 0 0 0 0 0 0 0 0 0 0 0 0 0 0 0 127 0" result="hardAlpha"/>
<feOffset dx="2" dy="2"/>
<feGaussianBlur stdDeviation="5"/>
<feComposite in2="hardAlpha" operator="out"/>
<feColorMatrix type="matrix" values="0 0 0 0 0.105882 0 0 0 0 0.211765 0 0 0 0 0.360784 0 0 0 0.4 0"/>
<feBlend mode="normal" in2="BackgroundImageFix" result="effect1_dropShadow_128_5971"/>
<feBlend mode="normal" in="SourceGraphic" in2="effect1_dropShadow_128_5971" result="shape"/>
</filter>
</defs>
</svg>
