<svg width="48" height="42" viewBox="0 0 48 42" fill="none" xmlns="http://www.w3.org/2000/svg">
<path d="M28.0047 10.3683C28.555 8.42851 28.922 7.12522 29.4146 5.53808C26.6048 4.95403 26.02 4.88379 23.5956 4.88379C20.2708 4.88379 17.4283 5.44379 15.0683 6.56378C12.7082 7.68378 10.7437 9.20436 9.1746 11.1255C7.61026 13.0448 6.56517 15.1254 6.03931 17.3673C5.94185 17.7791 5.86554 18.1958 5.81071 18.6158C5.68215 19.5062 5.66026 20.4093 5.74553 21.3051C5.86298 22.5733 6.1955 23.6711 6.74308 24.5987C7.29097 25.5282 8.07314 26.2585 9.09667 26.8031C10.1202 27.3477 11.088 27.567 12.4766 27.8134C13.8653 28.0597 15.4811 28.0789 16.9873 28.0789C17.7827 28.0789 18.7821 27.9909 19.7844 27.924C19.4538 29.1268 17.9027 34.5805 17.1866 37.1164L20.3106 37.0851L24.6692 37.0336L29.5218 36.973C31.0545 36.9547 32.1286 36.9408 32.7285 36.8479C33.4946 36.7198 34.243 36.4992 34.9578 36.1907C35.7079 35.8665 36.3483 35.4816 36.8745 35.0303C37.5099 34.4888 38.0538 33.8449 38.4847 33.1242C38.9301 32.3947 39.256 31.5962 39.4496 30.7601C39.5879 30.1942 39.6428 29.6105 39.6126 29.0281C39.5884 28.5132 39.4598 28.009 39.2347 27.5473C39.036 27.1297 38.7514 26.7605 38.4001 26.4649C38.1032 26.2076 37.7685 25.9993 37.4082 25.8476C37.0823 25.7211 36.6388 25.6071 36.0716 25.5108C36.5877 25.3802 37.0951 25.216 37.5906 25.0192C38.0253 24.828 38.4406 24.5939 38.8304 24.3201C39.2868 23.999 39.7046 23.6246 40.0755 23.2045C40.4847 22.7394 40.8353 22.224 41.1188 21.6702C41.2105 21.4975 41.2884 21.3248 41.3668 21.1458C41.5396 20.7315 41.677 20.3027 41.7772 19.8642C41.9662 19.0608 42.0058 18.3035 41.8948 17.5997C41.7972 16.9823 41.582 16.4511 41.2492 16.0063C40.9497 15.6344 40.5407 15.3154 40.0174 15.0633C39.494 14.8112 38.8569 14.6303 38.1073 14.5341C37.5405 14.461 21.4531 14.716 20.4688 14.7333C20.2667 15.4492 20.1207 16.0149 19.9965 16.433C19.8723 16.8511 19.7882 17.1633 19.7292 17.3827L19.1444 19.3922L22.207 19.3557C22.0506 19.9599 21.0852 23.3007 21.0852 23.3007H17.6235C16.4371 23.3007 15.6025 23.2473 14.7424 22.7825C13.8823 22.3178 13.3462 21.637 13.1058 20.7475C12.9562 20.1763 12.9105 19.552 12.9688 18.8746C13.0006 18.4831 13.0617 18.0947 13.1516 17.7127C13.4173 16.5856 13.8642 15.5109 14.4741 14.5322C15.0987 13.5287 15.8992 12.6509 16.8357 11.9425C17.7898 11.2155 18.8656 10.6711 20.0107 10.3356C21.1734 9.99073 22.3784 9.81627 23.5895 9.81744C24.0523 9.81744 24.5739 9.84406 25.1543 9.89731C25.7346 9.95055 26.3409 10.0368 26.9732 10.1561L28.0047 10.3683ZM32.7677 29.9971C32.6752 30.4052 32.5095 30.7924 32.2788 31.1392C32.0677 31.4618 31.7945 31.7374 31.4759 31.9494C31.1759 32.1485 30.765 32.3078 30.2478 32.4343C29.8308 32.5339 29.1983 32.5786 28.351 32.5786H25.1599L26.5013 27.8336L30.0471 27.811C30.7967 27.811 31.2879 27.8509 31.6204 27.937C31.9529 28.0231 32.2198 28.1497 32.4233 28.3421C32.6201 28.5256 32.7542 28.7683 32.8059 29.0349C32.8654 29.313 32.8532 29.6319 32.7677 29.9971ZM33.6608 22.5665C33.3884 22.7893 33.0763 22.9562 32.7417 23.0582C32.4111 23.1578 32.0771 23.1544 31.7446 23.1963C31.4121 23.2381 30.8826 23.216 30.1071 23.216L27.7993 23.2429C27.8971 22.898 28.709 19.9782 28.9173 19.2744L31.6194 19.2421C32.5065 19.2421 34.178 19.0314 34.6319 19.831C34.8142 20.1519 34.7736 20.5695 34.6792 20.9813C34.614 21.2671 34.4902 21.4975 34.3249 21.7833C34.2606 21.9004 34.1864 22.0115 34.1029 22.1153C33.9742 22.2835 33.8257 22.435 33.6608 22.5665Z" fill="#F4A519"/>
</svg>
