<svg width="57" height="50" viewBox="0 0 57 50" fill="none" xmlns="http://www.w3.org/2000/svg">
<path d="M34.0886 12.3431C34.7437 10.0339 35.1806 8.48234 35.7671 6.59288C32.422 5.89758 31.7259 5.81396 28.8396 5.81396C24.8815 5.81396 21.4976 6.48063 18.688 7.81396C15.8785 9.14728 13.5397 10.9575 11.6718 13.2446C9.80947 15.5295 8.56531 18.0063 7.93929 20.6753C7.82326 21.1656 7.73242 21.6616 7.66714 22.1615C7.5141 23.2216 7.48804 24.2967 7.58955 25.3631C7.72937 26.8729 8.12522 28.1798 8.7771 29.2841C9.42936 30.3906 10.3605 31.26 11.579 31.9083C12.7975 32.5567 13.9496 32.8178 15.6027 33.1111C17.2559 33.4043 19.1795 33.4272 20.9726 33.4272C21.9195 33.4272 23.1093 33.3224 24.3025 33.2428C23.9089 34.6747 22.0623 41.1672 21.2099 44.1861L24.9289 44.1488L30.1177 44.0876L35.8947 44.0154C37.7193 43.9936 38.998 43.977 39.7121 43.8665C40.6241 43.714 41.5151 43.4514 42.3661 43.0841C43.259 42.6981 44.0215 42.2399 44.6479 41.7027C45.4043 41.0581 46.0518 40.2915 46.5647 39.4335C47.0949 38.565 47.4829 37.6145 47.7135 36.6191C47.8781 35.9454 47.9434 35.2505 47.9075 34.5572C47.8787 33.9443 47.7255 33.344 47.4576 32.7944C47.2211 32.2971 46.8822 31.8576 46.4641 31.5057C46.1106 31.1994 45.7121 30.9515 45.2833 30.7709C44.8953 30.6203 44.3673 30.4845 43.692 30.37C44.3064 30.2145 44.9104 30.019 45.5003 29.7846C46.0178 29.5571 46.5122 29.2784 46.9763 28.9525C47.5196 28.5702 48.017 28.1244 48.4585 27.6243C48.9457 27.0707 49.363 26.4571 49.7006 25.7978C49.8097 25.5922 49.9025 25.3866 49.9958 25.1736C50.2016 24.6803 50.3651 24.1698 50.4844 23.6478C50.7094 22.6913 50.7566 21.7898 50.6245 20.9519C50.5082 20.2169 50.252 19.5846 49.8558 19.055C49.4993 18.6123 49.0124 18.2326 48.3894 17.9325C47.7663 17.6324 47.0078 17.417 46.1154 17.3025C45.4407 17.2154 26.2891 17.519 25.1173 17.5396C24.8766 18.3918 24.7029 19.0653 24.555 19.563C24.4071 20.0607 24.307 20.4325 24.2367 20.6936L23.5406 23.0859L27.1865 23.0424C27.0004 23.7618 25.8511 27.7388 25.8511 27.7388H21.73C20.3176 27.7388 19.324 27.6753 18.3001 27.122C17.2761 26.5687 16.6379 25.7583 16.3517 24.6993C16.1737 24.0193 16.1193 23.2761 16.1887 22.4697C16.2265 22.0037 16.2993 21.5413 16.4063 21.0865C16.7226 19.7446 17.2546 18.4653 17.9807 17.3002C18.7243 16.1056 19.6773 15.0605 20.7921 14.2171C21.928 13.3517 23.2087 12.7036 24.5718 12.3042C25.9561 11.8937 27.3906 11.686 28.8323 11.6874C29.3834 11.6874 30.0043 11.7191 30.6952 11.7824C31.3861 11.8458 32.1079 11.9485 32.8606 12.0906L34.0886 12.3431ZM39.7588 35.7107C39.6487 36.1966 39.4514 36.6576 39.1768 37.0704C38.9255 37.4544 38.6003 37.7826 38.2209 38.0349C37.8638 38.272 37.3746 38.4616 36.7589 38.6122C36.2624 38.7308 35.5095 38.784 34.5008 38.784H30.7019L32.2988 33.1351L36.52 33.1082C37.4123 33.1082 37.9971 33.1558 38.393 33.2583C38.7888 33.3608 39.1065 33.5114 39.3488 33.7405C39.5831 33.959 39.7427 34.2479 39.8043 34.5653C39.8751 34.8963 39.8605 35.276 39.7588 35.7107ZM40.822 26.8648C40.4978 27.13 40.1262 27.3288 39.7278 27.4502C39.3342 27.5687 38.9367 27.5647 38.5408 27.6146C38.145 27.6644 37.5147 27.638 36.5914 27.638L33.844 27.6701C33.9604 27.2595 34.927 23.7835 35.175 22.9456L38.3918 22.9072C39.4478 22.9072 41.4378 22.6564 41.9781 23.6083C42.1952 23.9903 42.1468 24.4874 42.0343 24.9777C41.9567 25.3179 41.8094 25.5922 41.6126 25.9324C41.5361 26.0718 41.4477 26.2041 41.3484 26.3276C41.1951 26.5279 41.0183 26.7083 40.822 26.8648Z" fill="white"/>
</svg>
