<svg width="100" height="27" viewBox="0 0 100 27" fill="none" xmlns="http://www.w3.org/2000/svg">
<path d="M18.8245 4.59537C19.2935 2.96873 19.6061 1.87799 20.0157 0.548536C17.6443 0.0584895 17.1503 0 15.1039 0C12.2995 0 9.90244 0.468969 7.91293 1.40691C5.99135 2.28677 4.29059 3.59326 2.93706 5.22927C1.66533 6.74034 0.759182 8.5302 0.29045 10.457C0.208074 10.8021 0.143889 11.1514 0.0981686 11.5035C-0.0107375 12.2482 -0.0291121 13.0037 0.0434544 13.7529C0.113887 14.7249 0.401448 15.6681 0.884491 16.5114C1.36191 17.3034 2.04985 17.9437 2.86984 18.3594C3.72807 18.8099 4.55035 18.9917 5.7228 19.2051C6.89524 19.4185 8.25841 19.4264 9.52778 19.4264C10.2 19.4264 11.0426 19.3537 11.8883 19.2968C11.6085 20.3037 10.3016 24.8738 9.69974 26.9968L12.3354 26.9715L16.0138 26.9289L20.108 26.8799C21.4023 26.864 22.3075 26.853 22.814 26.7755C23.4586 26.6669 24.0882 26.4817 24.6899 26.2238C25.9299 25.717 26.9727 24.8152 27.6601 23.655C28.0362 23.0439 28.3112 22.3749 28.4746 21.6743C28.5919 21.2003 28.6383 20.7111 28.6121 20.2231C28.5937 19.7921 28.4873 19.3696 28.2995 18.9822C28.132 18.6322 27.8921 18.3228 27.596 18.0748C27.3457 17.8593 27.0635 17.6849 26.7596 17.5579C26.3949 17.4295 26.0192 17.3359 25.6372 17.2781C26.0729 17.1688 26.5011 17.031 26.9191 16.8655C28.1998 16.3066 29.2495 15.3162 29.8893 14.0628C29.9659 13.9173 30.0316 13.7735 30.0988 13.6233C30.2443 13.2762 30.3599 12.9171 30.4443 12.5499C30.6007 11.9304 30.6347 11.2858 30.5443 10.653C30.4756 10.1687 30.288 9.70944 29.9987 9.31721C29.7142 8.97932 29.3592 8.70938 28.9592 8.52681C28.4508 8.29644 27.9103 8.14662 27.3568 8.08261C26.8785 8.02096 13.3046 8.24069 12.4745 8.25017C12.3026 8.8493 12.1806 9.32353 12.0759 9.67289C11.9712 10.0222 11.8993 10.2847 11.8508 10.4633L11.349 12.1516L13.9331 12.1215C13.8017 12.6274 12.9951 15.4254 12.9951 15.4254H10.0655C9.06506 15.4254 8.36002 15.3811 7.63467 14.9907C7.29863 14.8219 7.00176 14.583 6.76357 14.2899C6.52538 13.9967 6.35129 13.6559 6.25274 13.2898C6.12385 12.7773 6.08522 12.246 6.13862 11.72C6.16613 11.3919 6.21839 11.0663 6.29495 10.7463C6.51973 9.80238 6.89684 8.90243 7.41112 8.08261C7.93687 7.24252 8.6109 6.50734 9.39959 5.91376C10.2048 5.30457 11.1127 4.84823 12.079 4.56692C13.0604 4.2784 14.0773 4.13256 15.0993 4.13378C15.4901 4.13378 15.9299 4.15591 16.4187 4.20018C16.908 4.24444 17.4207 4.31715 17.9538 4.41674L18.8245 4.59537ZM22.8437 21.0372C22.7666 21.3799 22.6266 21.7048 22.431 21.9952C22.2535 22.265 22.0237 22.4957 21.7556 22.6734C21.4351 22.8655 21.0855 23.0027 20.7208 23.0796C20.1928 23.1762 19.6563 23.217 19.12 23.2013H16.4249L17.5567 19.2256L20.5488 19.2083C20.9937 19.1919 21.439 19.2269 21.876 19.3126C22.1271 19.3643 22.3604 19.4815 22.5529 19.6525C22.7193 19.8053 22.8327 20.0081 22.8765 20.231C22.9254 20.4989 22.9142 20.7744 22.8437 21.0372ZM23.605 14.8136C23.3732 15.0004 23.1077 15.14 22.8233 15.2246C22.5469 15.288 22.2655 15.3266 21.9823 15.34C21.6962 15.3685 21.2554 15.3574 20.6004 15.3574L18.6541 15.3796C18.7354 15.0903 19.4201 12.6448 19.5921 12.0599L21.8729 12.033C22.6201 12.033 24.0318 11.856 24.4148 12.5262C24.5711 12.795 24.532 13.1443 24.4554 13.4905C24.3897 13.7281 24.2885 13.9541 24.1553 14.1608C24.1016 14.259 24.0394 14.3521 23.9692 14.439C23.863 14.5781 23.7407 14.7038 23.605 14.8136Z" fill="white"/>
<path d="M42.3219 12.6464C43.0066 12.6559 43.659 12.6606 44.2791 12.6606C45.3422 12.6606 46.1759 12.6559 46.7804 12.6464C46.5938 13.3398 46.3567 14.322 46.0691 15.593C45.7814 16.8639 45.573 17.8235 45.4438 18.4716C44.8497 18.5791 44.3589 18.655 43.9727 18.704C43.5866 18.753 43.1239 18.7957 42.5861 18.8336C42.0484 18.8715 41.5731 18.8905 41.1573 18.8905C40.4951 18.8916 39.8341 18.8356 39.1813 18.723C38.5991 18.629 38.0345 18.4457 37.5071 18.1792C37.0517 17.9492 36.6653 17.6005 36.3878 17.169C36.1029 16.7075 35.9195 16.1894 35.85 15.6499C35.7641 15.0497 35.7757 14.4394 35.8844 13.843C36.0684 12.8007 36.4973 11.8184 37.135 10.9786C37.8076 10.0869 38.6805 9.36994 39.6816 8.88724C40.7238 8.3719 41.9942 8.11476 43.4928 8.11581C44.6945 8.1274 45.8918 8.26246 47.0664 8.51891C46.9362 9.25662 46.8252 10.0792 46.7335 10.9865C46.3942 10.8648 46.1175 10.7731 45.9065 10.7099C45.659 10.6384 45.408 10.5798 45.1546 10.5344C44.8669 10.4823 44.5902 10.4427 44.3276 10.4174C44.065 10.3922 43.8274 10.3795 43.6163 10.3795C43.0729 10.3782 42.5324 10.4587 42.0124 10.6182C41.5053 10.7714 41.032 11.0215 40.618 11.3549C40.2115 11.6815 39.8722 12.0853 39.6191 12.5436C39.3659 12.9968 39.1909 13.4902 39.1016 14.0027C39.0074 14.4646 39.0267 14.9428 39.1579 15.3954C39.2212 15.5965 39.3241 15.7827 39.4603 15.9427C39.5964 16.1027 39.7632 16.2332 39.9505 16.3265C40.3864 16.5477 40.8698 16.6563 41.3574 16.6426C41.8624 16.6347 42.3649 16.5684 42.855 16.445L43.2286 14.7963C42.905 14.782 42.7128 14.7741 42.6533 14.7741H41.853L42.0687 13.8399C42.0921 13.7387 42.125 13.5933 42.1672 13.402C42.2094 13.2107 42.2641 12.9625 42.3219 12.6464Z" fill="white"/>
<path d="M54.9857 16.3913C54.8669 16.6948 54.6136 17.4288 54.2259 18.5933C53.6235 18.7103 53.1217 18.7878 52.7205 18.8257C52.3187 18.8636 51.9139 18.8826 51.509 18.8826C50.965 18.8865 50.4217 18.8442 49.8847 18.7561C49.4534 18.6935 49.0391 18.5429 48.667 18.3135C48.3529 18.1131 48.0882 17.8427 47.8931 17.5231C47.6934 17.1782 47.5696 16.7937 47.5305 16.396C47.4777 15.9485 47.4919 15.4955 47.5727 15.0523C47.6948 14.3814 47.9369 13.7385 48.2871 13.1554C48.6003 12.5905 49.0223 12.0949 49.5283 11.6979C49.9836 11.3527 50.5006 11.0999 51.0509 10.9533C51.5905 10.8081 52.1465 10.7343 52.7049 10.7336C53.2438 10.7293 53.781 10.7968 54.3025 10.9344C54.7591 11.0462 55.1736 11.2901 55.4953 11.6362C55.7886 11.951 55.9876 12.3435 56.069 12.7681C56.1479 13.218 56.1447 13.6788 56.0596 14.1276C55.9991 14.4562 55.9102 14.7789 55.7939 15.0919H50.5272C50.5085 15.1725 50.4928 15.2499 50.4819 15.31C50.386 15.8549 50.509 16.2558 50.8508 16.513C51.2452 16.7867 51.7175 16.9222 52.1952 16.8987C52.5814 16.893 52.9663 16.8539 53.3458 16.7817C53.7856 16.708 54.3322 16.5778 54.9857 16.3913ZM50.793 13.9379H53.2723C53.2926 13.8509 53.3083 13.7798 53.3177 13.7166C53.3656 13.4933 53.3586 13.2615 53.2973 13.0416C53.2466 12.8662 53.1291 12.7183 52.9706 12.6306C52.7976 12.541 52.6053 12.4964 52.411 12.5009C52.2586 12.5018 52.1073 12.5263 51.9623 12.5736C51.8134 12.6219 51.673 12.694 51.5465 12.7871C51.4198 12.8759 51.3061 12.9823 51.2088 13.1032C51.1204 13.2117 51.0444 13.33 50.9821 13.4557C50.9094 13.6124 50.8462 13.7734 50.793 13.9379Z" fill="white"/>
<path d="M62.2314 16.4513C62.0678 16.8729 61.9177 17.2881 61.7812 17.697L61.4545 18.6234C60.9334 18.7351 60.5342 18.8062 60.257 18.8368C59.986 18.8663 59.7136 18.8816 59.441 18.8826C59.0666 18.8873 58.6928 18.8502 58.3264 18.772C58.0405 18.7157 57.7773 18.5755 57.5698 18.3689C57.3901 18.187 57.2734 17.9514 57.2368 17.697C57.2011 17.4294 57.2079 17.1578 57.2571 16.8924C57.2649 16.8418 57.2837 16.7517 57.3103 16.6221C57.3368 16.4924 57.4056 16.2063 57.5135 15.7605L58.1388 13.1317H56.9695C57.0555 12.7823 57.1571 12.3223 57.2821 11.7501L57.4275 11.0434H58.6781C58.749 10.8116 58.8751 10.3026 59.0564 9.5164L60.3883 9.25082C60.6322 9.20445 61.1533 9.088 61.9516 8.90147C61.7994 9.56329 61.6494 10.2773 61.5014 11.0434H63.221C62.9969 12.0973 62.8557 12.7934 62.7973 13.1317H61.0512L60.6291 15.0286C60.5697 15.3132 60.5337 15.5029 60.5197 15.5756C60.4791 15.7758 60.4696 15.9811 60.4915 16.1842C60.4984 16.2555 60.5217 16.3242 60.5594 16.3848C60.5971 16.4454 60.6483 16.4964 60.7088 16.5335C60.8375 16.6066 60.9833 16.6432 61.1309 16.6395C61.258 16.6395 61.3849 16.6305 61.5108 16.6126C61.7537 16.5721 61.9943 16.5182 62.2314 16.4513Z" fill="white"/>
<path d="M62.9231 18.685C63.2232 17.57 63.4463 16.6937 63.5922 16.0561C63.7933 15.1856 64.0502 13.9905 64.3629 12.4709C64.6755 10.9512 64.8839 9.88046 64.9882 9.25868C65.0278 9.03526 65.0799 8.7191 65.1445 8.3102C65.8073 8.32496 66.3341 8.33233 66.725 8.33233C67.2711 8.33233 67.9089 8.32127 68.6384 8.29914C69.3679 8.27701 69.9932 8.26541 70.5143 8.26436C70.9574 8.25559 71.4006 8.27353 71.8415 8.31811C72.145 8.35211 72.4414 8.43371 72.7201 8.55997C72.9573 8.65981 73.1655 8.81896 73.3251 9.02247C73.4848 9.22598 73.5908 9.46718 73.633 9.72343C73.6997 10.0669 73.6997 10.4202 73.633 10.7636C73.5829 11.0493 73.4978 11.3275 73.3798 11.5919C73.2672 11.8441 73.1222 12.0802 72.9483 12.2938C72.7927 12.4877 72.6124 12.6599 72.4121 12.806C72.2436 12.9299 72.0629 13.0359 71.8728 13.1221C71.6534 13.2145 71.4277 13.2906 71.1975 13.3498C71.4056 13.3831 71.6102 13.4361 71.8087 13.5079C71.9785 13.5766 72.1367 13.6715 72.2777 13.7892C72.4489 13.9264 72.5899 14.0982 72.6919 14.2935C72.8048 14.5042 72.876 14.7351 72.9014 14.9733C72.9289 15.2368 72.9188 15.503 72.8717 15.7637C72.8055 16.1442 72.6777 16.5111 72.4934 16.8497C72.3183 17.1772 72.0894 17.4723 71.8165 17.7223C71.568 17.9444 71.2856 18.1243 70.9802 18.255C70.6631 18.3976 70.3296 18.4995 69.9875 18.5585C69.5094 18.6132 69.0288 18.6433 68.5477 18.6486C67.8568 18.6686 67.1272 18.6792 66.3591 18.6802H64.3847L62.9231 18.685ZM66.4608 16.5983H67.9052C68.1913 16.6069 68.4775 16.5841 68.7588 16.5303C68.9513 16.4904 69.1351 16.4154 69.3012 16.309C69.4391 16.211 69.5547 16.0843 69.6404 15.9375C69.7373 15.7767 69.8026 15.5985 69.8327 15.4127C69.8652 15.2681 69.8652 15.1179 69.8327 14.9733C69.8013 14.8508 69.7344 14.7407 69.6404 14.6571C69.5336 14.5648 69.4057 14.5007 69.2684 14.4706C69.0236 14.4248 68.7747 14.4057 68.5258 14.4137H66.9344L66.4608 16.5983ZM67.3768 12.357H68.4445C68.696 12.3617 68.9475 12.3527 69.198 12.3302C69.3501 12.3124 69.5003 12.2807 69.6467 12.2353C69.7943 12.1904 69.9311 12.115 70.0485 12.014C70.1641 11.9147 70.2592 11.7933 70.3283 11.6567C70.3915 11.5323 70.4363 11.3992 70.4612 11.2615C70.4953 11.0938 70.48 10.9196 70.4174 10.7604C70.3821 10.683 70.3312 10.6139 70.2679 10.5576C70.2046 10.5012 70.1304 10.4589 70.05 10.4332C69.7663 10.3479 69.4703 10.3115 69.1746 10.3257H67.8224L67.3768 12.357Z" fill="white"/>
<path d="M81.5535 16.3913C81.4368 16.6948 81.1835 17.4288 80.7937 18.5933C80.1934 18.7103 79.6916 18.7878 79.2883 18.8257C78.885 18.8637 78.4811 18.8826 78.0768 18.8826C77.5333 18.8865 76.9905 18.8442 76.4541 18.7562C76.0227 18.6938 75.6083 18.5432 75.2363 18.3135C74.9195 18.1139 74.6521 17.8435 74.4547 17.5231C74.2567 17.1768 74.1351 16.7912 74.0983 16.3929C74.047 15.9453 74.0612 15.4926 74.1405 15.0492C74.2633 14.3784 74.5053 13.7357 74.8549 13.1522C75.1689 12.5888 75.5909 12.0944 76.0961 11.6979C76.552 11.3527 77.0695 11.0998 77.6203 10.9534C78.1594 10.8082 78.7148 10.7343 79.2727 10.7336C79.8121 10.7294 80.3498 10.7969 80.8719 10.9344C81.3304 11.0459 81.747 11.2897 82.0709 11.6363C82.3633 11.9515 82.5616 12.3439 82.6431 12.7681C82.7251 13.2175 82.7251 13.6782 82.6431 14.1276C82.5818 14.4561 82.4929 14.7787 82.3773 15.0919H77.1107C77.0904 15.1725 77.0763 15.25 77.0638 15.31C76.97 15.8554 77.0919 16.2585 77.4327 16.513C77.8276 16.787 78.3004 16.9225 78.7787 16.8987C79.1648 16.8929 79.5497 16.8538 79.9292 16.7818C80.3586 16.708 80.9 16.5778 81.5535 16.3913ZM77.3624 13.9379H79.8401C79.8605 13.851 79.8761 13.7798 79.887 13.7166C79.9345 13.4932 79.927 13.2614 79.8652 13.0416C79.8404 12.9546 79.7987 12.8735 79.7426 12.8029C79.6865 12.7323 79.6171 12.6738 79.5384 12.6306C79.3654 12.541 79.1731 12.4965 78.9788 12.501C78.8269 12.5018 78.6761 12.5263 78.5317 12.5737C78.3824 12.6223 78.2415 12.6943 78.1143 12.7871C77.9882 12.8767 77.8747 12.983 77.7766 13.1032C77.6888 13.2122 77.6128 13.3304 77.55 13.4558C77.4785 13.6128 77.4159 13.7738 77.3624 13.9379Z" fill="white"/>
<path d="M90.6582 16.3913C90.5394 16.6948 90.2862 17.4288 89.8985 18.5933C89.2971 18.7103 88.7953 18.7878 88.393 18.8257C87.9913 18.8636 87.5864 18.8826 87.1815 18.8826C86.6381 18.8865 86.0953 18.8442 85.5588 18.7561C85.127 18.6935 84.7122 18.5429 84.3395 18.3135C84.0229 18.1136 83.7556 17.8433 83.5579 17.5231C83.3581 17.1782 83.2344 16.7938 83.1952 16.396C83.1432 15.9485 83.1574 15.4956 83.2374 15.0523C83.3595 14.3814 83.6016 13.7385 83.9518 13.1554C84.2669 12.5904 84.6905 12.0949 85.1977 11.6979C85.6532 11.353 86.1702 11.1002 86.7203 10.9533C87.2599 10.8081 87.8159 10.7343 88.3743 10.7336C88.9137 10.7294 89.4514 10.7969 89.9735 10.9344C90.4308 11.0465 90.8458 11.2909 91.1678 11.6378C91.4612 11.9526 91.6601 12.3451 91.7415 12.7697C91.8228 13.2191 91.8228 13.6797 91.7415 14.1292C91.6795 14.4575 91.5907 14.78 91.4758 15.0934H86.2076C86.1888 15.1741 86.1732 15.2515 86.1623 15.3116C86.0664 15.8564 86.1894 16.2574 86.5312 16.5146C86.9256 16.7883 87.3978 16.9237 87.8756 16.9003C88.2617 16.8946 88.6466 16.8555 89.0262 16.7833C89.4607 16.7085 90.0048 16.5778 90.6582 16.3913ZM86.4655 13.9379H88.9496C88.9699 13.8509 88.9855 13.7798 88.9949 13.7166C89.0428 13.4933 89.0358 13.2615 88.9746 13.0416C88.9485 12.9536 88.9052 12.8719 88.8471 12.8013C88.7891 12.7307 88.7176 12.6726 88.6369 12.6306C88.4639 12.541 88.2716 12.4964 88.0773 12.5009C87.9249 12.5018 87.7736 12.5263 87.6286 12.5737C87.4796 12.622 87.3393 12.694 87.2128 12.7871C87.0861 12.8759 86.9724 12.9823 86.8751 13.1032C86.7867 13.2118 86.7107 13.33 86.6484 13.4557C86.5778 13.6125 86.5167 13.7735 86.4655 13.9379Z" fill="white"/>
<path d="M91.9197 18.685L92.7404 15.3116L93.1531 13.3751C93.2188 13.0263 93.2834 12.669 93.3469 12.3033C93.4105 11.9377 93.4855 11.4797 93.572 10.9296C94.1755 10.9391 94.6554 10.9439 95.0118 10.9439C95.4287 10.9439 95.9076 10.9391 96.4485 10.9296L96.2687 11.788C96.4485 11.6114 96.6379 11.4451 96.8361 11.2901C96.9868 11.1768 97.1475 11.0779 97.3161 10.9944C97.4889 10.9068 97.6716 10.8405 97.8601 10.7968C98.0435 10.753 98.2313 10.7313 98.4197 10.732C98.6179 10.7343 98.8152 10.7597 99.0075 10.8079C98.9116 11.3591 98.8418 11.8138 98.798 12.1721L98.6417 13.3419C98.3984 13.2638 98.145 13.2228 97.8898 13.2202C97.6173 13.2154 97.3461 13.2604 97.0894 13.353C96.8546 13.4453 96.6389 13.5809 96.4531 13.7529C96.2433 13.9451 96.0677 14.1723 95.9341 14.4248C95.7394 14.8307 95.5939 15.2591 95.5011 15.7005C95.3594 16.2833 95.2234 16.9493 95.0931 17.6986C95.0462 17.961 94.9993 18.2877 94.9524 18.6787C94.4678 18.6671 93.9801 18.6618 93.4892 18.6629C92.9983 18.6639 92.4752 18.6713 91.9197 18.685Z" fill="white"/>
</svg>
