<svg width="24" height="24" viewBox="0 0 24 24" fill="none" xmlns="http://www.w3.org/2000/svg">
<path d="M10.0463 16.4472C9.85109 16.6425 9.85109 16.9591 10.0463 17.1543C10.2416 17.3496 10.5582 17.3496 10.7535 17.1543L10.0463 16.4472ZM15.1999 12.0008L15.5535 12.3543L15.907 12.0008L15.5535 11.6472L15.1999 12.0008ZM10.7535 6.84723C10.5582 6.65197 10.2416 6.65197 10.0463 6.84723C9.85109 7.04249 9.85109 7.35907 10.0463 7.55433L10.7535 6.84723ZM10.7535 17.1543L15.5535 12.3543L14.8463 11.6472L10.0463 16.4472L10.7535 17.1543ZM15.5535 11.6472L10.7535 6.84723L10.0463 7.55433L14.8463 12.3543L15.5535 11.6472Z" fill="#334D6E"/>
</svg>
