<svg width="96" height="189" viewBox="0 0 96 189" fill="none" xmlns="http://www.w3.org/2000/svg">
<path fill-rule="evenodd" clip-rule="evenodd" d="M95.4756 186.388C95.4756 186.388 73.6231 188.466 47.3871 188.466C21.1511 188.466 0.5 186.388 0.5 186.388C0.5 186.388 21.768 184.895 47.9959 184.895C74.2238 184.895 95.4756 186.388 95.4756 186.388Z" fill="#E8EEF8"/>
<g opacity="0.5">
<path fill-rule="evenodd" clip-rule="evenodd" d="M60.9842 8.50189C60.9112 8.50189 65.7411 9.82505 75.0276 9.26494C84.0787 8.70483 86.6195 6.23708 86.7169 6.23708C85.7428 5.17368 84.6875 4.11028 83.5673 3.04688C77.674 3.76122 71.878 4.46745 65.8466 5.17368C64.5235 5.57956 63.1841 5.98544 61.7879 6.39943C61.5606 7.09755 61.2764 7.79566 60.9842 8.50189Z" fill="url(#paint0_radial_930_13531)"/>
<path fill-rule="evenodd" clip-rule="evenodd" d="M89.3551 185.146C88.9654 185.146 75.7825 188.239 55.1151 186.567C33.9201 184.943 21.2648 179.505 21.8331 179.496C22.7747 179.496 21.9142 159.884 23.8381 138.462C25.4048 117.04 29.7558 93.8155 32.9135 86.5746C39.8703 74.382 55.3911 69.0001 55.1232 69.0001C61.9501 52.7649 67.2103 36.619 66.3742 20.4407C65.6599 19.629 64.9293 18.8821 64.1743 18.1028C64.4973 14.6251 64.1529 11.1177 63.1596 7.76918C63.0062 7.26159 62.8246 6.76295 62.6158 6.27554C62.8268 5.39073 63.0216 4.50591 63.1921 3.62109C69.6293 4.14062 75.8636 4.66014 81.7002 5.17967C82.4362 6.15378 83.1397 7.12789 83.8107 8.102C83.9893 9.2141 84.2572 10.4236 84.5576 11.6413C85.6453 15.9111 86.8386 20.2215 86.8305 20.2215L85.7346 22.2753C88.2592 38.7296 86.9928 55.1921 84.8498 71.6545C84.9391 71.6545 92.1556 79.0171 95.0455 91.8267C96.0196 104.011 85.9132 185.146 89.3551 185.146Z" fill="url(#paint1_radial_930_13531)"/>
<path fill-rule="evenodd" clip-rule="evenodd" d="M48.2395 165.761C31.0059 164.267 25.9974 176.614 25.1531 176.614C25.1531 169.194 24.3008 150.28 26.8822 131.577C28.7137 116.649 32.1176 101.956 37.0373 87.7426C43.304 77.62 56.146 72.8306 56.1055 72.7819L58.419 71.889C59.8558 68.0088 61.2033 64.1286 62.4128 60.2484C71.196 58.7385 78.7616 57.2286 84.8011 55.7188C84.2491 62.2128 83.3805 68.7069 82.3658 75.136C86.8364 79.9196 89.8153 85.9029 90.938 92.3534C90.8243 103.767 79.7114 166.507 84.4439 181.59C85.2963 181.59 68.3468 167.376 48.2395 165.761Z" fill="url(#paint2_radial_930_13531)"/>
<path fill-rule="evenodd" clip-rule="evenodd" d="M62.4129 60.2516C62.6484 60.2516 60.7894 62.622 63.5169 63.247C65.9522 63.864 73.0551 62.7356 84.8012 55.722C84.5333 55.722 79.4842 54.9914 62.4129 60.2516Z" fill="url(#paint3_radial_930_13531)"/>
<path fill-rule="evenodd" clip-rule="evenodd" d="M60.9841 64.0483C60.7406 65.3958 60.4808 66.7433 60.1724 68.1071C60.1724 68.1071 62.8512 66.8082 64.4341 67.2466C65.4111 67.5046 66.3127 67.9915 67.0642 68.6672C67.0642 68.6672 68.6146 65.477 70.4492 64.8438C72.2838 64.2106 72.9413 65.0711 72.9494 65.0711C72.9575 65.0711 74.5161 68.8539 76.7241 67.9772C78.9321 67.1005 78.5911 68.9432 78.5993 68.9432C78.6074 68.9432 79.752 68.4236 80.2228 69C80.2228 69 79.2893 67.8067 79.8331 67.0599C80.377 66.3131 81.1725 66.2481 81.3755 66.6215C81.7916 65.8809 82.4114 65.2752 83.1613 64.8763C84.2978 64.3324 84.103 64.9331 84.1111 64.9331C85.1895 57.6716 85.8427 50.3533 86.0674 43.0156C80.4744 46.9608 73.0062 50.8978 63.9876 54.8348C63.0054 57.9033 62.0475 60.9717 60.9841 64.0483Z" fill="url(#paint4_radial_930_13531)"/>
<path style="mix-blend-mode:multiply" opacity="0.74" fill-rule="evenodd" clip-rule="evenodd" d="M81.6757 5.17188C82.2569 9.94866 83.3705 14.6455 84.9958 19.1747C79.1349 18.8175 72.1538 18.4603 64.1499 18.1032C64.8967 18.8825 65.6273 19.6617 66.3416 20.441C66.5689 20.441 77.7631 20.2868 79.484 22.8763C80.864 24.1751 82.1547 38.2429 80.0685 51.9778C78.5018 65.7533 73.5582 79.1311 73.8748 79.1311C73.8748 79.1311 77.8361 86.9321 76.31 99.2302C76.7971 105.375 67.267 127.325 66.0251 147.741C63.4843 168.148 69.2721 187.03 70.4491 187.03C75.1979 186.592 80.0198 186.161 85.0608 185.731C83.4373 185.731 83.835 164.812 86.8142 142.57C89.3631 120.32 94.4772 96.7462 92.3828 91.4292C90.4914 80.8114 83.0476 71.8578 83.0476 71.8578C85.7345 55.4927 87.2363 39.1196 84.9228 22.7302L85.7345 22.2675L86.8385 20.2137C85.5934 16.2447 84.5824 12.2061 83.8107 8.11856C83.145 7.13362 82.4334 6.1514 81.6757 5.17188Z" fill="url(#paint5_linear_930_13531)"/>
<path fill-rule="evenodd" clip-rule="evenodd" d="M35.5437 100.471C35.5437 100.471 38.3605 88.027 43.6045 81.8008H51.9006C51.9006 81.8008 45.2929 93.4414 42.8658 101.121L35.5437 100.471Z" fill="white"/>
<path style="mix-blend-mode:screen" opacity="0.5" fill-rule="evenodd" clip-rule="evenodd" d="M35.5437 100.473C29.212 123.811 25.9893 147.149 27.8726 170.487C29.9182 170.719 32.1127 170.955 34.456 171.193C30.4378 147.839 35.422 124.484 42.8658 101.13L35.5437 100.473Z" fill="url(#paint6_linear_930_13531)"/>
<g style="mix-blend-mode:soft-light">
<path fill-rule="evenodd" clip-rule="evenodd" d="M89.3633 185.148C85.8728 185.61 82.5283 186.073 79.2813 186.536C70.563 159.48 76.5376 132.432 81.8302 105.36C81.7815 105.36 90.581 101.634 95.0538 95.4727C93.6332 125.378 87.2365 155.267 89.3633 185.148Z" fill="white"/>
</g>
<path fill-rule="evenodd" clip-rule="evenodd" d="M64.6289 15.4258C67.4132 15.6531 70.1002 15.8804 72.6572 16.1077C72.7221 16.8382 72.7871 17.5769 72.8358 18.3156L64.7182 17.8529C64.6776 17.0493 64.6289 16.2375 64.6289 15.4258Z" fill="white"/>
<path style="mix-blend-mode:screen" opacity="0.5" fill-rule="evenodd" clip-rule="evenodd" d="M55.3831 71.2649C58.484 71.5084 61.455 71.752 64.3124 71.9955C70.1327 55.7603 74.1022 39.5252 72.6329 23.2251C70.9688 22.6974 69.2398 22.1617 67.4539 21.6016C68.1033 38.1533 62.4859 54.7213 55.3831 71.2649Z" fill="url(#paint7_linear_930_13531)"/>
<path fill-rule="evenodd" clip-rule="evenodd" d="M74.4592 18.5891C74.3212 17.7773 74.1751 17.0062 74.0046 16.2188L76.1314 16.4136C76.2776 17.1685 76.4156 17.9316 76.5454 18.6946L74.4592 18.5891Z" fill="white"/>
<g style="mix-blend-mode:soft-light">
<path fill-rule="evenodd" clip-rule="evenodd" d="M82.382 75.139L79.3948 74.8467C82.1791 62.0047 84.1679 49.1627 84.0056 36.3207C85.0284 35.5577 86.0025 34.7919 86.9279 34.0234C87.5935 46.5651 86.4814 59.1149 84.8417 71.6565C84.057 72.82 83.2371 73.9809 82.382 75.139Z" fill="white"/>
</g>
<g style="mix-blend-mode:soft-light">
<path fill-rule="evenodd" clip-rule="evenodd" d="M28.7085 179.652C28.7085 179.652 34.6506 183.232 53.9136 184.693C72.86 186.146 80.6042 182.924 80.7503 182.924C80.7016 182.924 71.2446 184.693 53.5564 183.468C35.7221 182.242 28.6923 179.652 28.7085 179.652Z" fill="white"/>
</g>
<path opacity="0.5" fill-rule="evenodd" clip-rule="evenodd" d="M70.7008 83.4085C70.4613 84.1114 70.0058 84.7207 69.3993 85.1493C68.7929 85.5779 68.0665 85.8039 67.3239 85.795C65.952 85.6814 65.2458 84.4151 65.7572 82.9782C65.9963 82.2696 66.4514 81.6536 67.0585 81.2168C67.6656 80.7801 68.3943 80.5444 69.1422 80.543C70.4897 80.7053 71.1797 81.9879 70.7008 83.4085Z" fill="url(#paint8_radial_930_13531)"/>
<path style="mix-blend-mode:multiply" opacity="0.5" fill-rule="evenodd" clip-rule="evenodd" d="M38.6527 156.67C38.6527 158.107 37.7598 159.179 36.5827 159.057C35.9499 158.913 35.3877 158.551 34.9945 158.035C34.6013 157.518 34.4021 156.88 34.4316 156.232C34.4316 154.795 35.3083 153.724 36.4691 153.845C37.1034 153.991 37.6676 154.353 38.0657 154.868C38.4637 155.383 38.6712 156.02 38.6527 156.67Z" fill="url(#paint9_linear_930_13531)"/>
<path style="mix-blend-mode:multiply" opacity="0.5" fill-rule="evenodd" clip-rule="evenodd" d="M50.6992 147.15C50.658 147.575 50.4508 147.967 50.1226 148.241C49.7943 148.514 49.3715 148.647 48.9458 148.611C48.5266 148.57 48.1398 148.367 47.8671 148.046C47.5945 147.725 47.4573 147.31 47.4846 146.89C47.5278 146.472 47.7312 146.088 48.0521 145.817C48.373 145.546 48.7864 145.41 49.2055 145.437C49.6291 145.47 50.0228 145.668 50.302 145.989C50.5813 146.309 50.7238 146.726 50.6992 147.15Z" fill="url(#paint10_linear_930_13531)"/>
<path fill-rule="evenodd" clip-rule="evenodd" d="M64.491 112.023C64.3468 112.412 64.0828 112.745 63.737 112.975C63.3912 113.204 62.9815 113.317 62.5671 113.298C62.388 113.297 62.2119 113.252 62.0543 113.167C61.8967 113.082 61.7626 112.96 61.6638 112.81C61.5651 112.661 61.5047 112.489 61.4881 112.311C61.4715 112.133 61.4992 111.953 61.5686 111.788C61.7098 111.4 61.9709 111.068 62.3139 110.839C62.6569 110.609 63.0641 110.496 63.4763 110.514C63.6553 110.516 63.8312 110.561 63.9887 110.646C64.1463 110.731 64.2808 110.853 64.3806 111.002C64.4805 111.15 64.5427 111.321 64.5619 111.499C64.5812 111.677 64.5568 111.857 64.491 112.023Z" fill="url(#paint11_radial_930_13531)"/>
<path fill-rule="evenodd" clip-rule="evenodd" d="M60.7 97.5519C60.4999 98.0809 60.1415 98.5354 59.6738 98.8535C59.2061 99.1716 58.6517 99.3379 58.0862 99.3296C57.8475 99.3131 57.6166 99.2376 57.4144 99.1098C57.2121 98.9821 57.0447 98.8061 56.9272 98.5977C56.8097 98.3893 56.7458 98.1549 56.7412 97.9157C56.7367 97.6765 56.7916 97.4399 56.901 97.2272C57.1022 96.6988 57.4607 96.245 57.9282 95.927C58.3957 95.6091 58.9495 95.4424 59.5149 95.4494C59.7544 95.4639 59.9866 95.5382 60.19 95.6655C60.3935 95.7928 60.5619 95.969 60.6797 96.1781C60.7976 96.3871 60.8612 96.6224 60.8647 96.8624C60.8683 97.1024 60.8117 97.3394 60.7 97.5519Z" fill="url(#paint12_radial_930_13531)"/>
<path fill-rule="evenodd" clip-rule="evenodd" d="M66.5853 80.1232C66.5288 80.2912 66.4189 80.4361 66.2723 80.5358C66.1257 80.6354 65.9506 80.6844 65.7736 80.6752C65.6999 80.6699 65.6287 80.6465 65.5664 80.6069C65.504 80.5674 65.4524 80.5131 65.4162 80.4487C65.38 80.3844 65.3604 80.3121 65.359 80.2382C65.3576 80.1644 65.3745 80.0914 65.4083 80.0258C65.4647 79.8577 65.5747 79.7128 65.7212 79.6132C65.8678 79.5135 66.043 79.4645 66.22 79.4738C66.2937 79.479 66.3648 79.5025 66.4272 79.542C66.4896 79.5815 66.5411 79.6359 66.5773 79.7002C66.6135 79.7645 66.6332 79.8369 66.6346 79.9107C66.636 79.9845 66.6191 80.0575 66.5853 80.1232Z" fill="url(#paint13_radial_930_13531)"/>
<path fill-rule="evenodd" clip-rule="evenodd" d="M78.096 64.6185C78.0649 64.7712 77.9829 64.9089 77.8635 65.0092C77.7441 65.1094 77.5943 65.1663 77.4385 65.1705C77.3677 65.1578 77.3007 65.1294 77.2424 65.0874C77.1842 65.0454 77.1361 64.9907 77.1018 64.9276C77.0675 64.8644 77.0478 64.7944 77.0443 64.7226C77.0407 64.6508 77.0534 64.5792 77.0813 64.5129C77.1124 64.3602 77.1944 64.2225 77.3138 64.1222C77.4332 64.022 77.583 63.9651 77.7388 63.9609C77.8088 63.9749 77.8749 64.0041 77.9324 64.0465C77.9899 64.0889 78.0373 64.1433 78.0714 64.2061C78.1055 64.2688 78.1253 64.3383 78.1296 64.4095C78.1338 64.4808 78.1224 64.5521 78.096 64.6185Z" fill="url(#paint14_radial_930_13531)"/>
<path fill-rule="evenodd" clip-rule="evenodd" d="M73.4202 64.7864C73.3805 64.9438 73.2896 65.0835 73.1617 65.1835C73.0338 65.2834 72.8763 65.3379 72.714 65.3384C72.6418 65.3275 72.573 65.3006 72.5127 65.2595C72.4523 65.2185 72.402 65.1644 72.3653 65.1013C72.3287 65.0381 72.3067 64.9676 72.301 64.8948C72.2954 64.8221 72.3061 64.749 72.3324 64.6809C72.3721 64.5235 72.4631 64.3838 72.591 64.2839C72.7188 64.1839 72.8764 64.1294 73.0387 64.1289C73.1108 64.1398 73.1796 64.1668 73.24 64.2078C73.3003 64.2489 73.3507 64.3029 73.3873 64.3661C73.4239 64.4292 73.4459 64.4997 73.4516 64.5725C73.4573 64.6453 73.4466 64.7184 73.4202 64.7864Z" fill="url(#paint15_radial_930_13531)"/>
<path fill-rule="evenodd" clip-rule="evenodd" d="M70.5547 70.1933C70.4663 70.4917 70.2829 70.7531 70.0323 70.9377C69.7818 71.1223 69.4778 71.2201 69.1666 71.2161C69.0302 71.2036 68.8987 71.1587 68.7831 71.0851C68.6676 71.0115 68.5712 70.9114 68.5022 70.7931C68.4331 70.6748 68.3933 70.5417 68.386 70.4049C68.3787 70.2681 68.4042 70.1316 68.4604 70.0066C68.5566 69.7126 68.7436 69.4568 68.9945 69.2759C69.2454 69.095 69.5473 68.9984 69.8566 69C69.9894 69.0162 70.1167 69.0628 70.2286 69.1363C70.3404 69.2098 70.4338 69.3081 70.5014 69.4236C70.569 69.5391 70.6089 69.6687 70.6182 69.8022C70.6274 69.9357 70.6057 70.0696 70.5547 70.1933Z" fill="url(#paint16_radial_930_13531)"/>
<path fill-rule="evenodd" clip-rule="evenodd" d="M33.3601 137.187C33.2139 138.259 32.4671 139.054 31.7365 138.965C31.006 138.876 30.4946 137.942 30.6244 136.871C30.7543 135.799 31.4362 135.003 32.248 135.093C33.0597 135.182 33.5143 136.083 33.3601 137.187Z" fill="url(#paint17_radial_930_13531)"/>
<path fill-rule="evenodd" clip-rule="evenodd" d="M59.0927 108.776C58.9522 109.158 58.6959 109.486 58.3596 109.714C58.0234 109.943 57.624 110.06 57.2176 110.051C57.0438 110.042 56.875 109.99 56.7258 109.901C56.5766 109.811 56.4516 109.686 56.3619 109.537C56.2721 109.388 56.2203 109.219 56.211 109.046C56.2017 108.872 56.2351 108.699 56.3084 108.541C56.4478 108.159 56.7039 107.83 57.0404 107.601C57.3769 107.372 57.7768 107.255 58.1836 107.266C58.3573 107.275 58.5262 107.327 58.6754 107.416C58.8246 107.506 58.9495 107.631 59.0393 107.78C59.129 107.929 59.1808 108.098 59.1901 108.271C59.1995 108.445 59.166 108.618 59.0927 108.776Z" fill="url(#paint18_radial_930_13531)"/>
<path fill-rule="evenodd" clip-rule="evenodd" d="M62.6157 6.27646L73.4689 6.35764L74.6541 5.002C71.1798 4.70977 67.5837 4.40942 63.9227 4.11719C63.5005 4.87212 63.0703 5.554 62.6157 6.27646Z" fill="white"/>
<path fill-rule="evenodd" clip-rule="evenodd" d="M66.1712 31.6607C72.3493 28.2665 79.1292 26.1076 86.1324 25.3047C86.9197 31.8623 87.2263 38.4687 87.0497 45.071C77.777 48.48 68.7153 52.4376 59.9126 56.9227C62.9921 48.7797 65.0931 40.2996 66.1712 31.6607Z" fill="url(#paint19_linear_930_13531)"/>
<path d="M70.0921 45.2316C69.9379 45.2911 69.7708 45.3097 69.6072 45.2855C69.4436 45.2614 69.2891 45.1952 69.1586 45.0936C68.8941 44.8165 68.7286 44.4598 68.6878 44.0789C68.6066 44.5741 68.5254 45.0693 68.4361 45.5644L67.3159 45.881C68.0288 41.9233 68.487 37.924 68.6878 33.9076L69.8161 33.6641C69.7512 35.2876 69.6457 36.9111 69.4914 38.5346C69.6657 38.043 69.9179 37.5825 70.2383 37.1709C70.465 36.853 70.7949 36.6235 71.1718 36.5214C71.2999 36.4815 71.4359 36.4739 71.5676 36.4994C71.6994 36.5249 71.8227 36.5827 71.9267 36.6676C72.1798 36.8841 72.3704 37.1643 72.4787 37.4793C72.6421 37.8843 72.746 38.3109 72.7872 38.7457C72.8407 39.2855 72.8407 39.8293 72.7872 40.3692C72.7366 40.9529 72.625 41.5297 72.4543 42.0901C72.3041 42.6091 72.0972 43.11 71.8374 43.5837C71.6212 43.9962 71.3479 44.376 71.0257 44.7121C70.7619 44.9593 70.4413 45.1378 70.0921 45.2316ZM70.0272 43.4944C70.2422 43.426 70.4372 43.3062 70.5954 43.1454C70.7831 42.9481 70.9441 42.727 71.0744 42.4879C71.2239 42.2147 71.3437 41.9262 71.4315 41.6274C71.53 41.3076 71.5953 40.9784 71.6264 40.6452C71.6586 40.3294 71.6586 40.0112 71.6264 39.6954C71.6028 39.44 71.5455 39.1889 71.4559 38.9486C71.3861 38.7686 71.2715 38.6094 71.1231 38.4859C71.0596 38.4365 70.985 38.4032 70.9058 38.3891C70.8266 38.3749 70.7451 38.3803 70.6685 38.4047C70.3452 38.5213 70.0783 38.7563 69.9217 39.0622C69.6678 39.4694 69.4634 39.9054 69.3128 40.3611C69.2317 41.0348 69.1505 41.7167 69.0531 42.3905C69.063 42.5731 69.0986 42.7534 69.1586 42.9262C69.2063 43.0639 69.2808 43.1908 69.3778 43.2996C69.4604 43.3882 69.5636 43.4551 69.6781 43.4944C69.792 43.5285 69.9133 43.5285 70.0272 43.4944Z" fill="white"/>
<path d="M75.2711 43.6173C74.9664 43.7397 74.6261 43.7397 74.3214 43.6173C74.036 43.4685 73.8056 43.2325 73.6638 42.9435C73.4846 42.5652 73.372 42.1588 73.331 41.7421C73.2734 41.2188 73.2734 40.6907 73.331 40.1673C73.3636 39.5942 73.4396 39.0243 73.5583 38.4626C73.6833 37.9508 73.8601 37.4531 74.086 36.9771C74.2765 36.5673 74.5253 36.1873 74.8247 35.8488C75.0697 35.5702 75.3872 35.365 75.7419 35.2562C75.887 35.2077 76.0406 35.1899 76.1929 35.2038C76.3452 35.2178 76.4929 35.2633 76.6268 35.3374C76.9057 35.5019 77.1334 35.7408 77.2843 36.0274C77.4757 36.3937 77.6073 36.7883 77.6739 37.1963C77.7653 37.6886 77.798 38.1899 77.7713 38.6899C77.7713 38.8198 77.7713 38.9497 77.7713 39.0633C77.7775 39.1661 77.7775 39.2691 77.7713 39.3718C76.7079 39.729 75.6121 40.078 74.4756 40.4271C74.4636 40.699 74.4826 40.9713 74.5324 41.2388C74.5632 41.4344 74.6322 41.6219 74.7354 41.7908C74.8125 41.9211 74.9291 42.0234 75.0682 42.0831C75.1991 42.1316 75.3431 42.1316 75.4741 42.0831C75.7372 41.9822 75.9655 41.8074 76.1316 41.5798C76.3434 41.3048 76.498 40.9901 76.5862 40.6544L77.4872 40.833C77.3074 41.4657 77.013 42.06 76.6186 42.5864C76.2877 43.0618 75.8166 43.4222 75.2711 43.6173ZM76.7404 38.4058C76.7717 37.9433 76.6703 37.4814 76.4482 37.0745C76.3876 36.942 76.281 36.836 76.148 36.7762C76.0151 36.7165 75.865 36.7071 75.7257 36.7498C75.5691 36.8017 75.4291 36.8941 75.3198 37.0177C75.1788 37.1669 75.0611 37.3366 74.9708 37.521C74.8573 37.7475 74.7649 37.9839 74.6948 38.2272C74.623 38.4935 74.5714 38.7649 74.5405 39.039C75.2874 38.8604 75.9936 38.6331 76.7404 38.4058Z" fill="white"/>
<path d="M80.166 41.8706C80.0271 41.9286 79.8781 41.9585 79.7276 41.9585C79.5771 41.9585 79.4281 41.9286 79.2893 41.8706C79.0127 41.7383 78.7873 41.5186 78.648 41.2455C78.4608 40.8931 78.3345 40.5116 78.2746 40.1172C78.1977 39.6205 78.1678 39.1177 78.1853 38.6154C78.201 38.0699 78.2635 37.5267 78.372 36.9919C78.4655 36.5003 78.6069 36.0191 78.7941 35.5551C78.9514 35.1638 79.1647 34.7974 79.4273 34.4673C79.6342 34.1948 79.9164 33.9888 80.239 33.8748C80.3698 33.8239 80.5101 33.8019 80.6502 33.8103C80.7903 33.8187 80.927 33.8573 81.0508 33.9235C81.3151 34.0744 81.5317 34.2966 81.6758 34.5647C81.8714 34.9085 82.0112 35.2811 82.0898 35.6687C82.1927 36.1325 82.2445 36.6062 82.2441 37.0812C82.2441 37.2111 82.2441 37.3328 82.2441 37.4465C82.249 37.5438 82.249 37.6414 82.2441 37.7387C81.2862 38.104 80.2877 38.4774 79.2568 38.8427C79.2552 39.1158 79.2852 39.3882 79.3461 39.6545C79.3841 39.8391 79.4556 40.0152 79.5571 40.174C79.6351 40.2896 79.7451 40.3799 79.8737 40.4338C79.9963 40.4821 80.1327 40.4821 80.2553 40.4338C80.4947 40.3294 80.696 40.1536 80.8316 39.9305C81.0201 39.6659 81.1502 39.3643 81.2131 39.0456L82.0249 39.1836C81.8892 39.787 81.6473 40.3615 81.3105 40.8802C81.0393 41.3196 80.6398 41.6653 80.166 41.8706ZM81.2781 36.862C81.2829 36.4187 81.1709 35.982 80.9534 35.5957C80.8922 35.4748 80.7899 35.3798 80.6649 35.3277C80.5399 35.2756 80.4004 35.2699 80.2715 35.3116C80.1294 35.3692 80.0039 35.4613 79.9062 35.5794C79.7804 35.7245 79.679 35.889 79.6058 36.0665C79.5111 36.2862 79.4377 36.5146 79.3867 36.7484C79.3238 37.0149 79.2858 37.2866 79.273 37.5601L81.2781 36.862Z" fill="white"/>
<path d="M84.8743 34.0124C84.5893 34.1499 84.3477 34.3634 84.1762 34.6293C83.9538 34.9704 83.8071 35.3551 83.746 35.7576C83.7947 37.2594 83.8109 38.753 83.8028 40.2467L82.8449 40.6525C82.8828 38.1577 82.8422 35.6629 82.7231 33.1681L83.5349 32.8678C83.5349 33.3954 83.5917 33.9231 83.6161 34.4507C83.6621 34.19 83.7244 33.9324 83.8028 33.6795C83.8758 33.4523 83.957 33.2412 84.0382 33.0545C84.1111 32.8939 84.2009 32.7415 84.3061 32.5999C84.38 32.5046 84.4743 32.4269 84.5821 32.3726L84.6876 32.332H84.7607C84.8012 32.884 84.8418 33.4523 84.8743 34.0124Z" fill="white"/>
<path fill-rule="evenodd" clip-rule="evenodd" d="M27.288 180.454C27.0011 178.571 26.7468 176.677 26.5249 174.772C26.6142 174.772 31.7607 168.099 35.0808 167.742C35.528 172.672 36.2707 177.57 37.305 182.411C37.2401 182.427 28.0429 181.445 27.288 180.454Z" fill="white"/>
<path style="mix-blend-mode:screen" opacity="0.5" fill-rule="evenodd" clip-rule="evenodd" d="M61.5768 174.173C62.3886 177.769 56.341 180.139 48.2559 179.466C40.0328 178.784 33.6443 175.326 33.2384 171.73C32.8325 168.134 37.2972 165.763 45.0251 166.445C52.753 167.127 60.7651 170.577 61.5768 174.173Z" fill="url(#paint20_radial_930_13531)"/>
<path style="mix-blend-mode:screen" opacity="0.5" fill-rule="evenodd" clip-rule="evenodd" d="M55.2531 173.716C55.8132 175.876 52.209 177.296 47.4034 176.89C42.5978 176.484 38.5796 174.406 38.1737 172.247C37.7678 170.088 40.8038 168.667 45.4795 169.073C50.1553 169.479 54.7092 171.525 55.2531 173.716Z" fill="url(#paint21_radial_930_13531)"/>
<path style="mix-blend-mode:multiply" opacity="0.74" fill-rule="evenodd" clip-rule="evenodd" d="M63.7035 9.82224C63.7035 9.82224 76.5861 8.03637 84.5576 11.6406C84.3303 10.4635 84.0787 9.28648 83.8108 8.10131C82.4876 6.30733 81.0995 4.50523 79.5328 2.70312L68.2575 3.247C66.4067 4.25358 64.5396 5.26016 62.5752 6.26674C63.0054 7.45191 63.3788 8.63707 63.7035 9.82224Z" fill="url(#paint22_linear_930_13531)"/>
<path fill-rule="evenodd" clip-rule="evenodd" d="M60.984 8.50061C60.984 8.50061 59.5228 5.36722 60.0424 2.59101C67.0517 -0.0491385 74.6573 -0.687157 82.0085 0.748321C84.1374 2.01151 85.7918 3.93971 86.7167 6.2358L85.0932 5.65134L83.2343 5.85428C83.0963 6.26016 82.9664 6.66603 82.8284 7.06379L81.2942 6.0978L77.3166 6.55239L76.6834 7.62391L75.2872 6.73909L71.4882 7.13685C71.3502 7.46967 71.204 7.79438 71.0579 8.1272C70.6033 7.85932 70.1488 7.59144 69.6779 7.31544L65.4406 7.76191L65.1077 8.63861L64.0119 7.94861H61.6415L60.984 8.50061Z" fill="url(#paint23_radial_930_13531)"/>
<path fill-rule="evenodd" clip-rule="evenodd" d="M60.0425 2.5895C67.2623 1.0839 74.6389 0.465097 82.0086 0.74681C82.1548 0.74681 69.9135 -1.71282 60.0425 2.5895Z" fill="#44C62F"/>
<path fill-rule="evenodd" clip-rule="evenodd" d="M61.6011 7.97306C61.4225 6.15473 61.1546 4.34451 60.7893 2.52617C60.7893 2.52617 61.804 1.91735 67.0723 1.41406C68.5443 3.6491 69.8702 5.88685 71.0499 8.1273C70.5953 7.85942 70.1408 7.59154 69.6699 7.31554L65.4407 7.76201L65.1079 8.63871L64.012 7.94871L61.6011 7.97306Z" fill="#BABF04"/>
<path fill-rule="evenodd" clip-rule="evenodd" d="M85.9701 5.96814C84.5619 4.17507 83.0636 2.45464 81.481 0.813475L78.3801 0.683594C79.4435 2.4857 80.4095 4.29592 81.2943 6.09802L82.7961 7.06401C82.9341 6.66625 83.064 6.25225 83.202 5.85449L85.9701 5.96814Z" fill="#44C62F"/>
<path d="M69.2831 182.244C69.5629 178.885 63.6579 175.65 56.094 175.021C48.5301 174.391 42.1716 176.604 41.8918 179.964C41.612 183.323 47.517 186.557 55.0809 187.187C62.6448 187.817 69.0034 185.604 69.2831 182.244Z" fill="#999CCD"/>
<path d="M68.814 182.205C69.0841 178.961 63.3814 175.839 56.0766 175.23C48.7719 174.622 42.6312 176.758 42.3611 180.002C42.091 183.246 47.7938 186.368 55.0985 186.976C62.4033 187.585 68.544 185.448 68.814 182.205Z" fill="#999BCC"/>
<path d="M68.339 182.176C68.0792 185.301 62.1534 187.355 55.1154 186.771C48.0775 186.186 42.5738 183.175 42.8335 180.049C43.0933 176.924 49.0191 174.862 56.0571 175.447C63.095 176.031 68.5987 179.043 68.339 182.176Z" fill="#9A9BCB"/>
<path d="M67.8761 182.137C67.6244 185.148 61.9178 187.129 55.1396 186.561C48.3614 185.993 43.0687 183.103 43.3123 180.067C43.5558 177.031 49.2706 175.075 56.0488 175.635C62.8269 176.195 68.1115 179.125 67.8761 182.137Z" fill="#9A9ACA"/>
<path d="M67.39 182.087C67.6311 179.192 62.5423 176.405 56.0238 175.862C49.5054 175.319 44.0257 177.226 43.7846 180.121C43.5436 183.016 48.6324 185.803 55.1508 186.346C61.6693 186.889 67.149 184.982 67.39 182.087Z" fill="#9A99C9"/>
<path d="M66.9183 182.055C66.691 184.832 61.4227 186.666 55.164 186.114C48.9054 185.562 44.0186 182.916 44.254 180.132C44.4894 177.347 49.7496 175.529 56.0083 176.073C62.2669 176.617 67.1537 179.279 66.9183 182.055Z" fill="#9B99C8"/>
<path d="M66.4473 182.012C66.2281 184.674 61.179 186.428 55.1882 185.932C49.1974 185.437 44.5055 182.864 44.7247 180.209C44.9438 177.555 49.993 175.794 55.9919 176.297C61.9907 176.8 66.6665 179.349 66.4473 182.012Z" fill="#9B98C7"/>
<path d="M65.9744 181.966C66.1865 179.42 61.7079 176.968 55.9713 176.49C50.2348 176.013 45.4124 177.69 45.2004 180.237C44.9883 182.783 49.4668 185.235 55.2034 185.713C60.94 186.19 65.7623 184.513 65.9744 181.966Z" fill="#9C97C6"/>
<path d="M65.5059 181.932C65.303 184.368 60.7003 185.991 55.2209 185.512C49.7416 185.033 45.4798 182.712 45.6666 180.284C45.8533 177.857 50.4803 176.226 55.9515 176.705C61.4228 177.184 65.7089 179.505 65.5059 181.932Z" fill="#9C96C4"/>
<path d="M65.035 181.901C64.8401 184.214 60.4566 185.74 55.237 185.302C50.0174 184.864 45.9586 182.648 46.1454 180.326C46.3321 178.004 50.7155 176.486 55.9351 176.917C61.1548 177.347 65.2217 179.579 65.035 181.901Z" fill="#9D96C3"/>
<path d="M64.5562 181.835C64.3776 184.035 60.2133 185.48 55.2535 185.082C50.2936 184.685 46.4296 182.558 46.6164 180.358C46.8031 178.158 50.9593 176.705 55.9191 177.111C60.8789 177.517 64.7429 179.66 64.5562 181.835Z" fill="#9D95C2"/>
<path d="M64.0853 181.835C63.9148 183.921 59.9697 185.293 55.2696 184.904C50.5695 184.514 46.9085 182.468 47.0871 180.415C47.2657 178.361 51.2027 176.965 55.9028 177.354C60.6028 177.744 64.2639 179.733 64.0853 181.835Z" fill="#9D94C1"/>
<path d="M63.6143 181.777C63.452 183.75 59.726 185.024 55.2857 184.675C50.8454 184.326 47.3954 182.411 47.5577 180.438C47.7201 178.465 51.4461 177.191 55.8864 177.548C60.3267 177.905 63.8173 179.813 63.6143 181.777Z" fill="#9E93BF"/>
<path d="M63.1435 181.738C62.9893 183.589 59.4825 184.815 55.3101 184.466C51.1376 184.117 47.8744 182.331 48.0042 180.48C48.1341 178.629 51.6653 177.412 55.8377 177.753C60.0101 178.093 63.2977 179.887 63.1435 181.738Z" fill="#9E92BE"/>
<path d="M62.6728 181.695C62.5267 183.433 59.2391 184.577 55.367 184.252C51.4949 183.928 48.4021 182.256 48.5401 180.518C48.6781 178.781 51.9738 177.637 55.8865 177.961C59.7992 178.286 62.8108 179.958 62.6728 181.695Z" fill="#9F92BD"/>
<path d="M62.1938 181.662C62.0639 183.286 58.9955 184.349 55.3426 184.041C51.6897 183.732 48.8485 182.182 48.9784 180.558C49.1083 178.935 52.1767 177.871 55.8296 178.172C59.4825 178.472 62.3318 180.039 62.1938 181.662Z" fill="#9F91BB"/>
<path d="M61.7274 181.613C61.8528 180.107 59.2055 178.658 55.8145 178.375C52.4234 178.093 49.5728 179.085 49.4475 180.59C49.3221 182.096 51.9694 183.545 55.3604 183.828C58.7515 184.11 61.6021 183.118 61.7274 181.613Z" fill="#A090BA"/>
<path d="M61.2522 181.581C61.1386 182.969 58.5085 183.887 55.3751 183.627C52.2417 183.367 49.8064 182.003 49.9201 180.64C50.0337 179.276 52.6638 178.334 55.7972 178.594C58.9306 178.854 61.3821 180.209 61.2522 181.581Z" fill="#A18FB8"/>
<path d="M60.7813 181.543C60.6758 182.818 58.2649 183.654 55.3912 183.419C52.5176 183.183 50.2853 181.949 50.3908 180.675C50.4963 179.4 52.9072 178.564 55.7809 178.808C58.6545 179.051 60.8868 180.269 60.7813 181.543Z" fill="#A18EB7"/>
<path d="M60.3118 181.496C60.4082 180.339 58.3711 179.225 55.762 179.008C53.1528 178.79 50.9595 179.552 50.8632 180.709C50.7668 181.867 52.8039 182.981 55.413 183.198C58.0222 183.415 60.2155 182.653 60.3118 181.496Z" fill="#A28DB5"/>
<path d="M59.8396 181.461C59.7504 182.508 57.7778 183.19 55.4318 182.995C53.0858 182.8 51.2513 181.794 51.3324 180.755C51.4136 179.716 53.3943 179.026 55.7403 179.22C58.0863 179.415 59.9208 180.422 59.8396 181.461Z" fill="#A28CB4"/>
<path d="M59.3608 181.42C59.2878 182.353 57.5344 182.962 55.4482 182.783C53.362 182.605 51.7303 181.72 51.8115 180.795C51.8927 179.869 53.638 179.26 55.6998 179.398C57.7617 179.536 59.442 180.494 59.3608 181.42Z" fill="#A38BB2"/>
<path d="M58.8901 181.389C58.8251 182.201 57.2666 182.728 55.4645 182.574C53.6624 182.42 52.2174 181.649 52.2824 180.837C52.3473 180.025 53.9059 179.489 55.708 179.644C57.5101 179.798 58.9469 180.577 58.8901 181.389Z" fill="#A38AB1"/>
<path d="M58.4192 181.347C58.3624 182.037 57.0473 182.5 55.4806 182.37C53.9139 182.24 52.6963 181.558 52.7531 180.876C52.81 180.195 54.125 179.724 55.6917 179.854C57.2584 179.983 58.476 180.649 58.4192 181.347Z" fill="#A489AF"/>
<path d="M57.9484 181.308C57.8997 181.884 56.8038 182.266 55.5131 182.16C54.2224 182.054 53.1915 181.494 53.2402 180.91C53.2889 180.325 54.3848 179.952 55.6755 180.098C56.9662 180.244 57.9971 180.731 57.9484 181.308Z" fill="#A588AE"/>
<path d="M57.4776 181.266C57.4776 181.728 56.5603 182.037 55.5131 181.947C54.466 181.858 53.6623 181.412 53.6948 180.949C53.7273 180.486 54.6121 180.186 55.6592 180.267C56.7064 180.348 57.5101 180.803 57.4776 181.266Z" fill="#A587AC"/>
<path d="M57.0066 181.227C57.0066 181.576 56.3167 181.803 55.5374 181.738C54.7581 181.673 54.1411 181.34 54.1655 180.991C54.1898 180.642 54.8555 180.415 55.6348 180.48C56.4141 180.545 57.031 180.878 57.0066 181.227Z" fill="#A686AA"/>
<path d="M56.5115 181.186C56.5115 181.421 56.0569 181.575 55.5374 181.526C55.0179 181.478 54.6039 181.267 54.6282 181.031C54.6526 180.796 55.0828 180.65 55.6023 180.69C56.1219 180.731 56.5521 180.958 56.5115 181.186Z" fill="#A685A9"/>
<path d="M56.0569 181.154C56.0569 181.268 55.8296 181.341 55.5698 181.325C55.31 181.309 55.1071 181.187 55.1152 181.073C55.1233 180.96 55.3425 180.878 55.6023 180.903C55.862 180.927 56.065 181.025 56.0569 181.154Z" fill="#A784A7"/>
<path style="mix-blend-mode:multiply" opacity="0.74" fill-rule="evenodd" clip-rule="evenodd" d="M24.788 179.651C24.3983 179.651 47.9799 176.063 81.4081 185.066C82.1955 185.082 46.2021 188.84 24.788 179.651Z" fill="url(#paint24_linear_930_13531)"/>
<path fill-rule="evenodd" clip-rule="evenodd" d="M40.057 175.341C39.846 175.341 49.0919 176.908 62.3479 178.588C63.3869 178.742 52.3957 173.612 40.057 175.341Z" fill="white"/>
<path fill-rule="evenodd" clip-rule="evenodd" d="M67.0642 179.579C67.0642 179.579 71.5938 179.263 74.0129 181.113C71.6618 180.775 69.3392 180.262 67.0642 179.579Z" fill="white"/>
<path style="mix-blend-mode:multiply" opacity="0.74" fill-rule="evenodd" clip-rule="evenodd" d="M80.3283 128.333C80.0767 133.796 76.1478 138.074 71.5532 137.831C66.9587 137.587 63.4356 133.017 63.7035 127.562C63.9714 122.107 67.8841 117.821 72.4786 118.065C77.0732 118.308 80.5881 122.878 80.3283 128.333Z" fill="url(#paint25_linear_930_13531)"/>
<path style="mix-blend-mode:multiply" opacity="0.74" d="M50.4462 127.043C50.7008 121.584 47.186 116.985 42.5957 116.771C38.0054 116.557 34.0778 120.809 33.8233 126.268C33.5687 131.727 37.0835 136.326 41.6738 136.54C46.2641 136.754 50.1917 132.502 50.4462 127.043Z" fill="url(#paint26_linear_930_13531)"/>
<path fill-rule="evenodd" clip-rule="evenodd" d="M50.0172 127.041C49.9555 128.544 49.5648 130.016 48.8726 131.352C47.452 134.079 44.8707 135.832 42.0051 135.703C38.888 135.556 36.3228 133.202 35.2919 129.955C34.9221 128.775 34.7627 127.538 34.8211 126.302C34.8211 126.116 34.8211 125.945 34.8211 125.759C35.2838 121.034 38.7744 117.438 42.8088 117.641C46.8432 117.844 50.0659 121.813 50.0172 126.635C50.0172 126.773 50.0172 126.903 50.0172 127.041Z" fill="url(#paint27_radial_930_13531)"/>
<path fill-rule="evenodd" clip-rule="evenodd" d="M46.4943 126.636C46.3644 129.363 44.4 131.506 42.1027 131.384C39.8054 131.263 38.0439 128.949 38.1819 126.246C38.3199 123.543 40.2681 121.375 42.5654 121.497C44.8627 121.619 46.6161 123.867 46.4943 126.636Z" fill="#544200"/>
<path fill-rule="evenodd" clip-rule="evenodd" d="M79.2407 128.365C79.1782 129.772 78.8331 131.153 78.226 132.424C76.846 135.297 74.1672 137.197 71.2286 137.059C68.29 136.921 65.7979 134.786 64.6777 131.799C64.1893 130.476 63.9766 129.067 64.0527 127.659C64.0527 127.302 64.1095 126.944 64.1501 126.587C64.8076 122.106 68.2089 118.778 72.0809 118.973C76.2534 119.192 79.4598 123.389 79.2407 128.365Z" fill="url(#paint28_radial_930_13531)"/>
<path fill-rule="evenodd" clip-rule="evenodd" d="M74.5161 127.706C74.3863 130.441 72.4218 132.576 70.1326 132.454C67.8435 132.333 66.0739 130.019 66.2037 127.324C66.3336 124.629 68.2981 122.453 70.5872 122.575C72.8764 122.697 74.646 125.01 74.5161 127.706Z" fill="#544200"/>
<path fill-rule="evenodd" clip-rule="evenodd" d="M75.401 130.533C75.3911 130.774 75.31 131.007 75.1678 131.201C75.0256 131.396 74.8289 131.544 74.6025 131.627C74.376 131.71 74.1302 131.723 73.8959 131.666C73.6617 131.609 73.4497 131.484 73.2868 131.306C73.124 131.128 73.0175 130.906 72.9809 130.668C72.9443 130.43 72.9793 130.186 73.0814 129.968C73.1835 129.749 73.3481 129.566 73.5544 129.441C73.7607 129.317 73.9994 129.256 74.2402 129.267C74.5618 129.282 74.8645 129.423 75.082 129.66C75.2996 129.898 75.4143 130.212 75.401 130.533Z" fill="white"/>
<path fill-rule="evenodd" clip-rule="evenodd" d="M46.7702 129.827C46.7602 130.068 46.6787 130.301 46.5361 130.495C46.3936 130.69 46.1963 130.838 45.9694 130.921C45.7425 131.003 45.4963 131.016 45.2619 130.958C45.0275 130.901 44.8156 130.774 44.6531 130.596C44.4906 130.417 44.3849 130.195 44.3493 129.956C44.3137 129.717 44.3498 129.473 44.4532 129.255C44.5565 129.037 44.7224 128.854 44.9297 128.731C45.137 128.607 45.3764 128.548 45.6175 128.56C45.9376 128.577 46.2382 128.72 46.454 128.957C46.6698 129.194 46.7834 129.506 46.7702 129.827Z" fill="white"/>
<path fill-rule="evenodd" clip-rule="evenodd" d="M79.2406 128.364C74.5081 125.929 65.2215 126.537 64.1338 126.619C64.7913 122.138 68.1926 118.809 72.0647 119.004C76.2533 119.191 79.4598 123.388 79.2406 128.364Z" fill="url(#paint29_radial_930_13531)"/>
<path fill-rule="evenodd" clip-rule="evenodd" d="M50.0173 126.634C44.2214 124.694 37.1753 125.457 34.8293 125.782C35.292 121.058 38.7826 117.461 42.817 117.664C46.8515 117.867 50.066 121.813 50.0173 126.634Z" fill="url(#paint30_radial_930_13531)"/>
<path fill-rule="evenodd" clip-rule="evenodd" d="M34.8211 125.826C34.6362 126.27 34.6218 126.768 34.7805 127.222C34.7805 127.222 43.0848 125.493 50.0172 126.638C45.1124 125.03 39.8693 124.75 34.8211 125.826Z" fill="#6D4A00"/>
<path fill-rule="evenodd" clip-rule="evenodd" d="M64.1338 126.635C64.1338 126.635 73.2417 125.499 79.2406 128.38C79.2283 128.963 79.1549 129.542 79.0214 130.109C79.0214 130.109 76.5374 126.692 64.1338 126.635Z" fill="#6D4A00"/>
<path fill-rule="evenodd" clip-rule="evenodd" d="M35.2515 113.339C37.5234 110.67 40.5523 108.754 43.9373 107.844L44.4974 111.091C41.6026 111.683 38.8697 112.893 36.4853 114.638L35.2515 113.339Z" fill="#6D3400"/>
<path fill-rule="evenodd" clip-rule="evenodd" d="M79.2405 111.261C77.6056 108.508 75.1544 106.332 72.2269 105.035L71.4639 108.217C73.9654 109.089 76.2264 110.538 78.0635 112.447L79.2405 111.261Z" fill="#6D3400"/>
<path fill-rule="evenodd" clip-rule="evenodd" d="M53.3699 142.301C53.3699 142.301 55.1395 144.582 57.794 144.314C60.4484 144.046 62.835 139.184 62.835 139.184C62.835 139.184 58.3459 143.47 53.3699 142.301Z" fill="url(#paint31_radial_930_13531)"/>
<path fill-rule="evenodd" clip-rule="evenodd" d="M51.7708 140.217C51.7708 140.217 56.3085 145.371 63.2165 136.426L64.1338 136.507C64.1338 136.507 62.1207 142.603 57.5505 143.22C52.9803 143.837 51.7708 140.217 51.7708 140.217Z" fill="#6D3400"/>
</g>
<path fill-rule="evenodd" clip-rule="evenodd" d="M53.597 8.67736C53.5239 8.67736 58.3539 10.0005 67.6404 9.44041C76.6915 8.92901 79.2404 6.41256 79.3297 6.41256C78.3556 5.35727 77.3003 4.29387 76.1801 3.23047C70.3111 3.9367 64.4908 4.65104 58.4594 5.35727L54.4006 6.57491C54.1734 7.30549 53.8892 7.97925 53.597 8.67736Z" fill="url(#paint32_radial_930_13531)"/>
<path fill-rule="evenodd" clip-rule="evenodd" d="M81.9681 185.332C81.5785 185.332 68.3955 188.417 47.7282 186.753C26.5332 185.129 13.8779 179.682 14.4461 179.682C15.3796 179.682 14.5192 160.07 16.443 138.648C18.0097 117.218 22.3688 94.0015 25.5266 86.7606C32.4671 74.5842 47.9879 69.1536 47.7282 69.1536C54.5469 52.9752 59.8071 36.7969 58.971 20.6267C58.2567 19.8149 57.5261 19.06 56.7711 18.2807C57.0993 14.8067 56.7604 11.3019 55.7727 7.95515C55.6213 7.45749 55.4396 6.96952 55.2288 6.49399C55.448 5.60917 55.6347 4.73247 55.8051 3.84766C62.2424 4.32659 68.4767 4.87047 74.3132 5.35753C75.06 6.33163 75.7582 7.31386 76.4238 8.28797C76.6024 9.39196 76.8703 10.6096 77.1706 11.8272C78.2584 16.0971 79.4598 20.4075 79.4435 20.4075C79.0782 21.0894 78.713 21.7713 78.3395 22.4531C80.8641 38.9156 79.6059 55.378 77.4547 71.8324C77.544 71.8324 84.7606 79.195 87.6504 92.0127C88.6326 104.197 78.5263 185.332 81.9681 185.332Z" fill="url(#paint33_radial_930_13531)"/>
<path fill-rule="evenodd" clip-rule="evenodd" d="M40.8525 165.94C23.627 164.455 18.6104 176.794 17.7662 176.794C17.7662 169.374 16.9138 150.468 19.5033 131.765C21.3282 116.836 24.7295 102.143 29.6503 87.9304C35.9171 77.7997 48.7591 73.059 48.7185 72.9697L51.032 72.0768C52.4526 68.1884 53.8163 64.3082 55.0258 60.428C63.8172 58.9182 71.3746 57.4083 77.4141 55.8984C76.8621 62.3925 76.0017 68.8866 74.9788 75.3238C79.4565 80.1046 82.4413 86.0884 83.5672 92.5412C83.4536 103.963 72.3406 166.703 77.0732 181.778C77.9093 181.77 60.9598 167.556 40.8525 165.94Z" fill="url(#paint34_radial_930_13531)"/>
<path fill-rule="evenodd" clip-rule="evenodd" d="M55.0257 60.4278C55.2611 60.4278 53.4022 62.8063 56.1297 63.4232C58.565 64.0482 65.6679 62.9199 77.414 55.8982C77.1461 55.8982 72.097 55.2001 55.0257 60.4278Z" fill="url(#paint35_radial_930_13531)"/>
<path fill-rule="evenodd" clip-rule="evenodd" d="M53.5972 64.2267C53.3536 65.5743 53.0939 66.9299 52.7854 68.2855C52.7854 68.2855 55.4642 66.9867 57.0471 67.4251C58.004 67.6897 58.8835 68.1796 59.6123 68.8538C59.6123 68.8538 61.1952 65.6635 63.0054 65.0223C64.8156 64.381 65.4975 65.2495 65.5056 65.2495C65.5138 65.2495 67.0642 68.9999 69.3047 68.1881C71.5451 67.3764 71.1717 69.146 71.1798 69.146C71.1879 69.146 72.3325 68.6265 72.8033 69.2109C72.8033 69.2109 71.8698 68.0095 72.4137 67.2708C72.9576 66.5321 73.7531 66.4591 73.956 66.8244C74.3737 66.087 74.9933 65.4843 75.7419 65.0872C76.8784 64.5433 76.6917 65.144 76.6917 65.144C77.7741 57.883 78.4273 50.5645 78.648 43.2266C73.0225 47.1392 65.5543 51.0844 56.5114 55.0214C55.6509 58.0898 54.6606 61.1583 53.5972 64.2267Z" fill="url(#paint36_radial_930_13531)"/>
<path style="mix-blend-mode:multiply" opacity="0.74" fill-rule="evenodd" clip-rule="evenodd" d="M74.3132 5.35938C74.8891 10.1355 75.9973 14.8323 77.6171 19.3622C71.7724 19.005 64.7913 18.6722 56.7874 18.2826C57.5342 19.0943 58.2648 19.8492 58.9791 20.6285C59.2145 20.6285 70.4005 20.4662 72.1296 23.0638C73.5014 24.3626 74.7921 38.4223 72.7059 52.1572C71.0824 65.9003 66.155 79.3105 66.496 79.3105C66.496 79.3105 70.4492 87.1115 68.9313 99.4096C69.4183 105.555 59.8883 127.505 58.6463 147.912C56.1055 168.328 61.8527 187.201 63.0704 187.201C67.8191 186.771 72.641 186.341 77.682 185.902C76.0585 185.902 76.4562 164.983 79.4354 142.741C81.9843 120.499 87.0984 96.9256 85.0041 91.6005C83.1127 80.9827 75.677 72.029 75.6688 72.029C78.3558 55.6559 79.8819 39.2746 77.5278 22.9015L78.3395 22.4306C78.7129 21.7488 79.0782 21.0669 79.4435 20.385C78.2015 16.4075 77.1932 12.3607 76.4238 8.26547C75.7581 7.30218 75.0546 6.33348 74.3132 5.35938Z" fill="url(#paint37_linear_930_13531)"/>
<path fill-rule="evenodd" clip-rule="evenodd" d="M28.1565 100.659C28.1565 100.659 30.9814 88.2226 36.2172 81.9883H44.5134C44.5134 81.9883 37.9057 93.6289 35.4785 101.308L28.1565 100.659Z" fill="white"/>
<path style="mix-blend-mode:screen" opacity="0.5" fill-rule="evenodd" clip-rule="evenodd" d="M28.1565 100.66C21.8248 123.998 18.6021 147.336 20.4854 170.674C22.531 170.91 24.7228 171.153 27.0688 171.389C23.0506 148.034 28.0347 124.68 35.4786 101.326L28.1565 100.66Z" fill="url(#paint38_linear_930_13531)"/>
<g style="mix-blend-mode:soft-light">
<path fill-rule="evenodd" clip-rule="evenodd" d="M81.9761 185.336C78.4856 185.79 75.1411 186.253 71.8941 186.716C63.1758 159.668 69.1504 132.62 74.443 105.54C74.3943 105.54 83.1938 101.814 87.6665 95.6445C86.246 125.566 79.8493 155.447 81.9761 185.336Z" fill="white"/>
</g>
<path fill-rule="evenodd" clip-rule="evenodd" d="M57.2095 15.6016C60.0019 15.8289 62.6807 16.048 65.2378 16.2753C65.3027 17.014 65.3676 17.7527 65.4163 18.4833L57.3231 18.0206C57.3231 17.217 57.2582 16.4052 57.2095 15.6016Z" fill="white"/>
<path style="mix-blend-mode:screen" opacity="0.5" fill-rule="evenodd" clip-rule="evenodd" d="M47.9961 71.4365C51.097 71.68 54.0735 71.9235 56.9254 72.167C62.7457 55.9319 66.7233 39.6967 65.2459 23.4048C63.6224 22.869 61.8528 22.3414 60.0669 21.7812C60.7163 38.3573 55.099 54.901 47.9961 71.4365Z" fill="url(#paint39_linear_930_13531)"/>
<path fill-rule="evenodd" clip-rule="evenodd" d="M67.0643 18.7769C66.9181 17.9651 66.772 17.194 66.6016 16.3984L68.7284 16.5933C68.8745 17.3563 69.0206 18.1194 69.1424 18.8824L67.0643 18.7769Z" fill="white"/>
<g style="mix-blend-mode:soft-light">
<path fill-rule="evenodd" clip-rule="evenodd" d="M75.0032 75.3256L72.0078 75.0252C74.7921 62.1913 76.8053 49.3493 76.6186 36.5317C77.6414 35.7686 78.6155 34.9974 79.5409 34.2344C80.2066 46.776 79.0945 59.3177 77.4547 71.8593C76.6754 72.9958 75.8555 74.1647 75.0032 75.3256Z" fill="white"/>
</g>
<g style="mix-blend-mode:soft-light">
<path fill-rule="evenodd" clip-rule="evenodd" d="M21.3215 179.84C21.3215 179.84 27.288 183.46 46.5347 184.873C65.473 186.334 73.2172 183.111 73.3714 183.111C73.3146 183.111 63.8576 184.873 46.1694 183.655C28.3351 182.429 21.3134 179.84 21.3215 179.84Z" fill="white"/>
</g>
<path opacity="0.5" fill-rule="evenodd" clip-rule="evenodd" d="M63.3138 83.614C63.0743 84.317 62.6188 84.9263 62.0123 85.3549C61.4059 85.7835 60.6795 86.0095 59.9369 86.0006C58.565 85.8788 57.8588 84.6206 58.3702 83.1757C58.6165 82.4754 59.0748 81.8694 59.6815 81.4416C60.2881 81.0139 61.013 80.7858 61.7553 80.7891C63.1028 80.8946 63.8171 82.1529 63.3138 83.614Z" fill="url(#paint40_radial_930_13531)"/>
<path style="mix-blend-mode:multiply" opacity="0.5" fill-rule="evenodd" clip-rule="evenodd" d="M31.2655 156.865C31.3061 158.31 30.3726 159.382 29.1955 159.26C28.5627 159.116 28.0005 158.754 27.6073 158.238C27.2141 157.722 27.0149 157.083 27.0444 156.435C27.0444 154.998 27.9211 153.927 29.0819 154.048C29.7163 154.191 30.2812 154.551 30.6796 155.065C31.078 155.579 31.2852 156.215 31.2655 156.865Z" fill="url(#paint41_linear_930_13531)"/>
<path style="mix-blend-mode:multiply" opacity="0.5" fill-rule="evenodd" clip-rule="evenodd" d="M43.3122 147.337C43.269 147.761 43.061 148.151 42.733 148.423C42.405 148.694 41.9833 148.827 41.5588 148.79C41.1396 148.749 40.7528 148.546 40.4802 148.225C40.2075 147.904 40.0704 147.49 40.0977 147.069C40.1332 146.639 40.3383 146.24 40.6679 145.961C40.9975 145.681 41.4245 145.544 41.8551 145.58C42.2857 145.615 42.6845 145.82 42.9639 146.15C43.2432 146.48 43.3802 146.907 43.3447 147.337H43.3122Z" fill="url(#paint42_linear_930_13531)"/>
<path fill-rule="evenodd" clip-rule="evenodd" d="M57.1038 112.217C56.96 112.607 56.6962 112.941 56.3506 113.171C56.0049 113.402 55.5951 113.517 55.18 113.5C55.0056 113.495 54.8349 113.449 54.682 113.365C54.5291 113.281 54.3983 113.162 54.3007 113.018C54.2031 112.873 54.1413 112.707 54.1206 112.534C54.0998 112.361 54.1207 112.186 54.1815 112.022C54.3234 111.634 54.5844 111.301 54.9271 111.071C55.2697 110.841 55.6765 110.725 56.0891 110.74C56.2635 110.745 56.4342 110.792 56.5872 110.875C56.7403 110.959 56.8716 111.078 56.9703 111.221C57.0691 111.365 57.1327 111.53 57.1559 111.703C57.179 111.876 57.1612 112.052 57.1038 112.217Z" fill="url(#paint43_radial_930_13531)"/>
<path fill-rule="evenodd" clip-rule="evenodd" d="M53.313 97.7276C53.1128 98.2566 52.7545 98.7111 52.2868 99.0292C51.8191 99.3473 51.2647 99.5136 50.6991 99.5054C50.4605 99.491 50.2293 99.417 50.0267 99.2901C49.8241 99.1633 49.6565 98.9876 49.5394 98.7792C49.4223 98.5708 49.3593 98.3364 49.3563 98.0973C49.3533 97.8583 49.4103 97.6223 49.5221 97.411C49.7205 96.8818 50.077 96.4265 50.5432 96.1069C51.0094 95.7874 51.5627 95.6192 52.1278 95.6252C52.3674 95.6396 52.5995 95.7139 52.803 95.8412C53.0065 95.9685 53.1748 96.1447 53.2927 96.3538C53.4106 96.5629 53.4742 96.7981 53.4777 97.0381C53.4813 97.2781 53.4246 97.5151 53.313 97.7276Z" fill="url(#paint44_radial_930_13531)"/>
<path fill-rule="evenodd" clip-rule="evenodd" d="M59.1982 80.3071C59.1417 80.4751 59.0318 80.62 58.8852 80.7197C58.7386 80.8193 58.5634 80.8683 58.3864 80.8591C58.3125 80.8524 58.2414 80.8278 58.1792 80.7874C58.117 80.747 58.0657 80.6919 58.0296 80.6271C57.9936 80.5622 57.974 80.4895 57.9725 80.4153C57.971 80.3412 57.9877 80.2678 58.0211 80.2015C58.0776 80.0335 58.1875 79.8886 58.3341 79.7889C58.4807 79.6893 58.6559 79.6403 58.8329 79.6495C58.9068 79.6562 58.9779 79.6808 59.0401 79.7212C59.1023 79.7616 59.1537 79.8167 59.1897 79.8815C59.2257 79.9464 59.2453 80.0191 59.2468 80.0932C59.2483 80.1674 59.2316 80.2408 59.1982 80.3071Z" fill="url(#paint45_radial_930_13531)"/>
<path fill-rule="evenodd" clip-rule="evenodd" d="M70.7089 64.7978C70.6806 64.952 70.5995 65.0914 70.4795 65.1921C70.3595 65.2929 70.2081 65.3486 70.0514 65.3498C69.981 65.3383 69.914 65.3109 69.8557 65.2698C69.7974 65.2286 69.7492 65.1746 69.7148 65.1121C69.6804 65.0495 69.6606 64.9799 69.6571 64.9086C69.6535 64.8373 69.6662 64.7661 69.6942 64.7004C69.724 64.547 69.8055 64.4085 69.9252 64.308C70.0449 64.2075 70.1955 64.1512 70.3518 64.1484C70.4222 64.1599 70.4892 64.1873 70.5475 64.2285C70.6058 64.2697 70.654 64.3236 70.6884 64.3862C70.7228 64.4488 70.7426 64.5183 70.7461 64.5897C70.7497 64.661 70.737 64.7322 70.7089 64.7978Z" fill="url(#paint46_radial_930_13531)"/>
<path fill-rule="evenodd" clip-rule="evenodd" d="M66.0332 64.9424C65.9961 65.1012 65.9059 65.2425 65.7774 65.343C65.6489 65.4434 65.49 65.4968 65.3269 65.4944C65.255 65.4846 65.1863 65.4587 65.1259 65.4185C65.0656 65.3783 65.0151 65.325 64.9783 65.2624C64.9416 65.1999 64.9195 65.1298 64.9138 65.0575C64.9081 64.9852 64.9189 64.9125 64.9454 64.845C64.9854 64.6862 65.0776 64.5456 65.2071 64.4455C65.3366 64.3454 65.496 64.2917 65.6597 64.293C65.7316 64.3023 65.8004 64.3281 65.8607 64.3684C65.921 64.4087 65.9712 64.4624 66.0073 64.5252C66.0434 64.5881 66.0646 64.6584 66.0691 64.7308C66.0736 64.8031 66.0613 64.8756 66.0332 64.9424Z" fill="url(#paint47_radial_930_13531)"/>
<path fill-rule="evenodd" clip-rule="evenodd" d="M63.1677 70.3724C63.0868 70.6784 62.9066 70.9488 62.6553 71.1413C62.4041 71.3338 62.0961 71.4374 61.7796 71.4358C61.6437 71.4204 61.5132 71.3733 61.3988 71.2985C61.2843 71.2236 61.1889 71.1229 61.1203 71.0046C61.0516 70.8863 61.0117 70.7535 61.0035 70.617C60.9954 70.4804 61.0193 70.3439 61.0734 70.2182C61.1645 69.9198 61.3497 69.659 61.6014 69.4746C61.8531 69.2903 62.1576 69.1923 62.4696 69.1954C62.6011 69.2107 62.7273 69.2562 62.8384 69.3283C62.9495 69.4004 63.0424 69.4972 63.11 69.6111C63.1775 69.725 63.2179 69.853 63.2279 69.985C63.2379 70.1171 63.2173 70.2497 63.1677 70.3724Z" fill="url(#paint48_radial_930_13531)"/>
<path fill-rule="evenodd" clip-rule="evenodd" d="M25.9729 137.336C25.8268 138.407 25.08 139.203 24.3494 139.114C23.6188 139.024 23.1074 138.083 23.2454 137.011C23.3834 135.94 24.0572 135.144 24.869 135.233C25.6807 135.323 26.1272 136.264 25.9729 137.336Z" fill="url(#paint49_radial_930_13531)"/>
<path fill-rule="evenodd" clip-rule="evenodd" d="M51.7055 108.922C51.5674 109.305 51.3119 109.636 50.9753 109.866C50.6387 110.096 50.2381 110.215 49.8304 110.204C49.6566 110.195 49.4877 110.144 49.3386 110.054C49.1894 109.965 49.0644 109.84 48.9747 109.691C48.8849 109.542 48.8331 109.373 48.8238 109.199C48.8145 109.025 48.8479 108.852 48.9212 108.694C49.0624 108.307 49.3234 107.974 49.6664 107.745C50.0095 107.516 50.4167 107.402 50.8288 107.42C50.9995 107.432 51.1645 107.486 51.3097 107.577C51.4548 107.668 51.5758 107.792 51.6621 107.94C51.7483 108.088 51.7974 108.255 51.8049 108.425C51.8125 108.596 51.7784 108.767 51.7055 108.922Z" fill="url(#paint50_radial_930_13531)"/>
<path fill-rule="evenodd" clip-rule="evenodd" d="M55.2288 6.49674L66.082 6.57791L67.2752 5.2304C63.8172 4.87322 60.1967 4.59723 56.5113 4.29688C56.1136 5.01934 55.6996 5.7418 55.2288 6.49674Z" fill="white"/>
<path fill-rule="evenodd" clip-rule="evenodd" d="M58.7842 31.8714C64.9638 28.482 71.7432 26.3261 78.7453 25.5234C79.5328 32.081 79.8394 38.6874 79.6626 45.2897C70.3914 48.6832 61.3321 52.6301 52.5337 57.1089C55.6082 48.9733 57.7064 40.5015 58.7842 31.8714Z" fill="url(#paint51_linear_930_13531)"/>
<path d="M62.7051 45.4597C62.5504 45.5197 62.3826 45.5379 62.2187 45.5122C62.0548 45.4865 61.9005 45.418 61.7716 45.3136C61.4982 45.0431 61.3238 44.6886 61.2764 44.307L61.0329 45.7925L59.9045 46.101C60.6355 42.1337 61.11 38.1234 61.3251 34.0951L62.4535 33.8516C62.3885 35.4751 62.2803 37.0824 62.1288 38.6734C62.3094 38.1946 62.5611 37.7458 62.8756 37.3421C63.1064 37.0284 63.4347 36.8 63.8091 36.6927C63.9394 36.656 64.0766 36.6508 64.2093 36.6776C64.3419 36.7044 64.4663 36.7625 64.5721 36.8469C64.8179 37.0519 65.0054 37.3179 65.116 37.6181C65.2847 38.0139 65.3941 38.4324 65.4407 38.8601C65.4943 39.4 65.4943 39.9438 65.4407 40.4836C65.3873 41.0702 65.273 41.6497 65.0998 42.2127C64.9516 42.7324 64.7447 43.2335 64.4829 43.7063C64.2676 44.1193 63.9942 44.4993 63.6711 44.8346C63.408 45.1224 63.0754 45.3376 62.7051 45.4597ZM62.6402 43.7225C62.8555 43.6509 63.0504 43.5283 63.2084 43.3654C63.3998 43.1712 63.5612 42.9496 63.6873 42.7078C63.8383 42.4353 63.9581 42.1467 64.0445 41.8474C64.1436 41.5277 64.2089 41.1985 64.2393 40.8651C64.2759 40.5523 64.2759 40.2363 64.2393 39.9235C64.2196 39.6649 64.1621 39.4106 64.0689 39.1686C64.0012 38.9897 63.8861 38.8326 63.736 38.714C63.673 38.6638 63.5987 38.6295 63.5196 38.6139C63.4405 38.5984 63.3588 38.6021 63.2814 38.6247C62.961 38.746 62.6956 38.9797 62.5346 39.2822C62.2823 39.6902 62.078 40.1261 61.9258 40.581C61.8446 41.2629 61.7635 41.9367 61.6661 42.6185C61.6768 42.8011 61.7123 42.9813 61.7716 43.1543C61.8213 43.2886 61.8956 43.4125 61.9908 43.5196C62.0704 43.6117 62.1745 43.6793 62.2911 43.7144C62.4079 43.7424 62.5306 43.731 62.6402 43.6819V43.7225Z" fill="white"/>
<path d="M67.876 43.8346C67.5714 43.9579 67.2308 43.9579 66.9262 43.8346C66.6398 43.6898 66.411 43.4524 66.2768 43.1609C66.0898 42.785 65.9742 42.3776 65.9359 41.9595C65.8785 41.4388 65.8785 40.9134 65.9359 40.3928C65.9816 39.818 66.0739 39.2479 66.2118 38.6881C66.3395 38.1771 66.5162 37.6796 66.7395 37.2026C66.9329 36.7969 67.1815 36.4199 67.4782 36.0824C67.7227 35.8031 68.0404 35.5978 68.3955 35.4898C68.54 35.44 68.6932 35.4209 68.8456 35.4334C68.9979 35.446 69.1459 35.4901 69.2803 35.5628C69.5596 35.7306 69.7871 35.9721 69.9378 36.2609C70.1221 36.6117 70.2482 36.99 70.3112 37.3812C70.4011 37.8709 70.4365 38.3691 70.4168 38.8667C70.4168 39.0047 70.4168 39.1264 70.4168 39.2482C70.4229 39.3509 70.4229 39.4539 70.4168 39.5567C69.3615 39.9057 68.2575 40.2629 67.121 40.612C67.1093 40.8838 67.1283 41.1561 67.1778 41.4237C67.2138 41.6179 67.2824 41.8045 67.3808 41.9757C67.458 42.104 67.5748 42.2037 67.7136 42.2598C67.8446 42.3083 67.9885 42.3083 68.1195 42.2598C68.3843 42.162 68.6134 41.9866 68.777 41.7565C68.9933 41.4874 69.1484 41.1744 69.2316 40.8393L70.1326 41.0097C69.9529 41.6449 69.6586 42.2419 69.2641 42.7712C68.9276 43.2656 68.4408 43.6384 67.876 43.8346ZM69.3534 38.6232C69.3772 38.1577 69.2733 37.6945 69.053 37.2838C68.9911 37.1523 68.8843 37.0474 68.7518 36.9878C68.6193 36.9283 68.4699 36.9181 68.3305 36.959C68.177 37.0171 68.0384 37.1086 67.9247 37.2269C67.7854 37.3776 67.6679 37.547 67.5756 37.7302C67.4642 37.9566 67.3745 38.1931 67.3077 38.4364C67.2265 38.7175 67.1721 39.0056 67.1454 39.2969L69.3534 38.6232Z" fill="white"/>
<path d="M72.7465 42.0503C72.6081 42.1102 72.459 42.1411 72.3082 42.1411C72.1574 42.1411 72.0082 42.1102 71.8698 42.0503C71.5932 41.9181 71.3679 41.6984 71.2285 41.4253C71.0415 41.07 70.9153 40.6858 70.8551 40.2888C70.7782 39.7949 70.7483 39.2948 70.7658 38.7952C70.7865 38.2501 70.8489 37.7073 70.9526 37.1717C71.0472 36.683 71.1885 36.2046 71.3747 35.743C71.532 35.3492 71.7453 34.9801 72.0078 34.6471C72.2164 34.3763 72.4981 34.1707 72.8196 34.0545C72.9509 34.0062 73.0909 33.9856 73.2306 33.994C73.3703 34.0024 73.5067 34.0396 73.6313 34.1032C73.8962 34.2598 74.1147 34.4839 74.2645 34.7526C74.4552 35.095 74.5921 35.4646 74.6704 35.8485C74.7739 36.3149 74.8256 36.7913 74.8246 37.2691C74.8328 37.388 74.8328 37.5073 74.8246 37.6263C74.8339 37.7262 74.8339 37.8267 74.8246 37.9266C73.8668 38.2919 72.8683 38.6572 71.8374 39.0225C71.8353 39.2956 71.8652 39.5681 71.9267 39.8342C71.9655 40.02 72.0399 40.1964 72.1458 40.3538C72.2197 40.4749 72.3308 40.5689 72.4624 40.6217C72.5829 40.6664 72.7154 40.6664 72.8358 40.6217C73.0748 40.5132 73.2776 40.3386 73.4203 40.1184C73.6033 39.8487 73.7302 39.5451 73.7937 39.2254L74.6055 39.3634C74.4718 39.97 74.2298 40.5475 73.8911 41.0681C73.6194 41.5052 73.2198 41.8481 72.7465 42.0503ZM73.8586 37.0499C73.8646 36.6065 73.7526 36.1694 73.5339 35.7836C73.4755 35.6603 73.3734 35.5631 73.2475 35.5107C73.1216 35.4582 72.9807 35.4542 72.8521 35.4995C72.7083 35.5501 72.5817 35.6401 72.4868 35.7592C72.3638 35.9093 72.2626 36.076 72.1864 36.2544C72.0893 36.4733 72.0159 36.7018 71.9672 36.9363C71.9072 37.2033 71.8692 37.4748 71.8536 37.748L73.8586 37.0499Z" fill="white"/>
<path d="M77.4871 34.2023C77.2002 34.3331 76.9576 34.5446 76.789 34.8111C76.566 35.154 76.4219 35.5422 76.3669 35.9475C76.4102 37.4412 76.4264 38.9348 76.4156 40.4284L75.4577 40.8424C75.4956 38.3422 75.455 35.8474 75.3359 33.358L76.1477 33.0577C76.1477 33.5853 76.2045 34.113 76.2289 34.6325C76.2749 34.3744 76.3372 34.1196 76.4156 33.8694C76.4814 33.6528 76.5628 33.4412 76.6591 33.2363C76.7276 33.0759 76.8177 32.9257 76.927 32.7898C76.992 32.6894 77.0852 32.6103 77.1949 32.5625H77.3004H77.3734C77.4222 33.0739 77.4546 33.634 77.4871 34.2023Z" fill="white"/>
<path fill-rule="evenodd" clip-rule="evenodd" d="M19.9254 180.642C19.6386 178.748 19.3842 176.854 19.1624 174.96C19.2516 174.96 24.3982 168.287 27.7183 167.93C28.1628 172.876 28.9083 177.791 29.9506 182.647C29.8532 182.647 20.656 181.632 19.9254 180.642Z" fill="white"/>
<path style="mix-blend-mode:screen" opacity="0.5" fill-rule="evenodd" clip-rule="evenodd" d="M54.1977 174.358C55.0095 177.954 48.9538 180.316 40.8687 179.643C32.6456 178.969 26.257 175.503 25.8512 171.915C25.4453 168.327 29.91 165.948 37.6379 166.622C45.3658 167.296 53.3779 170.762 54.1977 174.358Z" fill="url(#paint52_radial_930_13531)"/>
<path style="mix-blend-mode:screen" opacity="0.5" fill-rule="evenodd" clip-rule="evenodd" d="M47.8661 173.872C48.4262 176.031 44.822 177.451 40.0164 177.045C35.2108 176.64 31.1926 174.529 30.7867 172.402C30.3808 170.275 33.4249 168.814 38.0925 169.22C42.7601 169.626 47.3222 171.704 47.8661 173.872Z" fill="url(#paint53_radial_930_13531)"/>
<path style="mix-blend-mode:multiply" opacity="0.74" fill-rule="evenodd" clip-rule="evenodd" d="M56.3163 10.0016C56.3163 10.0016 69.1989 8.21576 77.1704 11.8281C76.9431 10.6429 76.6914 9.46586 76.4236 8.28881C75.1329 6.49483 73.7123 4.68461 72.1456 2.89062L60.8703 3.4345C59.0195 4.44108 57.1606 5.44766 55.188 6.45424C55.6263 7.63941 55.9916 8.82457 56.3163 10.0016Z" fill="url(#paint54_linear_930_13531)"/>
<path fill-rule="evenodd" clip-rule="evenodd" d="M53.5971 8.679C53.5971 8.679 52.1359 5.55373 52.6554 2.77752C59.6638 0.133154 67.2706 -0.504964 74.6216 0.934832C76.751 2.1936 78.4059 4.11952 79.3298 6.4142C78.794 6.21937 78.242 6.02455 77.7063 5.83785L75.8554 6.04079L75.4415 7.25031C74.9544 6.9256 74.4511 6.6009 73.9397 6.2762L69.9621 6.7389L69.3289 7.81042L67.8759 6.91749L64.1012 7.30713C63.9632 7.63183 63.8171 7.96465 63.671 8.28936L62.2991 7.4776L58.013 7.90783L57.6802 8.78453L56.5924 8.11889H54.2221L53.5971 8.679Z" fill="url(#paint55_radial_930_13531)"/>
<path fill-rule="evenodd" clip-rule="evenodd" d="M52.6555 2.77936C59.8746 1.26901 67.2518 0.650154 74.6217 0.936674C74.7678 0.936674 62.6158 -1.83954 52.6555 2.77936Z" fill="#44C62F"/>
<path fill-rule="evenodd" clip-rule="evenodd" d="M54.2222 8.15965C54.0382 6.34131 53.7676 4.52568 53.4104 2.71276C53.4104 2.71276 54.4251 2.10394 59.7015 1.625C61.1627 3.86545 62.4859 6.1032 63.671 8.33824L62.2991 7.52648L58.0131 7.95671L57.6802 8.83341L56.5925 8.11906L54.2222 8.15965Z" fill="#44C62F"/>
<path fill-rule="evenodd" clip-rule="evenodd" d="M78.5831 6.14752C77.2356 4.42659 75.7392 2.70296 74.0941 0.976622L70.9932 0.871094C72.0566 2.6732 73.0226 4.4753 73.9074 6.2774C74.4188 6.6021 74.9221 6.92681 75.4091 7.25151L75.8231 6.04199L78.5831 6.14752Z" fill="#44C62F"/>
<path d="M50.5612 181.495C50.5125 182.072 49.4166 182.453 48.1259 182.307C46.8352 182.161 45.8043 181.642 45.853 181.065C45.9017 180.489 46.9976 180.107 48.2882 180.213C49.5789 180.318 50.6099 180.911 50.5612 181.495Z" fill="url(#paint56_radial_930_13531)"/>
<path d="M50.0904 181.455C50.0498 181.918 49.1731 182.218 48.134 182.137C47.095 182.056 46.2751 181.601 46.3076 181.139C46.34 180.676 47.2249 180.368 48.272 180.457C49.3192 180.546 50.131 181.025 50.0904 181.455Z" fill="url(#paint57_radial_930_13531)"/>
<path d="M49.6194 181.414C49.6194 181.763 48.9294 181.99 48.1501 181.926C47.3708 181.861 46.7539 181.528 46.7864 181.179C46.8189 180.83 47.4683 180.602 48.2557 180.667C49.0431 180.732 49.6438 181.065 49.6194 181.414Z" fill="url(#paint58_radial_930_13531)"/>
<path d="M49.1488 181.375C49.1488 181.602 48.6861 181.756 48.1665 181.716C47.647 181.675 47.233 181.448 47.2574 181.221C47.2817 180.993 47.712 180.831 48.2315 180.88C48.751 180.928 49.2056 181.14 49.1488 181.375Z" fill="url(#paint59_radial_930_13531)"/>
<path d="M48.6699 181.332C48.6699 181.446 48.4426 181.527 48.1828 181.503C47.9231 181.478 47.7201 181.373 47.7283 181.251C47.7364 181.129 47.9556 181.064 48.2153 181.081C48.4751 181.097 48.6861 181.219 48.6699 181.332Z" fill="url(#paint60_radial_930_13531)"/>
<path style="mix-blend-mode:multiply" opacity="0.74" fill-rule="evenodd" clip-rule="evenodd" d="M17.409 179.807C17.0112 179.807 40.5928 176.219 74.021 185.222C74.8165 185.222 38.8151 188.997 17.409 179.807Z" fill="url(#paint61_linear_930_13531)"/>
<path fill-rule="evenodd" clip-rule="evenodd" d="M32.67 175.545C32.459 175.545 41.7049 177.112 54.9609 178.792C56 178.922 45.0088 173.792 32.67 175.545Z" fill="white"/>
<path fill-rule="evenodd" clip-rule="evenodd" d="M59.6365 179.759C59.6365 179.759 64.1661 179.442 66.5851 181.293C64.2335 180.958 61.9106 180.445 59.6365 179.759Z" fill="white"/>
<path style="mix-blend-mode:multiply" opacity="0.74" d="M72.9475 128.523C73.202 123.064 69.6872 118.465 65.0969 118.251C60.5066 118.037 56.5791 122.289 56.3245 127.748C56.0699 133.207 59.5847 137.806 64.175 138.02C68.7653 138.234 72.6929 133.983 72.9475 128.523Z" fill="url(#paint62_linear_930_13531)"/>
<path style="mix-blend-mode:multiply" opacity="0.74" d="M43.0556 127.223C43.3102 121.764 39.7954 117.165 35.2051 116.95C30.6148 116.736 26.6872 120.988 26.4326 126.447C26.1781 131.907 29.6929 136.506 34.2832 136.72C38.8735 136.934 42.801 132.682 43.0556 127.223Z" fill="url(#paint63_linear_930_13531)"/>
<path fill-rule="evenodd" clip-rule="evenodd" d="M42.614 127.218C42.5486 128.713 42.158 130.176 41.4695 131.505C40.0489 134.224 37.4675 135.985 34.602 135.847C31.4848 135.709 28.9197 133.347 27.8887 130.1C27.5198 128.922 27.3605 127.689 27.4179 126.455C27.4179 126.269 27.4179 126.09 27.4179 125.912C27.8806 121.179 31.3712 117.583 35.4137 117.794C39.4563 118.005 42.6627 121.966 42.6059 126.788C42.6303 126.951 42.614 127.089 42.614 127.218Z" fill="url(#paint64_radial_930_13531)"/>
<path fill-rule="evenodd" clip-rule="evenodd" d="M39.1071 126.772C38.9772 129.508 37.0128 131.642 34.7155 131.521C32.4182 131.399 30.6567 129.085 30.7947 126.39C30.9327 123.695 32.8809 121.52 35.1782 121.642C37.4755 121.763 39.2289 124.044 39.1071 126.772Z" fill="#192A3E"/>
<path fill-rule="evenodd" clip-rule="evenodd" d="M71.8536 128.544C71.7961 129.952 71.4508 131.333 70.8389 132.603C69.4589 135.485 66.7801 137.376 63.8416 137.238C60.903 137.1 58.4109 134.965 57.2907 131.978C56.8018 130.658 56.589 129.251 56.6656 127.846C56.6656 127.481 56.7224 127.123 56.763 126.774C57.4206 122.294 60.8218 118.965 64.6939 119.152C68.8663 119.371 72.0728 123.568 71.8536 128.544Z" fill="url(#paint65_radial_930_13531)"/>
<path fill-rule="evenodd" clip-rule="evenodd" d="M67.1292 127.893C66.9993 130.621 65.0348 132.764 62.7457 132.642C60.4565 132.52 58.6869 130.207 58.8168 127.504C58.9467 124.801 60.9111 122.633 63.2003 122.755C65.4894 122.877 67.2591 125.166 67.1292 127.893Z" fill="#192A3E"/>
<path fill-rule="evenodd" clip-rule="evenodd" d="M68.0138 130.693C68.0039 130.934 67.9228 131.167 67.7806 131.361C67.6384 131.556 67.4417 131.704 67.2153 131.787C66.9888 131.87 66.7429 131.884 66.5087 131.826C66.2745 131.769 66.0625 131.644 65.8996 131.466C65.7367 131.288 65.6303 131.066 65.5937 130.828C65.5571 130.59 65.5921 130.346 65.6942 130.128C65.7963 129.909 65.9609 129.726 66.1672 129.601C66.3735 129.477 66.6122 129.416 66.853 129.427C67.0126 129.433 67.1694 129.471 67.3143 129.538C67.4592 129.605 67.5894 129.701 67.6973 129.818C67.8052 129.936 67.8888 130.074 67.9431 130.224C67.9974 130.374 68.0215 130.534 68.0138 130.693Z" fill="white"/>
<path fill-rule="evenodd" clip-rule="evenodd" d="M39.4075 130.014C39.3944 130.252 39.3111 130.482 39.168 130.673C39.0249 130.864 38.8285 131.008 38.6034 131.088C38.3784 131.168 38.1348 131.179 37.9033 131.12C37.6718 131.062 37.4629 130.936 37.3027 130.759C37.1426 130.582 37.0384 130.362 37.0033 130.125C36.9683 129.889 37.0039 129.648 37.1057 129.432C37.2075 129.216 37.3709 129.035 37.5754 128.912C37.7799 128.789 38.0163 128.729 38.2548 128.74C38.5764 128.756 38.8782 128.9 39.0943 129.139C39.3103 129.378 39.4229 129.692 39.4075 130.014Z" fill="white"/>
<path fill-rule="evenodd" clip-rule="evenodd" d="M71.8534 128.543C67.1208 126.108 57.8343 126.716 56.7466 126.806C57.4041 122.325 60.8054 118.997 64.6775 119.183C68.8661 119.37 72.0726 123.567 71.8534 128.543Z" fill="url(#paint66_radial_930_13531)"/>
<path fill-rule="evenodd" clip-rule="evenodd" d="M42.6221 126.821C36.8261 124.873 29.7801 125.636 27.4341 126.009C27.8968 121.277 31.3873 117.681 35.4299 117.892C39.4724 118.103 42.7114 121.999 42.6221 126.821Z" fill="url(#paint67_radial_930_13531)"/>
<path fill-rule="evenodd" clip-rule="evenodd" d="M27.4342 125.972C27.2599 126.418 27.2599 126.914 27.4342 127.36C27.4342 127.36 35.7304 125.68 42.6547 126.824C37.7466 125.195 32.4935 124.901 27.4342 125.972Z" fill="#6D4A00"/>
<path fill-rule="evenodd" clip-rule="evenodd" d="M56.7466 126.806C56.7466 126.806 65.8545 125.662 71.8534 128.544C71.8413 129.129 71.7679 129.711 71.6342 130.281C71.6342 130.281 69.1502 126.871 56.7466 126.806Z" fill="#6D4A00"/>
<path fill-rule="evenodd" clip-rule="evenodd" d="M27.8643 113.519C30.1386 110.853 33.1665 108.937 36.5501 108.023L37.1102 111.27C34.2154 111.863 31.4825 113.073 29.0981 114.818L27.8643 113.519Z" fill="#6D3400"/>
<path fill-rule="evenodd" clip-rule="evenodd" d="M71.8617 111.449C70.2218 108.695 67.7687 106.517 64.84 105.215L64.0769 108.405C66.579 109.272 68.8405 110.718 70.6765 112.626L71.8617 111.449Z" fill="#6D3400"/>
<path fill-rule="evenodd" clip-rule="evenodd" d="M45.9585 142.488C45.9585 142.488 47.7281 144.769 50.3826 144.493C53.037 144.217 55.4317 139.371 55.4317 139.371C55.4317 139.371 50.9589 143.682 45.9585 142.488Z" fill="url(#paint68_radial_930_13531)"/>
<path fill-rule="evenodd" clip-rule="evenodd" d="M44.3918 140.435C44.3918 140.435 48.9215 145.59 55.8295 136.645L56.7468 136.718C56.7468 136.718 54.7336 142.814 50.1634 143.439C45.5932 144.064 44.3918 140.435 44.3918 140.435Z" fill="#6D3400"/>
<defs>
<radialGradient id="paint0_radial_930_13531" cx="0" cy="0" r="1" gradientUnits="userSpaceOnUse" gradientTransform="translate(73.8506 6.22896) scale(9.3758)">
<stop offset="0.01" stop-color="#449F2F"/>
<stop offset="0.36" stop-color="#449C2F"/>
<stop offset="0.65" stop-color="#44912F"/>
<stop offset="0.93" stop-color="#44802F"/>
<stop offset="1" stop-color="#447A2F"/>
</radialGradient>
<radialGradient id="paint1_radial_930_13531" cx="0" cy="0" r="1" gradientUnits="userSpaceOnUse" gradientTransform="translate(67.3162 58.716) rotate(4.76) scale(82.9698)">
<stop stop-color="#90A0B7"/>
<stop offset="0.05" stop-color="#94A4BB"/>
<stop offset="0.41" stop-color="#ADBCCF"/>
<stop offset="0.73" stop-color="#BDCADC"/>
<stop offset="0.99" stop-color="#C2CFE0"/>
</radialGradient>
<radialGradient id="paint2_radial_930_13531" cx="0" cy="0" r="1" gradientUnits="userSpaceOnUse" gradientTransform="translate(58.2701 155.026) rotate(4.76) scale(95.5114 95.5114)">
<stop offset="0.01" stop-color="#FFCD00"/>
<stop offset="0.25" stop-color="#FECA00"/>
<stop offset="0.47" stop-color="#FBBF00"/>
<stop offset="0.66" stop-color="#F5AE00"/>
<stop offset="0.85" stop-color="#ED9500"/>
<stop offset="1" stop-color="#E57C00"/>
</radialGradient>
<radialGradient id="paint3_radial_930_13531" cx="0" cy="0" r="1" gradientUnits="userSpaceOnUse" gradientTransform="translate(74.0342 62.3649) rotate(4.76) scale(26.4714 26.4714)">
<stop offset="0.01" stop-color="#FFD700"/>
<stop offset="0.2" stop-color="#FED400"/>
<stop offset="0.37" stop-color="#FBC900"/>
<stop offset="0.52" stop-color="#F6B800"/>
<stop offset="0.67" stop-color="#EF9F00"/>
<stop offset="0.81" stop-color="#E67F00"/>
<stop offset="0.82" stop-color="#E57C00"/>
</radialGradient>
<radialGradient id="paint4_radial_930_13531" cx="0" cy="0" r="1" gradientUnits="userSpaceOnUse" gradientTransform="translate(73.2395 55.568) rotate(4.76) scale(12.7852)">
<stop offset="0.01" stop-color="white"/>
<stop offset="0.36" stop-color="#FDFCFC"/>
<stop offset="0.67" stop-color="#F6F1F4"/>
<stop offset="0.95" stop-color="#EBE0E5"/>
<stop offset="1" stop-color="#E9DCE2"/>
</radialGradient>
<linearGradient id="paint5_linear_930_13531" x1="67.7611" y1="186.803" x2="82.8776" y2="5.26503" gradientUnits="userSpaceOnUse">
<stop stop-color="white"/>
<stop offset="1" stop-color="#90A0B7"/>
</linearGradient>
<linearGradient id="paint6_linear_930_13531" x1="31.3189" y1="170.94" x2="37.1753" y2="100.609" gradientUnits="userSpaceOnUse">
<stop/>
<stop offset="0.07" stop-color="#2A1B07"/>
<stop offset="0.16" stop-color="#5B3C10"/>
<stop offset="0.26" stop-color="#875817"/>
<stop offset="0.36" stop-color="#AC711E"/>
<stop offset="0.47" stop-color="#CA8423"/>
<stop offset="0.58" stop-color="#E29427"/>
<stop offset="0.7" stop-color="#F29F2A"/>
<stop offset="0.83" stop-color="#FCA52B"/>
<stop offset="0.99" stop-color="#FFA72C"/>
</linearGradient>
<linearGradient id="paint7_linear_930_13531" x1="57.4826" y1="46.1185" x2="71.8092" y2="47.3115" gradientUnits="userSpaceOnUse">
<stop offset="0.01" stop-color="#FFA72C"/>
<stop offset="0.17" stop-color="#FCA52B"/>
<stop offset="0.3" stop-color="#F29F2A"/>
<stop offset="0.42" stop-color="#E29427"/>
<stop offset="0.53" stop-color="#CA8423"/>
<stop offset="0.64" stop-color="#AC711E"/>
<stop offset="0.74" stop-color="#875817"/>
<stop offset="0.84" stop-color="#5B3C10"/>
<stop offset="0.93" stop-color="#2A1B07"/>
<stop offset="1"/>
</linearGradient>
<radialGradient id="paint8_radial_930_13531" cx="0" cy="0" r="1" gradientUnits="userSpaceOnUse" gradientTransform="translate(67.3735 82.1881) rotate(4.76) scale(3.71785 3.71785)">
<stop offset="0.01" stop-color="#FFCD00"/>
<stop offset="0.25" stop-color="#FECA00"/>
<stop offset="0.47" stop-color="#FBBF00"/>
<stop offset="0.66" stop-color="#F5AE00"/>
<stop offset="0.85" stop-color="#ED9500"/>
<stop offset="1" stop-color="#E57C00"/>
</radialGradient>
<linearGradient id="paint9_linear_930_13531" x1="36.3322" y1="159.057" x2="36.7627" y2="153.888" gradientUnits="userSpaceOnUse">
<stop stop-color="#DB7D8D"/>
<stop offset="1" stop-color="white"/>
</linearGradient>
<linearGradient id="paint10_linear_930_13531" x1="48.9647" y1="148.609" x2="49.2288" y2="145.437" gradientUnits="userSpaceOnUse">
<stop stop-color="#DB7D8D"/>
<stop offset="1" stop-color="white"/>
</linearGradient>
<radialGradient id="paint11_radial_930_13531" cx="0" cy="0" r="1" gradientUnits="userSpaceOnUse" gradientTransform="translate(62.5312 111.387) rotate(4.76001) scale(2.0781 2.0781)">
<stop offset="0.01" stop-color="#FFCD00"/>
<stop offset="0.25" stop-color="#FECA00"/>
<stop offset="0.47" stop-color="#FBBF00"/>
<stop offset="0.66" stop-color="#F5AE00"/>
<stop offset="0.85" stop-color="#ED9500"/>
<stop offset="1" stop-color="#E57C00"/>
</radialGradient>
<radialGradient id="paint12_radial_930_13531" cx="0" cy="0" r="1" gradientUnits="userSpaceOnUse" gradientTransform="translate(58.1471 96.6386) rotate(4.76) scale(2.82492)">
<stop offset="0.01" stop-color="#FFE95B"/>
<stop offset="0.24" stop-color="#FFE658"/>
<stop offset="0.44" stop-color="#FFDD4D"/>
<stop offset="0.63" stop-color="#FFCD3C"/>
<stop offset="0.81" stop-color="#FFB623"/>
<stop offset="0.98" stop-color="#FF9A03"/>
<stop offset="1" stop-color="#FF9700"/>
</radialGradient>
<radialGradient id="paint13_radial_930_13531" cx="0" cy="0" r="1" gradientUnits="userSpaceOnUse" gradientTransform="translate(65.8095 79.8446) rotate(4.75998) scale(0.868581 0.868578)">
<stop offset="0.01" stop-color="#FFE95B"/>
<stop offset="0.24" stop-color="#FFE658"/>
<stop offset="0.44" stop-color="#FFDD4D"/>
<stop offset="0.63" stop-color="#FFCD3C"/>
<stop offset="0.81" stop-color="#FFB623"/>
<stop offset="0.98" stop-color="#FF9A03"/>
<stop offset="1" stop-color="#FF9700"/>
</radialGradient>
<radialGradient id="paint14_radial_930_13531" cx="0" cy="0" r="1" gradientUnits="userSpaceOnUse" gradientTransform="translate(77.4217 64.3327) rotate(4.75998) scale(0.811759 0.811757)">
<stop offset="0.01" stop-color="#FFCD00"/>
<stop offset="0.25" stop-color="#FECA00"/>
<stop offset="0.47" stop-color="#FBBF00"/>
<stop offset="0.66" stop-color="#F5AE00"/>
<stop offset="0.85" stop-color="#ED9500"/>
<stop offset="1" stop-color="#E57C00"/>
</radialGradient>
<radialGradient id="paint15_radial_930_13531" cx="0" cy="0" r="1" gradientUnits="userSpaceOnUse" gradientTransform="translate(72.6994 64.499) rotate(4.75999) scale(0.836112 0.836109)">
<stop offset="0.01" stop-color="#FFE95B"/>
<stop offset="0.24" stop-color="#FFE658"/>
<stop offset="0.44" stop-color="#FFDD4D"/>
<stop offset="0.63" stop-color="#FFCD3C"/>
<stop offset="0.81" stop-color="#FFB623"/>
<stop offset="0.98" stop-color="#FF9A03"/>
<stop offset="1" stop-color="#FF9700"/>
</radialGradient>
<radialGradient id="paint16_radial_930_13531" cx="0" cy="0" r="1" gradientUnits="userSpaceOnUse" gradientTransform="translate(69.1572 69.6704) rotate(4.76001) scale(1.58293 1.58293)">
<stop offset="0.01" stop-color="#FFE95B"/>
<stop offset="0.24" stop-color="#FFE658"/>
<stop offset="0.44" stop-color="#FFDD4D"/>
<stop offset="0.63" stop-color="#FFCD3C"/>
<stop offset="0.81" stop-color="#FFB623"/>
<stop offset="0.98" stop-color="#FF9A03"/>
<stop offset="1" stop-color="#FF9700"/>
</radialGradient>
<radialGradient id="paint17_radial_930_13531" cx="0" cy="0" r="1" gradientUnits="userSpaceOnUse" gradientTransform="translate(31.5499 136.273) rotate(4.76001) scale(2.4028 2.4028)">
<stop offset="0.01" stop-color="#FFE95B"/>
<stop offset="0.24" stop-color="#FFE658"/>
<stop offset="0.44" stop-color="#FFDD4D"/>
<stop offset="0.63" stop-color="#FFCD3C"/>
<stop offset="0.81" stop-color="#FFB623"/>
<stop offset="0.98" stop-color="#FF9A03"/>
<stop offset="1" stop-color="#FF9700"/>
</radialGradient>
<radialGradient id="paint18_radial_930_13531" cx="0" cy="0" r="1" gradientUnits="userSpaceOnUse" gradientTransform="translate(57.2263 108.086) rotate(4.76002) scale(2.03751 2.03752)">
<stop offset="0.01" stop-color="#FFCD00"/>
<stop offset="0.25" stop-color="#FECA00"/>
<stop offset="0.47" stop-color="#FBBF00"/>
<stop offset="0.66" stop-color="#F5AE00"/>
<stop offset="0.85" stop-color="#ED9500"/>
<stop offset="1" stop-color="#E57C00"/>
</radialGradient>
<linearGradient id="paint19_linear_930_13531" x1="61.3355" y1="40.1518" x2="87.292" y2="42.3497" gradientUnits="userSpaceOnUse">
<stop offset="0.01" stop-color="#334D6E"/>
<stop offset="0.33" stop-color="#314B6B"/>
<stop offset="0.59" stop-color="#2C4461"/>
<stop offset="0.82" stop-color="#233851"/>
<stop offset="1" stop-color="#192A3E"/>
</linearGradient>
<radialGradient id="paint20_radial_930_13531" cx="0" cy="0" r="1" gradientUnits="userSpaceOnUse" gradientTransform="translate(48.3537 173.809) rotate(4.73094) scale(14.2792 6.39794)">
<stop offset="0.01" stop-color="#FFFF2C"/>
<stop offset="0.17" stop-color="#FCFC2B"/>
<stop offset="0.3" stop-color="#F2F22A"/>
<stop offset="0.42" stop-color="#E2E227"/>
<stop offset="0.53" stop-color="#CACA23"/>
<stop offset="0.64" stop-color="#ACAC1E"/>
<stop offset="0.74" stop-color="#878717"/>
<stop offset="0.84" stop-color="#5B5B10"/>
<stop offset="0.93" stop-color="#2A2A07"/>
<stop offset="1"/>
</radialGradient>
<radialGradient id="paint21_radial_930_13531" cx="0" cy="0" r="1" gradientUnits="userSpaceOnUse" gradientTransform="translate(47.6461 173.764) rotate(4.73094) scale(8.59821 3.85252)">
<stop offset="0.01" stop-color="#FFFF2C"/>
<stop offset="0.17" stop-color="#FCFC2B"/>
<stop offset="0.3" stop-color="#F2F22A"/>
<stop offset="0.42" stop-color="#E2E227"/>
<stop offset="0.53" stop-color="#CACA23"/>
<stop offset="0.64" stop-color="#ACAC1E"/>
<stop offset="0.74" stop-color="#878717"/>
<stop offset="0.84" stop-color="#5B5B10"/>
<stop offset="0.93" stop-color="#2A2A07"/>
<stop offset="1"/>
</radialGradient>
<linearGradient id="paint22_linear_930_13531" x1="62.6849" y1="5.55383" x2="84.9151" y2="7.40492" gradientUnits="userSpaceOnUse">
<stop stop-color="white"/>
<stop offset="1" stop-color="#90A0B7"/>
</linearGradient>
<radialGradient id="paint23_radial_930_13531" cx="0" cy="0" r="1" gradientUnits="userSpaceOnUse" gradientTransform="translate(72.5226 0.33207) rotate(-4.55) scale(8.88063)">
<stop offset="0.01" stop-color="#449F2F"/>
<stop offset="0.36" stop-color="#449C2F"/>
<stop offset="0.65" stop-color="#44912F"/>
<stop offset="0.93" stop-color="#44802F"/>
<stop offset="1" stop-color="#447A2F"/>
</radialGradient>
<linearGradient id="paint24_linear_930_13531" x1="24.788" y1="182.395" x2="81.4162" y2="182.395" gradientUnits="userSpaceOnUse">
<stop stop-color="white"/>
<stop offset="1" stop-color="#B8668D"/>
</linearGradient>
<linearGradient id="paint25_linear_930_13531" x1="70.4833" y1="137.708" x2="73.5584" y2="118.183" gradientUnits="userSpaceOnUse">
<stop stop-color="white"/>
<stop offset="1" stop-color="#B8668D"/>
</linearGradient>
<linearGradient id="paint26_linear_930_13531" x1="40.582" y1="136.413" x2="43.6593" y2="116.896" gradientUnits="userSpaceOnUse">
<stop stop-color="white"/>
<stop offset="1" stop-color="#B8668D"/>
</linearGradient>
<radialGradient id="paint27_radial_930_13531" cx="0" cy="0" r="1" gradientUnits="userSpaceOnUse" gradientTransform="translate(42.8458 121.331) rotate(4.76) scale(14.4006)">
<stop offset="0.01" stop-color="white"/>
<stop offset="0.3" stop-color="#FDFCFC"/>
<stop offset="0.56" stop-color="#F6F1F4"/>
<stop offset="0.8" stop-color="#EBE0E5"/>
<stop offset="1" stop-color="#DECAD3"/>
</radialGradient>
<radialGradient id="paint28_radial_930_13531" cx="0" cy="0" r="1" gradientUnits="userSpaceOnUse" gradientTransform="translate(72.0904 122.683) rotate(4.76) scale(14.4006)">
<stop offset="0.01" stop-color="white"/>
<stop offset="0.3" stop-color="#FDFCFC"/>
<stop offset="0.56" stop-color="#F6F1F4"/>
<stop offset="0.8" stop-color="#EBE0E5"/>
<stop offset="1" stop-color="#DECAD3"/>
</radialGradient>
<radialGradient id="paint29_radial_930_13531" cx="0" cy="0" r="1" gradientUnits="userSpaceOnUse" gradientTransform="translate(72.0406 123.379) rotate(4.76) scale(6.19371)">
<stop offset="0.01" stop-color="#FFF400"/>
<stop offset="0.39" stop-color="#FFF100"/>
<stop offset="0.73" stop-color="#FFE600"/>
<stop offset="1" stop-color="#FFD700"/>
</radialGradient>
<radialGradient id="paint30_radial_930_13531" cx="0" cy="0" r="1" gradientUnits="userSpaceOnUse" gradientTransform="translate(42.7705 122.041) rotate(4.76) scale(6.20995 6.20995)">
<stop offset="0.01" stop-color="#FFF400"/>
<stop offset="0.39" stop-color="#FFF100"/>
<stop offset="0.73" stop-color="#FFE600"/>
<stop offset="1" stop-color="#FFD700"/>
</radialGradient>
<radialGradient id="paint31_radial_930_13531" cx="0" cy="0" r="1" gradientUnits="userSpaceOnUse" gradientTransform="translate(58.036 141.598) rotate(4.75999) scale(3.79903 3.79902)">
<stop offset="0.01" stop-color="#FFFF84"/>
<stop offset="0.21" stop-color="#FFFE81"/>
<stop offset="0.38" stop-color="#FFFB76"/>
<stop offset="0.54" stop-color="#FFF565"/>
<stop offset="0.69" stop-color="#FFEE4C"/>
<stop offset="0.84" stop-color="#FFE42C"/>
<stop offset="0.98" stop-color="#FFD905"/>
<stop offset="1" stop-color="#FFD700"/>
</radialGradient>
<radialGradient id="paint32_radial_930_13531" cx="0" cy="0" r="1" gradientUnits="userSpaceOnUse" gradientTransform="translate(66.4634 6.40444) scale(9.3758)">
<stop offset="0.01" stop-color="#449F2F"/>
<stop offset="0.36" stop-color="#449C2F"/>
<stop offset="0.65" stop-color="#44912F"/>
<stop offset="0.93" stop-color="#44802F"/>
<stop offset="1" stop-color="#447A2F"/>
</radialGradient>
<radialGradient id="paint33_radial_930_13531" cx="0" cy="0" r="1" gradientUnits="userSpaceOnUse" gradientTransform="translate(59.9291 58.8984) rotate(4.76) scale(82.9698 82.9697)">
<stop stop-color="#90A0B7"/>
<stop offset="0.05" stop-color="#94A4BB"/>
<stop offset="0.41" stop-color="#ADBCCF"/>
<stop offset="0.73" stop-color="#BDCADC"/>
<stop offset="0.99" stop-color="#C2CFE0"/>
</radialGradient>
<radialGradient id="paint34_radial_930_13531" cx="0" cy="0" r="1" gradientUnits="userSpaceOnUse" gradientTransform="translate(50.883 155.21) rotate(4.76) scale(95.5114 95.5114)">
<stop offset="0.01" stop-color="#FFCD00"/>
<stop offset="0.25" stop-color="#FECA00"/>
<stop offset="0.47" stop-color="#FBBF00"/>
<stop offset="0.66" stop-color="#F5AE00"/>
<stop offset="0.85" stop-color="#ED9500"/>
<stop offset="1" stop-color="#E57C00"/>
</radialGradient>
<radialGradient id="paint35_radial_930_13531" cx="0" cy="0" r="1" gradientUnits="userSpaceOnUse" gradientTransform="translate(66.6469 62.5456) rotate(4.76) scale(26.4714 26.4714)">
<stop offset="0.01" stop-color="#FFD700"/>
<stop offset="0.2" stop-color="#FED400"/>
<stop offset="0.37" stop-color="#FBC900"/>
<stop offset="0.52" stop-color="#F6B800"/>
<stop offset="0.67" stop-color="#EF9F00"/>
<stop offset="0.81" stop-color="#E67F00"/>
<stop offset="0.82" stop-color="#E57C00"/>
</radialGradient>
<radialGradient id="paint36_radial_930_13531" cx="0" cy="0" r="1" gradientUnits="userSpaceOnUse" gradientTransform="translate(65.8525 55.751) rotate(4.76) scale(12.7852 12.7852)">
<stop offset="0.01" stop-color="white"/>
<stop offset="0.36" stop-color="#FDFCFC"/>
<stop offset="0.67" stop-color="#F6F1F4"/>
<stop offset="0.95" stop-color="#EBE0E5"/>
<stop offset="1" stop-color="#E9DCE2"/>
</radialGradient>
<linearGradient id="paint37_linear_930_13531" x1="60.3741" y1="186.987" x2="75.4906" y2="5.44898" gradientUnits="userSpaceOnUse">
<stop stop-color="white"/>
<stop offset="1" stop-color="#90A0B7"/>
</linearGradient>
<linearGradient id="paint38_linear_930_13531" x1="23.9316" y1="171.124" x2="29.788" y2="100.793" gradientUnits="userSpaceOnUse">
<stop/>
<stop offset="0.07" stop-color="#2A1B07"/>
<stop offset="0.16" stop-color="#5B3C10"/>
<stop offset="0.26" stop-color="#875817"/>
<stop offset="0.36" stop-color="#AC711E"/>
<stop offset="0.47" stop-color="#CA8423"/>
<stop offset="0.58" stop-color="#E29427"/>
<stop offset="0.7" stop-color="#F29F2A"/>
<stop offset="0.83" stop-color="#FCA52B"/>
<stop offset="0.99" stop-color="#FFA72C"/>
</linearGradient>
<linearGradient id="paint39_linear_930_13531" x1="50.0955" y1="46.3028" x2="64.4222" y2="47.4957" gradientUnits="userSpaceOnUse">
<stop offset="0.01" stop-color="#FFA72C"/>
<stop offset="0.17" stop-color="#FCA52B"/>
<stop offset="0.3" stop-color="#F29F2A"/>
<stop offset="0.42" stop-color="#E29427"/>
<stop offset="0.53" stop-color="#CA8423"/>
<stop offset="0.64" stop-color="#AC711E"/>
<stop offset="0.74" stop-color="#875817"/>
<stop offset="0.84" stop-color="#5B3C10"/>
<stop offset="0.93" stop-color="#2A1B07"/>
<stop offset="1"/>
</linearGradient>
<radialGradient id="paint40_radial_930_13531" cx="0" cy="0" r="1" gradientUnits="userSpaceOnUse" gradientTransform="translate(59.9865 82.3739) rotate(4.76001) scale(3.71785 3.71785)">
<stop offset="0.01" stop-color="#FFCD00"/>
<stop offset="0.25" stop-color="#FECA00"/>
<stop offset="0.47" stop-color="#FBBF00"/>
<stop offset="0.66" stop-color="#F5AE00"/>
<stop offset="0.85" stop-color="#ED9500"/>
<stop offset="1" stop-color="#E57C00"/>
</radialGradient>
<linearGradient id="paint41_linear_930_13531" x1="28.9449" y1="159.24" x2="29.3754" y2="154.071" gradientUnits="userSpaceOnUse">
<stop stop-color="#DB7D8D"/>
<stop offset="1" stop-color="white"/>
</linearGradient>
<linearGradient id="paint42_linear_930_13531" x1="41.5777" y1="148.792" x2="41.8417" y2="145.621" gradientUnits="userSpaceOnUse">
<stop stop-color="#DB7D8D"/>
<stop offset="1" stop-color="white"/>
</linearGradient>
<radialGradient id="paint43_radial_930_13531" cx="0" cy="0" r="1" gradientUnits="userSpaceOnUse" gradientTransform="translate(55.144 111.569) rotate(4.76001) scale(2.0781 2.07811)">
<stop offset="0.01" stop-color="#FFCD00"/>
<stop offset="0.25" stop-color="#FECA00"/>
<stop offset="0.47" stop-color="#FBBF00"/>
<stop offset="0.66" stop-color="#F5AE00"/>
<stop offset="0.85" stop-color="#ED9500"/>
<stop offset="1" stop-color="#E57C00"/>
</radialGradient>
<radialGradient id="paint44_radial_930_13531" cx="0" cy="0" r="1" gradientUnits="userSpaceOnUse" gradientTransform="translate(50.76 96.8188) rotate(4.76) scale(2.82492)">
<stop offset="0.01" stop-color="#FFE95B"/>
<stop offset="0.24" stop-color="#FFE658"/>
<stop offset="0.44" stop-color="#FFDD4D"/>
<stop offset="0.63" stop-color="#FFCD3C"/>
<stop offset="0.81" stop-color="#FFB623"/>
<stop offset="0.98" stop-color="#FF9A03"/>
<stop offset="1" stop-color="#FF9700"/>
</radialGradient>
<radialGradient id="paint45_radial_930_13531" cx="0" cy="0" r="1" gradientUnits="userSpaceOnUse" gradientTransform="translate(58.4304 80.0256) rotate(4.75999) scale(0.868582 0.86858)">
<stop offset="0.01" stop-color="#FFE95B"/>
<stop offset="0.24" stop-color="#FFE658"/>
<stop offset="0.44" stop-color="#FFDD4D"/>
<stop offset="0.63" stop-color="#FFCD3C"/>
<stop offset="0.81" stop-color="#FFB623"/>
<stop offset="0.98" stop-color="#FF9A03"/>
<stop offset="1" stop-color="#FF9700"/>
</radialGradient>
<radialGradient id="paint46_radial_930_13531" cx="0" cy="0" r="1" gradientUnits="userSpaceOnUse" gradientTransform="translate(70.0346 64.5167) rotate(4.76002) scale(0.811757 0.81176)">
<stop offset="0.01" stop-color="#FFCD00"/>
<stop offset="0.25" stop-color="#FECA00"/>
<stop offset="0.47" stop-color="#FBBF00"/>
<stop offset="0.66" stop-color="#F5AE00"/>
<stop offset="0.85" stop-color="#ED9500"/>
<stop offset="1" stop-color="#E57C00"/>
</radialGradient>
<radialGradient id="paint47_radial_930_13531" cx="0" cy="0" r="1" gradientUnits="userSpaceOnUse" gradientTransform="translate(65.3123 64.6839) rotate(4.75999) scale(0.836113)">
<stop offset="0.01" stop-color="#FFE95B"/>
<stop offset="0.24" stop-color="#FFE658"/>
<stop offset="0.44" stop-color="#FFDD4D"/>
<stop offset="0.63" stop-color="#FFCD3C"/>
<stop offset="0.81" stop-color="#FFB623"/>
<stop offset="0.98" stop-color="#FF9A03"/>
<stop offset="1" stop-color="#FF9700"/>
</radialGradient>
<radialGradient id="paint48_radial_930_13531" cx="0" cy="0" r="1" gradientUnits="userSpaceOnUse" gradientTransform="translate(61.7701 69.8541) rotate(4.76) scale(1.58293)">
<stop offset="0.01" stop-color="#FFE95B"/>
<stop offset="0.24" stop-color="#FFE658"/>
<stop offset="0.44" stop-color="#FFDD4D"/>
<stop offset="0.63" stop-color="#FFCD3C"/>
<stop offset="0.81" stop-color="#FFB623"/>
<stop offset="0.98" stop-color="#FF9A03"/>
<stop offset="1" stop-color="#FF9700"/>
</radialGradient>
<radialGradient id="paint49_radial_930_13531" cx="0" cy="0" r="1" gradientUnits="userSpaceOnUse" gradientTransform="translate(24.1627 136.459) rotate(4.76) scale(2.4028)">
<stop offset="0.01" stop-color="#FFE95B"/>
<stop offset="0.24" stop-color="#FFE658"/>
<stop offset="0.44" stop-color="#FFDD4D"/>
<stop offset="0.63" stop-color="#FFCD3C"/>
<stop offset="0.81" stop-color="#FFB623"/>
<stop offset="0.98" stop-color="#FF9A03"/>
<stop offset="1" stop-color="#FF9700"/>
</radialGradient>
<radialGradient id="paint50_radial_930_13531" cx="0" cy="0" r="1" gradientUnits="userSpaceOnUse" gradientTransform="translate(49.839 108.268) rotate(4.75999) scale(2.03751 2.03751)">
<stop offset="0.01" stop-color="#FFCD00"/>
<stop offset="0.25" stop-color="#FECA00"/>
<stop offset="0.47" stop-color="#FBBF00"/>
<stop offset="0.66" stop-color="#F5AE00"/>
<stop offset="0.85" stop-color="#ED9500"/>
<stop offset="1" stop-color="#E57C00"/>
</radialGradient>
<linearGradient id="paint51_linear_930_13531" x1="53.9475" y1="40.3323" x2="79.9039" y2="42.5302" gradientUnits="userSpaceOnUse">
<stop offset="0.01" stop-color="#334D6E"/>
<stop offset="0.33" stop-color="#314B6B"/>
<stop offset="0.59" stop-color="#2C4461"/>
<stop offset="0.82" stop-color="#233851"/>
<stop offset="1" stop-color="#192A3E"/>
</linearGradient>
<radialGradient id="paint52_radial_930_13531" cx="0" cy="0" r="1" gradientUnits="userSpaceOnUse" gradientTransform="translate(40.9945 174) rotate(4.73094) scale(14.2792 6.39794)">
<stop offset="0.01" stop-color="#FFFF2C"/>
<stop offset="0.17" stop-color="#FCFC2B"/>
<stop offset="0.3" stop-color="#F2F22A"/>
<stop offset="0.42" stop-color="#E2E227"/>
<stop offset="0.53" stop-color="#CACA23"/>
<stop offset="0.64" stop-color="#ACAC1E"/>
<stop offset="0.74" stop-color="#878717"/>
<stop offset="0.84" stop-color="#5B5B10"/>
<stop offset="0.93" stop-color="#2A2A07"/>
<stop offset="1"/>
</radialGradient>
<radialGradient id="paint53_radial_930_13531" cx="0" cy="0" r="1" gradientUnits="userSpaceOnUse" gradientTransform="translate(40.2989 173.959) rotate(4.73094) scale(8.59821 3.85252)">
<stop offset="0.01" stop-color="#FFFF2C"/>
<stop offset="0.17" stop-color="#FCFC2B"/>
<stop offset="0.3" stop-color="#F2F22A"/>
<stop offset="0.42" stop-color="#E2E227"/>
<stop offset="0.53" stop-color="#CACA23"/>
<stop offset="0.64" stop-color="#ACAC1E"/>
<stop offset="0.74" stop-color="#878717"/>
<stop offset="0.84" stop-color="#5B5B10"/>
<stop offset="0.93" stop-color="#2A2A07"/>
<stop offset="1"/>
</radialGradient>
<linearGradient id="paint54_linear_930_13531" x1="55.2976" y1="5.73778" x2="77.5278" y2="7.58887" gradientUnits="userSpaceOnUse">
<stop stop-color="white"/>
<stop offset="1" stop-color="#90A0B7"/>
</linearGradient>
<radialGradient id="paint55_radial_930_13531" cx="0" cy="0" r="1" gradientUnits="userSpaceOnUse" gradientTransform="translate(65.1429 0.511993) rotate(-4.55) scale(8.88063)">
<stop offset="0.01" stop-color="#449F2F"/>
<stop offset="0.36" stop-color="#449C2F"/>
<stop offset="0.65" stop-color="#44912F"/>
<stop offset="0.93" stop-color="#44802F"/>
<stop offset="1" stop-color="#447A2F"/>
</radialGradient>
<radialGradient id="paint56_radial_930_13531" cx="0" cy="0" r="1" gradientUnits="userSpaceOnUse" gradientTransform="translate(48.199 181.292) scale(1.83457 1.83457)">
<stop stop-color="#90A0B7"/>
<stop offset="0.05" stop-color="#94A4BB"/>
<stop offset="0.41" stop-color="#ADBCCF"/>
<stop offset="0.73" stop-color="#BDCADC"/>
<stop offset="0.99" stop-color="#C2CFE0"/>
</radialGradient>
<radialGradient id="paint57_radial_930_13531" cx="0" cy="0" r="1" gradientUnits="userSpaceOnUse" gradientTransform="translate(48.199 181.293) scale(1.46928 1.46928)">
<stop stop-color="#90A0B7"/>
<stop offset="0.05" stop-color="#94A4BB"/>
<stop offset="0.41" stop-color="#ADBCCF"/>
<stop offset="0.73" stop-color="#BDCADC"/>
<stop offset="0.99" stop-color="#C2CFE0"/>
</radialGradient>
<radialGradient id="paint58_radial_930_13531" cx="0" cy="0" r="1" gradientUnits="userSpaceOnUse" gradientTransform="translate(48.1988 181.292) scale(1.09587 1.09587)">
<stop stop-color="#90A0B7"/>
<stop offset="0.05" stop-color="#94A4BB"/>
<stop offset="0.41" stop-color="#ADBCCF"/>
<stop offset="0.73" stop-color="#BDCADC"/>
<stop offset="0.99" stop-color="#C2CFE0"/>
</radialGradient>
<radialGradient id="paint59_radial_930_13531" cx="0" cy="0" r="1" gradientUnits="userSpaceOnUse" gradientTransform="translate(48.199 181.294) scale(0.730582 0.730581)">
<stop stop-color="#90A0B7"/>
<stop offset="0.05" stop-color="#94A4BB"/>
<stop offset="0.41" stop-color="#ADBCCF"/>
<stop offset="0.73" stop-color="#BDCADC"/>
<stop offset="0.99" stop-color="#C2CFE0"/>
</radialGradient>
<radialGradient id="paint60_radial_930_13531" cx="0" cy="0" r="1" gradientUnits="userSpaceOnUse" gradientTransform="translate(48.1991 181.292) scale(0.365291 0.365284)">
<stop stop-color="#90A0B7"/>
<stop offset="0.05" stop-color="#94A4BB"/>
<stop offset="0.41" stop-color="#ADBCCF"/>
<stop offset="0.73" stop-color="#BDCADC"/>
<stop offset="0.99" stop-color="#C2CFE0"/>
</radialGradient>
<linearGradient id="paint61_linear_930_13531" x1="17.4009" y1="182.543" x2="74.0291" y2="182.543" gradientUnits="userSpaceOnUse">
<stop stop-color="white"/>
<stop offset="1" stop-color="#90A0B7"/>
</linearGradient>
<linearGradient id="paint62_linear_930_13531" x1="62.7693" y1="137.396" x2="65.8529" y2="117.949" gradientUnits="userSpaceOnUse">
<stop stop-color="white"/>
<stop offset="1" stop-color="#B8668D"/>
</linearGradient>
<linearGradient id="paint63_linear_930_13531" x1="33.1945" y1="136.601" x2="36.273" y2="117.076" gradientUnits="userSpaceOnUse">
<stop stop-color="white"/>
<stop offset="1" stop-color="#B8668D"/>
</linearGradient>
<radialGradient id="paint64_radial_930_13531" cx="0" cy="0" r="1" gradientUnits="userSpaceOnUse" gradientTransform="translate(35.4588 121.513) rotate(4.76) scale(14.4006 14.4006)">
<stop offset="0.01" stop-color="white"/>
<stop offset="0.3" stop-color="#FDFCFC"/>
<stop offset="0.56" stop-color="#F6F1F4"/>
<stop offset="0.8" stop-color="#EBE0E5"/>
<stop offset="1" stop-color="#DECAD3"/>
</radialGradient>
<radialGradient id="paint65_radial_930_13531" cx="0" cy="0" r="1" gradientUnits="userSpaceOnUse" gradientTransform="translate(64.7033 122.867) rotate(4.76) scale(14.4006 14.4006)">
<stop offset="0.01" stop-color="white"/>
<stop offset="0.3" stop-color="#FDFCFC"/>
<stop offset="0.56" stop-color="#F6F1F4"/>
<stop offset="0.8" stop-color="#EBE0E5"/>
<stop offset="1" stop-color="#DECAD3"/>
</radialGradient>
<radialGradient id="paint66_radial_930_13531" cx="0" cy="0" r="1" gradientUnits="userSpaceOnUse" gradientTransform="translate(64.6533 123.562) rotate(4.76) scale(6.19371)">
<stop offset="0.01" stop-color="#FFF400"/>
<stop offset="0.39" stop-color="#FFF100"/>
<stop offset="0.73" stop-color="#FFE600"/>
<stop offset="1" stop-color="#FFD700"/>
</radialGradient>
<radialGradient id="paint67_radial_930_13531" cx="0" cy="0" r="1" gradientUnits="userSpaceOnUse" gradientTransform="translate(35.3833 122.224) rotate(4.76) scale(6.20995)">
<stop offset="0.01" stop-color="#FFF400"/>
<stop offset="0.39" stop-color="#FFF100"/>
<stop offset="0.73" stop-color="#FFE600"/>
<stop offset="1" stop-color="#FFD700"/>
</radialGradient>
<radialGradient id="paint68_radial_930_13531" cx="0" cy="0" r="1" gradientUnits="userSpaceOnUse" gradientTransform="translate(50.657 141.783) rotate(4.76) scale(3.79903)">
<stop offset="0.01" stop-color="#FFFF84"/>
<stop offset="0.21" stop-color="#FFFE81"/>
<stop offset="0.38" stop-color="#FFFB76"/>
<stop offset="0.54" stop-color="#FFF565"/>
<stop offset="0.69" stop-color="#FFEE4C"/>
<stop offset="0.84" stop-color="#FFE42C"/>
<stop offset="0.98" stop-color="#FFD905"/>
<stop offset="1" stop-color="#FFD700"/>
</radialGradient>
</defs>
</svg>
