<svg width="224" height="195" viewBox="0 0 224 195" fill="none" xmlns="http://www.w3.org/2000/svg">
<g clip-path="url(#clip0_1264_14799)">
<path fill-rule="evenodd" clip-rule="evenodd" d="M204 190.711C204 190.711 156.646 195.001 100.317 195.001C43.9872 195.001 0 190.711 0 190.711C0 190.711 45.6707 187.832 102 187.832C158.329 187.832 204 190.711 204 190.711Z" fill="url(#paint0_radial_1264_14799)"/>
<path fill-rule="evenodd" clip-rule="evenodd" d="M152.39 189.328C145.156 191.296 137.764 192.637 130.297 193.336C124.473 193.956 118.62 194.27 112.763 194.276C99.3924 194.325 86.0711 192.665 73.126 189.337C73.126 189.337 73.9299 98.0183 75.897 81.0266C80.2475 66.4811 93.9421 59.0578 93.9421 59.0578L95.2756 46.3846L96.9402 30.5407H100.25L101.972 28.4238L106.615 18.1498L110.238 10.162L112.243 11.8649L117.227 19.2506L116.328 22.4871L118.22 23.4279V17.3501L122.249 13.1727L124.84 10.3502L126.296 8.76953L127.015 15.7036L131.583 59.086C131.583 59.086 145.259 66.5093 149.619 81.0548C151.406 95.0264 152.39 189.328 152.39 189.328Z" fill="url(#paint1_radial_1264_14799)"/>
<path fill-rule="evenodd" clip-rule="evenodd" d="M112.763 179.24C91.8424 179.24 78.0249 185.563 78.0249 185.563C78.2046 168.289 79.0274 97.5091 80.6825 82.0039C84.5223 69.8952 96.1645 63.3563 96.2875 63.2904L98.5006 62.0673L99.1058 48.4721L126.807 40.9453L129.247 63.3281C129.351 63.3845 141.012 69.914 144.843 82.0509C146.337 95.2228 147.283 168.101 147.491 185.619C147.538 185.591 135.423 179.24 112.763 179.24Z" fill="url(#paint2_radial_1264_14799)"/>
<path fill-rule="evenodd" clip-rule="evenodd" d="M99.106 48.4713C99.106 48.4713 95.5973 59.818 126.807 40.9446C126.807 40.9163 116.574 40.9163 99.106 48.4713Z" fill="url(#paint3_radial_1264_14799)"/>
<path style="mix-blend-mode:multiply" opacity="0.74" fill-rule="evenodd" clip-rule="evenodd" d="M147.538 190.407L130.344 193.333C130.344 193.333 132.236 105.373 130.023 91.2511C128.76 82.9228 125.153 75.1202 119.619 68.7461C119.619 68.7461 119.165 42.6281 118.22 23.4443V17.3664L122.249 13.1702L124.84 10.3477L125.389 16.7548L129.049 59.554C129.049 59.554 129.663 59.968 130.675 60.73C134.458 63.5526 143.651 71.3616 146.365 80.883C149.808 92.8976 147.538 190.407 147.538 190.407Z" fill="url(#paint4_linear_1264_14799)"/>
<path fill-rule="evenodd" clip-rule="evenodd" d="M82.8862 96.6066C82.8862 96.6066 82.4039 82.174 85.9599 74.666L94.973 73.8945C94.973 73.8945 92.1357 87.6779 92.1357 96.6066H82.8862Z" fill="white"/>
<path style="mix-blend-mode:screen" opacity="0.5" fill-rule="evenodd" clip-rule="evenodd" d="M82.8862 96.6055V178.026H92.864L92.1168 96.6055H82.8862Z" fill="url(#paint5_linear_1264_14799)"/>
<g style="mix-blend-mode:soft-light">
<path fill-rule="evenodd" clip-rule="evenodd" d="M152.4 189.325L140.72 191.932L137.655 97.8469C137.655 97.8469 145.533 92.8698 149.95 85.3242L152.4 189.325Z" fill="white"/>
</g>
<path style="mix-blend-mode:screen" opacity="0.5" fill-rule="evenodd" clip-rule="evenodd" d="M106.568 18.1406L105.216 61.636H94.9731L98.1887 30.5316H100.203L101.924 28.4147L106.568 18.1406Z" fill="url(#paint6_linear_1264_14799)"/>
<g style="mix-blend-mode:soft-light">
<path fill-rule="evenodd" clip-rule="evenodd" d="M129.247 63.2992H125.086L122.249 18.7312L127.025 15.6641L131.583 59.0465L129.247 63.2992Z" fill="white"/>
</g>
<g style="mix-blend-mode:soft-light">
<path fill-rule="evenodd" clip-rule="evenodd" d="M82.8862 188.698C82.8862 188.698 90.8873 192.198 112.375 192.113C133.863 192.029 143.358 187.484 143.358 187.484C143.358 187.484 132.671 190.429 112.574 190.674C92.4762 190.918 82.8862 188.698 82.8862 188.698Z" fill="white"/>
</g>
<path opacity="0.5" d="M114.38 76.9223C116.062 76.9223 117.425 75.566 117.425 73.8928C117.425 72.2196 116.062 70.8633 114.38 70.8633C112.698 70.8633 111.334 72.2196 111.334 73.8928C111.334 75.566 112.698 76.9223 114.38 76.9223Z" fill="url(#paint7_radial_1264_14799)"/>
<path style="mix-blend-mode:multiply" opacity="0.5" fill-rule="evenodd" clip-rule="evenodd" d="M100.912 160.49C100.912 161.09 100.734 161.675 100.399 162.174C100.065 162.672 99.589 163.06 99.0325 163.289C98.4761 163.519 97.8637 163.579 97.273 163.462C96.6823 163.345 96.1396 163.056 95.7137 162.633C95.2878 162.209 94.9978 161.669 94.8803 161.081C94.7628 160.494 94.8231 159.885 95.0536 159.331C95.2841 158.778 95.6744 158.304 96.1752 157.972C96.676 157.639 97.2648 157.461 97.8671 157.461C98.6748 157.461 99.4494 157.78 100.02 158.348C100.592 158.916 100.912 159.687 100.912 160.49Z" fill="url(#paint8_linear_1264_14799)"/>
<path style="mix-blend-mode:multiply" opacity="0.5" fill-rule="evenodd" clip-rule="evenodd" d="M115.458 148.194C115.458 148.566 115.347 148.93 115.14 149.24C114.932 149.549 114.636 149.79 114.291 149.933C113.945 150.075 113.565 150.112 113.198 150.04C112.831 149.967 112.494 149.788 112.229 149.525C111.965 149.262 111.785 148.926 111.712 148.561C111.639 148.196 111.676 147.818 111.819 147.474C111.962 147.13 112.205 146.836 112.516 146.63C112.827 146.423 113.193 146.312 113.567 146.312C114.068 146.312 114.55 146.511 114.904 146.864C115.259 147.217 115.458 147.695 115.458 148.194Z" fill="url(#paint9_linear_1264_14799)"/>
<path fill-rule="evenodd" clip-rule="evenodd" d="M121.54 106.853C121.54 107.173 121.444 107.486 121.265 107.752C121.087 108.018 120.833 108.225 120.535 108.348C120.238 108.47 119.911 108.502 119.595 108.44C119.28 108.377 118.99 108.223 118.763 107.997C118.535 107.771 118.38 107.482 118.317 107.168C118.255 106.854 118.287 106.529 118.41 106.233C118.533 105.938 118.742 105.685 119.009 105.507C119.277 105.329 119.591 105.234 119.913 105.234C120.344 105.234 120.758 105.405 121.063 105.708C121.368 106.012 121.54 106.423 121.54 106.853Z" fill="url(#paint10_radial_1264_14799)"/>
<path d="M109.367 93.0786C110.621 93.0786 111.637 92.0676 111.637 90.8205C111.637 89.5735 110.621 88.5625 109.367 88.5625C108.114 88.5625 107.098 89.5735 107.098 90.8205C107.098 92.0676 108.114 93.0786 109.367 93.0786Z" fill="url(#paint11_radial_1264_14799)"/>
<path fill-rule="evenodd" clip-rule="evenodd" d="M111.127 70.5651C111.127 70.705 111.085 70.8418 111.006 70.9581C110.928 71.0743 110.817 71.1647 110.687 71.2178C110.556 71.271 110.413 71.2844 110.275 71.2564C110.138 71.2284 110.011 71.1602 109.912 71.0606C109.814 70.961 109.747 70.8344 109.721 70.6969C109.694 70.5594 109.71 70.4172 109.765 70.2885C109.82 70.1597 109.912 70.0501 110.03 69.9738C110.148 69.8974 110.286 69.8576 110.427 69.8594C110.519 69.8594 110.611 69.8777 110.697 69.9133C110.782 69.9489 110.86 70.001 110.925 70.0667C110.99 70.1323 111.041 70.2102 111.076 70.2958C111.111 70.3813 111.128 70.4729 111.127 70.5651Z" fill="url(#paint12_radial_1264_14799)"/>
<path d="M118.986 52.5558C119.377 52.5558 119.695 52.2399 119.695 51.8502C119.695 51.4605 119.377 51.1445 118.986 51.1445C118.594 51.1445 118.276 51.4605 118.276 51.8502C118.276 52.2399 118.594 52.5558 118.986 52.5558Z" fill="url(#paint13_radial_1264_14799)"/>
<path d="M112.895 53.2628C113.287 53.2628 113.605 52.9469 113.605 52.5572C113.605 52.1675 113.287 51.8516 112.895 51.8516C112.504 51.8516 112.186 52.1675 112.186 52.5572C112.186 52.9469 112.504 53.2628 112.895 53.2628Z" fill="url(#paint14_radial_1264_14799)"/>
<path fill-rule="evenodd" clip-rule="evenodd" d="M125.956 173.446C125.958 173.586 125.918 173.724 125.841 173.841C125.764 173.958 125.654 174.05 125.525 174.105C125.395 174.16 125.253 174.175 125.114 174.149C124.976 174.123 124.849 174.056 124.749 173.958C124.649 173.86 124.58 173.734 124.552 173.597C124.524 173.46 124.537 173.317 124.591 173.188C124.644 173.058 124.735 172.948 124.852 172.87C124.969 172.792 125.106 172.75 125.247 172.75C125.34 172.749 125.432 172.766 125.518 172.8C125.604 172.835 125.682 172.886 125.748 172.951C125.814 173.015 125.866 173.093 125.902 173.178C125.938 173.263 125.956 173.354 125.956 173.446Z" fill="url(#paint15_radial_1264_14799)"/>
<path d="M110.673 60.2725C111.394 60.2725 111.978 59.6912 111.978 58.9742C111.978 58.2571 111.394 57.6758 110.673 57.6758C109.952 57.6758 109.368 58.2571 109.368 58.9742C109.368 59.6912 109.952 60.2725 110.673 60.2725Z" fill="url(#paint16_radial_1264_14799)"/>
<path d="M121.54 172.741C122.26 172.741 122.845 172.16 122.845 171.443C122.845 170.726 122.26 170.145 121.54 170.145C120.819 170.145 120.234 170.726 120.234 171.443C120.234 172.16 120.819 172.741 121.54 172.741Z" fill="url(#paint17_radial_1264_14799)"/>
<path fill-rule="evenodd" clip-rule="evenodd" d="M91.19 138.578C91.19 139.025 91.0569 139.462 90.8075 139.833C90.5581 140.204 90.2036 140.494 89.7888 140.664C89.3741 140.835 88.9177 140.88 88.4774 140.793C88.0371 140.706 87.6326 140.491 87.3152 140.175C86.9978 139.859 86.7816 139.457 86.694 139.019C86.6064 138.581 86.6514 138.127 86.8232 137.714C86.995 137.302 87.2859 136.949 87.6592 136.701C88.0324 136.453 88.4713 136.32 88.9202 136.32C89.5214 136.323 90.0973 136.561 90.5225 136.984C90.9476 137.407 91.1875 137.98 91.19 138.578Z" fill="url(#paint18_radial_1264_14799)"/>
<path fill-rule="evenodd" clip-rule="evenodd" d="M114.38 103.614C114.38 103.934 114.284 104.247 114.106 104.513C113.927 104.78 113.673 104.987 113.376 105.109C113.078 105.232 112.751 105.264 112.436 105.202C112.12 105.139 111.83 104.985 111.603 104.759C111.375 104.532 111.22 104.244 111.158 103.93C111.095 103.616 111.127 103.291 111.25 102.995C111.373 102.699 111.582 102.447 111.849 102.269C112.117 102.091 112.431 101.996 112.753 101.996C113.185 101.996 113.598 102.167 113.903 102.47C114.208 102.774 114.38 103.185 114.38 103.614Z" fill="url(#paint19_radial_1264_14799)"/>
<path fill-rule="evenodd" clip-rule="evenodd" d="M35.4565 188.914C35.4565 188.914 37.7642 188.764 49.7848 189.394C61.8054 190.024 68.6999 189.817 68.6999 189.817L66.0991 185.828L43.2874 185.875L37.7453 186.703L35.4565 188.914Z" fill="#484300"/>
<path fill-rule="evenodd" clip-rule="evenodd" d="M35.4565 188.912C35.6992 186.479 36.6899 184.179 38.2938 182.326C47.3447 180.604 56.4807 180.247 65.3425 183.05C67.2516 184.816 68.4344 187.223 68.6621 189.806L66.7706 188.921H64.2643L63.1294 190.22L61.6824 188.931H56.3578L54.9202 190.022L53.7002 188.855L48.7539 188.799L47.6095 189.824L46.4368 188.771L41.046 188.705L40.1002 189.646L39.2585 188.761L36.4874 188.488L35.4565 188.912Z" fill="url(#paint20_radial_1264_14799)"/>
<path fill-rule="evenodd" clip-rule="evenodd" d="M38.3408 182.338C47.3568 181.604 56.4263 181.847 65.3895 183.062C56.5595 180.684 47.2866 180.436 38.3408 182.338Z" fill="#44C62F"/>
<path fill-rule="evenodd" clip-rule="evenodd" d="M36.4966 188.406L39.2677 182.356C39.2677 182.356 40.8944 181.82 47.4295 181.923L47.6187 189.77L46.446 188.716L41.0551 188.65L40.1094 189.591L39.2677 188.707L36.4966 188.406Z" fill="#44C62F"/>
<path fill-rule="evenodd" clip-rule="evenodd" d="M67.8297 189.411L64.7371 183.051L61.1621 182.543L61.6917 188.903L63.1387 190.192L64.2737 188.894L67.8297 189.411Z" fill="#44C62F"/>
<path style="mix-blend-mode:multiply" opacity="0.74" fill-rule="evenodd" clip-rule="evenodd" d="M126.297 8.73106L123.384 6.82114L119.695 1.62767L110.673 0L107.098 6.82114L103.144 8.73106L98.9925 20.9339L97.2712 23.0508L96.9402 30.5305H100.203L101.924 28.4136L110.2 10.1517L112.195 11.8547L117.179 19.2403L116.366 22.4862L118.22 23.4459L118.286 17.368L126.297 8.73106Z" fill="url(#paint21_linear_1264_14799)"/>
<path fill-rule="evenodd" clip-rule="evenodd" d="M126.297 8.73106L123.384 6.82114L119.695 1.62767L110.673 0L111.618 1.50536L115.222 3.17066L118.976 3.57522L121.587 8.03484L122.561 8.73106L117.056 15.6651L118.286 17.368L124.358 11.6101L126.297 8.73106Z" fill="url(#paint22_radial_1264_14799)"/>
<path fill-rule="evenodd" clip-rule="evenodd" d="M110.2 10.153L110.937 9.29688L113.179 10.153L118.286 17.3693L117.179 19.2416L112.195 11.856L110.2 10.153Z" fill="white"/>
<path fill-rule="evenodd" clip-rule="evenodd" d="M118.22 23.4449L116.366 22.4852L117.18 19.2393L117.057 15.6641L118.608 17.367L118.22 23.4449Z" fill="#717A8B"/>
<path fill-rule="evenodd" clip-rule="evenodd" d="M96.9404 30.5299L98.3685 27.2181L101.925 26.2961L104.166 23.4453L101.925 28.413L100.203 30.5299H96.9404Z" fill="white"/>
<path fill-rule="evenodd" clip-rule="evenodd" d="M97.271 23.0499L100.553 21.7986V19.2395L104.166 9.68049L109.348 7.34719L107.097 6.82031L103.144 8.73023L98.9923 20.933L97.271 23.0499Z" fill="url(#paint23_radial_1264_14799)"/>
<path style="mix-blend-mode:multiply" opacity="0.74" fill-rule="evenodd" clip-rule="evenodd" d="M109.349 7.34802L111.618 1.50536L110.673 0L107.098 6.82114L109.349 7.34802Z" fill="url(#paint24_linear_1264_14799)"/>
<path fill-rule="evenodd" clip-rule="evenodd" d="M116.366 22.4844L118.986 30.5286L119.327 55.0377L117.842 57.6721L116.366 63.2983L104.563 83.5266L100.771 87.6757L94.8219 101.497L89.9702 103.2L74.3936 114.029V115.892L86.0642 106.361L90.131 103.425L95.3894 101.61L102.407 87.1206L106.02 82.4916L117.095 63.2983L118.286 57.6721L120.159 54.1815L119.26 28.2894L118.22 23.444L116.366 22.4844Z" fill="url(#paint25_radial_1264_14799)"/>
<path style="mix-blend-mode:screen" opacity="0.5" d="M114.238 193.636C123.708 193.636 131.385 190.245 131.385 186.062C131.385 181.879 123.708 178.488 114.238 178.488C104.768 178.488 97.0916 181.879 97.0916 186.062C97.0916 190.245 104.768 193.636 114.238 193.636Z" fill="url(#paint26_radial_1264_14799)"/>
<path style="mix-blend-mode:screen" opacity="0.5" d="M114.238 190.615C119.926 190.615 124.538 188.576 124.538 186.062C124.538 183.547 119.926 181.508 114.238 181.508C108.55 181.508 103.939 183.547 103.939 186.062C103.939 188.576 108.55 190.615 114.238 190.615Z" fill="url(#paint27_radial_1264_14799)"/>
<path fill-rule="evenodd" clip-rule="evenodd" d="M83.501 189.553V183.466L93.8381 180.973V191.077C93.8381 191.077 87.2462 190.993 83.501 189.553Z" fill="white"/>
<path fill-rule="evenodd" clip-rule="evenodd" d="M77.155 77.5811L81.6001 76.9319L86.1681 77.5811L98.4535 77.2518L110.427 69.8944L113.387 68.3984L112.753 69.4804L110.673 70.299L103.911 73.893L98.4535 77.9669H85.3547L80.6259 78.823L76.0674 80.4789L77.155 77.5811Z" fill="url(#paint28_radial_1264_14799)"/>
<path fill-rule="evenodd" clip-rule="evenodd" d="M98.4536 77.9699L101.244 83.8973L102.095 86.24L102.369 85.9295L101.802 84.5653L98.936 77.6406L98.4536 77.9699Z" fill="url(#paint29_radial_1264_14799)"/>
<path style="mix-blend-mode:screen" opacity="0.5" fill-rule="evenodd" clip-rule="evenodd" d="M96.9404 30.5311H100.203L101.925 28.4142L110.2 10.1523L112.196 11.8553L117.18 19.2409L116.366 22.4868L117.18 24.9707L114.834 23.4465L112.905 16.9829L109.368 17.3686L107.098 22.0447L104.166 26.2408L102.407 31.9047L98.9927 33.9746L96.9404 30.5311Z" fill="url(#paint30_linear_1264_14799)"/>
<path style="mix-blend-mode:screen" opacity="0.5" fill-rule="evenodd" clip-rule="evenodd" d="M118.456 17.2075L118.314 22.0623L122.249 17.3674L123.138 15.6645L126.978 15.2599L126.297 8.73047L124.358 11.6095L118.456 17.2075Z" fill="url(#paint31_linear_1264_14799)"/>
<path fill-rule="evenodd" clip-rule="evenodd" d="M105.329 73.0269L107.769 71.8414L110.805 70.2514L112.753 69.4799L111.949 70.8629L109.046 75.8494L112.205 71.7755L115.591 65.9141L114.04 67.156L112.905 68.6425L109.717 69.8938L105.329 73.0269Z" fill="white"/>
<path fill-rule="evenodd" clip-rule="evenodd" d="M106.171 127.212C106.171 127.212 105.972 117.879 97.271 116.778C88.57 115.677 87.8134 125.405 88.5038 128.896L106.171 127.212Z" fill="#6D4A00"/>
<path style="mix-blend-mode:multiply" opacity="0.74" fill-rule="evenodd" clip-rule="evenodd" d="M106.228 128.388C106.228 134.551 102.01 139.547 96.7701 139.547C91.5306 139.547 87.3125 134.551 87.3125 128.388C87.3125 122.226 91.5306 117.211 96.7701 117.211C98.4328 117.267 100.049 117.772 101.445 118.672C102.841 119.572 103.965 120.833 104.696 122.32C105.708 124.184 106.234 126.27 106.228 128.388Z" fill="url(#paint32_linear_1264_14799)"/>
<path fill-rule="evenodd" clip-rule="evenodd" d="M106.228 128.387C106.228 134.182 102.265 138.877 97.3566 138.877C92.4481 138.877 88.4948 134.173 88.4948 128.387C88.4863 126.822 88.7884 125.271 89.3838 123.823C90.8025 120.305 93.8478 117.887 97.3566 117.887C102.265 117.887 106.228 122.591 106.228 128.387Z" fill="url(#paint33_radial_1264_14799)"/>
<path fill-rule="evenodd" clip-rule="evenodd" d="M103.305 124.05C103.305 127.221 101.13 129.789 98.4532 129.789C95.7768 129.789 93.6299 127.221 93.6299 124.05C93.6299 120.879 95.7957 118.32 98.4722 118.32C101.149 118.32 103.305 120.889 103.305 124.05Z" fill="#192A3E"/>
<path fill-rule="evenodd" clip-rule="evenodd" d="M122.599 128.387C122.599 128.387 122.372 117.869 131.46 116.834C139.745 115.893 140.322 127.061 140.322 127.061L122.599 128.387Z" fill="#6D4A00"/>
<path style="mix-blend-mode:multiply" opacity="0.74" fill-rule="evenodd" clip-rule="evenodd" d="M141.457 128.388C141.457 134.551 137.239 139.547 132 139.547C126.76 139.547 122.542 134.551 122.542 128.388C122.542 122.226 126.76 117.211 132 117.211C133.67 117.255 135.296 117.754 136.702 118.653C138.107 119.552 139.238 120.817 139.972 122.31C140.974 124.18 141.484 126.27 141.457 128.388Z" fill="url(#paint34_linear_1264_14799)"/>
<path fill-rule="evenodd" clip-rule="evenodd" d="M140.322 128.387C140.322 134.182 136.359 138.877 131.46 138.877C126.561 138.877 122.599 134.173 122.599 128.387C122.599 122.6 126.561 117.887 131.46 117.887C133.022 117.94 134.539 118.415 135.85 119.26C137.161 120.105 138.217 121.289 138.903 122.685C139.848 124.438 140.335 126.398 140.322 128.387Z" fill="url(#paint35_radial_1264_14799)"/>
<path fill-rule="evenodd" clip-rule="evenodd" d="M134.941 124.05C134.941 127.221 132.775 129.789 130.098 129.789C127.422 129.789 125.247 127.221 125.247 124.05C125.247 120.879 127.422 118.32 130.098 118.32C132.775 118.32 134.941 120.889 134.941 124.05Z" fill="#192A3E"/>
<path fill-rule="evenodd" clip-rule="evenodd" d="M135.754 127.558C135.756 127.838 135.674 128.112 135.519 128.346C135.364 128.579 135.142 128.762 134.883 128.87C134.623 128.978 134.337 129.006 134.061 128.952C133.785 128.898 133.531 128.763 133.332 128.565C133.134 128.368 132.998 128.115 132.944 127.841C132.889 127.566 132.918 127.281 133.027 127.023C133.135 126.765 133.319 126.545 133.553 126.39C133.788 126.236 134.064 126.154 134.345 126.156C134.718 126.159 135.075 126.307 135.339 126.57C135.602 126.832 135.752 127.187 135.754 127.558Z" fill="white"/>
<path d="M94.4245 129.491C95.208 129.491 95.8431 128.859 95.8431 128.079C95.8431 127.3 95.208 126.668 94.4245 126.668C93.641 126.668 93.0059 127.3 93.0059 128.079C93.0059 128.859 93.641 129.491 94.4245 129.491Z" fill="white"/>
<path fill-rule="evenodd" clip-rule="evenodd" d="M92.5044 108.253C95.2054 105.359 98.6087 103.205 102.388 101.996L103.106 105.016C99.7788 105.897 96.6817 107.482 94.0271 109.664L92.5044 108.253Z" fill="#6D3400"/>
<path fill-rule="evenodd" clip-rule="evenodd" d="M138.44 106.316C135.523 103.909 131.983 102.37 128.226 101.875L127.848 104.302C130.836 105.072 133.6 106.533 135.915 108.564L138.44 106.316Z" fill="#6D3400"/>
<path fill-rule="evenodd" clip-rule="evenodd" d="M123.204 141.984C123.25 142.355 123.15 142.729 122.924 143.027C122.698 143.326 122.364 143.525 121.993 143.583C118.503 144.073 118.447 141.429 114.427 141.184C110.89 140.968 107.013 144.383 105.651 142.069C105.565 141.65 105.625 141.216 105.821 140.836C106.663 138.399 109.925 133.45 114.881 133.516C119.582 133.601 123.289 139.143 123.204 141.984Z" fill="url(#paint36_linear_1264_14799)"/>
<path style="mix-blend-mode:multiply" fill-rule="evenodd" clip-rule="evenodd" d="M123.204 141.984C118.04 137.6 105.792 140.836 105.792 140.836C106.634 138.399 109.897 133.45 114.853 133.516C119.582 133.601 123.289 139.143 123.204 141.984Z" fill="url(#paint37_linear_1264_14799)"/>
<path fill-rule="evenodd" clip-rule="evenodd" d="M109.708 135.386C109.708 135.386 110.966 136.139 114.437 136.327C117.908 136.515 119.44 135.386 119.44 135.386C119.44 135.386 114.512 130.993 109.708 135.386Z" fill="url(#paint38_radial_1264_14799)"/>
<path style="mix-blend-mode:multiply" opacity="0.74" fill-rule="evenodd" clip-rule="evenodd" d="M155.776 189.59L171.589 181.254H177.141L183.345 184.218L185.955 191.058L155.776 189.59Z" fill="url(#paint39_linear_1264_14799)"/>
<path fill-rule="evenodd" clip-rule="evenodd" d="M183.344 184.22L180.687 180.278L174.568 178.688L168.818 179.788L154.716 188.82L155.776 189.592L171.589 181.256H177.14L183.344 184.22Z" fill="url(#paint40_radial_1264_14799)"/>
<path style="mix-blend-mode:multiply" opacity="0.74" fill-rule="evenodd" clip-rule="evenodd" d="M168.818 179.785L171.589 181.253L155.776 189.589L154.716 188.817L168.818 179.785Z" fill="url(#paint41_linear_1264_14799)"/>
<path style="mix-blend-mode:multiply" opacity="0.74" fill-rule="evenodd" clip-rule="evenodd" d="M31.0776 191.124L12.0868 191.462L9.14551 185.535L25.4693 186.692L31.0776 191.124Z" fill="url(#paint42_linear_1264_14799)"/>
<path fill-rule="evenodd" clip-rule="evenodd" d="M9.14551 185.535L12.5786 183.512L26.2826 185.083L32.8651 190.822L31.0776 191.123L25.4693 186.692L9.14551 185.535Z" fill="url(#paint43_radial_1264_14799)"/>
<path style="mix-blend-mode:multiply" opacity="0.74" fill-rule="evenodd" clip-rule="evenodd" d="M26.2826 185.082L25.4692 186.691L31.0776 191.122L32.8651 190.821L26.2826 185.082Z" fill="url(#paint44_linear_1264_14799)"/>
<path fill-rule="evenodd" clip-rule="evenodd" d="M102.719 85.5513L104.847 83.9989L106.019 82.4936L106.171 80.7812L104.563 83.5285L102.719 85.5513Z" fill="white"/>
</g>
<defs>
<radialGradient id="paint0_radial_1264_14799" cx="0" cy="0" r="1" gradientUnits="userSpaceOnUse" gradientTransform="translate(102 191.417) scale(72.1708 71.796)">
<stop stop-color="#90A0B7"/>
<stop offset="0.05" stop-color="#94A4BB"/>
<stop offset="0.41" stop-color="#ADBCCF"/>
<stop offset="0.73" stop-color="#BDCADC"/>
<stop offset="0.99" stop-color="#C2CFE0"/>
</radialGradient>
<radialGradient id="paint1_radial_1264_14799" cx="0" cy="0" r="1" gradientUnits="userSpaceOnUse" gradientTransform="translate(115.184 64.0631) scale(85.2223 84.7798)">
<stop stop-color="#90A0B7"/>
<stop offset="0.05" stop-color="#94A4BB"/>
<stop offset="0.41" stop-color="#ADBCCF"/>
<stop offset="0.73" stop-color="#BDCADC"/>
<stop offset="0.99" stop-color="#C2CFE0"/>
</radialGradient>
<radialGradient id="paint2_radial_1264_14799" cx="0" cy="0" r="1" gradientUnits="userSpaceOnUse" gradientTransform="translate(115.647 157.563) scale(108.8 108.235)">
<stop offset="0.01" stop-color="#FFCD00"/>
<stop offset="0.25" stop-color="#FECA00"/>
<stop offset="0.47" stop-color="#FBBF00"/>
<stop offset="0.66" stop-color="#F5AE00"/>
<stop offset="0.85" stop-color="#ED9500"/>
<stop offset="1" stop-color="#E57C00"/>
</radialGradient>
<radialGradient id="paint3_radial_1264_14799" cx="0" cy="0" r="1" gradientUnits="userSpaceOnUse" gradientTransform="translate(114.058 49.7321) scale(33.0921 32.9202)">
<stop offset="0.01" stop-color="#FFD700"/>
<stop offset="0.2" stop-color="#FED400"/>
<stop offset="0.37" stop-color="#FBC900"/>
<stop offset="0.52" stop-color="#F6B800"/>
<stop offset="0.67" stop-color="#EF9F00"/>
<stop offset="0.81" stop-color="#E67F00"/>
<stop offset="0.82" stop-color="#E57C00"/>
</radialGradient>
<linearGradient id="paint4_linear_1264_14799" x1="133.238" y1="193.333" x2="133.238" y2="10.31" gradientUnits="userSpaceOnUse">
<stop stop-color="white"/>
<stop offset="1" stop-color="#90A0B7"/>
</linearGradient>
<linearGradient id="paint5_linear_1264_14799" x1="87.8704" y1="178.026" x2="87.8704" y2="96.6055" gradientUnits="userSpaceOnUse">
<stop/>
<stop offset="0.07" stop-color="#2A1B07"/>
<stop offset="0.16" stop-color="#5B3C10"/>
<stop offset="0.26" stop-color="#875817"/>
<stop offset="0.36" stop-color="#AC711E"/>
<stop offset="0.47" stop-color="#CA8423"/>
<stop offset="0.58" stop-color="#E29427"/>
<stop offset="0.7" stop-color="#F29F2A"/>
<stop offset="0.83" stop-color="#FCA52B"/>
<stop offset="0.99" stop-color="#FFA72C"/>
</linearGradient>
<linearGradient id="paint6_linear_1264_14799" x1="94.9731" y1="39.8836" x2="106.568" y2="39.8836" gradientUnits="userSpaceOnUse">
<stop stop-color="#334D6E"/>
<stop offset="0.05" stop-color="#3E5676"/>
<stop offset="0.2" stop-color="#5B718E"/>
<stop offset="0.37" stop-color="#7386A0"/>
<stop offset="0.55" stop-color="#8395AD"/>
<stop offset="0.74" stop-color="#8D9DB5"/>
<stop offset="0.99" stop-color="#90A0B7"/>
</linearGradient>
<radialGradient id="paint7_radial_1264_14799" cx="0" cy="0" r="1" gradientUnits="userSpaceOnUse" gradientTransform="translate(113.273 72.8391) scale(4.32212 4.29967)">
<stop offset="0.01" stop-color="#FFCD00"/>
<stop offset="0.25" stop-color="#FECA00"/>
<stop offset="0.47" stop-color="#FBBF00"/>
<stop offset="0.66" stop-color="#F5AE00"/>
<stop offset="0.85" stop-color="#ED9500"/>
<stop offset="1" stop-color="#E57C00"/>
</radialGradient>
<linearGradient id="paint8_linear_1264_14799" x1="97.8671" y1="163.52" x2="97.8671" y2="157.461" gradientUnits="userSpaceOnUse">
<stop stop-color="#DB7D8D"/>
<stop offset="1" stop-color="white"/>
</linearGradient>
<linearGradient id="paint9_linear_1264_14799" x1="113.605" y1="150.038" x2="113.605" y2="146.35" gradientUnits="userSpaceOnUse">
<stop stop-color="#DB7D8D"/>
<stop offset="1" stop-color="white"/>
</linearGradient>
<radialGradient id="paint10_radial_1264_14799" cx="0" cy="0" r="1" gradientUnits="userSpaceOnUse" gradientTransform="translate(119.317 106.288) scale(2.30765 2.29567)">
<stop offset="0.01" stop-color="#FFCD00"/>
<stop offset="0.25" stop-color="#FECA00"/>
<stop offset="0.47" stop-color="#FBBF00"/>
<stop offset="0.66" stop-color="#F5AE00"/>
<stop offset="0.85" stop-color="#ED9500"/>
<stop offset="1" stop-color="#E57C00"/>
</radialGradient>
<radialGradient id="paint11_radial_1264_14799" cx="0" cy="0" r="1" gradientUnits="userSpaceOnUse" gradientTransform="translate(108.545 90.0396) scale(3.21558 3.19888)">
<stop offset="0.01" stop-color="#FFE95B"/>
<stop offset="0.24" stop-color="#FFE658"/>
<stop offset="0.44" stop-color="#FFDD4D"/>
<stop offset="0.63" stop-color="#FFCD3C"/>
<stop offset="0.81" stop-color="#FFB623"/>
<stop offset="0.98" stop-color="#FF9A03"/>
<stop offset="1" stop-color="#FF9700"/>
</radialGradient>
<radialGradient id="paint12_radial_1264_14799" cx="0" cy="0" r="1" gradientUnits="userSpaceOnUse" gradientTransform="translate(110.171 70.3581) scale(1.0025 0.997298)">
<stop offset="0.01" stop-color="#FFE95B"/>
<stop offset="0.24" stop-color="#FFE658"/>
<stop offset="0.44" stop-color="#FFDD4D"/>
<stop offset="0.63" stop-color="#FFCD3C"/>
<stop offset="0.81" stop-color="#FFB623"/>
<stop offset="0.98" stop-color="#FF9A03"/>
<stop offset="1" stop-color="#FF9700"/>
</radialGradient>
<radialGradient id="paint13_radial_1264_14799" cx="0" cy="0" r="1" gradientUnits="userSpaceOnUse" gradientTransform="translate(118.73 51.6055) scale(1.0025 0.997298)">
<stop offset="0.01" stop-color="#FFCD00"/>
<stop offset="0.25" stop-color="#FECA00"/>
<stop offset="0.47" stop-color="#FBBF00"/>
<stop offset="0.66" stop-color="#F5AE00"/>
<stop offset="0.85" stop-color="#ED9500"/>
<stop offset="1" stop-color="#E57C00"/>
</radialGradient>
<radialGradient id="paint14_radial_1264_14799" cx="0" cy="0" r="1" gradientUnits="userSpaceOnUse" gradientTransform="translate(112.64 52.3126) scale(1.0025 0.997298)">
<stop offset="0.01" stop-color="#FFE95B"/>
<stop offset="0.24" stop-color="#FFE658"/>
<stop offset="0.44" stop-color="#FFDD4D"/>
<stop offset="0.63" stop-color="#FFCD3C"/>
<stop offset="0.81" stop-color="#FFB623"/>
<stop offset="0.98" stop-color="#FF9A03"/>
<stop offset="1" stop-color="#FF9700"/>
</radialGradient>
<radialGradient id="paint15_radial_1264_14799" cx="0" cy="0" r="1" gradientUnits="userSpaceOnUse" gradientTransform="translate(124.991 173.202) scale(1.0025 0.997298)">
<stop offset="0.01" stop-color="#FFE95B"/>
<stop offset="0.24" stop-color="#FFE658"/>
<stop offset="0.44" stop-color="#FFDD4D"/>
<stop offset="0.63" stop-color="#FFCD3C"/>
<stop offset="0.81" stop-color="#FFB623"/>
<stop offset="0.98" stop-color="#FF9A03"/>
<stop offset="1" stop-color="#FF9700"/>
</radialGradient>
<radialGradient id="paint16_radial_1264_14799" cx="0" cy="0" r="1" gradientUnits="userSpaceOnUse" gradientTransform="translate(110.2 58.5225) scale(1.85369 1.84406)">
<stop offset="0.01" stop-color="#FFE95B"/>
<stop offset="0.24" stop-color="#FFE658"/>
<stop offset="0.44" stop-color="#FFDD4D"/>
<stop offset="0.63" stop-color="#FFCD3C"/>
<stop offset="0.81" stop-color="#FFB623"/>
<stop offset="0.98" stop-color="#FF9A03"/>
<stop offset="1" stop-color="#FF9700"/>
</radialGradient>
<radialGradient id="paint17_radial_1264_14799" cx="0" cy="0" r="1" gradientUnits="userSpaceOnUse" gradientTransform="translate(121.067 170.991) scale(1.85369 1.84407)">
<stop offset="0.01" stop-color="#FFE95B"/>
<stop offset="0.24" stop-color="#FFE658"/>
<stop offset="0.44" stop-color="#FFDD4D"/>
<stop offset="0.63" stop-color="#FFCD3C"/>
<stop offset="0.81" stop-color="#FFB623"/>
<stop offset="0.98" stop-color="#FF9A03"/>
<stop offset="1" stop-color="#FF9700"/>
</radialGradient>
<radialGradient id="paint18_radial_1264_14799" cx="0" cy="0" r="1" gradientUnits="userSpaceOnUse" gradientTransform="translate(88.0974 137.788) scale(3.21558 3.19888)">
<stop offset="0.01" stop-color="#FFE95B"/>
<stop offset="0.24" stop-color="#FFE658"/>
<stop offset="0.44" stop-color="#FFDD4D"/>
<stop offset="0.63" stop-color="#FFCD3C"/>
<stop offset="0.81" stop-color="#FFB623"/>
<stop offset="0.98" stop-color="#FF9A03"/>
<stop offset="1" stop-color="#FF9700"/>
</radialGradient>
<radialGradient id="paint19_radial_1264_14799" cx="0" cy="0" r="1" gradientUnits="userSpaceOnUse" gradientTransform="translate(112.167 103.05) scale(2.30765 2.29566)">
<stop offset="0.01" stop-color="#FFCD00"/>
<stop offset="0.25" stop-color="#FECA00"/>
<stop offset="0.47" stop-color="#FBBF00"/>
<stop offset="0.66" stop-color="#F5AE00"/>
<stop offset="0.85" stop-color="#ED9500"/>
<stop offset="1" stop-color="#E57C00"/>
</radialGradient>
<radialGradient id="paint20_radial_1264_14799" cx="0" cy="0" r="1" gradientUnits="userSpaceOnUse" gradientTransform="translate(51.4671 181.906) rotate(1.70944) scale(10.8527 10.7964)">
<stop offset="0.01" stop-color="#449F2F"/>
<stop offset="0.36" stop-color="#449C2F"/>
<stop offset="0.65" stop-color="#44912F"/>
<stop offset="0.93" stop-color="#44802F"/>
<stop offset="1" stop-color="#447A2F"/>
</radialGradient>
<linearGradient id="paint21_linear_1264_14799" x1="111.618" y1="30.5305" x2="111.618" y2="0" gradientUnits="userSpaceOnUse">
<stop stop-color="white"/>
<stop offset="1" stop-color="#90A0B7"/>
</linearGradient>
<radialGradient id="paint22_radial_1264_14799" cx="0" cy="0" r="1" gradientUnits="userSpaceOnUse" gradientTransform="translate(118.485 8.68402) scale(8.28484 8.24182)">
<stop stop-color="#90A0B7"/>
<stop offset="0.05" stop-color="#94A4BB"/>
<stop offset="0.41" stop-color="#ADBCCF"/>
<stop offset="0.73" stop-color="#BDCADC"/>
<stop offset="0.99" stop-color="#C2CFE0"/>
</radialGradient>
<radialGradient id="paint23_radial_1264_14799" cx="0" cy="0" r="1" gradientUnits="userSpaceOnUse" gradientTransform="translate(103.305 14.9398) scale(7.17831 7.14103)">
<stop stop-color="#90A0B7"/>
<stop offset="0.05" stop-color="#94A4BB"/>
<stop offset="0.41" stop-color="#ADBCCF"/>
<stop offset="0.73" stop-color="#BDCADC"/>
<stop offset="0.99" stop-color="#C2CFE0"/>
</radialGradient>
<linearGradient id="paint24_linear_1264_14799" x1="107.098" y1="3.6693" x2="111.618" y2="3.6693" gradientUnits="userSpaceOnUse">
<stop stop-color="white"/>
<stop offset="1" stop-color="#90A0B7"/>
</linearGradient>
<radialGradient id="paint25_radial_1264_14799" cx="0" cy="0" r="1" gradientUnits="userSpaceOnUse" gradientTransform="translate(97.2714 69.188) scale(36.9318 36.7401)">
<stop stop-color="#90A0B7"/>
<stop offset="0.05" stop-color="#94A4BB"/>
<stop offset="0.41" stop-color="#ADBCCF"/>
<stop offset="0.73" stop-color="#BDCADC"/>
<stop offset="0.99" stop-color="#C2CFE0"/>
</radialGradient>
<radialGradient id="paint26_radial_1264_14799" cx="0" cy="0" r="1" gradientUnits="userSpaceOnUse" gradientTransform="translate(114.214 186.751) scale(17.1496 7.59546)">
<stop offset="0.01" stop-color="#FFFF2C"/>
<stop offset="0.17" stop-color="#FCFC2B"/>
<stop offset="0.3" stop-color="#F2F22A"/>
<stop offset="0.42" stop-color="#E2E227"/>
<stop offset="0.53" stop-color="#CACA23"/>
<stop offset="0.64" stop-color="#ACAC1E"/>
<stop offset="0.74" stop-color="#878717"/>
<stop offset="0.84" stop-color="#5B5B10"/>
<stop offset="0.93" stop-color="#2A2A07"/>
<stop offset="1"/>
</radialGradient>
<radialGradient id="paint27_radial_1264_14799" cx="0" cy="0" r="1" gradientUnits="userSpaceOnUse" gradientTransform="translate(114.214 186.751) scale(10.3008 4.56217)">
<stop offset="0.01" stop-color="#FFFF2C"/>
<stop offset="0.17" stop-color="#FCFC2B"/>
<stop offset="0.3" stop-color="#F2F22A"/>
<stop offset="0.42" stop-color="#E2E227"/>
<stop offset="0.53" stop-color="#CACA23"/>
<stop offset="0.64" stop-color="#ACAC1E"/>
<stop offset="0.74" stop-color="#878717"/>
<stop offset="0.84" stop-color="#5B5B10"/>
<stop offset="0.93" stop-color="#2A2A07"/>
<stop offset="1"/>
</radialGradient>
<radialGradient id="paint28_radial_1264_14799" cx="0" cy="0" r="1" gradientUnits="userSpaceOnUse" gradientTransform="translate(94.7272 74.4387) scale(13.8743 13.8022)">
<stop stop-color="#90A0B7"/>
<stop offset="0.05" stop-color="#94A4BB"/>
<stop offset="0.41" stop-color="#ADBCCF"/>
<stop offset="0.73" stop-color="#BDCADC"/>
<stop offset="0.99" stop-color="#C2CFE0"/>
</radialGradient>
<radialGradient id="paint29_radial_1264_14799" cx="0" cy="0" r="1" gradientUnits="userSpaceOnUse" gradientTransform="translate(109.093 83.0411) scale(12.4367 12.3722)">
<stop offset="0.01" stop-color="#FFF095"/>
<stop offset="0.21" stop-color="#FCED95"/>
<stop offset="0.38" stop-color="#F2E296"/>
<stop offset="0.54" stop-color="#E0D197"/>
<stop offset="0.69" stop-color="#C8B898"/>
<stop offset="0.84" stop-color="#A9989A"/>
<stop offset="0.98" stop-color="#84719C"/>
<stop offset="1" stop-color="#7E6B9C"/>
</radialGradient>
<linearGradient id="paint30_linear_1264_14799" x1="107.06" y1="33.9746" x2="107.06" y2="10.1523" gradientUnits="userSpaceOnUse">
<stop/>
<stop offset="0.01" stop-color="#030201"/>
<stop offset="0.12" stop-color="#2E240C"/>
<stop offset="0.24" stop-color="#534216"/>
<stop offset="0.37" stop-color="#71591E"/>
<stop offset="0.5" stop-color="#896C24"/>
<stop offset="0.64" stop-color="#997929"/>
<stop offset="0.8" stop-color="#A3812B"/>
<stop offset="1" stop-color="#A6832C"/>
</linearGradient>
<linearGradient id="paint31_linear_1264_14799" x1="122.646" y1="22.0623" x2="122.646" y2="8.73047" gradientUnits="userSpaceOnUse">
<stop/>
<stop offset="0.01" stop-color="#030201"/>
<stop offset="0.12" stop-color="#2E240C"/>
<stop offset="0.24" stop-color="#534216"/>
<stop offset="0.37" stop-color="#71591E"/>
<stop offset="0.5" stop-color="#896C24"/>
<stop offset="0.64" stop-color="#997929"/>
<stop offset="0.8" stop-color="#A3812B"/>
<stop offset="1" stop-color="#A6832C"/>
</linearGradient>
<linearGradient id="paint32_linear_1264_14799" x1="96.789" y1="139.547" x2="96.789" y2="117.211" gradientUnits="userSpaceOnUse">
<stop stop-color="#B8668D"/>
<stop offset="1" stop-color="white"/>
</linearGradient>
<radialGradient id="paint33_radial_1264_14799" cx="0" cy="0" r="1" gradientUnits="userSpaceOnUse" gradientTransform="translate(97.3566 122.149) scale(16.7777 16.6906)">
<stop offset="0.01" stop-color="white"/>
<stop offset="0.3" stop-color="#FDFCFC"/>
<stop offset="0.56" stop-color="#F6F1F4"/>
<stop offset="0.8" stop-color="#EBE0E5"/>
<stop offset="1" stop-color="#DECAD3"/>
</radialGradient>
<linearGradient id="paint34_linear_1264_14799" x1="132.028" y1="139.547" x2="132.028" y2="117.211" gradientUnits="userSpaceOnUse">
<stop stop-color="#B8668D"/>
<stop offset="1" stop-color="white"/>
</linearGradient>
<radialGradient id="paint35_radial_1264_14799" cx="0" cy="0" r="1" gradientUnits="userSpaceOnUse" gradientTransform="translate(131.46 122.149) scale(16.7777 16.6906)">
<stop offset="0.01" stop-color="white"/>
<stop offset="0.3" stop-color="#FDFCFC"/>
<stop offset="0.56" stop-color="#F6F1F4"/>
<stop offset="0.8" stop-color="#EBE0E5"/>
<stop offset="1" stop-color="#DECAD3"/>
</radialGradient>
<linearGradient id="paint36_linear_1264_14799" x1="114.673" y1="144.383" x2="113.494" y2="133.609" gradientUnits="userSpaceOnUse">
<stop offset="0.01" stop-color="#CE2E13"/>
<stop offset="0.36" stop-color="#CB2E15"/>
<stop offset="0.64" stop-color="#C1301C"/>
<stop offset="0.89" stop-color="#B13227"/>
<stop offset="1" stop-color="#A7332D"/>
</linearGradient>
<linearGradient id="paint37_linear_1264_14799" x1="105.594" y1="139.19" x2="122.719" y2="137.298" gradientUnits="userSpaceOnUse">
<stop stop-color="#CA528D"/>
<stop offset="1" stop-color="#B3757C"/>
</linearGradient>
<radialGradient id="paint38_radial_1264_14799" cx="0" cy="0" r="1" gradientUnits="userSpaceOnUse" gradientTransform="translate(114.607 134.022) scale(4.77608 4.75128)">
<stop offset="0.01" stop-color="white"/>
<stop offset="0.3" stop-color="#FDFCFC"/>
<stop offset="0.56" stop-color="#F6F1F4"/>
<stop offset="0.8" stop-color="#EBE0E5"/>
<stop offset="1" stop-color="#DECAD3"/>
</radialGradient>
<linearGradient id="paint39_linear_1264_14799" x1="155.776" y1="186.156" x2="185.955" y2="186.156" gradientUnits="userSpaceOnUse">
<stop stop-color="white"/>
<stop offset="1" stop-color="#90A0B7"/>
</linearGradient>
<radialGradient id="paint40_radial_1264_14799" cx="0" cy="0" r="1" gradientUnits="userSpaceOnUse" gradientTransform="translate(169.026 184.144) scale(10.8384 10.7821)">
<stop stop-color="#90A0B7"/>
<stop offset="0.05" stop-color="#94A4BB"/>
<stop offset="0.41" stop-color="#ADBCCF"/>
<stop offset="0.73" stop-color="#BDCADC"/>
<stop offset="0.99" stop-color="#C2CFE0"/>
</radialGradient>
<linearGradient id="paint41_linear_1264_14799" x1="154.707" y1="184.687" x2="171.589" y2="184.687" gradientUnits="userSpaceOnUse">
<stop stop-color="white"/>
<stop offset="1" stop-color="#90A0B7"/>
</linearGradient>
<linearGradient id="paint42_linear_1264_14799" x1="31.0776" y1="188.499" x2="9.15497" y2="188.499" gradientUnits="userSpaceOnUse">
<stop stop-color="white"/>
<stop offset="1" stop-color="#90A0B7"/>
</linearGradient>
<radialGradient id="paint43_radial_1264_14799" cx="0" cy="0" r="1" gradientUnits="userSpaceOnUse" gradientTransform="translate(21.0053 187.322) scale(8.81447 8.76869)">
<stop stop-color="#90A0B7"/>
<stop offset="0.05" stop-color="#94A4BB"/>
<stop offset="0.41" stop-color="#ADBCCF"/>
<stop offset="0.73" stop-color="#BDCADC"/>
<stop offset="0.99" stop-color="#C2CFE0"/>
</radialGradient>
<linearGradient id="paint44_linear_1264_14799" x1="25.4692" y1="188.102" x2="32.8651" y2="188.102" gradientUnits="userSpaceOnUse">
<stop stop-color="white"/>
<stop offset="1" stop-color="#90A0B7"/>
</linearGradient>
<clipPath id="clip0_1264_14799">
<rect width="224" height="195" fill="white"/>
</clipPath>
</defs>
</svg>
