<svg width="96" height="194" viewBox="0 0 96 194" fill="none" xmlns="http://www.w3.org/2000/svg">
<g clip-path="url(#clip0_930_15040)">
<path fill-rule="evenodd" clip-rule="evenodd" d="M72.0141 131.259C73.3462 129.674 76.5611 129.235 77.335 133.157L75.8467 147.542L77.335 148.941L75.3629 150.042L76.5611 151.798L74.9537 152.721L75.8095 154.046L74.7527 154.849L76.3155 169.949L71.0095 170.187L71.5676 155.095L70.0793 153.696L71.4634 152.208L69.3574 150.355L71.4783 149.075L70.1537 147.4L71.2923 146.775L72.0141 131.259Z" fill="url(#paint0_radial_930_15040)"/>
<path style="mix-blend-mode:multiply" opacity="0.74" fill-rule="evenodd" clip-rule="evenodd" d="M70.0793 153.694C70.0793 153.694 73.6365 152.727 75.8095 154.044L74.7528 154.847C73.6849 154.741 72.6067 154.824 71.5677 155.093L70.0793 153.694Z" fill="url(#paint1_linear_930_15040)"/>
<path style="mix-blend-mode:multiply" opacity="0.74" fill-rule="evenodd" clip-rule="evenodd" d="M71.4412 152.222C72.0208 152.022 72.6396 151.963 73.2465 152.05C73.8535 152.136 74.431 152.366 74.9314 152.72L76.5389 151.798C76.5389 151.798 74.2021 150.309 69.3352 150.369L71.4412 152.222Z" fill="url(#paint2_linear_930_15040)"/>
<path style="mix-blend-mode:multiply" opacity="0.74" fill-rule="evenodd" clip-rule="evenodd" d="M71.4785 149.09C72.1556 148.94 72.8584 148.947 73.5321 149.112C74.2059 149.278 74.8324 149.596 75.3631 150.043L77.3351 148.941C77.3351 148.941 75.1026 147.595 70.1538 147.453L71.4785 149.09Z" fill="url(#paint3_linear_930_15040)"/>
<path fill-rule="evenodd" clip-rule="evenodd" d="M92.1293 189.477C76.9308 192.464 61.4796 193.979 45.9903 194.001C30.5497 193.988 15.147 192.473 0 189.477C0 189.477 20.6212 187.363 46.0647 187.363C71.5081 187.363 92.1293 189.477 92.1293 189.477Z" fill="#E8EEF8"/>
<path fill-rule="evenodd" clip-rule="evenodd" d="M69.4617 4.7117C69.4617 4.7117 72.1333 7.84469 81.1825 12.1535C90.2317 16.4623 94.7414 16.0307 94.7414 16.0381C94.5231 14.6738 94.3098 13.3119 94.1014 11.9526L76.5835 4.61496L72.0291 3.55078L69.4617 4.7117Z" fill="#484300"/>
<path fill-rule="evenodd" clip-rule="evenodd" d="M75.9063 189.408C75.9063 189.371 62.2878 193.3 42.835 193.062C23.9924 192.839 9.94227 187.801 9.94971 187.764C9.95715 187.727 10.4111 165.55 13.7525 141.692C16.7292 117.781 22.6826 92.2781 25.451 84.5908C32.1858 71.7388 45.1717 68.1295 45.127 68.1444C51.4415 51.5843 58.6457 35.3773 66.7082 19.5942C66.4701 18.6491 66.232 17.7114 65.9641 16.7589C68.1992 13.6562 70.1897 10.3843 71.9175 6.97292C72.1584 6.48809 72.3745 5.99133 72.5649 5.48456L75.2365 3.37109L91.854 10.7087C91.9508 11.8026 92.0624 12.8966 92.174 13.9905C91.6611 15.0933 91.2235 16.2295 90.8643 17.3914C90.0161 20.223 89.3916 23.1169 88.9964 26.0462L86.5704 27.5346C81.9326 43.6629 78.1764 60.0318 75.3184 76.5685C75.3184 76.5685 84.4643 85.8559 85.1862 98.5888C84.442 104.49 80.2076 126.994 78.2505 148.263C75.9509 169.442 75.9435 189.431 75.9063 189.408Z" fill="url(#paint4_radial_930_15040)"/>
<path fill-rule="evenodd" clip-rule="evenodd" d="M48.7213 178.296C31.3224 177.455 14.0946 184.205 14.1021 184.25C13.2612 167.431 22.9504 100.157 29.0973 86.4123C34.8498 75.8375 45.886 72.4962 45.9678 72.4738L48.0441 71.8636C49.3092 67.8599 50.6214 63.8736 51.9808 59.9047C60.0179 59.865 68.0352 59.9419 76.0326 60.1354C74.6981 66.6147 73.5074 73.1114 72.4606 79.6254C72.5499 79.7147 80.3489 87.7444 81.1154 98.4903C78.4289 109.504 70.749 171.048 71.895 186.14C71.8876 186.155 67.5565 179.197 48.7213 178.296Z" fill="url(#paint5_radial_930_15040)"/>
<path fill-rule="evenodd" clip-rule="evenodd" d="M51.981 59.898C51.981 60.0841 46.2509 68.7314 76.0329 60.1287C76.0329 60.1808 67.9214 57.4273 51.981 59.898Z" fill="url(#paint6_radial_930_15040)"/>
<path fill-rule="evenodd" clip-rule="evenodd" d="M50.4851 63.7546C50.2023 65.1685 49.9344 66.5899 49.6665 68.0113C49.6665 68.0113 52.1223 67.0587 53.6255 67.8178C54.5717 68.3143 55.4092 68.9949 56.0888 69.8196C56.0888 69.8196 57.5771 66.6643 59.4301 66.3443C61.2831 66.0243 61.9752 67.0885 61.9752 67.0885C61.9752 67.0885 62.3101 70.214 64.7287 69.8792C67.5715 69.4847 66.7677 72.4689 66.7677 72.4689C66.7677 72.4689 68.6356 71.7619 69.1268 72.4689C69.1268 72.4689 68.0849 70.9805 68.71 70.3405C68.8147 70.2076 68.9466 70.0984 69.0968 70.0204C69.247 69.9424 69.4122 69.8973 69.5812 69.8882C69.7502 69.879 69.9192 69.906 70.077 69.9673C70.2347 70.0286 70.3776 70.1229 70.4961 70.2438C71.0299 69.542 71.7987 69.0559 72.6616 68.8745C74.0681 68.6066 74.1946 69.1201 74.1946 69.1201C76.1221 62.1471 79.7834 44.6961 79.7834 44.6961C73.1379 44.6515 64.0738 44.9343 57.3985 45.0608C54.9626 51.2375 52.6581 57.4687 50.4851 63.7546Z" fill="url(#paint7_radial_930_15040)"/>
<path style="mix-blend-mode:multiply" opacity="0.74" fill-rule="evenodd" clip-rule="evenodd" d="M91.8614 10.707C91.8614 10.707 87.6791 17.1442 87.2326 24.3627C80.1778 21.8176 73.1007 19.2825 66.0012 16.7572C66.2319 17.7023 66.47 18.6474 66.7454 19.5925C66.7454 19.5925 77.9081 22.733 78.816 25.8436C78.816 28.7087 62.5854 81.9845 63.5231 82.2152C66.544 88.9089 67.8583 96.2471 67.3482 103.573C66.857 109.787 62.6598 131.725 60.4794 152.428C57.9938 173.087 57.5027 192.503 57.5027 192.48C62.2853 191.701 67.0703 190.957 71.8579 190.248C71.91 190.248 72.6021 169.411 75.4969 147.658C78.042 125.832 82.7973 103.089 82.6634 97.7983C82.1871 87.2384 73.2421 76.418 73.2421 76.3734C76.3948 59.917 80.4341 43.6429 85.3424 27.6222L86.6447 27.5106C87.4485 27.0194 88.2596 26.5357 89.0708 26.0222C89.0708 26.0222 89.1675 21.2223 92.2484 13.9889L91.8614 10.707Z" fill="url(#paint8_linear_930_15040)"/>
<path fill-rule="evenodd" clip-rule="evenodd" d="M27.9364 100.377C27.8917 100.377 30.3475 86.8326 34.9912 80.6484L42.433 81.7498C42.433 81.7498 37.0675 93.6567 35.4526 101.902L27.9364 100.377Z" fill="white"/>
<path style="mix-blend-mode:screen" opacity="0.5" fill-rule="evenodd" clip-rule="evenodd" d="M27.9364 100.375C22.8042 125.701 19.6246 151.383 18.4258 177.196L26.7234 177.576C27.6955 152.164 30.6188 126.864 35.4675 101.9L27.9364 100.375Z" fill="url(#paint9_linear_930_15040)"/>
<g style="mix-blend-mode:soft-light">
<path fill-rule="evenodd" clip-rule="evenodd" d="M75.9062 189.401C72.6467 190.051 69.3922 190.713 66.1426 191.388C65.8315 164.268 67.9359 137.175 72.4309 110.429C72.4309 110.429 79.6867 107.452 84.7024 102.094C78.9157 130.838 75.9694 160.081 75.9062 189.401Z" fill="white"/>
</g>
<path fill-rule="evenodd" clip-rule="evenodd" d="M67.9882 14.3477L75.2886 17.3244L74.1426 19.423L66.6338 16.6546L67.9882 14.3477Z" fill="white"/>
<path style="mix-blend-mode:screen" opacity="0.5" fill-rule="evenodd" clip-rule="evenodd" d="M45.3206 70.6989L53.5809 72.9314C58.6056 56.3263 64.5179 40.0028 71.2924 24.0314L67.0952 21.0547C58.9261 37.1881 51.6568 53.7615 45.3206 70.6989Z" fill="url(#paint10_linear_930_15040)"/>
<path fill-rule="evenodd" clip-rule="evenodd" d="M75.6755 20.2125C75.9881 19.4683 76.3006 18.6646 76.6206 17.8906L78.7043 18.7464C78.3992 19.4906 78.0941 20.2348 77.7964 20.979L75.6755 20.2125Z" fill="white"/>
<g style="mix-blend-mode:soft-light">
<path fill-rule="evenodd" clip-rule="evenodd" d="M72.4608 79.6271L69.1194 78.7267C71.7687 65.8276 74.9736 53.0252 78.7342 40.3196C80.2895 39.9177 81.8374 39.5159 83.3927 39.1289C80.168 51.5319 77.4765 64.0043 75.3184 76.5462L72.4608 79.6271Z" fill="white"/>
</g>
<g style="mix-blend-mode:soft-light">
<path fill-rule="evenodd" clip-rule="evenodd" d="M18.0613 187.922C18.0613 187.922 24.6473 191.427 42.5299 191.643C60.4125 191.859 68.405 188.16 68.4124 188.175C68.4199 188.19 59.4823 190.46 42.7234 190.333C25.9645 190.206 18.0613 187.937 18.0613 187.922Z" fill="white"/>
</g>
<path fill-rule="evenodd" clip-rule="evenodd" d="M72.5723 5.49375C75.9955 6.6497 79.4162 7.81062 82.8345 8.9765L85.0149 8.23233L75.5192 4.03516C74.5369 4.51143 73.5546 5.00259 72.5723 5.49375Z" fill="white"/>
<path fill-rule="evenodd" clip-rule="evenodd" d="M61.3948 30.6367C61.3948 30.6367 71.27 27.3177 85.6848 30.5028C83.8541 37.0069 82.1698 43.5309 80.6318 50.0747C80.6318 50.0747 63.0171 50.0226 50.0684 55.8569C53.6206 47.3287 57.396 38.9219 61.3948 30.6367Z" fill="url(#paint11_linear_930_15040)"/>
<path d="M60.7249 45.3369C60.556 45.3609 60.3837 45.3398 60.2256 45.2758C60.0675 45.2117 59.9291 45.107 59.8245 44.9722C59.6111 44.6389 59.5215 44.2412 59.5714 43.8485L58.9761 45.2922L57.8003 45.3666C59.4524 41.4721 61.1466 37.5999 62.883 33.75H64.0737C63.3891 35.3029 62.7069 36.8607 62.0272 38.4234C62.3756 37.9831 62.7897 37.599 63.2551 37.2848C63.5878 37.0258 63.9946 36.8798 64.416 36.8681C64.5592 36.8548 64.7034 36.8794 64.834 36.9395C64.9647 36.9996 65.0772 37.093 65.1602 37.2104C65.3405 37.4774 65.4435 37.789 65.4579 38.1109C65.4661 38.5604 65.411 39.0088 65.2942 39.443C65.1779 39.9897 65.0136 40.5251 64.803 41.043C64.5859 41.6098 64.3169 42.1554 63.9993 42.6727C63.7055 43.1544 63.3612 43.6034 62.9723 44.0122C62.6407 44.3729 62.2628 44.6882 61.8486 44.9499C61.5102 45.1665 61.125 45.2992 60.7249 45.3369ZM61.0821 43.5732C61.3181 43.5501 61.5452 43.471 61.7444 43.3425C61.9891 43.1926 62.212 43.0098 62.4068 42.7992C62.6286 42.5708 62.828 42.3216 63.0021 42.055C63.1902 41.7583 63.3497 41.4443 63.4784 41.1174C63.6043 40.8172 63.7014 40.5057 63.7686 40.1871C63.8264 39.931 63.8465 39.6677 63.8281 39.4058C63.8173 39.2133 63.7528 39.0277 63.6421 38.87C63.5923 38.804 63.5266 38.7517 63.4511 38.7178C63.3757 38.684 63.2929 38.6698 63.2105 38.6765C62.845 38.7139 62.5047 38.88 62.2505 39.1453C61.8736 39.4889 61.5388 39.8761 61.2533 40.2988C60.9705 40.9537 60.6877 41.616 60.4124 42.2708C60.3718 42.4539 60.3592 42.6421 60.3752 42.829C60.3844 42.9772 60.425 43.1218 60.4942 43.2532C60.5496 43.3616 60.6348 43.4519 60.7398 43.5136C60.8456 43.5666 60.9646 43.5873 61.0821 43.5732Z" fill="white"/>
<path d="M66.5221 44.993C66.1742 45.0438 65.8199 44.9596 65.5321 44.7575C65.2443 44.5555 65.0447 44.251 64.9742 43.9065C64.8752 43.4844 64.8601 43.047 64.9296 42.619C65.0086 42.0832 65.151 41.5586 65.3538 41.0563C65.5736 40.4927 65.8478 39.9519 66.1724 39.4414C66.4718 38.9642 66.8211 38.5202 67.2142 38.1168C67.5562 37.7575 67.95 37.4515 68.3826 37.2089C68.745 37.0008 69.1553 36.8905 69.5733 36.8889C69.7429 36.8789 69.9128 36.9035 70.0727 36.9611C70.2325 37.0186 70.3791 37.108 70.5035 37.2237C70.7473 37.4586 70.9135 37.7624 70.9798 38.0944C71.0704 38.5074 71.088 38.933 71.0319 39.3521C70.9643 39.8592 70.8446 40.3579 70.6747 40.8405L70.5407 41.2051C70.496 41.3167 70.4514 41.4209 70.4142 41.4953L66.4924 41.607C66.4012 41.869 66.3437 42.1416 66.3212 42.4181C66.3019 42.6215 66.3247 42.8267 66.3882 43.0209C66.44 43.1721 66.5392 43.3025 66.671 43.393C66.7996 43.4806 66.9551 43.5202 67.11 43.5046C67.4181 43.4837 67.7132 43.3724 67.9584 43.1846C68.2557 42.9913 68.5092 42.7378 68.7026 42.4404L69.6551 42.8721C69.2758 43.4529 68.7912 43.9577 68.2263 44.3604C67.7311 44.7312 67.1393 44.9509 66.5221 44.993ZM69.5733 40.2451C69.7489 39.8027 69.7853 39.3171 69.6774 38.8535C69.6456 38.7 69.5598 38.563 69.4355 38.4674C69.3112 38.3718 69.1568 38.324 69.0002 38.3326C68.8153 38.3364 68.634 38.3849 68.4719 38.474C68.2738 38.5832 68.0911 38.7184 67.9286 38.8758C67.737 39.0638 67.565 39.2708 67.4151 39.4935C67.2455 39.748 67.0986 40.0169 66.9761 40.2972L69.5733 40.2451Z" fill="white"/>
<path d="M72.5202 44.6864C72.1568 44.7203 71.7925 44.6312 71.4858 44.4334C71.2065 44.2344 71 43.9496 70.8979 43.6222C70.7845 43.2311 70.7466 42.822 70.7862 42.4167C70.8318 41.908 70.9444 41.4075 71.1211 40.9283C71.3126 40.3917 71.5621 39.8776 71.8653 39.3953C72.1367 38.9388 72.4587 38.5144 72.8253 38.1302C73.1481 37.791 73.5223 37.5047 73.9341 37.2818C74.2932 37.0805 74.6982 36.9754 75.1099 36.9767C75.4558 36.9718 75.7927 37.0876 76.0625 37.3042C76.3149 37.5286 76.4981 37.8203 76.5908 38.1451C76.7049 38.5335 76.7478 38.9395 76.7173 39.3432C76.6825 39.8281 76.5927 40.3075 76.4494 40.772L76.3378 41.1218C76.3072 41.2161 76.2699 41.3081 76.2262 41.3971L72.3118 41.479C72.2375 41.7256 72.195 41.9807 72.1853 42.2381C72.1805 42.4373 72.2186 42.6353 72.2969 42.8185C72.3551 42.9656 72.4585 43.0903 72.5923 43.1746C72.7262 43.2589 72.8833 43.2984 73.0411 43.2873C73.3422 43.2667 73.6313 43.1609 73.8746 42.9822C74.1795 42.7984 74.4349 42.543 74.6188 42.2381L75.6085 42.6622C75.2551 43.2162 74.7977 43.6964 74.2616 44.0762C73.7571 44.4527 73.1493 44.6657 72.5202 44.6864ZM75.2885 40.1841C75.43 39.7514 75.43 39.2848 75.2885 38.852C75.2424 38.695 75.1427 38.5591 75.0067 38.468C74.8707 38.3769 74.7071 38.3364 74.5443 38.3534C74.3621 38.3528 74.1827 38.3989 74.0234 38.4874C73.8317 38.587 73.6561 38.715 73.5025 38.8669C73.3215 39.0438 73.1617 39.2411 73.0262 39.4548C72.8718 39.6888 72.7421 39.9382 72.6392 40.199L75.2885 40.1841Z" fill="white"/>
<path d="M80.7434 38.7553C80.3525 38.7582 79.9695 38.8662 79.6346 39.0679C79.2505 39.2881 78.932 39.6066 78.7118 39.9907C78.2901 41.4393 77.8734 42.8905 77.4616 44.3441L76.1221 44.3962C76.8365 41.9702 77.5683 39.5466 78.3174 37.1256H79.4486C79.2923 37.6391 79.1434 38.1525 78.9872 38.666C79.2723 38.2253 79.6208 37.8291 80.0216 37.4902C80.1791 37.3631 80.3515 37.2556 80.5351 37.1702C80.6691 37.1021 80.8164 37.064 80.9667 37.0586H81.1155H81.2123L80.7434 38.7553Z" fill="white"/>
<path fill-rule="evenodd" clip-rule="evenodd" d="M16.3721 188.375C16.4167 186.671 16.4688 184.959 16.5209 183.255C19.9825 182.062 23.5268 181.124 27.1255 180.449C26.9989 183.56 26.7385 187.206 26.6715 190.324C26.6417 190.324 20.3906 189.424 16.3721 188.375Z" fill="white"/>
<path style="mix-blend-mode:multiply" opacity="0.74" fill-rule="evenodd" clip-rule="evenodd" d="M71.4412 8.01471C71.4412 8.01471 86.1982 14.1095 89.9712 20.4797C89.9712 20.4797 91.214 15.8063 92.2038 13.9979L72.5723 5.49194L71.4412 8.01471Z" fill="url(#paint12_linear_930_15040)"/>
<path fill-rule="evenodd" clip-rule="evenodd" d="M69.4617 4.71065C70.5158 2.73026 72.1175 1.095 74.0756 0C81.6364 1.48836 88.721 4.2567 94.5107 9.45107C95.3613 11.5455 95.443 13.8733 94.7414 16.0222L93.5582 14.6827L91.6382 13.8641L90.321 14.5636L89.6512 13.0752L85.5806 11.3264L84.0922 11.7804L83.549 10.4185L79.7686 8.7962L78.5258 9.30224L77.99 8.03713L73.8672 6.26599L72.8179 6.7497L72.483 5.71529L70.444 4.61391L69.4617 4.71065Z" fill="url(#paint13_radial_930_15040)"/>
<path fill-rule="evenodd" clip-rule="evenodd" d="M74.0757 0C81.2365 2.33293 88.0959 5.50536 94.5108 9.45107C88.6225 4.60004 81.5853 1.34538 74.0757 0V0Z" fill="#44C62F"/>
<path fill-rule="evenodd" clip-rule="evenodd" d="M70.4438 4.61422C71.8826 3.17052 73.3263 1.73921 74.775 0.320312C74.775 0.320312 76.2112 0.39473 81.1749 2.62727C80.2744 4.8598 79.3963 7.09234 78.5256 9.32488L77.9898 8.05977L73.8671 6.2663L72.8178 6.75002L72.4829 5.71561L70.4438 4.61422Z" fill="#44C62F"/>
<path fill-rule="evenodd" clip-rule="evenodd" d="M94.1983 15.4138C94.1239 13.3598 94.0643 11.2984 94.0197 9.22963L91.4597 7.64453C90.8495 9.438 90.2393 11.2389 89.6514 13.0473L90.3211 14.5356L91.6383 13.8361C92.4941 14.3794 93.3499 14.8854 94.1983 15.4138Z" fill="#44C62F"/>
<path style="mix-blend-mode:multiply" opacity="0.74" fill-rule="evenodd" clip-rule="evenodd" d="M50.9094 137.673C50.3289 142.793 46.3699 146.551 42.0611 146.067C37.7523 145.584 34.7235 141.029 35.3039 135.902C35.8844 130.774 39.8509 127.009 44.1597 127.5C46.9131 127.805 49.1308 129.77 50.2322 132.486C50.8897 134.131 51.1225 135.915 50.9094 137.673Z" fill="url(#paint14_linear_930_15040)"/>
<path fill-rule="evenodd" clip-rule="evenodd" d="M50.9093 137.672C50.3661 142.487 46.6452 146.021 42.5968 145.56C38.7792 145.121 36.0332 141.303 36.1895 136.838C36.1895 136.563 36.1895 136.288 36.2415 136.012C36.3848 134.708 36.7817 133.444 37.4099 132.291C38.8983 129.501 41.6592 127.767 44.5615 128.094C48.6172 128.556 51.46 132.835 50.9093 137.672Z" fill="url(#paint15_radial_930_15040)"/>
<path fill-rule="evenodd" clip-rule="evenodd" d="M49.994 139.431C49.6963 142.065 47.6572 144 45.4396 143.747C43.2219 143.494 41.674 141.158 41.9717 138.538C42.2694 135.918 44.3084 133.976 46.5186 134.229C48.7289 134.482 50.2916 136.797 49.994 139.431Z" fill="#192A3E"/>
<path style="mix-blend-mode:multiply" opacity="0.74" fill-rule="evenodd" clip-rule="evenodd" d="M76.9183 140.597C76.3378 145.725 73.0783 149.528 69.6328 149.17C66.1872 148.813 63.8728 144.311 64.4235 139.191C64.9742 134.071 68.2933 130.231 71.7388 130.603C73.9341 130.849 75.6681 132.761 76.4867 135.448C76.9804 137.117 77.1273 138.869 76.9183 140.597Z" fill="url(#paint16_linear_930_15040)"/>
<path fill-rule="evenodd" clip-rule="evenodd" d="M76.1667 140.517C76.1667 140.748 76.1071 140.986 76.0699 141.217C75.3257 145.682 72.4086 148.919 69.3202 148.576C66.3435 148.234 64.2672 144.67 64.3714 140.39C64.3714 140.004 64.3714 139.646 64.4458 139.222C64.9965 134.4 68.0626 130.783 71.2997 131.155C73.3611 131.378 75.0206 133.179 75.7648 135.702C76.2285 137.262 76.3653 138.901 76.1667 140.517Z" fill="url(#paint17_radial_930_15040)"/>
<path fill-rule="evenodd" clip-rule="evenodd" d="M74.924 142.884C74.6189 145.518 72.9445 147.49 71.2031 147.289C69.4617 147.088 68.2264 144.789 68.5389 142.154C68.8515 139.52 70.511 137.555 72.2598 137.756C74.0087 137.957 75.2217 140.212 74.924 142.884Z" fill="#192A3E"/>
<path fill-rule="evenodd" clip-rule="evenodd" d="M69.5508 142.415C69.4911 142.585 69.3845 142.735 69.2434 142.847C69.1024 142.96 68.9324 143.03 68.7532 143.051C68.5739 143.071 68.3925 143.04 68.2298 142.962C68.0671 142.884 67.9297 142.762 67.8334 142.609C67.737 142.457 67.6856 142.28 67.6851 142.1C67.6845 141.919 67.7348 141.742 67.8302 141.589C67.9256 141.436 68.0622 141.313 68.2244 141.234C68.3865 141.155 68.5677 141.123 68.7471 141.142C69.0205 141.208 69.2574 141.378 69.4075 141.615C69.5576 141.853 69.609 142.14 69.5508 142.415Z" fill="white"/>
<path fill-rule="evenodd" clip-rule="evenodd" d="M43.5717 140.017C43.5452 140.248 43.4508 140.466 43.3004 140.643C43.15 140.821 42.9504 140.949 42.7268 141.013C42.5032 141.077 42.2657 141.073 42.0443 141.002C41.8229 140.931 41.6275 140.796 41.4829 140.614C41.3383 140.432 41.2509 140.211 41.2318 139.979C41.2127 139.748 41.2627 139.515 41.3756 139.312C41.4884 139.109 41.659 138.944 41.8658 138.837C42.0726 138.731 42.3063 138.688 42.5373 138.715C42.6907 138.732 42.8392 138.78 42.9743 138.855C43.1093 138.93 43.2282 139.031 43.3243 139.152C43.4204 139.272 43.4916 139.411 43.5341 139.56C43.5766 139.708 43.5893 139.864 43.5717 140.017Z" fill="white"/>
<path fill-rule="evenodd" clip-rule="evenodd" d="M76.1668 140.516C76.1668 140.746 76.1073 140.984 76.0701 141.215C74.8273 137.293 64.7586 140.248 64.3716 140.359C64.3716 139.972 64.3716 139.615 64.446 139.191C64.9967 134.369 68.0627 130.752 71.2999 131.124C73.3613 131.347 75.0208 133.148 75.765 135.671C76.2328 137.241 76.3696 138.89 76.1668 140.516Z" fill="url(#paint18_radial_930_15040)"/>
<path fill-rule="evenodd" clip-rule="evenodd" d="M50.9093 137.672C50.9093 137.672 45.5438 135.439 36.1895 136.838C36.1895 136.563 36.1895 136.288 36.2415 136.012C36.3848 134.708 36.7817 133.444 37.4099 132.291C38.8983 129.501 41.6592 127.767 44.5615 128.094C48.6172 128.556 51.46 132.835 50.9093 137.672Z" fill="url(#paint19_radial_930_15040)"/>
<path fill-rule="evenodd" clip-rule="evenodd" d="M50.9093 137.674C50.9093 137.674 44.7103 135.04 36.1895 136.841V137.54C41.0562 136.6 46.0873 137.009 50.7382 138.723C50.8191 138.666 50.8879 138.594 50.9404 138.51C50.993 138.426 51.0283 138.332 51.0442 138.235C51.0601 138.137 51.0564 138.037 51.0333 137.941C51.0101 137.845 50.968 137.754 50.9093 137.674Z" fill="#717A8B"/>
<path fill-rule="evenodd" clip-rule="evenodd" d="M64.3716 140.36V140.813C64.3716 140.813 71.3669 138.335 76.0031 141.617C76.1365 141.438 76.224 141.229 76.2577 141.009C76.2914 140.788 76.2705 140.563 76.1966 140.352C76.1966 140.352 74.2394 137.427 64.3716 140.36Z" fill="#717A8B"/>
<path fill-rule="evenodd" clip-rule="evenodd" d="M41.3242 120.371C44.1672 118.347 47.5163 117.151 50.9985 116.918L50.5744 120.066C47.7075 120.058 44.8725 120.667 42.2619 121.852L41.3242 120.371Z" fill="#717A8B"/>
<path fill-rule="evenodd" clip-rule="evenodd" d="M78.2431 126.316C78.2431 126.316 76.3454 121.814 72.4087 120.191L72.0068 122.885C73.9622 123.963 75.6016 125.533 76.7621 127.44L78.2431 126.316Z" fill="#717A8B"/>
<path fill-rule="evenodd" clip-rule="evenodd" d="M52.4497 149.201C52.4497 149.201 58.2617 146.343 60.6357 150.265C60.6729 150.265 61.0971 142.883 52.4497 149.201Z" fill="#717A8B"/>
<path fill-rule="evenodd" clip-rule="evenodd" d="M52.6582 149.202C52.6582 149.202 58.6116 149.038 60.673 150.266C60.673 150.266 58.3065 146.292 52.6582 149.202Z" fill="url(#paint20_radial_930_15040)"/>
</g>
<defs>
<radialGradient id="paint0_radial_930_15040" cx="0" cy="0" r="1" gradientUnits="userSpaceOnUse" gradientTransform="translate(73.9626 150.829) rotate(-46.86) scale(15.4864)">
<stop offset="0.01" stop-color="#837F00"/>
<stop offset="0.39" stop-color="#807E00"/>
<stop offset="0.73" stop-color="#757A00"/>
<stop offset="1" stop-color="#667500"/>
</radialGradient>
<linearGradient id="paint1_linear_930_15040" x1="71.6936" y1="155.207" x2="74.2023" y2="152.53" gradientUnits="userSpaceOnUse">
<stop stop-color="#BFBA75"/>
<stop offset="1" stop-color="#727D8D"/>
</linearGradient>
<linearGradient id="paint2_linear_930_15040" x1="71.6374" y1="152.504" x2="74.2936" y2="149.669" gradientUnits="userSpaceOnUse">
<stop stop-color="#BFBA75"/>
<stop offset="1" stop-color="#727D8D"/>
</linearGradient>
<linearGradient id="paint3_linear_930_15040" x1="72.2337" y1="149.79" x2="75.0426" y2="146.793" gradientUnits="userSpaceOnUse">
<stop stop-color="#BFBA75"/>
<stop offset="1" stop-color="#727D8D"/>
</linearGradient>
<radialGradient id="paint4_radial_930_15040" cx="0" cy="0" r="1" gradientUnits="userSpaceOnUse" gradientTransform="translate(69.73 62.1277) rotate(12.6526) scale(88.5798 88.5798)">
<stop stop-color="#90A0B7"/>
<stop offset="0.05" stop-color="#94A4BB"/>
<stop offset="0.41" stop-color="#ADBCCF"/>
<stop offset="0.73" stop-color="#BDCADC"/>
<stop offset="0.99" stop-color="#C2CFE0"/>
</radialGradient>
<radialGradient id="paint5_radial_930_15040" cx="0" cy="0" r="1" gradientUnits="userSpaceOnUse" gradientTransform="translate(46.5408 165.73) rotate(12.6526) scale(101.234 101.234)">
<stop offset="0.01" stop-color="#E8EEF8"/>
<stop offset="0.25" stop-color="#E5EBF6"/>
<stop offset="0.45" stop-color="#DAE2EE"/>
<stop offset="0.64" stop-color="#C9D2E1"/>
<stop offset="0.82" stop-color="#B0BCCF"/>
<stop offset="1" stop-color="#90A0B7"/>
</radialGradient>
<radialGradient id="paint6_radial_930_15040" cx="0" cy="0" r="1" gradientUnits="userSpaceOnUse" gradientTransform="translate(64.2779 64.848) rotate(12.6526) scale(28.2011 28.2012)">
<stop offset="0.01" stop-color="#FFD700"/>
<stop offset="0.2" stop-color="#FED400"/>
<stop offset="0.37" stop-color="#FBC900"/>
<stop offset="0.52" stop-color="#F6B800"/>
<stop offset="0.67" stop-color="#EF9F00"/>
<stop offset="0.81" stop-color="#E67F00"/>
<stop offset="0.82" stop-color="#E57C00"/>
</radialGradient>
<radialGradient id="paint7_radial_930_15040" cx="0" cy="0" r="1" gradientUnits="userSpaceOnUse" gradientTransform="translate(64.9339 57.1833) rotate(12.6526) scale(13.7381)">
<stop offset="0.01" stop-color="white"/>
<stop offset="0.44" stop-color="#FCFDFE"/>
<stop offset="0.8" stop-color="#F1F5FB"/>
<stop offset="1" stop-color="#E8EEF8"/>
</radialGradient>
<linearGradient id="paint8_linear_930_15040" x1="49.5078" y1="191.79" x2="90.1855" y2="10.5897" gradientUnits="userSpaceOnUse">
<stop stop-color="white"/>
<stop offset="1" stop-color="#90A0B7"/>
</linearGradient>
<linearGradient id="paint9_linear_930_15040" x1="18.7571" y1="178.286" x2="35.7397" y2="102.636" gradientUnits="userSpaceOnUse">
<stop stop-color="#334D6E"/>
<stop offset="0.05" stop-color="#3E5676"/>
<stop offset="0.2" stop-color="#5B718E"/>
<stop offset="0.37" stop-color="#7386A0"/>
<stop offset="0.55" stop-color="#8395AD"/>
<stop offset="0.74" stop-color="#8D9DB5"/>
<stop offset="0.99" stop-color="#90A0B7"/>
</linearGradient>
<linearGradient id="paint10_linear_930_15040" x1="51.341" y1="45.3923" x2="66.2113" y2="48.7306" gradientUnits="userSpaceOnUse">
<stop stop-color="#334D6E"/>
<stop offset="0.05" stop-color="#3E5676"/>
<stop offset="0.2" stop-color="#5B718E"/>
<stop offset="0.37" stop-color="#7386A0"/>
<stop offset="0.55" stop-color="#8395AD"/>
<stop offset="0.74" stop-color="#8D9DB5"/>
<stop offset="0.99" stop-color="#90A0B7"/>
</linearGradient>
<linearGradient id="paint11_linear_930_15040" x1="53.644" y1="39.9783" x2="82.1211" y2="46.375" gradientUnits="userSpaceOnUse">
<stop offset="0.01" stop-color="#334D6E"/>
<stop offset="0.33" stop-color="#314B6B"/>
<stop offset="0.59" stop-color="#2C4461"/>
<stop offset="0.82" stop-color="#233851"/>
<stop offset="1" stop-color="#192A3E"/>
</linearGradient>
<linearGradient id="paint12_linear_930_15040" x1="80.578" y1="18.6843" x2="82.9634" y2="8.05847" gradientUnits="userSpaceOnUse">
<stop stop-color="white"/>
<stop offset="1" stop-color="#90A0B7"/>
</linearGradient>
<radialGradient id="paint13_radial_930_15040" cx="0" cy="0" r="1" gradientUnits="userSpaceOnUse" gradientTransform="translate(83.1285 2.95126) rotate(13.3393) scale(9.87427)">
<stop offset="0.01" stop-color="#449F2F"/>
<stop offset="0.36" stop-color="#449C2F"/>
<stop offset="0.65" stop-color="#44912F"/>
<stop offset="0.93" stop-color="#44802F"/>
<stop offset="1" stop-color="#447A2F"/>
</radialGradient>
<linearGradient id="paint14_linear_930_15040" x1="42.0516" y1="146.044" x2="44.154" y2="127.476" gradientUnits="userSpaceOnUse">
<stop stop-color="white"/>
<stop offset="1" stop-color="#90A0B7"/>
</linearGradient>
<radialGradient id="paint15_radial_930_15040" cx="0" cy="0" r="1" gradientUnits="userSpaceOnUse" gradientTransform="translate(43.5792 131.607) scale(13.9608 13.9608)">
<stop offset="0.01" stop-color="white"/>
<stop offset="0.44" stop-color="#FCFDFE"/>
<stop offset="0.8" stop-color="#F1F5FB"/>
<stop offset="1" stop-color="#E8EEF8"/>
</radialGradient>
<linearGradient id="paint16_linear_930_15040" x1="69.6257" y1="149.166" x2="71.7281" y2="130.598" gradientUnits="userSpaceOnUse">
<stop stop-color="white"/>
<stop offset="1" stop-color="#90A0B7"/>
</linearGradient>
<radialGradient id="paint17_radial_930_15040" cx="0" cy="0" r="1" gradientUnits="userSpaceOnUse" gradientTransform="translate(70.31 134.653) scale(13.3878 13.3878)">
<stop offset="0.01" stop-color="white"/>
<stop offset="0.44" stop-color="#FCFDFE"/>
<stop offset="0.8" stop-color="#F1F5FB"/>
<stop offset="1" stop-color="#E8EEF8"/>
</radialGradient>
<radialGradient id="paint18_radial_930_15040" cx="0" cy="0" r="1" gradientUnits="userSpaceOnUse" gradientTransform="translate(70.3101 136.155) scale(5.51436)">
<stop offset="0.01" stop-color="#CDD6E4"/>
<stop offset="0.29" stop-color="#CAD3E2"/>
<stop offset="0.53" stop-color="#BFCADA"/>
<stop offset="0.75" stop-color="#AEBACD"/>
<stop offset="0.96" stop-color="#95A4BB"/>
<stop offset="1" stop-color="#90A0B7"/>
</radialGradient>
<radialGradient id="paint19_radial_930_15040" cx="0" cy="0" r="1" gradientUnits="userSpaceOnUse" gradientTransform="translate(43.5792 132.85) scale(6.23622 6.23622)">
<stop offset="0.01" stop-color="#CDD6E4"/>
<stop offset="0.29" stop-color="#CAD3E2"/>
<stop offset="0.53" stop-color="#BFCADA"/>
<stop offset="0.75" stop-color="#AEBACD"/>
<stop offset="0.96" stop-color="#95A4BB"/>
<stop offset="1" stop-color="#90A0B7"/>
</radialGradient>
<radialGradient id="paint20_radial_930_15040" cx="0" cy="0" r="1" gradientUnits="userSpaceOnUse" gradientTransform="translate(57.3837 150.117) scale(3.97391 3.97391)">
<stop offset="0.01" stop-color="#CDD6E4"/>
<stop offset="0.29" stop-color="#CAD3E2"/>
<stop offset="0.53" stop-color="#BFCADA"/>
<stop offset="0.75" stop-color="#AEBACD"/>
<stop offset="0.96" stop-color="#95A4BB"/>
<stop offset="1" stop-color="#90A0B7"/>
</radialGradient>
<clipPath id="clip0_930_15040">
<rect width="95.2103" height="194" fill="white"/>
</clipPath>
</defs>
</svg>
