<svg width="1500" height="244" viewBox="0 0 1500 244" fill="none" xmlns="http://www.w3.org/2000/svg">
<g opacity="0.2">
<path d="M89.3115 89.8496L90.9734 122.909C90.9734 122.909 94.5345 124.215 100.41 124.333C105.218 124.452 109.847 122.909 109.847 122.909L111.331 94.6572H101.835" stroke="#F4A519" stroke-miterlimit="10" stroke-linecap="round" stroke-linejoin="round"/>
<path d="M90.4393 90.0869C86.9375 90.0869 86.6408 84.389 92.4573 84.389C98.63 84.389 96.0778 87.1192 101.538 84.1516C101.538 84.1516 104.387 83.4987 105.634 85.8135C105.634 85.8135 106.761 80.5311 111.688 83.0833C116.673 85.5761 111.925 90.7397 111.688 90.8584H99.5202C99.5202 90.8584 100.173 93.7074 96.9087 96.0221C96.9087 96.0221 99.6983 105.519 93.8818 105.578L93.1695 90.1462H90.4393V90.0869Z" stroke="#F4A519" stroke-miterlimit="10" stroke-linecap="round" stroke-linejoin="round"/>
<path d="M93.8818 109.436L94.1786 116.795" stroke="#F4A519" stroke-miterlimit="10" stroke-linecap="round" stroke-linejoin="round"/>
<path d="M43.0762 49.0762H44.7974C46.8154 49.0762 48.4179 50.6787 48.4179 52.6967V67.8315C48.4179 69.8495 46.8154 71.4521 44.7974 71.4521H43.0762" stroke="#F4A519" stroke-miterlimit="10" stroke-linecap="round" stroke-linejoin="round"/>
<path d="M23.2527 37.502H43.0171V76.9713C43.0171 76.9713 38.4469 79.4048 32.6304 79.4641C27.5854 79.5828 23.1934 76.9713 23.1934 76.9713V44.9804H42.9577" stroke="#F4A519" stroke-miterlimit="10" stroke-linecap="round" stroke-linejoin="round"/>
<path d="M28.8906 49.4316V64.4478" stroke="#F4A519" stroke-miterlimit="10" stroke-linecap="round" stroke-linejoin="round"/>
<path d="M28.8906 67.832V71.1558" stroke="#F4A519" stroke-miterlimit="10" stroke-linecap="round" stroke-linejoin="round"/>
<path d="M109.254 9.13086C109.254 9.13086 112.222 26.4024 106.168 35.1272C101.241 42.2495 107.948 45.8107 107.83 51.5679H91.2108C91.0921 45.87 97.7989 42.3089 92.8727 35.1272C86.8781 26.3431 89.7864 9.13086 89.7864 9.13086H109.254Z" stroke="#F4A519" stroke-miterlimit="10" stroke-linecap="round" stroke-linejoin="round"/>
<path d="M93.8822 13.7598C93.8822 13.7598 93.5261 27.1141 95.9002 31.5062" stroke="#F4A519" stroke-miterlimit="10" stroke-linecap="round" stroke-linejoin="round"/>
<path d="M107.236 48.3027H96.0781" stroke="#F4A519" stroke-miterlimit="10" stroke-linecap="round" stroke-linejoin="round"/>
<path d="M237.254 81.1309C237.254 81.1309 240.222 98.4024 234.168 107.127C229.241 114.25 235.948 117.811 235.83 123.568H219.211C219.092 117.87 225.799 114.309 220.873 107.127C214.878 98.3431 217.786 81.1309 217.786 81.1309H237.254Z" stroke="#F4A519" stroke-miterlimit="10" stroke-linecap="round" stroke-linejoin="round"/>
<path d="M221.882 85.7598C221.882 85.7598 221.526 99.1141 223.9 103.506" stroke="#F4A519" stroke-miterlimit="10" stroke-linecap="round" stroke-linejoin="round"/>
<path d="M235.236 120.303H224.078" stroke="#F4A519" stroke-miterlimit="10" stroke-linecap="round" stroke-linejoin="round"/>
<path d="M1.17292 161.666C1.17292 161.666 4.14055 178.938 -1.9134 187.662C-6.83966 194.785 -0.132831 198.346 -0.251536 204.103H-16.8702C-16.9889 198.405 -10.2821 194.844 -15.2084 187.662C-21.203 178.878 -18.2947 161.666 -18.2947 161.666H1.17292Z" stroke="#F4A519" stroke-miterlimit="10" stroke-linecap="round" stroke-linejoin="round"/>
<path d="M30.6119 118.102H55.4806C55.4806 118.102 64.977 145.7 49.9608 153.001H36.191C25.1515 147.6 27.3475 131.278 29.3062 123.028H44.7378" stroke="#F4A519" stroke-miterlimit="10" stroke-linecap="round" stroke-linejoin="round"/>
<path d="M33.1044 138.459C32.3921 135.136 32.6296 131.456 33.1637 128.191" stroke="#F4A519" stroke-miterlimit="10" stroke-linecap="round" stroke-linejoin="round"/>
<path d="M37.4372 147.599C35.7754 146.234 34.7664 144.572 34.1729 142.732" stroke="#F4A519" stroke-miterlimit="10" stroke-linecap="round" stroke-linejoin="round"/>
<path d="M56.8463 122.969H66.1053C66.1053 122.969 70.4974 145.285 56.4902 146.176" stroke="#F4A519" stroke-miterlimit="10" stroke-linecap="round" stroke-linejoin="round"/>
<path d="M30.6116 118.102C30.6116 118.102 28.2375 110.861 32.867 109.555C37.4965 108.249 39.8112 110.623 40.4641 113.828C40.4641 113.828 42.2447 110.564 45.331 111.632C47.8831 112.522 47.6457 115.253 47.6457 115.253C47.6457 115.253 49.3076 111.988 53.4623 113.116C55.8364 113.828 55.9551 116.44 55.4803 118.102" stroke="#F4A519" stroke-miterlimit="10" stroke-linecap="round" stroke-linejoin="round"/>
<path d="M220.836 22.8418H222.557C224.575 22.8418 226.178 24.4443 226.178 26.4623V41.5972C226.178 43.6152 224.575 45.2177 222.557 45.2177H220.836" stroke="#F4A519" stroke-miterlimit="10" stroke-linecap="round" stroke-linejoin="round"/>
<path d="M201.013 11.2676H220.836V50.737C220.836 50.737 216.266 53.1704 210.45 53.2298C205.405 53.3485 201.013 50.737 201.013 50.737V18.746H220.836" stroke="#F4A519" stroke-miterlimit="10" stroke-linecap="round" stroke-linejoin="round"/>
<path d="M206.651 23.1973V38.2134" stroke="#F4A519" stroke-miterlimit="10" stroke-linecap="round" stroke-linejoin="round"/>
<path d="M206.651 41.5371V44.8609" stroke="#F4A519" stroke-miterlimit="10" stroke-linecap="round" stroke-linejoin="round"/>
<path d="M348.836 94.8418H350.557C352.575 94.8418 354.178 96.4443 354.178 98.4623V113.597C354.178 115.615 352.575 117.218 350.557 117.218H348.836" stroke="#F4A519" stroke-miterlimit="10" stroke-linecap="round" stroke-linejoin="round"/>
<path d="M329.013 83.2676H348.836V122.737C348.836 122.737 344.266 125.17 338.45 125.23C333.405 125.348 329.013 122.737 329.013 122.737V90.746H348.836" stroke="#F4A519" stroke-miterlimit="10" stroke-linecap="round" stroke-linejoin="round"/>
<path d="M334.651 95.1973V110.213" stroke="#F4A519" stroke-miterlimit="10" stroke-linecap="round" stroke-linejoin="round"/>
<path d="M334.651 113.537V116.861" stroke="#F4A519" stroke-miterlimit="10" stroke-linecap="round" stroke-linejoin="round"/>
<path d="M162.79 59.4609C162.79 59.4609 173.592 78.2757 159.585 88.8998C154.005 93.1731 166.291 98.7523 164.451 101.661C163.977 102.432 146.883 102.432 146.349 101.661C144.39 98.871 156.854 93.1731 151.216 88.8998C137.209 78.2757 148.011 59.4609 148.011 59.4609H162.79Z" stroke="#F4A519" stroke-miterlimit="10" stroke-linecap="round" stroke-linejoin="round"/>
<path d="M148.663 69.9648C148.663 69.9648 147.18 77.74 153.708 84.0907" stroke="#F4A519" stroke-miterlimit="10" stroke-linecap="round" stroke-linejoin="round"/>
<path d="M151.869 99.0488H163.68" stroke="#F4A519" stroke-miterlimit="10" stroke-linecap="round" stroke-linejoin="round"/>
<path d="M290.79 131.461C290.79 131.461 301.592 150.276 287.585 160.9C282.005 165.173 294.291 170.752 292.451 173.661C291.977 174.432 274.883 174.432 274.349 173.661C272.39 170.871 284.854 165.173 279.216 160.9C265.209 150.276 276.011 131.461 276.011 131.461H290.79Z" stroke="#F4A519" stroke-miterlimit="10" stroke-linecap="round" stroke-linejoin="round"/>
<path d="M276.663 141.965C276.663 141.965 275.18 149.74 281.708 156.091" stroke="#F4A519" stroke-miterlimit="10" stroke-linecap="round" stroke-linejoin="round"/>
<path d="M279.869 171.049H291.68" stroke="#F4A519" stroke-miterlimit="10" stroke-linecap="round" stroke-linejoin="round"/>
<path d="M138.871 -22.0879H163.739C163.739 -22.0879 173.236 5.51101 158.22 12.8114H144.45C133.41 7.41029 135.606 -8.91164 137.565 -17.1616H152.997" stroke="#F4A519" stroke-miterlimit="10" stroke-linecap="round" stroke-linejoin="round"/>
<path d="M145.637 7.35128C143.976 5.98617 142.967 4.3243 142.373 2.48438" stroke="#F4A519" stroke-miterlimit="10" stroke-linecap="round" stroke-linejoin="round"/>
<path d="M165.046 -17.2793H174.305C174.305 -17.2793 178.697 5.03723 164.689 5.92752" stroke="#F4A519" stroke-miterlimit="10" stroke-linecap="round" stroke-linejoin="round"/>
<path d="M266.871 49.9121H291.739C291.739 49.9121 301.236 77.511 286.22 84.8114H272.45C261.41 79.4103 263.606 63.0884 265.565 54.8384H280.997" stroke="#F4A519" stroke-miterlimit="10" stroke-linecap="round" stroke-linejoin="round"/>
<path d="M269.305 70.2699C268.592 66.9462 268.83 63.2663 269.364 60.002" stroke="#F4A519" stroke-miterlimit="10" stroke-linecap="round" stroke-linejoin="round"/>
<path d="M273.637 79.3513C271.976 77.9862 270.967 76.3243 270.373 74.4844" stroke="#F4A519" stroke-miterlimit="10" stroke-linecap="round" stroke-linejoin="round"/>
<path d="M293.046 54.7207H302.305C302.305 54.7207 306.697 77.0372 292.689 77.9275" stroke="#F4A519" stroke-miterlimit="10" stroke-linecap="round" stroke-linejoin="round"/>
<path d="M266.87 49.9121C266.87 49.9121 264.496 42.6711 269.126 41.3653C273.755 40.0596 276.07 42.4337 276.723 45.6387C276.723 45.6387 278.503 42.3743 281.59 43.4427C284.142 44.3329 283.905 47.0632 283.905 47.0632C283.905 47.0632 285.566 43.7988 289.721 44.9265C292.155 45.6387 292.214 48.2502 291.739 49.9121" stroke="#F4A519" stroke-miterlimit="10" stroke-linecap="round" stroke-linejoin="round"/>
</g>
<g opacity="0.2">
<path d="M374.173 23C374.173 23 377.141 40.2716 371.087 48.9964C366.16 56.1187 372.867 59.6798 372.748 65.437H356.13C356.011 59.7392 362.718 56.178 357.792 48.9964C351.797 40.2122 354.705 23 354.705 23H374.173Z" stroke="#F4A519" stroke-miterlimit="10" stroke-linecap="round" stroke-linejoin="round"/>
<path d="M358.8 27.6895C358.8 27.6895 358.444 41.0438 360.818 45.4358" stroke="#F4A519" stroke-miterlimit="10" stroke-linecap="round" stroke-linejoin="round"/>
<path d="M372.154 62.1719H360.996" stroke="#F4A519" stroke-miterlimit="10" stroke-linecap="round" stroke-linejoin="round"/>
<path d="M767.173 12.334C767.173 12.334 770.141 29.6056 764.087 38.3304C759.16 45.4527 765.867 49.0138 765.748 54.771H749.13C749.011 49.0732 755.718 45.512 750.792 38.3304C744.797 29.5462 747.705 12.334 747.705 12.334H767.173Z" stroke="#F4A519" stroke-miterlimit="10" stroke-linecap="round" stroke-linejoin="round"/>
<path d="M751.8 17.0234C751.8 17.0234 751.444 30.3777 753.818 34.7698" stroke="#F4A519" stroke-miterlimit="10" stroke-linecap="round" stroke-linejoin="round"/>
<path d="M765.154 51.5059H753.996" stroke="#F4A519" stroke-miterlimit="10" stroke-linecap="round" stroke-linejoin="round"/>
<path d="M485.312 89.8496L486.973 122.909C486.973 122.909 490.535 124.215 496.41 124.333C501.218 124.452 505.847 122.909 505.847 122.909L507.331 94.6572H497.835" stroke="#F4A519" stroke-miterlimit="10" stroke-linecap="round" stroke-linejoin="round"/>
<path d="M486.439 90.0869C482.938 90.0869 482.641 84.389 488.457 84.389C494.63 84.389 492.078 87.1192 497.538 84.1516C497.538 84.1516 500.387 83.4987 501.634 85.8135C501.634 85.8135 502.761 80.5311 507.688 83.0833C512.673 85.5761 507.925 90.7397 507.688 90.8584H495.52C495.52 90.8584 496.173 93.7074 492.909 96.0221C492.909 96.0221 495.698 105.519 489.882 105.578L489.17 90.1462H486.439V90.0869Z" stroke="#F4A519" stroke-miterlimit="10" stroke-linecap="round" stroke-linejoin="round"/>
<path d="M489.882 109.436L490.179 116.795" stroke="#F4A519" stroke-miterlimit="10" stroke-linecap="round" stroke-linejoin="round"/>
<path d="M439.076 49.0762H440.797C442.815 49.0762 444.418 50.6787 444.418 52.6967V67.8315C444.418 69.8495 442.815 71.4521 440.797 71.4521H439.076" stroke="#F4A519" stroke-miterlimit="10" stroke-linecap="round" stroke-linejoin="round"/>
<path d="M419.253 37.502H439.017V76.9713C439.017 76.9713 434.447 79.4048 428.63 79.4641C423.585 79.5828 419.193 76.9713 419.193 76.9713V44.9804H438.958" stroke="#F4A519" stroke-miterlimit="10" stroke-linecap="round" stroke-linejoin="round"/>
<path d="M424.891 49.4316V64.4478" stroke="#F4A519" stroke-miterlimit="10" stroke-linecap="round" stroke-linejoin="round"/>
<path d="M424.891 67.832V71.1558" stroke="#F4A519" stroke-miterlimit="10" stroke-linecap="round" stroke-linejoin="round"/>
<path d="M505.254 9.13086C505.254 9.13086 508.222 26.4024 502.168 35.1272C497.241 42.2495 503.948 45.8107 503.83 51.5679H487.211C487.092 45.87 493.799 42.3089 488.873 35.1272C482.878 26.3431 485.786 9.13086 485.786 9.13086H505.254Z" stroke="#F4A519" stroke-miterlimit="10" stroke-linecap="round" stroke-linejoin="round"/>
<path d="M489.882 13.7598C489.882 13.7598 489.526 27.1141 491.9 31.5062" stroke="#F4A519" stroke-miterlimit="10" stroke-linecap="round" stroke-linejoin="round"/>
<path d="M503.236 48.3027H492.078" stroke="#F4A519" stroke-miterlimit="10" stroke-linecap="round" stroke-linejoin="round"/>
<path d="M633.254 81.1309C633.254 81.1309 636.222 98.4024 630.168 107.127C625.241 114.25 631.948 117.811 631.83 123.568H615.211C615.092 117.87 621.799 114.309 616.873 107.127C610.878 98.3431 613.786 81.1309 613.786 81.1309H633.254Z" stroke="#F4A519" stroke-miterlimit="10" stroke-linecap="round" stroke-linejoin="round"/>
<path d="M617.882 85.7598C617.882 85.7598 617.526 99.1141 619.9 103.506" stroke="#F4A519" stroke-miterlimit="10" stroke-linecap="round" stroke-linejoin="round"/>
<path d="M631.236 120.303H620.078" stroke="#F4A519" stroke-miterlimit="10" stroke-linecap="round" stroke-linejoin="round"/>
<path d="M397.173 161.666C397.173 161.666 400.141 178.938 394.087 187.662C389.16 194.785 395.867 198.346 395.748 204.103H379.13C379.011 198.405 385.718 194.844 380.792 187.662C374.797 178.878 377.705 161.666 377.705 161.666H397.173Z" stroke="#F4A519" stroke-miterlimit="10" stroke-linecap="round" stroke-linejoin="round"/>
<path d="M381.8 166.355C381.8 166.355 381.444 179.71 383.818 184.102" stroke="#F4A519" stroke-miterlimit="10" stroke-linecap="round" stroke-linejoin="round"/>
<path d="M395.154 200.838H383.996" stroke="#F4A519" stroke-miterlimit="10" stroke-linecap="round" stroke-linejoin="round"/>
<path d="M426.612 118.102H451.481C451.481 118.102 460.977 145.7 445.961 153.001H432.191C421.151 147.6 423.348 131.278 425.306 123.028H440.738" stroke="#F4A519" stroke-miterlimit="10" stroke-linecap="round" stroke-linejoin="round"/>
<path d="M429.104 138.459C428.392 135.136 428.63 131.456 429.164 128.191" stroke="#F4A519" stroke-miterlimit="10" stroke-linecap="round" stroke-linejoin="round"/>
<path d="M433.437 147.599C431.775 146.234 430.766 144.572 430.173 142.732" stroke="#F4A519" stroke-miterlimit="10" stroke-linecap="round" stroke-linejoin="round"/>
<path d="M452.846 122.969H462.105C462.105 122.969 466.497 145.285 452.49 146.176" stroke="#F4A519" stroke-miterlimit="10" stroke-linecap="round" stroke-linejoin="round"/>
<path d="M426.612 118.102C426.612 118.102 424.237 110.861 428.867 109.555C433.496 108.249 435.811 110.623 436.464 113.828C436.464 113.828 438.245 110.564 441.331 111.632C443.883 112.522 443.646 115.253 443.646 115.253C443.646 115.253 445.308 111.988 449.462 113.116C451.836 113.828 451.955 116.44 451.48 118.102" stroke="#F4A519" stroke-miterlimit="10" stroke-linecap="round" stroke-linejoin="round"/>
<path d="M616.836 22.8418H618.557C620.575 22.8418 622.178 24.4443 622.178 26.4623V41.5972C622.178 43.6152 620.575 45.2177 618.557 45.2177H616.836" stroke="#F4A519" stroke-miterlimit="10" stroke-linecap="round" stroke-linejoin="round"/>
<path d="M597.013 11.2676H616.836V50.737C616.836 50.737 612.266 53.1704 606.45 53.2298C601.405 53.3485 597.013 50.737 597.013 50.737V18.746H616.836" stroke="#F4A519" stroke-miterlimit="10" stroke-linecap="round" stroke-linejoin="round"/>
<path d="M602.651 23.1973V38.2134" stroke="#F4A519" stroke-miterlimit="10" stroke-linecap="round" stroke-linejoin="round"/>
<path d="M602.651 41.5371V44.8609" stroke="#F4A519" stroke-miterlimit="10" stroke-linecap="round" stroke-linejoin="round"/>
<path d="M744.836 94.8418H746.557C748.575 94.8418 750.178 96.4443 750.178 98.4623V113.597C750.178 115.615 748.575 117.218 746.557 117.218H744.836" stroke="#F4A519" stroke-miterlimit="10" stroke-linecap="round" stroke-linejoin="round"/>
<path d="M725.013 83.2676H744.836V122.737C744.836 122.737 740.266 125.17 734.45 125.23C729.405 125.348 725.013 122.737 725.013 122.737V90.746H744.836" stroke="#F4A519" stroke-miterlimit="10" stroke-linecap="round" stroke-linejoin="round"/>
<path d="M730.651 95.1973V110.213" stroke="#F4A519" stroke-miterlimit="10" stroke-linecap="round" stroke-linejoin="round"/>
<path d="M730.651 113.537V116.861" stroke="#F4A519" stroke-miterlimit="10" stroke-linecap="round" stroke-linejoin="round"/>
<path d="M558.79 59.4609C558.79 59.4609 569.592 78.2757 555.585 88.8998C550.005 93.1731 562.291 98.7523 560.451 101.661C559.977 102.432 542.883 102.432 542.349 101.661C540.39 98.871 552.854 93.1731 547.216 88.8998C533.209 78.2757 544.011 59.4609 544.011 59.4609H558.79Z" stroke="#F4A519" stroke-miterlimit="10" stroke-linecap="round" stroke-linejoin="round"/>
<path d="M544.663 69.9648C544.663 69.9648 543.18 77.74 549.708 84.0907" stroke="#F4A519" stroke-miterlimit="10" stroke-linecap="round" stroke-linejoin="round"/>
<path d="M547.869 99.0488H559.68" stroke="#F4A519" stroke-miterlimit="10" stroke-linecap="round" stroke-linejoin="round"/>
<path d="M686.79 131.461C686.79 131.461 697.592 150.276 683.585 160.9C678.005 165.173 690.291 170.752 688.451 173.661C687.977 174.432 670.883 174.432 670.349 173.661C668.39 170.871 680.854 165.173 675.216 160.9C661.209 150.276 672.011 131.461 672.011 131.461H686.79Z" stroke="#F4A519" stroke-miterlimit="10" stroke-linecap="round" stroke-linejoin="round"/>
<path d="M672.663 141.965C672.663 141.965 671.18 149.74 677.708 156.091" stroke="#F4A519" stroke-miterlimit="10" stroke-linecap="round" stroke-linejoin="round"/>
<path d="M675.869 171.049H687.68" stroke="#F4A519" stroke-miterlimit="10" stroke-linecap="round" stroke-linejoin="round"/>
<path d="M534.871 -22.0879H559.739C559.739 -22.0879 569.236 5.51101 554.22 12.8114H540.45C529.41 7.41029 531.606 -8.91164 533.565 -17.1616H548.997" stroke="#F4A519" stroke-miterlimit="10" stroke-linecap="round" stroke-linejoin="round"/>
<path d="M541.637 7.35128C539.976 5.98617 538.967 4.3243 538.373 2.48438" stroke="#F4A519" stroke-miterlimit="10" stroke-linecap="round" stroke-linejoin="round"/>
<path d="M561.046 -17.2793H570.305C570.305 -17.2793 574.697 5.03723 560.689 5.92752" stroke="#F4A519" stroke-miterlimit="10" stroke-linecap="round" stroke-linejoin="round"/>
<path d="M662.871 49.9121H687.739C687.739 49.9121 697.236 77.511 682.22 84.8114H668.45C657.41 79.4103 659.606 63.0884 661.565 54.8384H676.997" stroke="#F4A519" stroke-miterlimit="10" stroke-linecap="round" stroke-linejoin="round"/>
<path d="M665.305 70.2699C664.592 66.9462 664.83 63.2663 665.364 60.002" stroke="#F4A519" stroke-miterlimit="10" stroke-linecap="round" stroke-linejoin="round"/>
<path d="M669.637 79.3513C667.976 77.9862 666.967 76.3243 666.373 74.4844" stroke="#F4A519" stroke-miterlimit="10" stroke-linecap="round" stroke-linejoin="round"/>
<path d="M689.046 54.7207H698.305C698.305 54.7207 702.697 77.0372 688.689 77.9275" stroke="#F4A519" stroke-miterlimit="10" stroke-linecap="round" stroke-linejoin="round"/>
<path d="M662.87 49.9121C662.87 49.9121 660.496 42.6711 665.126 41.3653C669.755 40.0596 672.07 42.4337 672.723 45.6387C672.723 45.6387 674.503 42.3743 677.59 43.4427C680.142 44.3329 679.905 47.0632 679.905 47.0632C679.905 47.0632 681.566 43.7988 685.721 44.9265C688.155 45.6387 688.214 48.2502 687.739 49.9121" stroke="#F4A519" stroke-miterlimit="10" stroke-linecap="round" stroke-linejoin="round"/>
</g>
<g opacity="0.2">
<path d="M881.312 89.8496L882.973 122.909C882.973 122.909 886.535 124.215 892.41 124.333C897.218 124.452 901.847 122.909 901.847 122.909L903.331 94.6572H893.835" stroke="#F4A519" stroke-miterlimit="10" stroke-linecap="round" stroke-linejoin="round"/>
<path d="M882.439 90.0869C878.938 90.0869 878.641 84.389 884.457 84.389C890.63 84.389 888.078 87.1192 893.538 84.1516C893.538 84.1516 896.387 83.4987 897.634 85.8135C897.634 85.8135 898.761 80.5311 903.688 83.0833C908.673 85.5761 903.925 90.7397 903.688 90.8584H891.52C891.52 90.8584 892.173 93.7074 888.909 96.0221C888.909 96.0221 891.698 105.519 885.882 105.578L885.17 90.1462H882.439V90.0869Z" stroke="#F4A519" stroke-miterlimit="10" stroke-linecap="round" stroke-linejoin="round"/>
<path d="M885.882 109.436L886.179 116.795" stroke="#F4A519" stroke-miterlimit="10" stroke-linecap="round" stroke-linejoin="round"/>
<path d="M835.076 49.0762H836.797C838.815 49.0762 840.418 50.6787 840.418 52.6967V67.8315C840.418 69.8495 838.815 71.4521 836.797 71.4521H835.076" stroke="#F4A519" stroke-miterlimit="10" stroke-linecap="round" stroke-linejoin="round"/>
<path d="M815.253 37.502H835.017V76.9713C835.017 76.9713 830.447 79.4048 824.63 79.4641C819.585 79.5828 815.193 76.9713 815.193 76.9713V44.9804H834.958" stroke="#F4A519" stroke-miterlimit="10" stroke-linecap="round" stroke-linejoin="round"/>
<path d="M820.891 49.4316V64.4478" stroke="#F4A519" stroke-miterlimit="10" stroke-linecap="round" stroke-linejoin="round"/>
<path d="M820.891 67.832V71.1558" stroke="#F4A519" stroke-miterlimit="10" stroke-linecap="round" stroke-linejoin="round"/>
<path d="M901.254 9.13086C901.254 9.13086 904.222 26.4024 898.168 35.1272C893.241 42.2495 899.948 45.8107 899.83 51.5679H883.211C883.092 45.87 889.799 42.3089 884.873 35.1272C878.878 26.3431 881.786 9.13086 881.786 9.13086H901.254Z" stroke="#F4A519" stroke-miterlimit="10" stroke-linecap="round" stroke-linejoin="round"/>
<path d="M885.882 13.7598C885.882 13.7598 885.526 27.1141 887.9 31.5062" stroke="#F4A519" stroke-miterlimit="10" stroke-linecap="round" stroke-linejoin="round"/>
<path d="M899.236 48.3027H888.078" stroke="#F4A519" stroke-miterlimit="10" stroke-linecap="round" stroke-linejoin="round"/>
<path d="M1029.25 81.1309C1029.25 81.1309 1032.22 98.4024 1026.17 107.127C1021.24 114.25 1027.95 117.811 1027.83 123.568H1011.21C1011.09 117.87 1017.8 114.309 1012.87 107.127C1006.88 98.3431 1009.79 81.1309 1009.79 81.1309H1029.25Z" stroke="#F4A519" stroke-miterlimit="10" stroke-linecap="round" stroke-linejoin="round"/>
<path d="M1013.88 85.7598C1013.88 85.7598 1013.53 99.1141 1015.9 103.506" stroke="#F4A519" stroke-miterlimit="10" stroke-linecap="round" stroke-linejoin="round"/>
<path d="M1027.24 120.303H1016.08" stroke="#F4A519" stroke-miterlimit="10" stroke-linecap="round" stroke-linejoin="round"/>
<path d="M793.173 161.666C793.173 161.666 796.141 178.938 790.087 187.662C785.16 194.785 791.867 198.346 791.748 204.103H775.13C775.011 198.405 781.718 194.844 776.792 187.662C770.797 178.878 773.705 161.666 773.705 161.666H793.173Z" stroke="#F4A519" stroke-miterlimit="10" stroke-linecap="round" stroke-linejoin="round"/>
<path d="M777.8 166.355C777.8 166.355 777.444 179.71 779.818 184.102" stroke="#F4A519" stroke-miterlimit="10" stroke-linecap="round" stroke-linejoin="round"/>
<path d="M791.154 200.838H779.996" stroke="#F4A519" stroke-miterlimit="10" stroke-linecap="round" stroke-linejoin="round"/>
<path d="M822.612 118.102H847.481C847.481 118.102 856.977 145.7 841.961 153.001H828.191C817.151 147.6 819.348 131.278 821.306 123.028H836.738" stroke="#F4A519" stroke-miterlimit="10" stroke-linecap="round" stroke-linejoin="round"/>
<path d="M825.104 138.459C824.392 135.136 824.63 131.456 825.164 128.191" stroke="#F4A519" stroke-miterlimit="10" stroke-linecap="round" stroke-linejoin="round"/>
<path d="M829.437 147.599C827.775 146.234 826.766 144.572 826.173 142.732" stroke="#F4A519" stroke-miterlimit="10" stroke-linecap="round" stroke-linejoin="round"/>
<path d="M848.846 122.969H858.105C858.105 122.969 862.497 145.285 848.49 146.176" stroke="#F4A519" stroke-miterlimit="10" stroke-linecap="round" stroke-linejoin="round"/>
<path d="M822.612 118.102C822.612 118.102 820.237 110.861 824.867 109.555C829.496 108.249 831.811 110.623 832.464 113.828C832.464 113.828 834.245 110.564 837.331 111.632C839.883 112.522 839.646 115.253 839.646 115.253C839.646 115.253 841.308 111.988 845.462 113.116C847.836 113.828 847.955 116.44 847.48 118.102" stroke="#F4A519" stroke-miterlimit="10" stroke-linecap="round" stroke-linejoin="round"/>
<path d="M1012.84 22.8418H1014.56C1016.58 22.8418 1018.18 24.4443 1018.18 26.4623V41.5972C1018.18 43.6152 1016.58 45.2177 1014.56 45.2177H1012.84" stroke="#F4A519" stroke-miterlimit="10" stroke-linecap="round" stroke-linejoin="round"/>
<path d="M993.013 11.2676H1012.84V50.737C1012.84 50.737 1008.27 53.1704 1002.45 53.2298C997.405 53.3485 993.013 50.737 993.013 50.737V18.746H1012.84" stroke="#F4A519" stroke-miterlimit="10" stroke-linecap="round" stroke-linejoin="round"/>
<path d="M998.651 23.1973V38.2134" stroke="#F4A519" stroke-miterlimit="10" stroke-linecap="round" stroke-linejoin="round"/>
<path d="M998.651 41.5371V44.8609" stroke="#F4A519" stroke-miterlimit="10" stroke-linecap="round" stroke-linejoin="round"/>
<path d="M1140.84 94.8418H1142.56C1144.58 94.8418 1146.18 96.4443 1146.18 98.4623V113.597C1146.18 115.615 1144.58 117.218 1142.56 117.218H1140.84" stroke="#F4A519" stroke-miterlimit="10" stroke-linecap="round" stroke-linejoin="round"/>
<path d="M1121.01 83.2676H1140.84V122.737C1140.84 122.737 1136.27 125.17 1130.45 125.23C1125.4 125.348 1121.01 122.737 1121.01 122.737V90.746H1140.84" stroke="#F4A519" stroke-miterlimit="10" stroke-linecap="round" stroke-linejoin="round"/>
<path d="M1126.65 95.1973V110.213" stroke="#F4A519" stroke-miterlimit="10" stroke-linecap="round" stroke-linejoin="round"/>
<path d="M1126.65 113.537V116.861" stroke="#F4A519" stroke-miterlimit="10" stroke-linecap="round" stroke-linejoin="round"/>
<path d="M954.79 59.4609C954.79 59.4609 965.592 78.2757 951.585 88.8998C946.005 93.1731 958.291 98.7523 956.451 101.661C955.977 102.432 938.883 102.432 938.349 101.661C936.39 98.871 948.854 93.1731 943.216 88.8998C929.209 78.2757 940.011 59.4609 940.011 59.4609H954.79Z" stroke="#F4A519" stroke-miterlimit="10" stroke-linecap="round" stroke-linejoin="round"/>
<path d="M940.663 69.9648C940.663 69.9648 939.18 77.74 945.708 84.0907" stroke="#F4A519" stroke-miterlimit="10" stroke-linecap="round" stroke-linejoin="round"/>
<path d="M943.869 99.0488H955.68" stroke="#F4A519" stroke-miterlimit="10" stroke-linecap="round" stroke-linejoin="round"/>
<path d="M1082.79 131.461C1082.79 131.461 1093.59 150.276 1079.58 160.9C1074.01 165.173 1086.29 170.752 1084.45 173.661C1083.98 174.432 1066.88 174.432 1066.35 173.661C1064.39 170.871 1076.85 165.173 1071.22 160.9C1057.21 150.276 1068.01 131.461 1068.01 131.461H1082.79Z" stroke="#F4A519" stroke-miterlimit="10" stroke-linecap="round" stroke-linejoin="round"/>
<path d="M1068.66 141.965C1068.66 141.965 1067.18 149.74 1073.71 156.091" stroke="#F4A519" stroke-miterlimit="10" stroke-linecap="round" stroke-linejoin="round"/>
<path d="M1071.87 171.049H1083.68" stroke="#F4A519" stroke-miterlimit="10" stroke-linecap="round" stroke-linejoin="round"/>
<path d="M930.871 -22.0879H955.739C955.739 -22.0879 965.236 5.51101 950.22 12.8114H936.45C925.41 7.41029 927.606 -8.91164 929.565 -17.1616H944.997" stroke="#F4A519" stroke-miterlimit="10" stroke-linecap="round" stroke-linejoin="round"/>
<path d="M937.637 7.35128C935.976 5.98617 934.967 4.3243 934.373 2.48438" stroke="#F4A519" stroke-miterlimit="10" stroke-linecap="round" stroke-linejoin="round"/>
<path d="M957.046 -17.2793H966.305C966.305 -17.2793 970.697 5.03723 956.689 5.92752" stroke="#F4A519" stroke-miterlimit="10" stroke-linecap="round" stroke-linejoin="round"/>
<path d="M1058.87 49.9121H1083.74C1083.74 49.9121 1093.24 77.511 1078.22 84.8114H1064.45C1053.41 79.4103 1055.61 63.0884 1057.56 54.8384H1073" stroke="#F4A519" stroke-miterlimit="10" stroke-linecap="round" stroke-linejoin="round"/>
<path d="M1061.3 70.2699C1060.59 66.9462 1060.83 63.2663 1061.36 60.002" stroke="#F4A519" stroke-miterlimit="10" stroke-linecap="round" stroke-linejoin="round"/>
<path d="M1065.64 79.3513C1063.98 77.9862 1062.97 76.3243 1062.37 74.4844" stroke="#F4A519" stroke-miterlimit="10" stroke-linecap="round" stroke-linejoin="round"/>
<path d="M1085.05 54.7207H1094.3C1094.3 54.7207 1098.7 77.0372 1084.69 77.9275" stroke="#F4A519" stroke-miterlimit="10" stroke-linecap="round" stroke-linejoin="round"/>
<path d="M1058.87 49.9121C1058.87 49.9121 1056.5 42.6711 1061.13 41.3653C1065.76 40.0596 1068.07 42.4337 1068.72 45.6387C1068.72 45.6387 1070.5 42.3743 1073.59 43.4427C1076.14 44.3329 1075.9 47.0632 1075.9 47.0632C1075.9 47.0632 1077.57 43.7988 1081.72 44.9265C1084.15 45.6387 1084.21 48.2502 1083.74 49.9121" stroke="#F4A519" stroke-miterlimit="10" stroke-linecap="round" stroke-linejoin="round"/>
</g>
<g opacity="0.2">
<path d="M1254.31 89.8496L1255.97 122.909C1255.97 122.909 1259.53 124.215 1265.41 124.333C1270.22 124.452 1274.85 122.909 1274.85 122.909L1276.33 94.6572H1266.83" stroke="#F4A519" stroke-miterlimit="10" stroke-linecap="round" stroke-linejoin="round"/>
<path d="M1255.44 90.0869C1251.94 90.0869 1251.64 84.389 1257.46 84.389C1263.63 84.389 1261.08 87.1192 1266.54 84.1516C1266.54 84.1516 1269.39 83.4987 1270.63 85.8135C1270.63 85.8135 1271.76 80.5311 1276.69 83.0833C1281.67 85.5761 1276.92 90.7397 1276.69 90.8584H1264.52C1264.52 90.8584 1265.17 93.7074 1261.91 96.0221C1261.91 96.0221 1264.7 105.519 1258.88 105.578L1258.17 90.1462H1255.44V90.0869Z" stroke="#F4A519" stroke-miterlimit="10" stroke-linecap="round" stroke-linejoin="round"/>
<path d="M1258.88 109.436L1259.18 116.795" stroke="#F4A519" stroke-miterlimit="10" stroke-linecap="round" stroke-linejoin="round"/>
<path d="M1208.08 49.0762H1209.8C1211.82 49.0762 1213.42 50.6787 1213.42 52.6967V67.8315C1213.42 69.8495 1211.82 71.4521 1209.8 71.4521H1208.08" stroke="#F4A519" stroke-miterlimit="10" stroke-linecap="round" stroke-linejoin="round"/>
<path d="M1188.25 37.502H1208.02V76.9713C1208.02 76.9713 1203.45 79.4048 1197.63 79.4641C1192.59 79.5828 1188.19 76.9713 1188.19 76.9713V44.9804H1207.96" stroke="#F4A519" stroke-miterlimit="10" stroke-linecap="round" stroke-linejoin="round"/>
<path d="M1193.89 49.4316V64.4478" stroke="#F4A519" stroke-miterlimit="10" stroke-linecap="round" stroke-linejoin="round"/>
<path d="M1193.89 67.832V71.1558" stroke="#F4A519" stroke-miterlimit="10" stroke-linecap="round" stroke-linejoin="round"/>
<path d="M1274.25 9.13086C1274.25 9.13086 1277.22 26.4024 1271.17 35.1272C1266.24 42.2495 1272.95 45.8107 1272.83 51.5679H1256.21C1256.09 45.87 1262.8 42.3089 1257.87 35.1272C1251.88 26.3431 1254.79 9.13086 1254.79 9.13086H1274.25Z" stroke="#F4A519" stroke-miterlimit="10" stroke-linecap="round" stroke-linejoin="round"/>
<path d="M1258.88 13.7598C1258.88 13.7598 1258.53 27.1141 1260.9 31.5062" stroke="#F4A519" stroke-miterlimit="10" stroke-linecap="round" stroke-linejoin="round"/>
<path d="M1272.24 48.3027H1261.08" stroke="#F4A519" stroke-miterlimit="10" stroke-linecap="round" stroke-linejoin="round"/>
<path d="M1402.25 81.1309C1402.25 81.1309 1405.22 98.4024 1399.17 107.127C1394.24 114.25 1400.95 117.811 1400.83 123.568H1384.21C1384.09 117.87 1390.8 114.309 1385.87 107.127C1379.88 98.3431 1382.79 81.1309 1382.79 81.1309H1402.25Z" stroke="#F4A519" stroke-miterlimit="10" stroke-linecap="round" stroke-linejoin="round"/>
<path d="M1386.88 85.7598C1386.88 85.7598 1386.53 99.1141 1388.9 103.506" stroke="#F4A519" stroke-miterlimit="10" stroke-linecap="round" stroke-linejoin="round"/>
<path d="M1400.24 120.303H1389.08" stroke="#F4A519" stroke-miterlimit="10" stroke-linecap="round" stroke-linejoin="round"/>
<path d="M1166.17 161.666C1166.17 161.666 1169.14 178.938 1163.09 187.662C1158.16 194.785 1164.87 198.346 1164.75 204.103H1148.13C1148.01 198.405 1154.72 194.844 1149.79 187.662C1143.8 178.878 1146.71 161.666 1146.71 161.666H1166.17Z" stroke="#F4A519" stroke-miterlimit="10" stroke-linecap="round" stroke-linejoin="round"/>
<path d="M1150.8 166.355C1150.8 166.355 1150.44 179.71 1152.82 184.102" stroke="#F4A519" stroke-miterlimit="10" stroke-linecap="round" stroke-linejoin="round"/>
<path d="M1164.15 200.838H1153" stroke="#F4A519" stroke-miterlimit="10" stroke-linecap="round" stroke-linejoin="round"/>
<path d="M1195.61 118.102H1220.48C1220.48 118.102 1229.98 145.7 1214.96 153.001H1201.19C1190.15 147.6 1192.35 131.278 1194.31 123.028H1209.74" stroke="#F4A519" stroke-miterlimit="10" stroke-linecap="round" stroke-linejoin="round"/>
<path d="M1198.1 138.459C1197.39 135.136 1197.63 131.456 1198.16 128.191" stroke="#F4A519" stroke-miterlimit="10" stroke-linecap="round" stroke-linejoin="round"/>
<path d="M1202.44 147.599C1200.78 146.234 1199.77 144.572 1199.17 142.732" stroke="#F4A519" stroke-miterlimit="10" stroke-linecap="round" stroke-linejoin="round"/>
<path d="M1221.85 122.969H1231.11C1231.11 122.969 1235.5 145.285 1221.49 146.176" stroke="#F4A519" stroke-miterlimit="10" stroke-linecap="round" stroke-linejoin="round"/>
<path d="M1195.61 118.102C1195.61 118.102 1193.24 110.861 1197.87 109.555C1202.5 108.249 1204.81 110.623 1205.46 113.828C1205.46 113.828 1207.24 110.564 1210.33 111.632C1212.88 112.522 1212.65 115.253 1212.65 115.253C1212.65 115.253 1214.31 111.988 1218.46 113.116C1220.84 113.828 1220.96 116.44 1220.48 118.102" stroke="#F4A519" stroke-miterlimit="10" stroke-linecap="round" stroke-linejoin="round"/>
<path d="M1385.84 22.8418H1387.56C1389.58 22.8418 1391.18 24.4443 1391.18 26.4623V41.5972C1391.18 43.6152 1389.58 45.2177 1387.56 45.2177H1385.84" stroke="#F4A519" stroke-miterlimit="10" stroke-linecap="round" stroke-linejoin="round"/>
<path d="M1366.01 11.2676H1385.84V50.737C1385.84 50.737 1381.27 53.1704 1375.45 53.2298C1370.4 53.3485 1366.01 50.737 1366.01 50.737V18.746H1385.84" stroke="#F4A519" stroke-miterlimit="10" stroke-linecap="round" stroke-linejoin="round"/>
<path d="M1371.65 23.1973V38.2134" stroke="#F4A519" stroke-miterlimit="10" stroke-linecap="round" stroke-linejoin="round"/>
<path d="M1371.65 41.5371V44.8609" stroke="#F4A519" stroke-miterlimit="10" stroke-linecap="round" stroke-linejoin="round"/>
<path d="M1494.01 83.2676H1513.84V122.737C1513.84 122.737 1509.27 125.17 1503.45 125.23C1498.4 125.348 1494.01 122.737 1494.01 122.737V90.746H1513.84" stroke="#F4A519" stroke-miterlimit="10" stroke-linecap="round" stroke-linejoin="round"/>
<path d="M1499.65 95.1973V110.213" stroke="#F4A519" stroke-miterlimit="10" stroke-linecap="round" stroke-linejoin="round"/>
<path d="M1499.65 113.537V116.861" stroke="#F4A519" stroke-miterlimit="10" stroke-linecap="round" stroke-linejoin="round"/>
<path d="M1327.79 59.4609C1327.79 59.4609 1338.59 78.2757 1324.58 88.8998C1319.01 93.1731 1331.29 98.7523 1329.45 101.661C1328.98 102.432 1311.88 102.432 1311.35 101.661C1309.39 98.871 1321.85 93.1731 1316.22 88.8998C1302.21 78.2757 1313.01 59.4609 1313.01 59.4609H1327.79Z" stroke="#F4A519" stroke-miterlimit="10" stroke-linecap="round" stroke-linejoin="round"/>
<path d="M1313.66 69.9648C1313.66 69.9648 1312.18 77.74 1318.71 84.0907" stroke="#F4A519" stroke-miterlimit="10" stroke-linecap="round" stroke-linejoin="round"/>
<path d="M1316.87 99.0488H1328.68" stroke="#F4A519" stroke-miterlimit="10" stroke-linecap="round" stroke-linejoin="round"/>
<path d="M1455.79 131.461C1455.79 131.461 1466.59 150.276 1452.58 160.9C1447.01 165.173 1459.29 170.752 1457.45 173.661C1456.98 174.432 1439.88 174.432 1439.35 173.661C1437.39 170.871 1449.85 165.173 1444.22 160.9C1430.21 150.276 1441.01 131.461 1441.01 131.461H1455.79Z" stroke="#F4A519" stroke-miterlimit="10" stroke-linecap="round" stroke-linejoin="round"/>
<path d="M1441.66 141.965C1441.66 141.965 1440.18 149.74 1446.71 156.091" stroke="#F4A519" stroke-miterlimit="10" stroke-linecap="round" stroke-linejoin="round"/>
<path d="M1444.87 171.049H1456.68" stroke="#F4A519" stroke-miterlimit="10" stroke-linecap="round" stroke-linejoin="round"/>
<path d="M1303.87 -22.0879H1328.74C1328.74 -22.0879 1338.24 5.51101 1323.22 12.8114H1309.45C1298.41 7.41029 1300.61 -8.91164 1302.56 -17.1616H1318" stroke="#F4A519" stroke-miterlimit="10" stroke-linecap="round" stroke-linejoin="round"/>
<path d="M1310.64 7.35128C1308.98 5.98617 1307.97 4.3243 1307.37 2.48438" stroke="#F4A519" stroke-miterlimit="10" stroke-linecap="round" stroke-linejoin="round"/>
<path d="M1330.05 -17.2793H1339.3C1339.3 -17.2793 1343.7 5.03723 1329.69 5.92752" stroke="#F4A519" stroke-miterlimit="10" stroke-linecap="round" stroke-linejoin="round"/>
<path d="M1431.87 49.9121H1456.74C1456.74 49.9121 1466.24 77.511 1451.22 84.8114H1437.45C1426.41 79.4103 1428.61 63.0884 1430.56 54.8384H1446" stroke="#F4A519" stroke-miterlimit="10" stroke-linecap="round" stroke-linejoin="round"/>
<path d="M1434.3 70.2699C1433.59 66.9462 1433.83 63.2663 1434.36 60.002" stroke="#F4A519" stroke-miterlimit="10" stroke-linecap="round" stroke-linejoin="round"/>
<path d="M1438.64 79.3513C1436.98 77.9862 1435.97 76.3243 1435.37 74.4844" stroke="#F4A519" stroke-miterlimit="10" stroke-linecap="round" stroke-linejoin="round"/>
<path d="M1458.05 54.7207H1467.3C1467.3 54.7207 1471.7 77.0372 1457.69 77.9275" stroke="#F4A519" stroke-miterlimit="10" stroke-linecap="round" stroke-linejoin="round"/>
<path d="M1431.87 49.9121C1431.87 49.9121 1429.5 42.6711 1434.13 41.3653C1438.76 40.0596 1441.07 42.4337 1441.72 45.6387C1441.72 45.6387 1443.5 42.3743 1446.59 43.4427C1449.14 44.3329 1448.9 47.0632 1448.9 47.0632C1448.9 47.0632 1450.57 43.7988 1454.72 44.9265C1457.15 45.6387 1457.21 48.2502 1456.74 49.9121" stroke="#F4A519" stroke-miterlimit="10" stroke-linecap="round" stroke-linejoin="round"/>
</g>
</svg>
